<svg width="146" height="274" viewBox="0 0 146 274" fill="none" xmlns="http://www.w3.org/2000/svg">
<path d="M101.814 261.56C96.6165 261.267 84.5369 262.221 82.6406 263.322C77.7062 265.04 73.0006 269.701 73 272.298C72.9998 273.028 73.3711 273.595 74.213 273.889C76.1092 274.549 78.2648 271.362 80.9551 269.926C97.0582 261.332 114.508 266.804 123.725 260.019C129.622 255.68 134.991 243.971 142.266 249.673C142.949 250.208 142.911 250.966 142.688 251.434C142.477 251.874 141.833 252.224 141.213 252.094C140.159 251.874 140.541 249.978 140.159 250.113C139.527 251.214 139.612 251.954 139.738 252.314C140.581 254.736 144.584 254.075 145.598 252.314C146.966 249.939 144.611 247.831 142.016 247.251C137.926 246.336 134.99 247.847 132.591 249.867C130.66 251.493 129.076 253.449 127.518 254.736C119.391 261.445 107.011 261.854 101.814 261.56Z" fill="#D7CDB7"/>
<path d="M63.3594 263.322C61.4631 262.221 49.3835 261.267 44.1865 261.56C38.9894 261.854 26.6086 261.445 18.4822 254.736C16.9235 253.449 15.3399 251.493 13.4091 249.867C11.0097 247.847 8.07409 246.336 3.98364 247.251C1.38899 247.831 -0.966038 249.939 0.402008 252.314C1.41621 254.075 5.41933 254.736 6.26209 252.314C6.38764 251.954 6.47278 251.214 5.84071 250.113C5.45851 249.978 5.84071 251.874 4.78725 252.094C4.16746 252.224 3.52311 251.874 3.31242 251.434C3.08858 250.966 3.05088 250.208 3.7338 249.673C11.0092 243.971 16.378 255.68 22.2746 260.019C31.4924 266.804 48.9418 261.332 65.0449 269.926C67.7352 271.362 69.8908 274.549 71.787 273.889C72.6289 273.595 73.0002 273.028 73 272.298C72.9994 269.701 68.2938 265.04 63.3594 263.322Z" fill="#D7CDB7"/>
<path d="M82.6406 214.634C84.5369 215.734 96.6165 216.688 101.814 216.395C107.011 216.101 119.391 216.51 127.518 223.219C128.766 224.25 130.031 225.71 131.477 227.085C134.079 229.562 137.271 231.766 142.016 230.704C144.611 230.124 146.966 228.016 145.598 225.641C144.584 223.88 140.581 223.219 139.738 225.641C139.612 226.001 139.527 226.741 140.159 227.842C140.541 227.977 140.159 226.081 141.213 225.861C141.833 225.731 142.477 226.081 142.688 226.521C142.911 226.989 142.949 227.747 142.266 228.282C134.991 233.984 129.622 222.275 123.725 217.936C114.508 211.152 97.0582 216.623 80.9551 208.029C78.2648 206.593 76.1092 203.406 74.213 204.066C73.3711 204.36 72.9998 204.927 73 205.657C73.0006 208.254 77.7062 212.915 82.6406 214.634Z" fill="#D7CDB7"/>
<path d="M44.1865 216.395C49.3835 216.688 61.4631 215.734 63.3594 214.634C68.2938 212.915 72.9994 208.254 73 205.657C73.0002 204.927 72.6289 204.36 71.787 204.066C69.8908 203.406 67.7352 206.593 65.0449 208.029C48.9418 216.623 31.4924 211.152 22.2746 217.936C16.378 222.275 11.0092 233.984 3.7338 228.282C3.05088 227.747 3.08858 226.989 3.31242 226.521C3.52311 226.081 4.16746 225.731 4.78725 225.861C5.84071 226.081 5.45851 227.977 5.84071 227.842C6.47278 226.741 6.38764 226.001 6.26209 225.641C5.41933 223.219 1.41621 223.88 0.402008 225.641C-0.966038 228.016 1.38899 230.124 3.98364 230.704C8.7293 231.766 11.9205 229.562 14.5234 227.086C15.9694 225.71 17.2338 224.25 18.4822 223.219C26.6086 216.51 38.9894 216.101 44.1865 216.395Z" fill="#D7CDB7"/>
<path d="M44.1865 261.56C49.3835 261.267 61.4631 262.221 63.3594 263.322C68.2938 265.04 72.9994 269.701 73 272.298C73.0006 269.701 77.7062 265.04 82.6406 263.322C84.5369 262.221 96.6165 261.267 101.814 261.56C107.011 261.854 119.391 261.445 127.518 254.736C129.076 253.449 130.66 251.493 132.591 249.867C133.019 249.153 135.331 245.019 135.331 238.978C135.331 232.872 132.025 227.873 131.477 227.085C130.031 225.71 128.766 224.25 127.518 223.219C119.391 216.51 107.011 216.101 101.814 216.395C96.6165 216.688 84.5369 215.734 82.6406 214.634C77.7062 212.915 73.0006 208.254 73 205.657C72.9994 208.254 68.2938 212.915 63.3594 214.634C61.4631 215.734 49.3835 216.688 44.1865 216.395C38.9894 216.101 26.6086 216.51 18.4822 223.219C17.2338 224.25 15.9694 225.71 14.5234 227.086C13.975 227.873 10.6692 232.872 10.6692 238.978C10.6693 245.019 12.9808 249.153 13.4091 249.867C15.3399 251.493 16.9235 253.449 18.4822 254.736C26.6086 261.445 38.9894 261.854 44.1865 261.56Z" fill="#453048"/>
<path d="M52.96 234.078H52.88C52.68 234.638 52.44 235.304 52.16 236.078C51.8933 236.851 51.6133 237.651 51.32 238.478C51.04 239.291 50.7733 240.051 50.52 240.758L50.42 241.058C50.34 241.298 50.24 241.598 50.12 241.958C50 242.318 49.8733 242.698 49.74 243.098C49.6067 243.484 49.48 243.851 49.36 244.198C49.24 244.531 49.1467 244.804 49.08 245.018C48.9867 245.058 48.8867 245.084 48.78 245.098C48.6867 245.124 48.5667 245.138 48.42 245.138C48.2067 245.138 48.0133 245.084 47.84 244.978C47.68 244.858 47.6 244.671 47.6 244.418C47.6 244.298 47.62 244.178 47.66 244.058C47.7 243.924 47.7467 243.784 47.8 243.638C47.96 243.184 48.1533 242.631 48.38 241.978C48.62 241.324 48.88 240.611 49.16 239.838C49.44 239.064 49.7333 238.271 50.04 237.458C50.3467 236.644 50.6467 235.851 50.94 235.078C51.2333 234.304 51.5067 233.598 51.76 232.958C51.8667 232.904 52.0267 232.851 52.24 232.798C52.4533 232.744 52.6733 232.718 52.9 232.718C53.1667 232.718 53.42 232.758 53.66 232.838C53.9133 232.918 54.0733 233.051 54.14 233.238C54.46 234.011 54.8 234.891 55.16 235.878C55.5333 236.851 55.9067 237.871 56.28 238.938C56.6533 239.991 57.0067 241.018 57.34 242.018C57.6867 243.018 57.9933 243.924 58.26 244.738C58.1667 244.858 58.04 244.951 57.88 245.018C57.7333 245.098 57.5667 245.138 57.38 245.138C57.1267 245.138 56.9333 245.084 56.8 244.978C56.6667 244.858 56.5533 244.664 56.46 244.398L55.36 241.138L55.2 240.578C54.9333 239.764 54.6533 238.944 54.36 238.118C54.08 237.291 53.8133 236.524 53.56 235.818C53.32 235.111 53.12 234.531 52.96 234.078ZM49.64 241.738L50.16 240.398H55.74L56.06 241.738H49.64ZM64.4559 235.478C65.2826 235.478 66.0226 235.658 66.6759 236.018C67.3426 236.364 67.8626 236.898 68.2359 237.618C68.6226 238.338 68.8159 239.251 68.8159 240.358C68.8159 241.478 68.6159 242.398 68.2159 243.118C67.8293 243.838 67.2893 244.371 66.5959 244.718C65.9026 245.064 65.0959 245.238 64.1759 245.238C63.5226 245.238 62.9293 245.158 62.3959 244.998C61.8759 244.838 61.4493 244.664 61.1159 244.478C60.8359 244.291 60.6426 244.118 60.5359 243.958C60.4293 243.798 60.3759 243.578 60.3759 243.298V236.638H61.9759V243.298C62.1759 243.444 62.4693 243.584 62.8559 243.718C63.2426 243.851 63.6826 243.918 64.1759 243.918C65.0826 243.918 65.8093 243.631 66.3559 243.058C66.9159 242.484 67.1959 241.584 67.1959 240.358C67.1959 239.118 66.9159 238.218 66.3559 237.658C65.7959 237.084 65.0826 236.798 64.2159 236.798C63.6826 236.798 63.2093 236.904 62.7959 237.118C62.3826 237.318 62.0426 237.551 61.7759 237.818L61.4759 236.518C61.7693 236.291 62.1626 236.064 62.6559 235.838C63.1493 235.598 63.7493 235.478 64.4559 235.478ZM61.9759 236.958H60.3759V232.018C60.4426 231.991 60.5426 231.964 60.6759 231.938C60.8226 231.898 60.9759 231.878 61.1359 231.878C61.4159 231.878 61.6226 231.938 61.7559 232.058C61.9026 232.164 61.9759 232.344 61.9759 232.598V236.958ZM79.8925 240.358C79.8925 241.344 79.7058 242.204 79.3325 242.938C78.9592 243.671 78.4325 244.238 77.7525 244.638C77.0725 245.038 76.2725 245.238 75.3525 245.238C74.4325 245.238 73.6258 245.038 72.9325 244.638C72.2525 244.238 71.7258 243.671 71.3525 242.938C70.9792 242.204 70.7925 241.344 70.7925 240.358C70.7925 239.358 70.9792 238.498 71.3525 237.778C71.7392 237.044 72.2725 236.478 72.9525 236.078C73.6458 235.678 74.4458 235.478 75.3525 235.478C76.2592 235.478 77.0525 235.678 77.7325 236.078C78.4125 236.478 78.9392 237.044 79.3125 237.778C79.6992 238.498 79.8925 239.358 79.8925 240.358ZM75.3525 236.798C74.4592 236.798 73.7458 237.118 73.2125 237.758C72.6925 238.384 72.4325 239.251 72.4325 240.358C72.4325 241.478 72.6858 242.351 73.1925 242.978C73.7125 243.604 74.4325 243.918 75.3525 243.918C76.2592 243.918 76.9658 243.604 77.4725 242.978C77.9925 242.338 78.2525 241.464 78.2525 240.358C78.2525 239.251 77.9925 238.384 77.4725 237.758C76.9658 237.118 76.2592 236.798 75.3525 236.798ZM82.3672 241.598V239.778H83.9672V241.518C83.9672 242.371 84.1939 242.984 84.6472 243.358C85.1005 243.731 85.7272 243.918 86.5272 243.918C87.0605 243.918 87.5139 243.864 87.8872 243.758C88.2605 243.638 88.5539 243.518 88.7672 243.398V239.778H90.3672V243.338C90.3672 243.618 90.3272 243.844 90.2472 244.018C90.1805 244.178 90.0072 244.338 89.7272 244.498C89.4339 244.671 89.0139 244.838 88.4672 244.998C87.9205 245.158 87.2672 245.238 86.5072 245.238C85.6272 245.238 84.8739 245.111 84.2472 244.858C83.6339 244.591 83.1672 244.191 82.8472 243.658C82.5272 243.111 82.3672 242.424 82.3672 241.598ZM90.3672 240.818H88.7672V235.778C88.8339 235.751 88.9339 235.724 89.0672 235.698C89.2139 235.658 89.3605 235.638 89.5072 235.638C89.8005 235.638 90.0139 235.698 90.1472 235.818C90.2939 235.924 90.3672 236.111 90.3672 236.378V240.818ZM83.9672 240.818H82.3672V235.778C82.4339 235.751 82.5339 235.724 82.6672 235.698C82.8139 235.658 82.9672 235.638 83.1272 235.638C83.4072 235.638 83.6139 235.698 83.7472 235.818C83.8939 235.924 83.9672 236.111 83.9672 236.378V240.818ZM93.3833 239.698H94.9833V242.458C94.9833 242.991 95.1366 243.371 95.4433 243.598C95.7499 243.811 96.1699 243.918 96.7033 243.918C96.9299 243.918 97.1833 243.878 97.4633 243.798C97.7433 243.718 97.9766 243.624 98.1633 243.518C98.2433 243.598 98.3166 243.698 98.3833 243.818C98.4499 243.938 98.4833 244.078 98.4833 244.238C98.4833 244.531 98.3099 244.771 97.9633 244.958C97.6166 245.144 97.1366 245.238 96.5233 245.238C95.5899 245.238 94.8299 245.031 94.2433 244.618C93.6699 244.204 93.3833 243.518 93.3833 242.558V239.698ZM94.2033 237.258V235.938H98.2633C98.3033 235.991 98.3433 236.078 98.3833 236.198C98.4233 236.318 98.4433 236.444 98.4433 236.578C98.4433 236.791 98.3899 236.958 98.2833 237.078C98.1766 237.198 98.0299 237.258 97.8433 237.258H94.2033ZM94.9833 240.298H93.3833V233.058C93.4499 233.031 93.5499 233.004 93.6833 232.978C93.8299 232.938 93.9833 232.918 94.1433 232.918C94.4233 232.918 94.6299 232.978 94.7633 233.098C94.9099 233.204 94.9833 233.384 94.9833 233.638V240.298Z" fill="#EDE4D0"/>
<path d="M96.8018 2.38032C97.1122 1.03495 98.4829 -0.0305314 99.8633 0.000483697C101.244 0.0314987 102.111 1.14726 101.801 2.49263L99.3012 2.43648L96.8018 2.38032ZM75.9812 203.317C77.0422 203.991 77.1435 205.482 76.2076 206.646C75.2716 207.811 73.6527 208.209 72.5917 207.534L74.2864 205.426L75.9812 203.317ZM99.3012 2.43648L101.801 2.49263C99.3832 12.9692 102.321 21.705 107.299 29.937C109.791 34.0569 112.753 37.9854 115.753 41.9242C118.733 45.8344 121.763 49.77 124.272 53.7934C129.283 61.8271 132.514 70.6594 129.015 81.267C125.544 91.7894 115.677 103.364 96.3363 117.166L95.077 115.322L93.8177 113.477C112.769 99.953 121.274 89.4001 124.146 80.6903C126.991 72.0657 124.537 64.5615 119.728 56.8514C117.328 53.003 114.414 49.2148 111.402 45.2618C108.412 41.3372 105.336 37.2627 102.729 32.9521C97.5101 24.3231 94.0081 14.4878 96.8018 2.38032L99.3012 2.43648ZM95.077 115.322L96.3363 117.166C77.4685 130.631 67.0339 142.715 61.7939 153.13C56.5798 163.493 56.3891 172.44 58.4493 179.83C60.5236 187.27 64.8913 193.152 68.8022 197.202C70.7499 199.219 72.564 200.761 73.8847 201.794C74.5445 202.31 75.0795 202.697 75.4444 202.953C75.6268 203.08 75.7666 203.175 75.858 203.236C75.9037 203.266 75.9372 203.288 75.958 203.302C75.9684 203.309 75.9756 203.313 75.9795 203.316C75.9814 203.317 75.9825 203.318 75.9828 203.318C75.983 203.318 75.9825 203.318 75.9826 203.318C75.982 203.317 75.9812 203.317 74.2864 205.426C72.5917 207.534 72.5905 207.534 72.589 207.533C72.5882 207.532 72.5865 207.531 72.585 207.53C72.5819 207.528 72.5779 207.526 72.5731 207.523C72.5636 207.516 72.5507 207.508 72.5346 207.498C72.5023 207.477 72.457 207.447 72.3995 207.409C72.2844 207.332 72.1202 207.221 71.9126 207.075C71.4976 206.785 70.9087 206.358 70.1925 205.798C68.7611 204.678 66.8146 203.023 64.7282 200.863C60.5709 196.557 55.7766 190.161 53.4753 181.907C51.1601 173.603 51.3805 163.439 57.2444 151.784C63.0826 140.181 74.393 127.339 93.8177 113.477L95.077 115.322Z" fill="#D7CDB7"/>
</svg>
