<svg width="146" height="274" viewBox="0 0 146 274" fill="none" xmlns="http://www.w3.org/2000/svg">
<path d="M101.814 261.56C96.6165 261.267 84.5369 262.221 82.6406 263.322C77.7062 265.04 73.0006 269.701 73 272.298C72.9998 273.028 73.3711 273.595 74.213 273.889C76.1092 274.549 78.2648 271.362 80.9551 269.926C97.0582 261.332 114.508 266.804 123.725 260.019C129.622 255.68 134.991 243.971 142.266 249.673C142.949 250.208 142.911 250.966 142.688 251.434C142.477 251.874 141.833 252.224 141.213 252.094C140.159 251.874 140.541 249.978 140.159 250.113C139.527 251.214 139.612 251.954 139.738 252.314C140.581 254.736 144.584 254.075 145.598 252.314C146.966 249.939 144.611 247.831 142.016 247.251C137.926 246.336 134.99 247.847 132.591 249.867C130.66 251.493 129.076 253.449 127.518 254.736C119.391 261.445 107.011 261.854 101.814 261.56Z" fill="#D7CDB7"/>
<path d="M63.3594 263.322C61.4631 262.221 49.3835 261.267 44.1865 261.56C38.9894 261.854 26.6086 261.445 18.4822 254.736C16.9235 253.449 15.3399 251.493 13.4091 249.867C11.0097 247.847 8.07409 246.336 3.98364 247.251C1.38899 247.831 -0.966038 249.939 0.402008 252.314C1.41621 254.075 5.41933 254.736 6.26209 252.314C6.38764 251.954 6.47278 251.214 5.84071 250.113C5.45851 249.978 5.84071 251.874 4.78725 252.094C4.16746 252.224 3.52311 251.874 3.31242 251.434C3.08858 250.966 3.05088 250.208 3.7338 249.673C11.0092 243.971 16.378 255.68 22.2746 260.019C31.4924 266.804 48.9418 261.332 65.0449 269.926C67.7352 271.362 69.8908 274.549 71.787 273.889C72.6289 273.595 73.0002 273.028 73 272.298C72.9994 269.701 68.2938 265.04 63.3594 263.322Z" fill="#D7CDB7"/>
<path d="M82.6406 214.634C84.5369 215.734 96.6165 216.688 101.814 216.395C107.011 216.101 119.391 216.51 127.518 223.219C128.766 224.25 130.031 225.71 131.477 227.085C134.079 229.562 137.271 231.766 142.016 230.704C144.611 230.124 146.966 228.016 145.598 225.641C144.584 223.88 140.581 223.219 139.738 225.641C139.612 226.001 139.527 226.741 140.159 227.842C140.541 227.977 140.159 226.081 141.213 225.861C141.833 225.731 142.477 226.081 142.688 226.521C142.911 226.989 142.949 227.747 142.266 228.282C134.991 233.984 129.622 222.275 123.725 217.936C114.508 211.152 97.0582 216.623 80.9551 208.029C78.2648 206.593 76.1092 203.406 74.213 204.066C73.3711 204.36 72.9998 204.927 73 205.657C73.0006 208.254 77.7062 212.915 82.6406 214.634Z" fill="#D7CDB7"/>
<path d="M44.1865 216.395C49.3835 216.688 61.4631 215.734 63.3594 214.634C68.2938 212.915 72.9994 208.254 73 205.657C73.0002 204.927 72.6289 204.36 71.787 204.066C69.8908 203.406 67.7352 206.593 65.0449 208.029C48.9418 216.623 31.4924 211.152 22.2746 217.936C16.378 222.275 11.0092 233.984 3.7338 228.282C3.05088 227.747 3.08858 226.989 3.31242 226.521C3.52311 226.081 4.16746 225.731 4.78725 225.861C5.84071 226.081 5.45851 227.977 5.84071 227.842C6.47278 226.741 6.38764 226.001 6.26209 225.641C5.41933 223.219 1.41621 223.88 0.402008 225.641C-0.966038 228.016 1.38899 230.124 3.98364 230.704C8.7293 231.766 11.9205 229.562 14.5234 227.086C15.9694 225.71 17.2338 224.25 18.4822 223.219C26.6086 216.51 38.9894 216.101 44.1865 216.395Z" fill="#D7CDB7"/>
<path d="M44.1865 261.56C49.3835 261.267 61.4631 262.221 63.3594 263.322C68.2938 265.04 72.9994 269.701 73 272.298C73.0006 269.701 77.7062 265.04 82.6406 263.322C84.5369 262.221 96.6165 261.267 101.814 261.56C107.011 261.854 119.391 261.445 127.518 254.736C129.076 253.449 130.66 251.493 132.591 249.867C133.019 249.153 135.331 245.019 135.331 238.978C135.331 232.872 132.025 227.873 131.477 227.085C130.031 225.71 128.766 224.25 127.518 223.219C119.391 216.51 107.011 216.101 101.814 216.395C96.6165 216.688 84.5369 215.734 82.6406 214.634C77.7062 212.915 73.0006 208.254 73 205.657C72.9994 208.254 68.2938 212.915 63.3594 214.634C61.4631 215.734 49.3835 216.688 44.1865 216.395C38.9894 216.101 26.6086 216.51 18.4822 223.219C17.2338 224.25 15.9694 225.71 14.5234 227.086C13.975 227.873 10.6692 232.872 10.6692 238.978C10.6693 245.019 12.9808 249.153 13.4091 249.867C15.3399 251.493 16.9235 253.449 18.4822 254.736C26.6086 261.445 38.9894 261.854 44.1865 261.56Z" fill="#453048"/>
<path d="M37.96 234.078H37.88C37.68 234.638 37.44 235.304 37.16 236.078C36.8933 236.851 36.6133 237.651 36.32 238.478C36.04 239.291 35.7733 240.051 35.52 240.758L35.42 241.058C35.34 241.298 35.24 241.598 35.12 241.958C35 242.318 34.8733 242.698 34.74 243.098C34.6067 243.484 34.48 243.851 34.36 244.198C34.24 244.531 34.1467 244.804 34.08 245.018C33.9867 245.058 33.8867 245.084 33.78 245.098C33.6867 245.124 33.5667 245.138 33.42 245.138C33.2067 245.138 33.0133 245.084 32.84 244.978C32.68 244.858 32.6 244.671 32.6 244.418C32.6 244.298 32.62 244.178 32.66 244.058C32.7 243.924 32.7467 243.784 32.8 243.638C32.96 243.184 33.1533 242.631 33.38 241.978C33.62 241.324 33.88 240.611 34.16 239.838C34.44 239.064 34.7333 238.271 35.04 237.458C35.3467 236.644 35.6467 235.851 35.94 235.078C36.2333 234.304 36.5067 233.598 36.76 232.958C36.8667 232.904 37.0267 232.851 37.24 232.798C37.4533 232.744 37.6733 232.718 37.9 232.718C38.1667 232.718 38.42 232.758 38.66 232.838C38.9133 232.918 39.0733 233.051 39.14 233.238C39.46 234.011 39.8 234.891 40.16 235.878C40.5333 236.851 40.9067 237.871 41.28 238.938C41.6533 239.991 42.0067 241.018 42.34 242.018C42.6867 243.018 42.9933 243.924 43.26 244.738C43.1667 244.858 43.04 244.951 42.88 245.018C42.7333 245.098 42.5667 245.138 42.38 245.138C42.1267 245.138 41.9333 245.084 41.8 244.978C41.6667 244.858 41.5533 244.664 41.46 244.398L40.36 241.138L40.2 240.578C39.9333 239.764 39.6533 238.944 39.36 238.118C39.08 237.291 38.8133 236.524 38.56 235.818C38.32 235.111 38.12 234.531 37.96 234.078ZM34.64 241.738L35.16 240.398H40.74L41.06 241.738H34.64ZM49.4559 235.478C50.2826 235.478 51.0226 235.658 51.6759 236.018C52.3426 236.364 52.8626 236.898 53.2359 237.618C53.6226 238.338 53.8159 239.251 53.8159 240.358C53.8159 241.478 53.6159 242.398 53.2159 243.118C52.8293 243.838 52.2893 244.371 51.5959 244.718C50.9026 245.064 50.0959 245.238 49.1759 245.238C48.5226 245.238 47.9293 245.158 47.3959 244.998C46.8759 244.838 46.4493 244.664 46.1159 244.478C45.8359 244.291 45.6426 244.118 45.5359 243.958C45.4293 243.798 45.3759 243.578 45.3759 243.298V236.638H46.9759V243.298C47.1759 243.444 47.4693 243.584 47.8559 243.718C48.2426 243.851 48.6826 243.918 49.1759 243.918C50.0826 243.918 50.8093 243.631 51.3559 243.058C51.9159 242.484 52.1959 241.584 52.1959 240.358C52.1959 239.118 51.9159 238.218 51.3559 237.658C50.7959 237.084 50.0826 236.798 49.2159 236.798C48.6826 236.798 48.2093 236.904 47.7959 237.118C47.3826 237.318 47.0426 237.551 46.7759 237.818L46.4759 236.518C46.7693 236.291 47.1626 236.064 47.6559 235.838C48.1493 235.598 48.7493 235.478 49.4559 235.478ZM46.9759 236.958H45.3759V232.018C45.4426 231.991 45.5426 231.964 45.6759 231.938C45.8226 231.898 45.9759 231.878 46.1359 231.878C46.4159 231.878 46.6226 231.938 46.7559 232.058C46.9026 232.164 46.9759 232.344 46.9759 232.598V236.958ZM64.8925 240.358C64.8925 241.344 64.7058 242.204 64.3325 242.938C63.9592 243.671 63.4325 244.238 62.7525 244.638C62.0725 245.038 61.2725 245.238 60.3525 245.238C59.4325 245.238 58.6258 245.038 57.9325 244.638C57.2525 244.238 56.7258 243.671 56.3525 242.938C55.9792 242.204 55.7925 241.344 55.7925 240.358C55.7925 239.358 55.9792 238.498 56.3525 237.778C56.7392 237.044 57.2725 236.478 57.9525 236.078C58.6458 235.678 59.4458 235.478 60.3525 235.478C61.2592 235.478 62.0525 235.678 62.7325 236.078C63.4125 236.478 63.9392 237.044 64.3125 237.778C64.6992 238.498 64.8925 239.358 64.8925 240.358ZM60.3525 236.798C59.4592 236.798 58.7458 237.118 58.2125 237.758C57.6925 238.384 57.4325 239.251 57.4325 240.358C57.4325 241.478 57.6858 242.351 58.1925 242.978C58.7125 243.604 59.4325 243.918 60.3525 243.918C61.2592 243.918 61.9658 243.604 62.4725 242.978C62.9925 242.338 63.2525 241.464 63.2525 240.358C63.2525 239.251 62.9925 238.384 62.4725 237.758C61.9658 237.118 61.2592 236.798 60.3525 236.798ZM67.3672 241.598V239.778H68.9672V241.518C68.9672 242.371 69.1939 242.984 69.6472 243.358C70.1005 243.731 70.7272 243.918 71.5272 243.918C72.0605 243.918 72.5139 243.864 72.8872 243.758C73.2605 243.638 73.5539 243.518 73.7672 243.398V239.778H75.3672V243.338C75.3672 243.618 75.3272 243.844 75.2472 244.018C75.1805 244.178 75.0072 244.338 74.7272 244.498C74.4339 244.671 74.0139 244.838 73.4672 244.998C72.9205 245.158 72.2672 245.238 71.5072 245.238C70.6272 245.238 69.8739 245.111 69.2472 244.858C68.6339 244.591 68.1672 244.191 67.8472 243.658C67.5272 243.111 67.3672 242.424 67.3672 241.598ZM75.3672 240.818H73.7672V235.778C73.8339 235.751 73.9339 235.724 74.0672 235.698C74.2139 235.658 74.3605 235.638 74.5072 235.638C74.8005 235.638 75.0139 235.698 75.1472 235.818C75.2939 235.924 75.3672 236.111 75.3672 236.378V240.818ZM68.9672 240.818H67.3672V235.778C67.4339 235.751 67.5339 235.724 67.6672 235.698C67.8139 235.658 67.9672 235.638 68.1272 235.638C68.4072 235.638 68.6139 235.698 68.7472 235.818C68.8939 235.924 68.9672 236.111 68.9672 236.378V240.818ZM78.3833 239.698H79.9833V242.458C79.9833 242.991 80.1366 243.371 80.4433 243.598C80.7499 243.811 81.1699 243.918 81.7033 243.918C81.9299 243.918 82.1833 243.878 82.4633 243.798C82.7433 243.718 82.9766 243.624 83.1633 243.518C83.2433 243.598 83.3166 243.698 83.3833 243.818C83.4499 243.938 83.4833 244.078 83.4833 244.238C83.4833 244.531 83.3099 244.771 82.9633 244.958C82.6166 245.144 82.1366 245.238 81.5233 245.238C80.5899 245.238 79.8299 245.031 79.2433 244.618C78.6699 244.204 78.3833 243.518 78.3833 242.558V239.698ZM79.2033 237.258V235.938H83.2633C83.3033 235.991 83.3433 236.078 83.3833 236.198C83.4233 236.318 83.4433 236.444 83.4433 236.578C83.4433 236.791 83.3899 236.958 83.2833 237.078C83.1766 237.198 83.0299 237.258 82.8433 237.258H79.2033ZM79.9833 240.298H78.3833V233.058C78.4499 233.031 78.5499 233.004 78.6833 232.978C78.8299 232.938 78.9833 232.918 79.1433 232.918C79.4233 232.918 79.6299 232.978 79.7633 233.098C79.9099 233.204 79.9833 233.384 79.9833 233.638V240.298ZM97.0086 241.818C96.9153 241.884 96.7886 241.944 96.6286 241.998C96.4819 242.051 96.3153 242.078 96.1286 242.078C95.9153 242.078 95.7219 242.044 95.5486 241.978C95.3886 241.911 95.2753 241.804 95.2086 241.658C94.5019 240.164 93.8819 238.798 93.3486 237.558C92.8286 236.318 92.4086 235.291 92.0886 234.478H92.0086C91.9686 235.478 91.9219 236.411 91.8686 237.278C91.8286 238.144 91.7819 238.984 91.7286 239.798C91.6753 240.598 91.6219 241.424 91.5686 242.278C91.5286 243.118 91.4753 244.018 91.4086 244.978C91.3286 245.004 91.2219 245.031 91.0886 245.058C90.9686 245.084 90.8353 245.098 90.6886 245.098C90.3953 245.098 90.1886 245.038 90.0686 244.918C89.9486 244.784 89.8886 244.611 89.8886 244.398C89.8886 244.238 89.9019 243.871 89.9286 243.298C89.9686 242.711 90.0086 241.998 90.0486 241.158C90.1019 240.318 90.1619 239.424 90.2286 238.478C90.2953 237.518 90.3619 236.578 90.4286 235.658C90.5086 234.724 90.5819 233.884 90.6486 233.138C90.7553 233.044 90.9086 232.958 91.1086 232.878C91.3086 232.798 91.5353 232.758 91.7886 232.758C92.0953 232.758 92.3553 232.818 92.5686 232.938C92.7819 233.058 92.9486 233.244 93.0686 233.498C93.4153 234.178 93.7619 234.918 94.1086 235.718C94.4553 236.518 94.7953 237.318 95.1286 238.118C95.4619 238.918 95.7819 239.671 96.0886 240.378H96.1686C96.7553 238.964 97.3353 237.604 97.9086 236.298C98.4953 234.991 98.9886 233.878 99.3886 232.958C99.5086 232.891 99.6619 232.844 99.8486 232.818C100.035 232.778 100.209 232.758 100.369 232.758C100.675 232.758 100.915 232.811 101.089 232.918C101.275 233.011 101.395 233.171 101.449 233.398C101.502 233.624 101.562 234.011 101.629 234.558C101.695 235.104 101.762 235.751 101.829 236.498C101.895 237.231 101.955 238.004 102.009 238.818C102.075 239.631 102.135 240.431 102.189 241.218C102.242 242.004 102.289 242.718 102.329 243.358C102.382 243.984 102.415 244.484 102.429 244.858C102.309 244.938 102.182 244.998 102.049 245.038C101.915 245.078 101.762 245.098 101.589 245.098C101.389 245.098 101.209 245.051 101.049 244.958C100.902 244.851 100.815 244.664 100.789 244.398C100.709 243.104 100.629 241.831 100.549 240.578C100.482 239.311 100.422 238.151 100.369 237.098C100.315 236.044 100.269 235.184 100.229 234.518H100.149C99.8553 235.251 99.4553 236.198 98.9486 237.358C98.4419 238.504 97.7953 239.991 97.0086 241.818ZM105.916 241.378L105.836 240.118L111.876 239.298C111.823 238.564 111.569 237.964 111.116 237.498C110.663 237.018 110.036 236.778 109.236 236.778C108.409 236.778 107.723 237.078 107.176 237.678C106.643 238.264 106.376 239.111 106.376 240.218V240.658C106.469 241.724 106.816 242.538 107.416 243.098C108.029 243.644 108.863 243.918 109.916 243.918C110.476 243.918 110.983 243.824 111.436 243.638C111.889 243.451 112.249 243.251 112.516 243.038C112.663 243.131 112.776 243.244 112.856 243.378C112.949 243.498 112.996 243.638 112.996 243.798C112.996 244.051 112.849 244.291 112.556 244.518C112.276 244.731 111.896 244.904 111.416 245.038C110.949 245.171 110.423 245.238 109.836 245.238C108.809 245.238 107.916 245.051 107.156 244.678C106.409 244.304 105.829 243.751 105.416 243.018C105.016 242.271 104.816 241.364 104.816 240.298C104.816 239.538 104.923 238.864 105.136 238.278C105.363 237.678 105.669 237.171 106.056 236.758C106.456 236.344 106.929 236.031 107.476 235.818C108.023 235.591 108.616 235.478 109.256 235.478C110.069 235.478 110.783 235.651 111.396 235.998C112.023 236.344 112.509 236.831 112.856 237.458C113.216 238.071 113.396 238.778 113.396 239.578C113.396 239.871 113.329 240.084 113.196 240.218C113.063 240.338 112.876 240.411 112.636 240.438L105.916 241.378Z" fill="#EDE4D0"/>
<path d="M99.3012 2.43647C88.8791 47.6045 171.662 60.6692 95.077 115.322C18.492 169.974 74.2864 205.426 74.2864 205.426" stroke="#D7CDB7" stroke-width="5" stroke-linecap="round"/>
</svg>
