<svg width="146" height="274" viewBox="0 0 146 274" fill="none" xmlns="http://www.w3.org/2000/svg">
<path d="M101.814 261.539C96.6165 261.245 84.5369 262.199 82.6406 263.3C77.7062 265.019 73.0006 269.679 73 272.277C72.9998 273.007 73.3711 273.574 74.213 273.867C76.1092 274.528 78.2648 271.34 80.9551 269.904C97.0583 261.31 114.508 266.782 123.725 259.998C129.622 255.658 134.991 243.95 142.266 249.651C142.949 250.186 142.911 250.945 142.688 251.412C142.477 251.853 141.833 252.202 141.213 252.073C140.159 251.853 140.541 249.957 140.159 250.091C139.527 251.192 139.612 251.932 139.738 252.293C140.581 254.714 144.584 254.054 145.598 252.293C146.966 249.917 144.611 247.81 142.016 247.229C137.926 246.314 134.99 247.825 132.591 249.846C130.66 251.472 129.076 253.428 127.518 254.714C119.391 261.424 107.011 261.832 101.814 261.539Z" fill="#D7CDB7"/>
<path d="M63.3594 263.3C61.4631 262.199 49.3835 261.245 44.1865 261.539C38.9894 261.832 26.6086 261.424 18.4822 254.714C16.9235 253.428 15.3399 251.472 13.4091 249.846C11.0097 247.825 8.07409 246.314 3.98364 247.229C1.38899 247.81 -0.966038 249.917 0.402008 252.293C1.41621 254.054 5.41933 254.714 6.26209 252.293C6.38764 251.932 6.47278 251.192 5.84071 250.091C5.45851 249.957 5.84071 251.853 4.78725 252.073C4.16746 252.202 3.52311 251.853 3.31242 251.412C3.08858 250.945 3.05088 250.186 3.7338 249.651C11.0092 243.95 16.378 255.658 22.2746 259.998C31.4924 266.782 48.9418 261.31 65.0449 269.904C67.7352 271.34 69.8908 274.528 71.787 273.867C72.6289 273.574 73.0002 273.007 73 272.277C72.9994 269.679 68.2938 265.019 63.3594 263.3Z" fill="#D7CDB7"/>
<path d="M82.6406 214.612C84.5369 215.713 96.6165 216.667 101.814 216.373C107.011 216.08 119.391 216.488 127.518 223.198C128.766 224.228 130.031 225.688 131.477 227.064C134.079 229.54 137.271 231.744 142.016 230.683C144.611 230.102 146.966 227.995 145.598 225.619C144.584 223.858 140.581 223.198 139.738 225.619C139.612 225.98 139.527 226.72 140.159 227.821C140.541 227.955 140.159 226.06 141.213 225.839C141.833 225.71 142.477 226.06 142.688 226.5C142.911 226.968 142.949 227.726 142.266 228.261C134.991 233.962 129.622 222.254 123.725 217.914C114.508 211.13 97.0583 216.602 80.9551 208.008C78.2648 206.572 76.1092 203.385 74.213 204.045C73.3711 204.338 72.9998 204.905 73 205.635C73.0006 208.233 77.7062 212.893 82.6406 214.612Z" fill="#D7CDB7"/>
<path d="M44.1865 216.373C49.3835 216.667 61.4631 215.713 63.3594 214.612C68.2938 212.893 72.9994 208.233 73 205.635C73.0002 204.905 72.6289 204.338 71.787 204.045C69.8908 203.385 67.7352 206.572 65.0449 208.008C48.9418 216.602 31.4924 211.13 22.2746 217.914C16.378 222.254 11.0092 233.962 3.7338 228.261C3.05088 227.726 3.08858 226.968 3.31242 226.5C3.52311 226.06 4.16746 225.71 4.78725 225.839C5.84071 226.06 5.45851 227.955 5.84071 227.821C6.47278 226.72 6.38764 225.98 6.26209 225.619C5.41933 223.198 1.41621 223.858 0.402008 225.619C-0.966038 227.995 1.38899 230.102 3.98364 230.683C8.7293 231.744 11.9205 229.54 14.5234 227.064C15.9694 225.688 17.2338 224.228 18.4822 223.198C26.6086 216.488 38.9894 216.08 44.1865 216.373Z" fill="#D7CDB7"/>
<path d="M44.1865 261.539C49.3835 261.245 61.4631 262.199 63.3594 263.3C68.2938 265.019 72.9994 269.679 73 272.277C73.0006 269.679 77.7062 265.019 82.6406 263.3C84.5369 262.199 96.6165 261.245 101.814 261.539C107.011 261.832 119.391 261.424 127.518 254.714C129.076 253.428 130.66 251.472 132.591 249.846C133.019 249.132 135.331 244.997 135.331 238.956C135.331 232.85 132.025 227.851 131.477 227.064C130.031 225.688 128.766 224.228 127.518 223.198C119.391 216.488 107.011 216.08 101.814 216.373C96.6165 216.667 84.5369 215.713 82.6406 214.612C77.7062 212.893 73.0006 208.233 73 205.635C72.9994 208.233 68.2938 212.893 63.3594 214.612C61.4631 215.713 49.3835 216.667 44.1865 216.373C38.9894 216.08 26.6086 216.488 18.4822 223.198C17.2338 224.228 15.9694 225.688 14.5234 227.064C13.975 227.851 10.6692 232.85 10.6692 238.956C10.6693 244.997 12.9808 249.132 13.4091 249.846C15.3399 251.472 16.9235 253.428 18.4822 254.714C26.6086 261.424 38.9894 261.832 44.1865 261.539Z" fill="#453048"/>
<path d="M65.96 234.056H65.88C65.68 234.616 65.44 235.283 65.16 236.056C64.8933 236.829 64.6133 237.629 64.32 238.456C64.04 239.269 63.7733 240.029 63.52 240.736L63.42 241.036C63.34 241.276 63.24 241.576 63.12 241.936C63 242.296 62.8733 242.676 62.74 243.076C62.6067 243.463 62.48 243.829 62.36 244.176C62.24 244.509 62.1467 244.783 62.08 244.996C61.9867 245.036 61.8867 245.063 61.78 245.076C61.6867 245.103 61.5667 245.116 61.42 245.116C61.2067 245.116 61.0133 245.063 60.84 244.956C60.68 244.836 60.6 244.649 60.6 244.396C60.6 244.276 60.62 244.156 60.66 244.036C60.7 243.903 60.7467 243.763 60.8 243.616C60.96 243.163 61.1533 242.609 61.38 241.956C61.62 241.303 61.88 240.589 62.16 239.816C62.44 239.043 62.7333 238.249 63.04 237.436C63.3467 236.623 63.6467 235.829 63.94 235.056C64.2333 234.283 64.5067 233.576 64.76 232.936C64.8667 232.883 65.0267 232.829 65.24 232.776C65.4533 232.723 65.6733 232.696 65.9 232.696C66.1667 232.696 66.42 232.736 66.66 232.816C66.9133 232.896 67.0733 233.029 67.14 233.216C67.46 233.989 67.8 234.869 68.16 235.856C68.5333 236.829 68.9067 237.849 69.28 238.916C69.6533 239.969 70.0067 240.996 70.34 241.996C70.6867 242.996 70.9933 243.903 71.26 244.716C71.1667 244.836 71.04 244.929 70.88 244.996C70.7333 245.076 70.5667 245.116 70.38 245.116C70.1267 245.116 69.9333 245.063 69.8 244.956C69.6667 244.836 69.5533 244.643 69.46 244.376L68.36 241.116L68.2 240.556C67.9333 239.743 67.6533 238.923 67.36 238.096C67.08 237.269 66.8133 236.503 66.56 235.796C66.32 235.089 66.12 234.509 65.96 234.056ZM62.64 241.716L63.16 240.376H68.74L69.06 241.716H62.64ZM74.9359 237.436V240.596H73.3359V237.556C73.3359 237.249 73.3893 237.009 73.4959 236.836C73.6159 236.649 73.8093 236.469 74.0759 236.296C74.4226 236.069 74.8959 235.876 75.4959 235.716C76.0959 235.543 76.7626 235.456 77.4959 235.456C78.5626 235.456 79.0959 235.723 79.0959 236.256C79.0959 236.389 79.0759 236.516 79.0359 236.636C78.9959 236.743 78.9426 236.836 78.8759 236.916C78.7426 236.889 78.5693 236.863 78.3559 236.836C78.1426 236.809 77.9293 236.796 77.7159 236.796C77.1026 236.796 76.5626 236.863 76.0959 236.996C75.6293 237.116 75.2426 237.263 74.9359 237.436ZM73.3359 239.676L74.9359 239.916V244.916C74.8693 244.943 74.7693 244.969 74.6359 244.996C74.5026 245.036 74.3559 245.056 74.1959 245.056C73.9159 245.056 73.7026 245.003 73.5559 244.896C73.4093 244.776 73.3359 244.589 73.3359 244.336V239.676ZM80.9927 239.676H82.5927V242.436C82.5927 242.969 82.746 243.349 83.0527 243.576C83.3593 243.789 83.7793 243.896 84.3127 243.896C84.5393 243.896 84.7927 243.856 85.0727 243.776C85.3527 243.696 85.586 243.603 85.7727 243.496C85.8527 243.576 85.926 243.676 85.9927 243.796C86.0593 243.916 86.0927 244.056 86.0927 244.216C86.0927 244.509 85.9193 244.749 85.5727 244.936C85.226 245.123 84.746 245.216 84.1327 245.216C83.1993 245.216 82.4393 245.009 81.8527 244.596C81.2793 244.183 80.9927 243.496 80.9927 242.536V239.676ZM81.8127 237.236V235.916H85.8727C85.9127 235.969 85.9527 236.056 85.9927 236.176C86.0327 236.296 86.0527 236.423 86.0527 236.556C86.0527 236.769 85.9993 236.936 85.8927 237.056C85.786 237.176 85.6393 237.236 85.4527 237.236H81.8127ZM82.5927 240.276H80.9927V233.036C81.0593 233.009 81.1593 232.983 81.2927 232.956C81.4393 232.916 81.5927 232.896 81.7527 232.896C82.0327 232.896 82.2393 232.956 82.3727 233.076C82.5193 233.183 82.5927 233.363 82.5927 233.616V240.276Z" fill="#EDE4D0"/>
<path d="M49.788 2.38032C49.4776 1.03495 48.107 -0.0305314 46.7266 0.000483697C45.3462 0.0314987 44.4789 1.14726 44.7893 2.49263L47.2887 2.43648L49.788 2.38032ZM70.6087 203.317C69.5477 203.991 69.4463 205.482 70.3823 206.646C71.3183 207.811 72.9371 208.209 73.9981 207.534L72.3034 205.426L70.6087 203.317ZM47.2887 2.43648L44.7893 2.49263C47.2067 12.9692 44.2691 21.705 39.2905 29.937C36.7988 34.0569 33.8372 37.9854 30.8364 41.9242C27.8572 45.8344 24.8271 49.77 22.3176 53.7934C17.3067 61.8271 14.076 70.6594 17.5748 81.267C21.0454 91.7894 30.9126 103.364 50.2536 117.166L51.5128 115.322L52.7721 113.477C33.8206 99.953 25.3162 89.4001 22.4434 80.6903C19.5988 72.0657 22.0527 64.5615 26.8618 56.8514C29.2621 53.003 32.1757 49.2148 35.1875 45.2618C38.1775 41.3372 41.254 37.2627 43.861 32.9521C49.0797 24.3231 52.5817 14.4878 49.788 2.38032L47.2887 2.43648ZM51.5128 115.322L50.2536 117.166C69.1214 130.631 79.556 142.715 84.7959 153.13C90.0101 163.493 90.2008 172.44 88.1405 179.83C86.0663 187.27 81.6985 193.152 77.7876 197.202C75.8399 199.219 74.0259 200.761 72.7051 201.794C72.0453 202.31 71.5103 202.697 71.1454 202.953C70.963 203.08 70.8233 203.175 70.7319 203.236C70.6862 203.266 70.6526 203.288 70.6318 203.302C70.6214 203.309 70.6143 203.313 70.6104 203.316C70.6084 203.317 70.6073 203.318 70.607 203.318C70.6069 203.318 70.6073 203.318 70.6072 203.318C70.6078 203.317 70.6087 203.317 72.3034 205.426C73.9981 207.534 73.9994 207.534 74.0009 207.533C74.0016 207.532 74.0033 207.531 74.0049 207.53C74.008 207.528 74.0119 207.526 74.0167 207.523C74.0263 207.516 74.0391 207.508 74.0553 207.498C74.0876 207.477 74.1328 207.447 74.1904 207.409C74.3055 207.332 74.4697 207.221 74.6772 207.075C75.0922 206.785 75.6811 206.358 76.3974 205.798C77.8287 204.678 79.7753 203.023 81.8617 200.863C86.0189 196.557 90.8133 190.161 93.1145 181.907C95.4297 173.603 95.2093 163.439 89.3454 151.784C83.5073 140.181 72.1968 127.339 52.7721 113.477L51.5128 115.322Z" fill="#D7CDB7"/>
</svg>
