<svg width="146" height="274" viewBox="0 0 146 274" fill="none" xmlns="http://www.w3.org/2000/svg">
<path d="M101.814 261.539C96.6165 261.245 84.5369 262.199 82.6406 263.3C77.7062 265.019 73.0006 269.679 73 272.277C72.9998 273.007 73.3711 273.574 74.213 273.867C76.1092 274.528 78.2648 271.34 80.9551 269.904C97.0583 261.31 114.508 266.782 123.725 259.998C129.622 255.658 134.991 243.95 142.266 249.651C142.949 250.186 142.911 250.945 142.688 251.412C142.477 251.853 141.833 252.202 141.213 252.073C140.159 251.853 140.541 249.957 140.159 250.091C139.527 251.192 139.612 251.932 139.738 252.293C140.581 254.714 144.584 254.054 145.598 252.293C146.966 249.917 144.611 247.81 142.016 247.229C137.926 246.314 134.99 247.825 132.591 249.846C130.66 251.472 129.076 253.428 127.518 254.714C119.391 261.424 107.011 261.832 101.814 261.539Z" fill="#D7CDB7"/>
<path d="M63.3594 263.3C61.4631 262.199 49.3835 261.245 44.1865 261.539C38.9894 261.832 26.6086 261.424 18.4822 254.714C16.9235 253.428 15.3399 251.472 13.4091 249.846C11.0097 247.825 8.07409 246.314 3.98364 247.229C1.38899 247.81 -0.966038 249.917 0.402008 252.293C1.41621 254.054 5.41933 254.714 6.26209 252.293C6.38764 251.932 6.47278 251.192 5.84071 250.091C5.45851 249.957 5.84071 251.853 4.78725 252.073C4.16746 252.202 3.52311 251.853 3.31242 251.412C3.08858 250.945 3.05088 250.186 3.7338 249.651C11.0092 243.95 16.378 255.658 22.2746 259.998C31.4924 266.782 48.9418 261.31 65.0449 269.904C67.7352 271.34 69.8908 274.528 71.787 273.867C72.6289 273.574 73.0002 273.007 73 272.277C72.9994 269.679 68.2938 265.019 63.3594 263.3Z" fill="#D7CDB7"/>
<path d="M82.6406 214.612C84.5369 215.713 96.6165 216.667 101.814 216.373C107.011 216.08 119.391 216.488 127.518 223.198C128.766 224.228 130.031 225.688 131.477 227.064C134.079 229.54 137.271 231.744 142.016 230.683C144.611 230.102 146.966 227.995 145.598 225.619C144.584 223.858 140.581 223.198 139.738 225.619C139.612 225.98 139.527 226.72 140.159 227.821C140.541 227.955 140.159 226.06 141.213 225.839C141.833 225.71 142.477 226.06 142.688 226.5C142.911 226.968 142.949 227.726 142.266 228.261C134.991 233.962 129.622 222.254 123.725 217.914C114.508 211.13 97.0583 216.602 80.9551 208.008C78.2648 206.572 76.1092 203.385 74.213 204.045C73.3711 204.338 72.9998 204.905 73 205.635C73.0006 208.233 77.7062 212.893 82.6406 214.612Z" fill="#D7CDB7"/>
<path d="M44.1865 216.373C49.3835 216.667 61.4631 215.713 63.3594 214.612C68.2938 212.893 72.9994 208.233 73 205.635C73.0002 204.905 72.6289 204.338 71.787 204.045C69.8908 203.385 67.7352 206.572 65.0449 208.008C48.9418 216.602 31.4924 211.13 22.2746 217.914C16.378 222.254 11.0092 233.962 3.7338 228.261C3.05088 227.726 3.08858 226.968 3.31242 226.5C3.52311 226.06 4.16746 225.71 4.78725 225.839C5.84071 226.06 5.45851 227.955 5.84071 227.821C6.47278 226.72 6.38764 225.98 6.26209 225.619C5.41933 223.198 1.41621 223.858 0.402008 225.619C-0.966038 227.995 1.38899 230.102 3.98364 230.683C8.7293 231.744 11.9205 229.54 14.5234 227.064C15.9694 225.688 17.2338 224.228 18.4822 223.198C26.6086 216.488 38.9894 216.08 44.1865 216.373Z" fill="#D7CDB7"/>
<path d="M44.1865 261.539C49.3835 261.245 61.4631 262.199 63.3594 263.3C68.2938 265.019 72.9994 269.679 73 272.277C73.0006 269.679 77.7062 265.019 82.6406 263.3C84.5369 262.199 96.6165 261.245 101.814 261.539C107.011 261.832 119.391 261.424 127.518 254.714C129.076 253.428 130.66 251.472 132.591 249.846C133.019 249.132 135.331 244.997 135.331 238.956C135.331 232.85 132.025 227.851 131.477 227.064C130.031 225.688 128.766 224.228 127.518 223.198C119.391 216.488 107.011 216.08 101.814 216.373C96.6165 216.667 84.5369 215.713 82.6406 214.612C77.7062 212.893 73.0006 208.233 73 205.635C72.9994 208.233 68.2938 212.893 63.3594 214.612C61.4631 215.713 49.3835 216.667 44.1865 216.373C38.9894 216.08 26.6086 216.488 18.4822 223.198C17.2338 224.228 15.9694 225.688 14.5234 227.064C13.975 227.851 10.6692 232.85 10.6692 238.956C10.6693 244.997 12.9808 249.132 13.4091 249.846C15.3399 251.472 16.9235 253.428 18.4822 254.714C26.6086 261.424 38.9894 261.832 44.1865 261.539Z" fill="#5D4966"/>
<path d="M43.96 234.056H43.88C43.68 234.616 43.44 235.283 43.16 236.056C42.8933 236.829 42.6133 237.629 42.32 238.456C42.04 239.269 41.7733 240.029 41.52 240.736L41.42 241.036C41.34 241.276 41.24 241.576 41.12 241.936C41 242.296 40.8733 242.676 40.74 243.076C40.6067 243.463 40.48 243.829 40.36 244.176C40.24 244.509 40.1467 244.783 40.08 244.996C39.9867 245.036 39.8867 245.063 39.78 245.076C39.6867 245.103 39.5667 245.116 39.42 245.116C39.2067 245.116 39.0133 245.063 38.84 244.956C38.68 244.836 38.6 244.649 38.6 244.396C38.6 244.276 38.62 244.156 38.66 244.036C38.7 243.903 38.7467 243.763 38.8 243.616C38.96 243.163 39.1533 242.609 39.38 241.956C39.62 241.303 39.88 240.589 40.16 239.816C40.44 239.043 40.7333 238.249 41.04 237.436C41.3467 236.623 41.6467 235.829 41.94 235.056C42.2333 234.283 42.5067 233.576 42.76 232.936C42.8667 232.883 43.0267 232.829 43.24 232.776C43.4533 232.723 43.6733 232.696 43.9 232.696C44.1667 232.696 44.42 232.736 44.66 232.816C44.9133 232.896 45.0733 233.029 45.14 233.216C45.46 233.989 45.8 234.869 46.16 235.856C46.5333 236.829 46.9067 237.849 47.28 238.916C47.6533 239.969 48.0067 240.996 48.34 241.996C48.6867 242.996 48.9933 243.903 49.26 244.716C49.1667 244.836 49.04 244.929 48.88 244.996C48.7333 245.076 48.5667 245.116 48.38 245.116C48.1267 245.116 47.9333 245.063 47.8 244.956C47.6667 244.836 47.5533 244.643 47.46 244.376L46.36 241.116L46.2 240.556C45.9333 239.743 45.6533 238.923 45.36 238.096C45.08 237.269 44.8133 236.503 44.56 235.796C44.32 235.089 44.12 234.509 43.96 234.056ZM40.64 241.716L41.16 240.376H46.74L47.06 241.716H40.64ZM52.9359 237.436V240.596H51.3359V237.556C51.3359 237.249 51.3893 237.009 51.4959 236.836C51.6159 236.649 51.8093 236.469 52.0759 236.296C52.4226 236.069 52.8959 235.876 53.4959 235.716C54.0959 235.543 54.7626 235.456 55.4959 235.456C56.5626 235.456 57.0959 235.723 57.0959 236.256C57.0959 236.389 57.0759 236.516 57.0359 236.636C56.9959 236.743 56.9426 236.836 56.8759 236.916C56.7426 236.889 56.5693 236.863 56.3559 236.836C56.1426 236.809 55.9293 236.796 55.7159 236.796C55.1026 236.796 54.5626 236.863 54.0959 236.996C53.6293 237.116 53.2426 237.263 52.9359 237.436ZM51.3359 239.676L52.9359 239.916V244.916C52.8693 244.943 52.7693 244.969 52.6359 244.996C52.5026 245.036 52.3559 245.056 52.1959 245.056C51.9159 245.056 51.7026 245.003 51.5559 244.896C51.4093 244.776 51.3359 244.589 51.3359 244.336V239.676ZM58.9927 239.676H60.5927V242.436C60.5927 242.969 60.746 243.349 61.0527 243.576C61.3593 243.789 61.7793 243.896 62.3127 243.896C62.5393 243.896 62.7927 243.856 63.0727 243.776C63.3527 243.696 63.586 243.603 63.7727 243.496C63.8527 243.576 63.926 243.676 63.9927 243.796C64.0593 243.916 64.0927 244.056 64.0927 244.216C64.0927 244.509 63.9193 244.749 63.5727 244.936C63.226 245.123 62.746 245.216 62.1327 245.216C61.1993 245.216 60.4393 245.009 59.8527 244.596C59.2793 244.183 58.9927 243.496 58.9927 242.536V239.676ZM59.8127 237.236V235.916H63.8727C63.9127 235.969 63.9527 236.056 63.9927 236.176C64.0327 236.296 64.0527 236.423 64.0527 236.556C64.0527 236.769 63.9993 236.936 63.8927 237.056C63.786 237.176 63.6393 237.236 63.4527 237.236H59.8127ZM60.5927 240.276H58.9927V233.036C59.0593 233.009 59.1593 232.983 59.2927 232.956C59.4393 232.916 59.5927 232.896 59.7527 232.896C60.0327 232.896 60.2393 232.956 60.3727 233.076C60.5193 233.183 60.5927 233.363 60.5927 233.616V240.276ZM72.1364 238.076C71.8964 238.916 71.6364 239.756 71.3564 240.596C71.0897 241.436 70.8297 242.223 70.5764 242.956C70.3231 243.689 70.0897 244.323 69.8764 244.856C69.7697 244.923 69.6497 244.976 69.5164 245.016C69.3831 245.056 69.2031 245.076 68.9764 245.076C68.7631 245.076 68.5631 245.036 68.3764 244.956C68.2031 244.889 68.0831 244.776 68.0164 244.616C67.8831 244.349 67.7297 243.963 67.5564 243.456C67.3964 242.949 67.2231 242.369 67.0364 241.716C66.8631 241.063 66.6831 240.389 66.4964 239.696C66.3097 238.989 66.1364 238.309 65.9764 237.656C65.8297 237.003 65.7031 236.423 65.5964 235.916C65.6897 235.823 65.8031 235.736 65.9364 235.656C66.0831 235.576 66.2564 235.536 66.4564 235.536C66.7097 235.536 66.8964 235.609 67.0164 235.756C67.1497 235.889 67.2431 236.109 67.2964 236.416C67.4164 236.976 67.5497 237.609 67.6964 238.316C67.8564 239.023 68.0164 239.723 68.1764 240.416C68.3497 241.109 68.5031 241.736 68.6364 242.296C68.7831 242.843 68.8897 243.249 68.9564 243.516H69.0364C69.1431 243.196 69.3097 242.676 69.5364 241.956C69.7631 241.223 70.0297 240.389 70.3364 239.456C70.6564 238.523 70.9764 237.576 71.2964 236.616C71.4031 236.549 71.5297 236.503 71.6764 236.476C71.8231 236.436 71.9831 236.416 72.1564 236.416C72.3964 236.416 72.5964 236.463 72.7564 236.556C72.9164 236.636 73.0231 236.763 73.0764 236.936C73.3964 237.856 73.6964 238.763 73.9764 239.656C74.2564 240.536 74.5031 241.323 74.7164 242.016C74.9297 242.696 75.0831 243.203 75.1764 243.536H75.2764C75.5831 242.349 75.9164 241.076 76.2764 239.716C76.6364 238.356 76.9297 237.023 77.1564 235.716C77.3431 235.596 77.5697 235.536 77.8364 235.536C78.0631 235.536 78.2431 235.589 78.3764 235.696C78.5097 235.803 78.5764 235.969 78.5764 236.196C78.5764 236.343 78.5297 236.623 78.4364 237.036C78.3564 237.449 78.2431 237.936 78.0964 238.496C77.9497 239.056 77.7831 239.656 77.5964 240.296C77.4231 240.923 77.2431 241.536 77.0564 242.136C76.8697 242.723 76.6897 243.256 76.5164 243.736C76.3564 244.216 76.2164 244.589 76.0964 244.856C76.0297 244.909 75.9164 244.956 75.7564 244.996C75.6097 245.049 75.4364 245.076 75.2364 245.076C74.6897 245.076 74.3697 244.949 74.2764 244.696C74.0897 244.216 73.8764 243.623 73.6364 242.916C73.3964 242.196 73.1497 241.423 72.8964 240.596C72.6431 239.756 72.3897 238.916 72.1364 238.076ZM89.2714 240.336C89.2714 241.323 89.0847 242.183 88.7114 242.916C88.3381 243.649 87.8114 244.216 87.1314 244.616C86.4514 245.016 85.6514 245.216 84.7314 245.216C83.8114 245.216 83.0047 245.016 82.3114 244.616C81.6314 244.216 81.1047 243.649 80.7314 242.916C80.3581 242.183 80.1714 241.323 80.1714 240.336C80.1714 239.336 80.3581 238.476 80.7314 237.756C81.1181 237.023 81.6514 236.456 82.3314 236.056C83.0247 235.656 83.8247 235.456 84.7314 235.456C85.6381 235.456 86.4314 235.656 87.1114 236.056C87.7914 236.456 88.3181 237.023 88.6914 237.756C89.0781 238.476 89.2714 239.336 89.2714 240.336ZM84.7314 236.776C83.8381 236.776 83.1247 237.096 82.5914 237.736C82.0714 238.363 81.8114 239.229 81.8114 240.336C81.8114 241.456 82.0647 242.329 82.5714 242.956C83.0914 243.583 83.8114 243.896 84.7314 243.896C85.6381 243.896 86.3447 243.583 86.8514 242.956C87.3714 242.316 87.6314 241.443 87.6314 240.336C87.6314 239.229 87.3714 238.363 86.8514 237.736C86.3447 237.096 85.6381 236.776 84.7314 236.776ZM93.3461 237.436V240.596H91.7461V237.556C91.7461 237.249 91.7994 237.009 91.9061 236.836C92.0261 236.649 92.2194 236.469 92.4861 236.296C92.8328 236.069 93.3061 235.876 93.9061 235.716C94.5061 235.543 95.1728 235.456 95.9061 235.456C96.9728 235.456 97.5061 235.723 97.5061 236.256C97.5061 236.389 97.4861 236.516 97.4461 236.636C97.4061 236.743 97.3528 236.836 97.2861 236.916C97.1528 236.889 96.9794 236.863 96.7661 236.836C96.5528 236.809 96.3394 236.796 96.1261 236.796C95.5128 236.796 94.9728 236.863 94.5061 236.996C94.0394 237.116 93.6528 237.263 93.3461 237.436ZM91.7461 239.676L93.3461 239.916V244.916C93.2794 244.943 93.1794 244.969 93.0461 244.996C92.9128 245.036 92.7661 245.056 92.6061 245.056C92.3261 245.056 92.1128 245.003 91.9661 244.896C91.8194 244.776 91.7461 244.589 91.7461 244.336V239.676ZM101.843 240.736L100.843 239.956L105.403 235.536C105.723 235.549 105.969 235.629 106.143 235.776C106.329 235.909 106.423 236.089 106.423 236.316C106.423 236.503 106.363 236.669 106.243 236.816C106.136 236.963 105.976 237.123 105.763 237.296L101.843 240.736ZM100.803 240.216L101.923 239.556L107.003 244.116C106.976 244.409 106.883 244.643 106.723 244.816C106.576 244.989 106.376 245.076 106.123 245.076C105.923 245.076 105.736 245.023 105.563 244.916C105.403 244.809 105.236 244.669 105.063 244.496L100.803 240.216ZM99.4228 239.596L101.023 239.836V244.916C100.956 244.943 100.856 244.969 100.723 244.996C100.589 245.036 100.443 245.056 100.283 245.056C100.003 245.056 99.7895 245.003 99.6428 244.896C99.4961 244.776 99.4228 244.589 99.4228 244.336V239.596ZM101.023 240.616L99.4228 240.376V231.996C99.4895 231.969 99.5895 231.943 99.7228 231.916C99.8695 231.876 100.023 231.856 100.183 231.856C100.463 231.856 100.669 231.916 100.803 232.036C100.949 232.143 101.023 232.323 101.023 232.576V240.616Z" fill="#EDE4D0"/>
<path d="M47.2887 2.43647C57.7107 47.6045 -25.0722 60.6692 51.5128 115.322C128.098 169.974 72.3034 205.426 72.3034 205.426" stroke="#D7CDB7" stroke-width="5" stroke-linecap="round"/>
</svg>
