<svg width="404" height="161" viewBox="0 0 404 161" fill="none" xmlns="http://www.w3.org/2000/svg">
<g id="Vector">
<path d="M122.441 37.3224C136.814 38.1955 170.22 35.3581 175.464 32.0843C189.196 26.9402 202.288 12.9349 202.123 5.23821C202.078 3.13797 201.046 1.50747 198.77 0.654942C193.526 -1.30955 187.565 8.17046 180.125 12.4409C135.592 38.0025 87.336 21.728 61.8442 41.9057C45.5373 54.8132 30.6898 89.6378 10.5698 72.6802C8.68115 71.0884 8.78541 68.8332 9.40444 67.442C9.9871 66.1324 11.769 65.0924 13.4831 65.4776C16.3964 66.1324 15.3395 71.7704 16.3964 71.3706C18.1444 68.0967 17.9089 65.8958 17.5617 64.8229C15.2311 57.6203 4.16048 59.5848 1.35572 64.823C-2.42759 71.8888 4.08522 78.1565 11.2607 79.8829C13.4796 80.4167 15.5757 80.673 17.5617 80.6946C33.8486 80.8717 42.7401 65.2712 51.3563 57.6205C73.8299 37.665 108.069 36.4494 122.441 37.3224Z" fill="white"/>
<path d="M122.197 124.068C136.57 123.195 169.976 126.032 175.22 129.306C188.598 134.317 201.684 151.253 201.867 154.889C202.148 157.823 201.017 159.802 198.526 160.735C193.282 162.7 187.321 153.22 179.881 148.949C135.348 123.388 87.092 139.662 61.6003 119.485C45.2933 106.577 30.4459 71.7526 10.3258 88.7102C8.43717 90.302 8.54144 92.5571 9.16046 93.9484C9.74313 95.2579 11.5251 96.298 13.2391 95.9127C16.1524 95.2579 15.0955 89.6199 16.1524 90.0197C17.9004 93.2936 17.665 95.4945 17.3178 96.5675C14.9871 103.77 3.91651 101.806 1.11175 96.5673C-2.67157 89.5016 3.84125 83.2338 11.0167 81.5075C13.2961 80.9591 15.4459 80.7036 17.4799 80.6946C33.6637 80.6223 42.5248 96.1446 51.1123 103.77C73.5859 123.725 107.825 124.941 122.197 124.068Z" fill="white"/>
<path d="M281.617 123.911C267.245 123.038 233.839 125.875 228.595 129.149C215.217 134.161 202.266 151.253 201.867 154.889C201.708 157.834 202.797 159.645 205.288 160.579C210.532 162.543 216.493 153.063 223.933 148.793C268.467 123.231 316.723 139.506 342.214 119.328C358.521 106.42 373.369 71.5957 393.489 88.5534C395.377 90.1452 395.273 92.4003 394.654 93.7916C394.071 95.1011 392.29 96.1412 390.575 95.7559C387.662 95.1011 388.719 89.4631 387.662 89.8629C385.914 93.1368 386.15 95.3377 386.497 96.4107C388.828 103.613 399.898 101.649 402.703 96.4105C406.486 89.3448 399.973 83.077 392.798 81.3507C390.847 80.8813 387.575 80.6068 385.806 80.5375C369.491 80.5375 361.445 95.8497 352.702 103.613C330.229 123.569 295.99 124.784 281.617 123.911Z" fill="white"/>
<path d="M281.803 36.9321C267.43 37.8051 234.024 34.9678 228.78 31.6939C215.277 26.6356 202.392 13.0093 202.123 5.23821C202.044 2.94985 203.059 1.16921 205.474 0.26457C210.718 -1.69992 216.679 7.78009 224.119 12.0506C268.652 37.6121 316.908 21.3376 342.4 41.5153C358.707 54.4229 373.554 89.2474 393.674 72.2898C395.563 70.698 395.459 68.4429 394.84 67.0516C394.257 65.742 392.475 64.702 390.761 65.0873C387.848 65.742 388.904 71.3801 387.848 70.9802C386.1 67.7064 386.335 65.5055 386.682 64.4325C389.013 57.2299 400.084 59.1944 402.888 64.4326C406.672 71.4984 400.159 77.7661 392.983 79.4925C391.032 79.9619 387.575 80.4681 385.806 80.5375C369.057 81.1938 361.631 64.9935 352.888 57.2301C330.414 37.2746 296.175 36.059 281.803 36.9321Z" fill="white"/>
<path d="M175.464 32.0843C170.22 35.3581 136.814 38.1955 122.441 37.3224C108.069 36.4494 73.8299 37.665 51.3563 57.6205C42.7401 65.2712 33.8486 80.8717 17.5617 80.6946H17.4799C33.6637 80.6223 42.5248 96.1446 51.1123 103.77C73.5859 123.725 107.825 124.941 122.197 124.068C136.57 123.195 169.976 126.032 175.22 129.306C188.598 134.317 201.684 151.253 201.867 154.889C202.266 151.253 215.217 134.161 228.595 129.149C233.839 125.875 267.245 123.038 281.617 123.911C295.99 124.784 330.229 123.569 352.702 103.613C361.445 95.8497 369.491 80.5375 385.806 80.5375C369.057 81.1938 361.631 64.9935 352.888 57.2301C330.414 37.2746 296.175 36.059 281.803 36.9321C267.43 37.8051 234.024 34.9678 228.78 31.6939C215.277 26.6356 202.392 13.0093 202.123 5.23821C202.288 12.9349 189.196 26.9402 175.464 32.0843Z" fill="#666666"/>
</g>
</svg>
