<svg width="146" height="275" viewBox="0 0 146 275" fill="none" xmlns="http://www.w3.org/2000/svg">
<path d="M101.814 261.872C96.6165 261.578 84.5369 262.532 82.6406 263.633C77.7062 265.352 73.0006 270.012 73 272.61C72.9998 273.34 73.3711 273.907 74.213 274.2C76.1092 274.861 78.2648 271.673 80.9551 270.237C97.0582 261.643 114.508 267.115 123.725 260.331C129.622 255.991 134.991 244.283 142.266 249.984C142.949 250.519 142.911 251.278 142.688 251.745C142.477 252.186 141.833 252.535 141.213 252.406C140.159 252.186 140.541 250.29 140.159 250.424C139.527 251.525 139.612 252.265 139.738 252.626C140.581 255.047 144.584 254.387 145.598 252.626C146.966 250.25 144.611 248.143 142.016 247.562C137.926 246.647 134.99 248.158 132.591 250.179C130.66 251.805 129.076 253.761 127.518 255.047C119.391 261.757 107.011 262.165 101.814 261.872Z" fill="#D7CDB7"/>
<path d="M63.3594 263.633C61.4631 262.532 49.3835 261.578 44.1865 261.872C38.9894 262.165 26.6086 261.757 18.4822 255.047C16.9235 253.761 15.3399 251.805 13.4091 250.179C11.0097 248.158 8.07409 246.647 3.98364 247.562C1.38899 248.143 -0.966038 250.25 0.402008 252.626C1.41621 254.387 5.41933 255.047 6.26209 252.626C6.38764 252.265 6.47278 251.525 5.84071 250.424C5.45851 250.29 5.84071 252.186 4.78725 252.406C4.16746 252.535 3.52311 252.186 3.31242 251.745C3.08858 251.278 3.05088 250.519 3.7338 249.984C11.0092 244.283 16.378 255.991 22.2746 260.331C31.4924 267.115 48.9418 261.643 65.0449 270.237C67.7352 271.673 69.8908 274.861 71.787 274.2C72.6289 273.907 73.0002 273.34 73 272.61C72.9994 270.012 68.2938 265.352 63.3594 263.633Z" fill="#D7CDB7"/>
<path d="M82.6406 214.945C84.5369 216.046 96.6165 217 101.814 216.706C107.011 216.413 119.391 216.821 127.518 223.531C128.766 224.561 130.031 226.021 131.477 227.397C134.079 229.873 137.271 232.077 142.016 231.016C144.611 230.435 146.966 228.328 145.598 225.952C144.584 224.191 140.581 223.531 139.738 225.952C139.612 226.313 139.527 227.053 140.159 228.154C140.541 228.288 140.159 226.393 141.213 226.172C141.833 226.043 142.477 226.393 142.688 226.833C142.911 227.301 142.949 228.059 142.266 228.594C134.991 234.295 129.622 222.587 123.725 218.247C114.508 211.463 97.0582 216.935 80.9551 208.341C78.2648 206.905 76.1092 203.718 74.213 204.378C73.3711 204.671 72.9998 205.238 73 205.968C73.0006 208.566 77.7062 213.226 82.6406 214.945Z" fill="#D7CDB7"/>
<path d="M44.1865 216.706C49.3835 217 61.4631 216.046 63.3594 214.945C68.2938 213.226 72.9994 208.566 73 205.968C73.0002 205.238 72.6289 204.671 71.787 204.378C69.8908 203.718 67.7352 206.905 65.0449 208.341C48.9418 216.935 31.4924 211.463 22.2746 218.247C16.378 222.587 11.0092 234.295 3.7338 228.594C3.05088 228.059 3.08858 227.301 3.31242 226.833C3.52311 226.393 4.16746 226.043 4.78725 226.172C5.84071 226.393 5.45851 228.288 5.84071 228.154C6.47278 227.053 6.38764 226.313 6.26209 225.952C5.41933 223.531 1.41621 224.191 0.402008 225.952C-0.966038 228.328 1.38899 230.435 3.98364 231.016C8.7293 232.077 11.9205 229.873 14.5234 227.397C15.9694 226.021 17.2338 224.561 18.4822 223.531C26.6086 216.821 38.9894 216.413 44.1865 216.706Z" fill="#D7CDB7"/>
<path d="M44.1865 261.872C49.3835 261.578 61.4631 262.532 63.3594 263.633C68.2938 265.352 72.9994 270.012 73 272.61C73.0006 270.012 77.7062 265.352 82.6406 263.633C84.5369 262.532 96.6165 261.578 101.814 261.872C107.011 262.165 119.391 261.757 127.518 255.047C129.076 253.761 130.66 251.805 132.591 250.179C133.019 249.465 135.331 245.33 135.331 239.289C135.331 233.183 132.025 228.184 131.477 227.397C130.031 226.021 128.766 224.561 127.518 223.531C119.391 216.821 107.011 216.413 101.814 216.706C96.6165 217 84.5369 216.046 82.6406 214.945C77.7062 213.226 73.0006 208.566 73 205.968C72.9994 208.566 68.2938 213.226 63.3594 214.945C61.4631 216.046 49.3835 217 44.1865 216.706C38.9894 216.413 26.6086 216.821 18.4822 223.531C17.2338 224.561 15.9694 226.021 14.5234 227.397C13.975 228.184 10.6692 233.183 10.6692 239.289C10.6693 245.33 12.9808 249.465 13.4091 250.179C15.3399 251.805 16.9235 253.761 18.4822 255.047C26.6086 261.757 38.9894 262.165 44.1865 261.872Z" fill="#453048"/>
<path d="M42.18 236.149C42.2867 236.096 42.42 236.049 42.58 236.009C42.74 235.969 42.9067 235.949 43.08 235.949C43.3467 235.949 43.5667 235.996 43.74 236.089C43.9267 236.169 44.0467 236.296 44.1 236.469C44.4333 237.429 44.7333 238.322 45 239.149C45.28 239.962 45.54 240.756 45.78 241.529C46.0333 242.289 46.2867 243.076 46.54 243.889H46.62C46.8733 242.689 47.12 241.522 47.36 240.389C47.6 239.242 47.8333 238.082 48.06 236.909C48.2867 235.736 48.4933 234.482 48.68 233.149C48.8667 233.056 49.0933 233.009 49.36 233.009C49.6133 233.009 49.8133 233.069 49.96 233.189C50.1067 233.296 50.18 233.462 50.18 233.689C50.18 233.942 50.14 234.329 50.06 234.849C49.9933 235.356 49.8933 235.956 49.76 236.649C49.64 237.329 49.4933 238.056 49.32 238.829C49.16 239.589 48.9867 240.356 48.8 241.129C48.6133 241.889 48.4267 242.609 48.24 243.289C48.0533 243.969 47.8733 244.562 47.7 245.069C47.58 245.136 47.4267 245.202 47.24 245.269C47.0533 245.322 46.84 245.349 46.6 245.349C46.3067 245.349 46.06 245.302 45.86 245.209C45.66 245.116 45.5267 244.989 45.46 244.829C45.2733 244.362 45.0467 243.749 44.78 242.989C44.5133 242.216 44.2333 241.376 43.94 240.469C43.66 239.549 43.3867 238.642 43.12 237.749C42.8667 238.629 42.5933 239.542 42.3 240.489C42.0067 241.436 41.72 242.316 41.44 243.129C41.1733 243.942 40.9333 244.596 40.72 245.089C40.6267 245.142 40.48 245.202 40.28 245.269C40.0933 245.322 39.88 245.349 39.64 245.349C39.3467 245.349 39.1 245.302 38.9 245.209C38.7133 245.102 38.5867 244.976 38.52 244.829C38.3867 244.496 38.22 243.996 38.02 243.329C37.8333 242.662 37.6333 241.902 37.42 241.049C37.2067 240.182 36.9933 239.289 36.78 238.369C36.58 237.436 36.3867 236.542 36.2 235.689C36.0267 234.822 35.8867 234.056 35.78 233.389C35.8733 233.296 36 233.209 36.16 233.129C36.32 233.049 36.4933 233.009 36.68 233.009C36.92 233.009 37.1067 233.069 37.24 233.189C37.3733 233.296 37.4667 233.482 37.52 233.749C37.6933 234.589 37.86 235.402 38.02 236.189C38.18 236.976 38.34 237.769 38.5 238.569C38.6733 239.369 38.8533 240.209 39.04 241.089C39.2267 241.956 39.4333 242.889 39.66 243.889H39.74C39.9267 243.289 40.1067 242.716 40.28 242.169C40.4533 241.622 40.6333 241.062 40.82 240.489C41.0067 239.902 41.2067 239.262 41.42 238.569C41.6467 237.876 41.9 237.069 42.18 236.149ZM52.8547 238.029H54.4747V245.249C54.408 245.276 54.308 245.302 54.1747 245.329C54.0414 245.369 53.8947 245.389 53.7347 245.389C53.4414 245.389 53.2214 245.329 53.0747 245.209C52.928 245.089 52.8547 244.902 52.8547 244.649V238.029ZM54.4747 239.369H52.8547V233.169C52.9214 233.142 53.0214 233.116 53.1547 233.089C53.3014 233.049 53.4547 233.029 53.6147 233.029C53.908 233.029 54.1214 233.089 54.2547 233.209C54.4014 233.316 54.4747 233.502 54.4747 233.769V239.369ZM59.6891 239.589H61.6291C62.6957 239.589 63.5224 239.369 64.1091 238.929C64.6957 238.476 64.9891 237.796 64.9891 236.889C64.9891 235.982 64.7024 235.322 64.1291 234.909C63.5691 234.482 62.7624 234.269 61.7091 234.269C61.3491 234.269 60.9891 234.289 60.6291 234.329C60.2824 234.356 59.9691 234.396 59.6891 234.449V239.589ZM61.7291 240.949H58.0691V234.009C58.0691 233.796 58.1224 233.636 58.2291 233.529C58.3491 233.409 58.5157 233.316 58.7291 233.249C59.1157 233.129 59.5824 233.042 60.1291 232.989C60.6891 232.936 61.2291 232.909 61.7491 232.909C63.4424 232.909 64.6757 233.269 65.4491 233.989C66.2357 234.696 66.6291 235.656 66.6291 236.869C66.6291 237.696 66.4491 238.416 66.0891 239.029C65.7424 239.642 65.2091 240.116 64.4891 240.449C63.7691 240.782 62.8491 240.949 61.7291 240.949ZM58.0691 240.169H59.7091V245.249C59.6291 245.276 59.5224 245.302 59.3891 245.329C59.2557 245.369 59.1091 245.389 58.9491 245.389C58.6557 245.389 58.4357 245.329 58.2891 245.209C58.1424 245.089 58.0691 244.902 58.0691 244.649V240.169ZM80.0406 238.309V239.629H74.5406V238.309H80.0406ZM77.7406 239.629L78.3806 238.629C79.2873 238.629 80.0406 238.782 80.6406 239.089C81.2406 239.382 81.6873 239.776 81.9806 240.269C82.2873 240.762 82.4406 241.316 82.4406 241.929C82.4406 243.142 82.0006 244.042 81.1206 244.629C80.254 245.216 79.014 245.509 77.4006 245.509C77.0406 245.509 76.6806 245.496 76.3206 245.469C75.9606 245.456 75.6073 245.422 75.2606 245.369C74.914 245.316 74.5806 245.249 74.2606 245.169C73.7006 245.009 73.4206 244.702 73.4206 244.249V234.009C73.4206 233.796 73.474 233.629 73.5806 233.509C73.7006 233.389 73.8673 233.302 74.0806 233.249C74.534 233.116 75.014 233.029 75.5206 232.989C76.0406 232.936 76.594 232.909 77.1806 232.909C78.6873 232.909 79.8606 233.182 80.7006 233.729C81.5406 234.262 81.9606 235.082 81.9606 236.189C81.9606 236.749 81.8206 237.269 81.5406 237.749C81.274 238.216 80.834 238.596 80.2206 238.889C79.6206 239.169 78.814 239.309 77.8006 239.309L77.6206 238.309C78.5006 238.309 79.1673 238.129 79.6206 237.769C80.074 237.396 80.3006 236.882 80.3006 236.229C80.3006 235.562 80.034 235.069 79.5006 234.749C78.9806 234.416 78.2073 234.249 77.1806 234.249C76.7273 234.249 76.3273 234.269 75.9806 234.309C75.634 234.336 75.314 234.376 75.0206 234.429V243.949C75.3406 244.016 75.7073 244.069 76.1206 244.109C76.5473 244.149 76.974 244.169 77.4006 244.169C78.5073 244.169 79.3473 243.982 79.9206 243.609C80.494 243.236 80.7806 242.662 80.7806 241.889C80.7806 241.196 80.5206 240.649 80.0006 240.249C79.494 239.836 78.7406 239.629 77.7406 239.629ZM85.2733 240.009L86.8733 240.249V245.249C86.8066 245.276 86.7066 245.302 86.5733 245.329C86.4399 245.369 86.2933 245.389 86.1333 245.389C85.8533 245.389 85.6399 245.336 85.4933 245.229C85.3466 245.109 85.2733 244.922 85.2733 244.669V240.009ZM86.8733 241.009L85.2733 240.789V232.329C85.3399 232.302 85.4399 232.276 85.5733 232.249C85.7199 232.209 85.8666 232.189 86.0133 232.189C86.3066 232.189 86.5199 232.249 86.6533 232.369C86.7999 232.476 86.8733 232.656 86.8733 232.909V241.009ZM98.6152 240.669C98.6152 241.656 98.4285 242.516 98.0552 243.249C97.6818 243.982 97.1552 244.549 96.4752 244.949C95.7952 245.349 94.9952 245.549 94.0752 245.549C93.1552 245.549 92.3485 245.349 91.6552 244.949C90.9752 244.549 90.4485 243.982 90.0752 243.249C89.7018 242.516 89.5152 241.656 89.5152 240.669C89.5152 239.669 89.7018 238.809 90.0752 238.089C90.4618 237.356 90.9952 236.789 91.6752 236.389C92.3685 235.989 93.1685 235.789 94.0752 235.789C94.9818 235.789 95.7752 235.989 96.4552 236.389C97.1352 236.789 97.6618 237.356 98.0352 238.089C98.4218 238.809 98.6152 239.669 98.6152 240.669ZM94.0752 237.109C93.1818 237.109 92.4685 237.429 91.9352 238.069C91.4152 238.696 91.1552 239.562 91.1552 240.669C91.1552 241.789 91.4085 242.662 91.9152 243.289C92.4352 243.916 93.1552 244.229 94.0752 244.229C94.9818 244.229 95.6885 243.916 96.1952 243.289C96.7152 242.649 96.9752 241.776 96.9752 240.669C96.9752 239.562 96.7152 238.696 96.1952 238.069C95.6885 237.429 94.9818 237.109 94.0752 237.109ZM104.93 245.009C104.157 245.009 103.443 244.862 102.79 244.569C102.137 244.262 101.61 243.769 101.21 243.089C100.81 242.409 100.61 241.509 100.61 240.389C100.61 239.376 100.803 238.529 101.19 237.849C101.59 237.169 102.137 236.656 102.83 236.309C103.523 235.962 104.317 235.789 105.21 235.789C105.823 235.789 106.383 235.869 106.89 236.029C107.41 236.176 107.843 236.362 108.19 236.589C108.39 236.722 108.55 236.876 108.67 237.049C108.803 237.209 108.87 237.409 108.87 237.649V243.829H107.27V237.669C107.043 237.522 106.757 237.396 106.41 237.289C106.077 237.169 105.677 237.109 105.21 237.109C104.317 237.109 103.597 237.382 103.05 237.929C102.503 238.476 102.23 239.289 102.23 240.369C102.23 241.569 102.503 242.422 103.05 242.929C103.61 243.436 104.297 243.689 105.11 243.689C105.697 243.689 106.17 243.589 106.53 243.389C106.89 243.189 107.177 242.969 107.39 242.729L107.47 244.149C107.27 244.362 106.95 244.562 106.51 244.749C106.083 244.922 105.557 245.009 104.93 245.009ZM107.27 245.589V243.489H108.87V245.689C108.87 246.569 108.677 247.276 108.29 247.809C107.917 248.342 107.397 248.729 106.73 248.969C106.077 249.209 105.337 249.329 104.51 249.329C103.843 249.329 103.27 249.256 102.79 249.109C102.31 248.962 101.983 248.842 101.81 248.749C101.41 248.522 101.21 248.236 101.21 247.889C101.21 247.702 101.25 247.542 101.33 247.409C101.423 247.289 101.537 247.196 101.67 247.129C101.95 247.342 102.343 247.536 102.85 247.709C103.37 247.896 103.923 247.989 104.51 247.989C105.403 247.989 106.083 247.796 106.55 247.409C107.03 247.022 107.27 246.416 107.27 245.589Z" fill="#EDE4D0"/>
<path d="M99.3012 2.43647C88.8791 47.6045 171.662 60.6692 95.077 115.322C18.492 169.974 74.2864 205.426 74.2864 205.426" stroke="#D7CDB7" stroke-width="5" stroke-linecap="round"/>
</svg>
