<svg width="467" height="933" viewBox="0 0 467 933" fill="none" xmlns="http://www.w3.org/2000/svg">
<path d="M383.258 228.375C387.32 238.482 390.527 234.151 389.458 221.637C388.389 209.124 395.872 207.198 397.368 225.487C398.865 243.776 392.237 250.514 387.748 250.514C383.258 250.514 374.921 244.318 374.921 213.455C374.921 187.947 378.982 168.654 387.748 162.879C396.513 157.103 400.361 164.364 403.782 169.658C407.202 174.952 414.54 191.292 420.03 219.231C423.183 235.277 425.621 249.846 428.154 273.616C431.46 304.646 432.919 345.435 432.643 384.313V932.5H439.057V384.313C439.848 331.117 436.463 287.699 431.686 253.394C426.133 213.52 418.7 185.957 413.758 169.658C406.992 147.34 396.055 137.016 385.553 144.829C381.787 147.631 378.077 152.765 374.635 160.513C368.027 175.391 366.725 197.894 367.01 206.717C367.01 219.712 370.645 265.916 386.251 269.285C391.884 270.501 395.855 266.69 399.366 258.696C399.702 257.932 400.033 257.13 400.361 256.29C404.124 246.664 403.976 230.3 403.782 225.487C402.65 197.458 392.665 180.246 384.969 189.872C381.138 194.662 380.693 208.642 380.693 208.642C380.693 208.642 380.009 220.29 383.258 228.375Z" fill="#D5D5D5"/>
<path d="M377.99 59.7234C374.112 67.7333 376.802 78.7901 379.338 74.2445L380.813 72.5231C383.201 70.3609 383.5 91.5374 376.976 91.4825C370.453 91.4276 370.236 78.3501 370.86 68.34C371.483 58.33 374.675 39.4272 384.794 42.6235C393.158 45.2653 397.521 67.1475 397.953 77.9939C398.385 88.8404 398.337 100.852 392.934 116.609C389.066 127.89 375.567 139.091 368.037 139.028C360.507 138.964 354.786 138.863 347.769 131.793C337.861 121.81 322.494 90.7267 322.494 90.7267C322.494 90.7267 304.37 55.1114 295.391 36.0716C286.412 17.0319 273.959 0.000692081 260.077 2.34833C249.127 4.2002 233.535 23.7863 233.535 23.7863C233.535 23.7863 248.017 7.20916 258.703 7.9451C263.018 8.24223 277.452 7.94509 290.383 33.9347C303.314 59.9242 331.275 126.257 348.291 143.371C361.601 156.758 374.985 154.678 385.553 144.829C388.495 142.088 391.219 138.744 393.662 134.964C404.881 117.607 406.489 65.798 401.786 48.1612C397.083 30.5244 390.282 26.0175 387.349 25.7393C385.98 25.3067 383.434 25.3559 380.5 26.7654C374.305 29.7416 366.382 38.7827 364.161 62.1597C363.23 71.9602 363.466 79.781 364.652 86.8933C365.115 89.6668 365.722 92.3325 366.461 94.9658C369.094 104.352 374.48 105.717 376.085 105.783C385.433 106.162 392.464 85.6813 390.377 67.5243C389.339 58.4883 386.29 56.5121 384.817 56.0469C384.817 56.0469 381.093 53.3154 377.99 59.7234Z" fill="#D5D5D5"/>
<path d="M389.458 221.637C390.527 234.151 387.32 238.482 383.258 228.375C380.009 220.29 380.693 208.642 380.693 208.642C380.693 208.642 381.138 194.662 384.969 189.872C392.665 180.246 402.65 197.458 403.782 225.487C403.941 229.43 404.069 241.123 402.042 250.514C402.042 250.514 407.972 273.135 409.768 282.279C411.564 291.424 419.059 336.025 418.319 385.756L420.395 916.576L420.424 923.837H432.643V384.313C432.919 345.435 431.46 304.646 428.154 273.616C425.621 249.846 423.183 235.277 420.03 219.231C414.54 191.292 407.202 174.952 403.782 169.658C400.361 164.364 396.513 157.103 387.748 162.879C378.982 168.654 374.921 187.947 374.921 213.455C374.921 244.318 383.258 250.514 387.748 250.514C392.237 250.514 398.865 243.776 397.368 225.487C395.872 207.198 388.389 209.124 389.458 221.637Z" fill="#D5D5D5"/>
<path d="M402.042 250.514C401.594 252.588 401.042 254.549 400.361 256.29C400.033 257.13 399.702 257.932 399.366 258.696C405.278 282.279 414.044 313.563 414.044 384.313V932.5H420.457L420.424 923.837L420.395 916.576L418.319 385.756C419.059 336.025 411.564 291.424 409.768 282.279C407.972 273.135 402.042 250.514 402.042 250.514Z" fill="#D5D5D5"/>
<path fill-rule="evenodd" clip-rule="evenodd" d="M233.535 1.61081V23.7863C238.641 13.501 244.035 6.35185 249.403 1.61081H233.535ZM286.156 1.59646C286.949 2.40168 287.678 3.23933 288.336 4.09478C293.352 10.619 301.332 27.4789 309.457 44.6473C316.917 60.4077 324.499 76.4281 330.025 84.9512C341.569 102.759 352.045 103.24 358.673 96.9835C362.117 93.7312 364.516 87.2669 364.652 86.8933C363.466 79.781 363.23 71.9602 364.161 62.1597C366.246 40.2219 373.351 30.9092 379.338 27.386C358.836 37.8308 347.501 27.2266 331.506 1.59646H286.156Z" fill="#D5D5D5"/>
<path d="M413.402 83.2151C411.073 79.8867 408.324 75.1446 406.275 68.6753C406.275 68.6753 400.879 101.551 405.848 125.616C407.853 135.326 412.119 150.491 420.885 157.229C429.65 163.967 432.429 163.967 436.277 166.374C440.126 168.78 444.612 176.394 446.778 183.809C448.531 188.509 450.622 197.51 451.336 203.433C451.593 205.563 451.758 207.326 451.845 208.412C453.763 232.33 449.048 250.366 443.261 245.067C440.38 242.43 439.205 234.632 438.783 230.865C438.783 230.865 437.838 213.719 438.554 213.389C439.27 213.059 439.732 214.984 442.05 221.722C444.367 228.46 449.053 227.415 447.777 210.724C446.5 194.033 442.58 193.505 439.732 195.123C436.884 196.742 431.895 204.95 434.798 230.836C437.197 252.231 444.529 263.349 447.829 264.431C451.129 265.512 454.663 265.519 458.311 251.502C463.306 232.303 453.808 181.294 453.808 181.294C453.808 181.294 438.708 102.297 438.708 69.9542C437.9 71.2074 436.934 73.5765 436.608 74.4821C430.222 92.1862 423.289 91.4384 420.269 89.6338C418.805 89.1714 416.2 87.213 413.402 83.2151Z" fill="#D5D5D5"/>
<path d="M438.554 213.389C437.838 213.719 438.783 230.865 438.783 230.865C439.205 234.632 440.38 242.43 443.261 245.067C449.048 250.366 453.763 232.33 451.845 208.412C451.758 207.326 451.593 205.563 451.336 203.433C450.622 197.51 448.531 188.509 446.778 183.809C444.155 176.803 441.138 174.958 437.349 178.301C427.765 186.753 428.275 225.254 430.563 245.66C430.945 248.185 431.319 250.762 431.686 253.394C434.752 270.591 441.193 285.118 447.335 288.055C454.382 291.424 461.291 286.9 464.711 268.322C466.422 259.031 467.279 239.509 465.567 221.004C462.388 186.653 435.411 89.7789 442.263 60.8985L443.499 55.8604C442.77 58.5303 441.617 62.2568 441.617 62.2568C441.617 62.2568 438.87 69.7036 438.708 69.9542C438.708 102.297 453.808 181.294 453.808 181.294C453.808 181.294 463.306 232.303 458.311 251.502C454.663 265.519 451.129 265.512 447.829 264.431C444.529 263.349 437.197 252.231 434.798 230.836C431.895 204.95 436.884 196.742 439.732 195.123C442.58 193.505 446.5 194.033 447.777 210.724C449.053 227.415 444.367 228.46 442.05 221.722C439.732 214.984 439.27 213.059 438.554 213.389Z" fill="#D5D5D5"/>
<path d="M413.758 169.658C418.374 184.881 425.163 209.931 430.563 245.66C428.275 225.254 427.765 186.753 437.349 178.301C441.138 174.958 444.155 176.803 446.778 183.809C444.612 176.394 440.126 168.78 436.277 166.374C432.429 163.967 429.65 163.967 420.885 157.229C412.119 150.491 407.853 135.326 405.848 125.616C400.879 101.551 406.275 68.6753 406.275 68.6753C403.18 58.9012 402.098 52.8001 402.779 34.0592C403.284 20.1486 404.97 10.0342 407.538 1.59646H401.707H397.518C395.436 4.34723 393.325 7.09277 391.168 9.52004C387.748 13.3703 385.516 15.1357 380.479 17.7019C361.761 27.2378 350.454 21.9987 336.448 1.59646H331.506C347.501 27.2266 358.836 37.8308 379.338 27.386C379.731 27.1549 380.119 26.9486 380.5 26.7654C383.434 25.3559 385.98 25.3067 387.349 25.7393C390.282 26.0175 397.083 30.5244 401.786 48.1612C406.489 65.798 404.881 117.607 393.662 134.964C391.219 138.744 388.495 142.088 385.553 144.829C396.055 137.016 406.992 147.34 413.758 169.658Z" fill="#D5D5D5"/>
<path d="M416.761 47.3171C413.983 34.318 418.321 22.2907 420.238 29.914L421.487 33.1795C423.599 37.6745 426.976 11.0695 420.34 6.34122C413.705 1.6129 411.586 18.0184 410.767 31.1573C409.948 44.2961 412.418 73.8565 423.163 77.2505C432.044 80.0557 437.683 52.2783 439.696 38.8565C441.239 28.5648 442.733 17.0999 441.796 1.59646H429.327C432.878 14.2781 433.594 32.483 430.478 46.5461C428.112 57.2285 424.727 57.4892 423.163 56.9952C423.163 56.9952 418.984 57.7164 416.761 47.3171Z" fill="#D5D5D5"/>
<path d="M407.538 1.59646C404.97 10.0342 403.284 20.1486 402.779 34.0592C402.098 52.8001 403.18 58.9012 406.275 68.6753C407.76 73.3639 409.613 77.1451 411.407 80.1386C412.088 81.2756 412.761 82.2989 413.402 83.2151C416.2 87.213 418.805 89.1714 420.269 89.6338C423.289 91.4384 430.222 92.1862 436.608 74.4821C436.934 73.5765 437.9 71.2074 438.708 69.9542C438.87 69.7036 441.617 62.2568 441.617 62.2568C441.617 62.2568 442.77 58.5303 443.499 55.8604L444.04 53.6538C447.986 35.7955 449.47 18.1008 448.788 1.59646H441.796C442.733 17.0999 441.239 28.5648 439.696 38.8565C437.683 52.2783 432.044 80.0557 423.163 77.2505C412.418 73.8565 409.948 44.2961 410.767 31.1573C411.586 18.0184 413.705 1.6129 420.34 6.34122C426.976 11.0695 423.599 37.6745 421.487 33.1795L420.238 29.914C418.321 22.2907 413.983 34.318 416.761 47.3171C418.984 57.7164 423.163 56.9952 423.163 56.9952C424.727 57.4892 428.112 57.2285 430.478 46.5461C433.594 32.483 432.878 14.2781 429.327 1.59646H407.538Z" fill="#D5D5D5"/>
<path d="M380.479 17.7019C385.516 15.1357 387.748 13.3703 391.168 9.52004C393.325 7.09277 395.436 4.34723 397.518 1.59646H336.448C350.454 21.9987 361.761 27.2378 380.479 17.7019Z" fill="#D5D5D5"/>
<path d="M366.461 94.9658C365.722 92.3325 365.115 89.6668 364.652 86.8933C364.516 87.2669 362.117 93.7312 358.673 96.9835C352.045 103.24 341.569 102.759 330.025 84.9512C324.499 76.4281 316.917 60.4077 309.457 44.6473C301.332 27.4789 293.352 10.619 288.336 4.09478C287.678 3.23933 286.949 2.40168 286.156 1.59646H280.197C283.29 3.83783 286.116 6.91952 288.55 10.8325C294.386 20.2179 299.812 32.152 306.722 46.4479C315.758 65.1417 324.267 85.9135 333.025 97.9457C341.783 109.978 353.114 110.459 359.741 104.202C363.29 100.853 366.461 94.9658 366.461 94.9658Z" fill="#D5D5D5"/>
<path d="M379.338 74.2445C376.802 78.7901 374.112 67.7333 377.99 59.7234C381.093 53.3154 384.817 56.0469 384.817 56.0469C386.29 56.5121 389.339 58.4883 390.377 67.5243C392.464 85.6813 385.433 106.162 376.085 105.783C374.48 105.717 369.094 104.352 366.461 94.9658C366.461 94.9658 363.29 100.853 359.741 104.202C353.114 110.459 341.783 109.978 333.025 97.9457C324.267 85.9135 315.758 65.1417 306.722 46.4479C299.812 32.152 294.386 20.2179 288.55 10.8325C286.116 6.91952 283.29 3.83783 280.197 1.59646L252.423 1.61081C245.593 5.89437 239.011 13.2659 233.535 23.7863C233.535 23.7863 249.127 4.2002 260.077 2.34833C273.959 0.000692081 286.412 17.0319 295.391 36.0716C304.37 55.1114 322.494 90.7267 322.494 90.7267C322.494 90.7267 337.861 121.81 347.769 131.793C354.786 138.863 360.507 138.964 368.037 139.028C375.567 139.091 389.066 127.89 392.934 116.609C398.337 100.852 398.385 88.8404 397.953 77.9939C397.521 67.1475 393.158 45.2653 384.794 42.6235C374.675 39.4272 371.483 58.33 370.86 68.34C370.236 78.3501 370.453 91.4276 376.976 91.4825C383.5 91.5374 383.201 70.3609 380.813 72.5231L379.338 74.2445Z" fill="#D5D5D5"/>
<path d="M233.535 23.7863C239.011 13.2659 245.593 5.89437 252.423 1.61081H249.403C244.035 6.35185 238.641 13.501 233.535 23.7863Z" fill="#D5D5D5"/>
<path d="M83.7418 228.375C79.6798 238.482 76.4729 234.151 77.542 221.637C78.611 209.124 71.1283 207.198 69.6318 225.487C68.1353 243.776 74.7628 250.514 79.2523 250.514C83.7418 250.514 92.0795 244.318 92.0795 213.455C92.0795 187.947 88.0177 168.654 79.2523 162.879C70.4869 157.103 66.6387 164.364 63.2181 169.658C59.7976 174.952 52.4597 191.292 46.9702 219.231C43.8174 235.277 41.379 249.846 38.8463 273.616C35.5402 304.646 34.0809 345.435 34.3567 384.313V932.5H27.9431V384.313C27.1521 331.117 30.5373 287.699 35.3144 253.394C40.867 213.52 48.3002 185.957 53.2418 169.658C60.0084 147.34 70.9448 137.016 81.4471 144.829C85.213 147.631 88.923 152.765 92.365 160.513C98.9735 175.391 100.275 197.894 99.9897 206.717C99.9897 219.712 96.3553 265.916 80.7488 269.285C75.1157 270.501 71.1452 266.69 67.6341 258.696C67.2984 257.932 66.967 257.13 66.6387 256.29C62.876 246.664 63.0238 230.3 63.2181 225.487C64.35 197.458 74.3351 180.246 82.0314 189.872C85.8616 194.662 86.3072 208.642 86.3072 208.642C86.3072 208.642 86.9913 220.29 83.7418 228.375Z" fill="#D5D5D5"/>
<path d="M89.0096 59.7234C92.888 67.7333 90.198 78.7901 87.662 74.2445L86.1869 72.5231C83.7994 70.3609 83.5005 91.5374 90.0235 91.4825C96.5466 91.4276 96.7644 78.3501 96.1405 68.34C95.5166 58.33 92.3253 39.4272 82.2061 42.6235C73.8425 45.2653 69.4786 67.1475 69.0466 77.9939C68.6146 88.8404 68.663 100.852 74.0659 116.609C77.9345 127.89 91.4328 139.091 98.963 139.028C106.493 138.964 112.214 138.863 119.231 131.793C129.139 121.81 144.506 90.7267 144.506 90.7267C144.506 90.7267 162.63 55.1114 171.609 36.0716C180.588 17.0319 193.041 0.000692081 206.923 2.34833C217.873 4.2002 233.465 23.7863 233.465 23.7863C233.465 23.7863 218.983 7.20916 208.297 7.9451C203.982 8.24223 189.548 7.94509 176.617 33.9347C163.686 59.9242 135.725 126.257 118.709 143.371C105.399 156.758 92.015 154.678 81.4471 144.829C78.505 142.088 75.7811 138.744 73.3378 134.964C62.1187 117.607 60.5106 65.798 65.2139 48.1612C69.9173 30.5244 76.7179 26.0175 79.6506 25.7393C81.02 25.3067 83.5661 25.3559 86.4999 26.7654C92.6947 29.7416 100.618 38.7827 102.839 62.1597C103.77 71.9602 103.534 79.781 102.348 86.8933C101.885 89.6668 101.278 92.3325 100.539 94.9658C97.9058 104.352 92.5199 105.717 90.9148 105.783C81.5674 106.162 74.5364 85.6813 76.623 67.5243C77.6615 58.4883 80.7104 56.5121 82.1832 56.0469C82.1832 56.0469 85.9069 53.3154 89.0096 59.7234Z" fill="#D5D5D5"/>
<path d="M77.542 221.637C76.4729 234.151 79.6798 238.482 83.7418 228.375C86.9913 220.29 86.3072 208.642 86.3072 208.642C86.3072 208.642 85.8616 194.662 82.0314 189.872C74.3351 180.246 64.35 197.458 63.2181 225.487C63.0589 229.43 62.931 241.123 64.9581 250.514C64.9581 250.514 59.0281 273.135 57.2321 282.279C55.4362 291.424 47.9411 336.025 48.6806 385.756L46.6049 916.576L46.5765 923.837H34.3567V384.313C34.0809 345.435 35.5402 304.646 38.8463 273.616C41.379 249.846 43.8174 235.277 46.9702 219.231C52.4597 191.292 59.7976 174.952 63.2181 169.658C66.6387 164.364 70.4869 157.103 79.2523 162.879C88.0177 168.654 92.0795 187.947 92.0795 213.455C92.0795 244.318 83.7418 250.514 79.2523 250.514C74.7628 250.514 68.1353 243.776 69.6318 225.487C71.1283 207.198 78.611 209.124 77.542 221.637Z" fill="#D5D5D5"/>
<path d="M64.9581 250.514C65.4057 252.588 65.9582 254.549 66.6387 256.29C66.967 257.13 67.2984 257.932 67.6341 258.696C61.7216 282.279 52.9563 313.563 52.9563 384.313V932.5H46.5426L46.5765 923.837L46.6049 916.576L48.6806 385.756C47.9411 336.025 55.4362 291.424 57.2321 282.279C59.0281 273.135 64.9581 250.514 64.9581 250.514Z" fill="#D5D5D5"/>
<path fill-rule="evenodd" clip-rule="evenodd" d="M233.465 1.61081V23.7863C228.359 13.501 222.965 6.35185 217.597 1.61081H233.465ZM180.844 1.59646C180.051 2.40168 179.322 3.23933 178.664 4.09478C173.648 10.619 165.668 27.4789 157.543 44.6473C150.083 60.4077 142.501 76.4281 136.975 84.9512C125.431 102.759 114.955 103.24 108.328 96.9835C104.883 93.7312 102.484 87.2669 102.348 86.8933C103.534 79.781 103.77 71.9602 102.839 62.1597C100.754 40.2219 93.6486 30.9092 87.662 27.386C108.164 37.8308 119.499 27.2266 135.494 1.59646H180.844Z" fill="#D5D5D5"/>
<path d="M53.598 83.2151C55.9273 79.8867 58.6756 75.1446 60.7247 68.6753C60.7247 68.6753 66.1214 101.551 61.1519 125.616C59.1466 135.326 54.8807 150.491 46.1154 157.229C37.3501 163.967 34.5709 163.967 30.7227 166.374C26.8745 168.78 22.3876 176.394 20.2217 183.809C18.4686 188.509 16.378 197.51 15.6639 203.433C15.4071 205.563 15.242 207.326 15.1549 208.412C13.2367 232.33 17.9518 250.366 23.7393 245.067C26.6196 242.43 27.7947 234.632 28.2172 230.865C28.2172 230.865 29.1618 213.719 28.4457 213.389C27.7296 213.059 27.2681 214.984 24.9504 221.722C22.6328 228.46 17.947 227.415 19.2234 210.724C20.4999 194.033 24.4201 193.505 27.2681 195.123C30.1161 196.742 35.1051 204.95 32.2024 230.836C29.8032 252.231 22.471 263.349 19.1711 264.431C15.8711 265.512 12.3367 265.519 8.68928 251.502C3.6939 232.303 13.1919 181.294 13.1919 181.294C13.1919 181.294 28.2919 102.297 28.2919 69.9542C29.0998 71.2074 30.0659 73.5765 30.3925 74.4821C36.7775 92.1862 43.7111 91.4384 46.7311 89.6338C48.195 89.1714 50.8002 87.213 53.598 83.2151Z" fill="#D5D5D5"/>
<path d="M28.4457 213.389C29.1618 213.719 28.2172 230.865 28.2172 230.865C27.7947 234.632 26.6196 242.43 23.7393 245.067C17.9518 250.366 13.2367 232.33 15.1549 208.412C15.242 207.326 15.4071 205.563 15.6639 203.433C16.378 197.51 18.4686 188.509 20.2217 183.809C22.8447 176.803 25.8616 174.958 29.6513 178.301C39.2345 186.753 38.7253 225.254 36.437 245.66C36.0554 248.185 35.6809 250.762 35.3144 253.394C32.2476 270.591 25.8073 285.118 19.6647 288.055C12.6185 291.424 5.70903 286.9 2.28853 268.322C0.577924 259.031 -0.27924 239.509 1.43328 221.004C4.61234 186.653 31.5891 89.7789 24.7372 60.8985L23.5011 55.8604C24.2301 58.5303 25.3835 62.2568 25.3835 62.2568C25.3835 62.2568 28.1304 69.7036 28.2919 69.9542C28.2919 102.297 13.1919 181.294 13.1919 181.294C13.1919 181.294 3.6939 232.303 8.68928 251.502C12.3367 265.519 15.8711 265.512 19.1711 264.431C22.471 263.349 29.8032 252.231 32.2024 230.836C35.1051 204.95 30.1161 196.742 27.2681 195.123C24.4201 193.505 20.4999 194.033 19.2234 210.724C17.947 227.415 22.6328 228.46 24.9504 221.722C27.2681 214.984 27.7296 213.059 28.4457 213.389Z" fill="#D5D5D5"/>
<path d="M53.2418 169.658C48.6263 184.881 41.8373 209.931 36.437 245.66C38.7253 225.254 39.2345 186.753 29.6513 178.301C25.8616 174.958 22.8447 176.803 20.2217 183.809C22.3876 176.394 26.8745 168.78 30.7227 166.374C34.5709 163.967 37.3501 163.967 46.1154 157.229C54.8807 150.491 59.1466 135.326 61.1519 125.616C66.1214 101.551 60.7247 68.6753 60.7247 68.6753C63.8205 58.9012 64.9024 52.8001 64.2212 34.0592C63.7156 20.1486 62.0297 10.0342 59.4616 1.59646H65.2928H69.4825C71.564 4.34723 73.6753 7.09277 75.8317 9.52004C79.2523 13.3703 81.4838 15.1357 86.5211 17.7019C105.239 27.2378 116.546 21.9987 130.552 1.59646H135.494C119.499 27.2266 108.164 37.8308 87.662 27.386C87.2692 27.1549 86.8813 26.9486 86.4999 26.7654C83.5661 25.3559 81.02 25.3067 79.6506 25.7393C76.7179 26.0175 69.9173 30.5244 65.2139 48.1612C60.5106 65.798 62.1187 117.607 73.3378 134.964C75.7811 138.744 78.505 142.088 81.4471 144.829C70.9448 137.016 60.0084 147.34 53.2418 169.658Z" fill="#D5D5D5"/>
<path d="M50.2387 47.3171C53.0167 34.318 48.679 22.2907 46.762 29.914L45.5132 33.1795C43.4013 37.6745 40.0243 11.0695 46.6597 6.34122C53.2952 1.6129 55.4143 18.0184 56.2331 31.1573C57.052 44.2961 54.5816 73.8565 43.8365 77.2505C34.9556 80.0557 29.3175 52.2783 27.3045 38.8565C25.7609 28.5648 24.267 17.0999 25.2038 1.59646H37.6729C34.1223 14.2781 33.4063 32.483 36.5216 46.5461C38.888 57.2285 42.2726 57.4892 43.8365 56.9952C43.8365 56.9952 48.0163 57.7164 50.2387 47.3171Z" fill="#D5D5D5"/>
<path d="M59.4616 1.59646C62.0297 10.0342 63.7156 20.1486 64.2212 34.0592C64.9024 52.8001 63.8205 58.9012 60.7247 68.6753C59.2396 73.3639 57.3873 77.1451 55.5934 80.1386C54.9121 81.2756 54.2391 82.2989 53.598 83.2151C50.8002 87.213 48.195 89.1714 46.7311 89.6338C43.7111 91.4384 36.7775 92.1862 30.3925 74.4821C30.0659 73.5765 29.0998 71.2074 28.2919 69.9542C28.1304 69.7036 25.3835 62.2568 25.3835 62.2568C25.3835 62.2568 24.2301 58.5303 23.5011 55.8604L22.9598 53.6538C19.0137 35.7955 17.5298 18.1008 18.2121 1.59646H25.2038C24.267 17.0999 25.7609 28.5648 27.3045 38.8565C29.3175 52.2783 34.9556 80.0557 43.8365 77.2505C54.5816 73.8565 57.052 44.2961 56.2331 31.1573C55.4143 18.0184 53.2952 1.6129 46.6597 6.34122C40.0243 11.0695 43.4013 37.6745 45.5132 33.1795L46.762 29.914C48.679 22.2907 53.0167 34.318 50.2387 47.3171C48.0163 57.7164 43.8365 56.9952 43.8365 56.9952C42.2726 57.4892 38.888 57.2285 36.5216 46.5461C33.4063 32.483 34.1223 14.2781 37.6729 1.59646H59.4616Z" fill="#D5D5D5"/>
<path d="M86.5211 17.7019C81.4838 15.1357 79.2523 13.3703 75.8317 9.52004C73.6753 7.09277 71.564 4.34723 69.4825 1.59646H130.552C116.546 21.9987 105.239 27.2378 86.5211 17.7019Z" fill="#D5D5D5"/>
<path d="M100.539 94.9658C101.278 92.3325 101.885 89.6668 102.348 86.8933C102.484 87.2669 104.883 93.7312 108.328 96.9835C114.955 103.24 125.431 102.759 136.975 84.9512C142.501 76.4281 150.083 60.4077 157.543 44.6473C165.668 27.4789 173.648 10.619 178.664 4.09478C179.322 3.23933 180.051 2.40168 180.844 1.59646H186.803C183.71 3.83783 180.884 6.91952 178.45 10.8325C172.614 20.2179 167.188 32.152 160.278 46.4479C151.242 65.1417 142.733 85.9135 133.975 97.9457C125.217 109.978 113.886 110.459 107.259 104.202C103.71 100.853 100.539 94.9658 100.539 94.9658Z" fill="#D5D5D5"/>
<path d="M87.662 74.2445C90.198 78.7901 92.888 67.7333 89.0096 59.7234C85.9069 53.3154 82.1832 56.0469 82.1832 56.0469C80.7104 56.5121 77.6615 58.4883 76.623 67.5243C74.5364 85.6813 81.5674 106.162 90.9148 105.783C92.5199 105.717 97.9058 104.352 100.539 94.9658C100.539 94.9658 103.71 100.853 107.259 104.202C113.886 110.459 125.217 109.978 133.975 97.9457C142.733 85.9135 151.242 65.1417 160.278 46.4479C167.188 32.152 172.614 20.2179 178.45 10.8325C180.884 6.91952 183.71 3.83783 186.803 1.59646L214.577 1.61081C221.407 5.89437 227.989 13.2659 233.465 23.7863C233.465 23.7863 217.873 4.2002 206.923 2.34833C193.041 0.000692081 180.588 17.0319 171.609 36.0716C162.63 55.1114 144.506 90.7267 144.506 90.7267C144.506 90.7267 129.139 121.81 119.231 131.793C112.214 138.863 106.493 138.964 98.963 139.028C91.4328 139.091 77.9345 127.89 74.0659 116.609C68.663 100.852 68.6146 88.8404 69.0466 77.9939C69.4786 67.1475 73.8425 45.2653 82.2061 42.6235C92.3253 39.4272 95.5166 58.33 96.1405 68.34C96.7644 78.3501 96.5466 91.4276 90.0235 91.4825C83.5005 91.5374 83.7994 70.3609 86.1869 72.5231L87.662 74.2445Z" fill="#D5D5D5"/>
<path d="M233.465 23.7863C227.989 13.2659 221.407 5.89437 214.577 1.61081H217.597C222.965 6.35185 228.359 13.501 233.465 23.7863Z" fill="#D5D5D5"/>
<path d="M432.643 384.313C432.919 345.435 431.46 304.646 428.154 273.616C425.621 249.846 423.183 235.277 420.03 219.231C414.54 191.292 407.202 174.952 403.782 169.658C400.361 164.364 396.513 157.103 387.748 162.879C378.982 168.654 374.921 187.947 374.921 213.455C374.921 244.318 383.258 250.514 387.748 250.514C392.237 250.514 398.865 243.776 397.368 225.487C395.872 207.198 388.389 209.124 389.458 221.637C390.527 234.151 387.32 238.482 383.258 228.375C380.009 220.29 380.693 208.642 380.693 208.642C380.693 208.642 381.138 194.662 384.969 189.872C392.665 180.246 402.65 197.458 403.782 225.487M432.643 384.313V932.5H439.057V384.313C439.848 331.117 436.463 287.699 431.686 253.394M432.643 384.313V923.837H420.424M431.686 253.394C426.133 213.52 418.7 185.957 413.758 169.658M431.686 253.394C431.319 250.762 430.945 248.185 430.563 245.66M431.686 253.394C434.752 270.591 441.193 285.118 447.335 288.055C454.382 291.424 461.291 286.9 464.711 268.322C466.422 259.031 467.279 239.509 465.567 221.004C462.388 186.653 435.411 89.7789 442.263 60.8985L443.499 55.8604M431.686 253.394C431.234 250.864 430.856 248.277 430.563 245.66M413.758 169.658C406.992 147.34 396.055 137.016 385.553 144.829M413.758 169.658C418.374 184.881 425.163 209.931 430.563 245.66M385.553 144.829C381.787 147.631 378.077 152.765 374.635 160.513C368.027 175.391 366.725 197.894 367.01 206.717C367.01 219.712 370.645 265.916 386.251 269.285C391.884 270.501 395.855 266.69 399.366 258.696M385.553 144.829C374.985 154.678 361.601 156.758 348.291 143.371C331.275 126.257 303.314 59.9242 290.383 33.9347C277.452 7.94509 263.018 8.24223 258.703 7.9451C248.017 7.20916 233.535 23.7863 233.535 23.7863M385.553 144.829C388.495 142.088 391.219 138.744 393.662 134.964C404.881 117.607 406.489 65.798 401.786 48.1612C397.083 30.5244 390.282 26.0175 387.349 25.7393C385.98 25.3067 383.434 25.3559 380.5 26.7654M399.366 258.696C399.702 257.932 400.033 257.13 400.361 256.29M399.366 258.696C405.278 282.279 414.044 313.563 414.044 384.313V932.5H420.457M400.361 256.29C404.124 246.664 403.976 230.3 403.782 225.487M400.361 256.29C401.042 254.549 401.594 252.588 402.042 250.514M403.782 225.487C403.941 229.43 404.069 241.123 402.042 250.514M233.535 23.7863C233.535 23.7863 249.127 4.2002 260.077 2.34833C273.959 0.000692081 286.412 17.0319 295.391 36.0716C304.37 55.1114 322.494 90.7267 322.494 90.7267C322.494 90.7267 337.861 121.81 347.769 131.793C354.786 138.863 360.507 138.964 368.037 139.028C375.567 139.091 389.066 127.89 392.934 116.609C398.337 100.852 398.385 88.8404 397.953 77.9939C397.521 67.1475 393.158 45.2653 384.794 42.6235C374.675 39.4272 371.483 58.33 370.86 68.34C370.236 78.3501 370.453 91.4276 376.976 91.4825C383.5 91.5374 383.201 70.3609 380.813 72.5231L379.338 74.2445C376.802 78.7901 374.112 67.7333 377.99 59.7234C381.093 53.3154 384.817 56.0469 384.817 56.0469C386.29 56.5121 389.339 58.4883 390.377 67.5243C392.464 85.6813 385.433 106.162 376.085 105.783C374.48 105.717 369.094 104.352 366.461 94.9658M233.535 23.7863V1.61081H249.403M233.535 23.7863C238.641 13.501 244.035 6.35185 249.403 1.61081M233.535 23.7863C239.011 13.2659 245.593 5.89437 252.423 1.61081M380.5 26.7654C374.305 29.7416 366.382 38.7827 364.161 62.1597M380.5 26.7654C380.119 26.9486 379.731 27.1549 379.338 27.386M380.5 26.7654C380.132 26.972 379.745 27.1786 379.338 27.386M380.5 26.7654C384.283 24.6444 386.149 22.5272 388.791 19.5303M380.5 26.7654C384.286 24.6425 386.152 22.5234 388.798 19.5223M364.161 62.1597C363.23 71.9602 363.466 79.781 364.652 86.8933M364.161 62.1597C366.246 40.2219 373.351 30.9092 379.338 27.386M364.652 86.8933C365.115 89.6668 365.722 92.3325 366.461 94.9658M364.652 86.8933C364.516 87.2669 362.117 93.7312 358.673 96.9835C352.045 103.24 341.569 102.759 330.025 84.9512M364.652 86.8933C364.657 86.8821 364.659 86.8764 364.659 86.8764M366.461 94.9658C366.461 94.9658 363.29 100.853 359.741 104.202C353.114 110.459 341.783 109.978 333.025 97.9457C324.267 85.9135 315.758 65.1417 306.722 46.4479C299.812 32.152 294.386 20.2179 288.55 10.8325C286.116 6.91952 283.29 3.83783 280.197 1.59646M402.042 250.514C402.042 250.514 407.972 273.135 409.768 282.279C411.564 291.424 419.059 336.025 418.319 385.756L420.395 916.576M420.395 916.576L420.424 923.837M420.395 916.576H420.389M420.395 916.576H432.609M420.395 916.576L420.457 932.5M420.424 923.837L420.457 932.5M249.403 1.61081H252.423M286.156 1.59646C286.949 2.40168 287.678 3.23933 288.336 4.09478M286.156 1.59646H331.506M286.156 1.59646H280.197M286.156 1.59646H441.796M288.336 4.09478C293.352 10.619 301.332 27.4789 309.457 44.6473C316.917 60.4077 324.499 76.4281 330.025 84.9512M288.336 4.09478C297.957 16.6083 318.48 67.1436 330.025 84.9512M379.338 27.386C358.836 37.8308 347.501 27.2266 331.506 1.59646M331.506 1.59646H336.448M331.506 1.59646H441.796M413.402 83.2151C411.073 79.8867 408.324 75.1446 406.275 68.6753M413.402 83.2151C416.2 87.213 418.805 89.1714 420.269 89.6338C423.289 91.4384 430.222 92.1862 436.608 74.4821C436.934 73.5765 437.9 71.2074 438.708 69.9542M413.402 83.2151C412.761 82.2989 412.088 81.2756 411.407 80.1386M406.275 68.6753C406.275 68.6753 400.879 101.551 405.848 125.616C407.853 135.326 412.119 150.491 420.885 157.229C429.65 163.967 432.429 163.967 436.277 166.374C440.126 168.78 444.612 176.394 446.778 183.809M406.275 68.6753C403.18 58.9012 402.098 52.8001 402.779 34.0592C403.284 20.1486 404.97 10.0342 407.538 1.59646M406.275 68.6753C407.76 73.3639 409.613 77.1451 411.407 80.1386M446.778 183.809C448.531 188.509 450.622 197.51 451.336 203.433M446.778 183.809C444.155 176.803 441.138 174.958 437.349 178.301C427.765 186.753 428.275 225.254 430.563 245.66M451.336 203.433C451.593 205.563 451.758 207.326 451.845 208.412C453.763 232.33 449.048 250.366 443.261 245.067C440.38 242.43 439.205 234.632 438.783 230.865C438.783 230.865 437.838 213.719 438.554 213.389C439.27 213.059 439.732 214.984 442.05 221.722C444.367 228.46 449.053 227.415 447.777 210.724C446.5 194.033 442.58 193.505 439.732 195.123C436.884 196.742 431.895 204.95 434.798 230.836C437.197 252.231 444.529 263.349 447.829 264.431C451.129 265.512 454.663 265.519 458.311 251.502C463.306 232.303 453.808 181.294 453.808 181.294C453.808 181.294 438.708 102.297 438.708 69.9542M451.336 203.433C451.336 203.433 451.029 185.612 442.05 171.583C433.071 157.554 418.158 158.588 413.189 134.524C410.913 124.577 406.801 93.2297 411.407 80.1386M438.708 69.9542C438.87 69.7036 441.617 62.2568 441.617 62.2568C441.617 62.2568 442.77 58.5303 443.499 55.8604M443.499 55.8604L444.04 53.6538M443.499 55.8604C443.754 54.9282 443.956 54.1248 444.04 53.6538M407.538 1.59646H401.707M407.538 1.59646H429.327M401.707 1.59646H397.518M401.707 1.59646C400.804 2.92909 399.903 4.28689 399.004 5.64144M397.518 1.59646C395.436 4.34723 393.325 7.09277 391.168 9.52004C387.748 13.3703 385.516 15.1357 380.479 17.7019C361.761 27.2378 350.454 21.9987 336.448 1.59646M397.518 1.59646H336.448M441.796 1.59646C442.733 17.0999 441.239 28.5648 439.696 38.8565C437.683 52.2783 432.044 80.0557 423.163 77.2505C412.418 73.8565 409.948 44.2961 410.767 31.1573C411.586 18.0184 413.705 1.6129 420.34 6.34122C426.976 11.0695 423.599 37.6745 421.487 33.1795L420.238 29.914C418.321 22.2907 413.983 34.318 416.761 47.3171C418.984 57.7164 423.163 56.9952 423.163 56.9952C424.727 57.4892 428.112 57.2285 430.478 46.5461C433.594 32.483 432.878 14.2781 429.327 1.59646M441.796 1.59646H429.327M441.796 1.59646H448.788C449.47 18.1008 447.986 35.7955 444.04 53.6538M429.327 1.59646C429.224 1.22619 429.117 0.860619 429.009 0.5M280.197 1.59646L252.423 1.61081M388.791 19.5303L388.798 19.5223M388.791 19.5303C388.793 19.5277 388.795 19.525 388.798 19.5223M399.004 5.64144L399.002 5.64359M399.004 5.64144L399.002 5.64359M399.002 5.64359C395.853 10.3875 392.729 15.0918 389.672 18.5334C389.378 18.8642 389.096 19.1846 388.821 19.4955C388.814 19.504 388.806 19.5125 388.799 19.521L388.798 19.5223M34.3567 384.313C34.0809 345.435 35.5402 304.646 38.8463 273.616C41.379 249.846 43.8174 235.277 46.9702 219.231C52.4597 191.292 59.7976 174.952 63.2181 169.658C66.6387 164.364 70.4869 157.103 79.2523 162.879C88.0177 168.654 92.0795 187.947 92.0795 213.455C92.0795 244.318 83.7418 250.514 79.2523 250.514C74.7628 250.514 68.1353 243.776 69.6318 225.487C71.1283 207.198 78.611 209.124 77.542 221.637C76.4729 234.151 79.6798 238.482 83.7418 228.375C86.9913 220.29 86.3072 208.642 86.3072 208.642C86.3072 208.642 85.8616 194.662 82.0314 189.872C74.3351 180.246 64.35 197.458 63.2181 225.487M34.3567 384.313V932.5H27.9431V384.313C27.1521 331.117 30.5373 287.699 35.3144 253.394M34.3567 384.313V923.837H46.5765M35.3144 253.394C40.867 213.52 48.3002 185.957 53.2418 169.658M35.3144 253.394C35.6809 250.762 36.0554 248.185 36.437 245.66M35.3144 253.394C32.2476 270.591 25.8073 285.118 19.6647 288.055C12.6185 291.424 5.70903 286.9 2.28853 268.322C0.577924 259.031 -0.27924 239.509 1.43328 221.004C4.61234 186.653 31.5891 89.7789 24.7372 60.8985L23.5011 55.8604M35.3144 253.394C35.7655 250.864 36.1436 248.277 36.437 245.66M53.2418 169.658C60.0084 147.34 70.9448 137.016 81.4471 144.829M53.2418 169.658C48.6263 184.881 41.8373 209.931 36.437 245.66M81.4471 144.829C85.213 147.631 88.923 152.765 92.365 160.513C98.9735 175.391 100.275 197.894 99.9897 206.717C99.9897 219.712 96.3553 265.916 80.7488 269.285C75.1157 270.501 71.1452 266.69 67.6341 258.696M81.4471 144.829C92.015 154.678 105.399 156.758 118.709 143.371C135.725 126.257 163.686 59.9242 176.617 33.9347C189.548 7.94509 203.982 8.24223 208.297 7.9451C218.983 7.20916 233.465 23.7863 233.465 23.7863M81.4471 144.829C78.505 142.088 75.7811 138.744 73.3378 134.964C62.1187 117.607 60.5106 65.798 65.2139 48.1612C69.9173 30.5244 76.7179 26.0175 79.6506 25.7393C81.02 25.3067 83.5661 25.3559 86.4999 26.7654M67.6341 258.696C67.2984 257.932 66.967 257.13 66.6387 256.29M67.6341 258.696C61.7216 282.279 52.9563 313.563 52.9563 384.313V932.5H46.5426M66.6387 256.29C62.876 246.664 63.0238 230.3 63.2181 225.487M66.6387 256.29C65.9582 254.549 65.4057 252.588 64.9581 250.514M63.2181 225.487C63.0589 229.43 62.931 241.123 64.9581 250.514M233.465 23.7863C233.465 23.7863 217.873 4.2002 206.923 2.34833C193.041 0.000692081 180.588 17.0319 171.609 36.0716C162.63 55.1114 144.506 90.7267 144.506 90.7267C144.506 90.7267 129.139 121.81 119.231 131.793C112.214 138.863 106.493 138.964 98.963 139.028C91.4328 139.091 77.9345 127.89 74.0659 116.609C68.663 100.852 68.6146 88.8404 69.0466 77.9939C69.4786 67.1475 73.8425 45.2653 82.2061 42.6235C92.3253 39.4272 95.5166 58.33 96.1405 68.34C96.7644 78.3501 96.5466 91.4276 90.0235 91.4825C83.5005 91.5374 83.7994 70.3609 86.1869 72.5231L87.662 74.2445C90.198 78.7901 92.888 67.7333 89.0096 59.7234C85.9069 53.3154 82.1832 56.0469 82.1832 56.0469C80.7104 56.5121 77.6615 58.4883 76.623 67.5243C74.5364 85.6813 81.5674 106.162 90.9148 105.783C92.5199 105.717 97.9058 104.352 100.539 94.9658M233.465 23.7863V1.61081H217.597M233.465 23.7863C228.359 13.501 222.965 6.35185 217.597 1.61081M233.465 23.7863C227.989 13.2659 221.407 5.89437 214.577 1.61081M86.4999 26.7654C92.6947 29.7416 100.618 38.7827 102.839 62.1597M86.4999 26.7654C86.8813 26.9486 87.2692 27.1549 87.662 27.386M86.4999 26.7654C86.8683 26.972 87.2548 27.1786 87.662 27.386M86.4999 26.7654C82.7175 24.6444 80.851 22.5272 78.2093 19.5303M86.4999 26.7654C82.7141 24.6425 80.8477 22.5234 78.2022 19.5223M102.839 62.1597C103.77 71.9602 103.534 79.781 102.348 86.8933M102.839 62.1597C100.754 40.2219 93.6486 30.9092 87.662 27.386M102.348 86.8933C101.885 89.6668 101.278 92.3325 100.539 94.9658M102.348 86.8933C102.484 87.2669 104.883 93.7312 108.328 96.9835C114.955 103.24 125.431 102.759 136.975 84.9512M102.348 86.8933C102.343 86.8821 102.341 86.8764 102.341 86.8764M100.539 94.9658C100.539 94.9658 103.71 100.853 107.259 104.202C113.886 110.459 125.217 109.978 133.975 97.9457C142.733 85.9135 151.242 65.1417 160.278 46.4479C167.188 32.152 172.614 20.2179 178.45 10.8325C180.884 6.91952 183.71 3.83783 186.803 1.59646M64.9581 250.514C64.9581 250.514 59.0281 273.135 57.2321 282.279C55.4362 291.424 47.9411 336.025 48.6806 385.756L46.6049 916.576M46.6049 916.576L46.5765 923.837M46.6049 916.576H46.6106M46.6049 916.576H34.3908M46.6049 916.576L46.5426 932.5M46.5765 923.837L46.5426 932.5M217.597 1.61081H214.577M180.844 1.59646C180.051 2.40168 179.322 3.23933 178.664 4.09478M180.844 1.59646H135.494M180.844 1.59646H186.803M180.844 1.59646H25.2038M178.664 4.09478C173.648 10.619 165.668 27.4789 157.543 44.6473C150.083 60.4077 142.501 76.4281 136.975 84.9512M178.664 4.09478C169.043 16.6083 148.52 67.1436 136.975 84.9512M87.662 27.386C108.164 37.8308 119.499 27.2266 135.494 1.59646M135.494 1.59646H130.552M135.494 1.59646H25.2038M53.598 83.2151C55.9273 79.8867 58.6756 75.1446 60.7247 68.6753M53.598 83.2151C50.8002 87.213 48.195 89.1714 46.7311 89.6338C43.7111 91.4384 36.7775 92.1862 30.3925 74.4821C30.0659 73.5765 29.0998 71.2074 28.2919 69.9542M53.598 83.2151C54.2391 82.2989 54.9121 81.2756 55.5934 80.1386M60.7247 68.6753C60.7247 68.6753 66.1214 101.551 61.1519 125.616C59.1466 135.326 54.8807 150.491 46.1154 157.229C37.3501 163.967 34.5709 163.967 30.7227 166.374C26.8745 168.78 22.3876 176.394 20.2217 183.809M60.7247 68.6753C63.8205 58.9012 64.9024 52.8001 64.2212 34.0592C63.7156 20.1486 62.0297 10.0342 59.4616 1.59646M60.7247 68.6753C59.2396 73.3639 57.3873 77.1451 55.5934 80.1386M20.2217 183.809C18.4686 188.509 16.378 197.51 15.6639 203.433M20.2217 183.809C22.8447 176.803 25.8616 174.958 29.6513 178.301C39.2345 186.753 38.7253 225.254 36.437 245.66M15.6639 203.433C15.4071 205.563 15.242 207.326 15.1549 208.412C13.2367 232.33 17.9518 250.366 23.7393 245.067C26.6196 242.43 27.7947 234.632 28.2172 230.865C28.2172 230.865 29.1618 213.719 28.4457 213.389C27.7296 213.059 27.2681 214.984 24.9504 221.722C22.6328 228.46 17.947 227.415 19.2234 210.724C20.4999 194.033 24.4201 193.505 27.2681 195.123C30.1161 196.742 35.1051 204.95 32.2024 230.836C29.8032 252.231 22.471 263.349 19.1711 264.431C15.8711 265.512 12.3367 265.519 8.68928 251.502C3.6939 232.303 13.1919 181.294 13.1919 181.294C13.1919 181.294 28.2919 102.297 28.2919 69.9542M15.6639 203.433C15.6639 203.433 15.9709 185.612 24.95 171.583C33.9291 157.554 48.842 158.588 53.8115 134.524C56.0869 124.577 60.1992 93.2297 55.5934 80.1386M28.2919 69.9542C28.1304 69.7036 25.3835 62.2568 25.3835 62.2568C25.3835 62.2568 24.2301 58.5303 23.5011 55.8604M23.5011 55.8604L22.9598 53.6538M23.5011 55.8604C23.2465 54.9282 23.0437 54.1248 22.9598 53.6538M59.4616 1.59646H65.2928M59.4616 1.59646H37.6729M65.2928 1.59646H69.4825M65.2928 1.59646C66.1955 2.92909 67.0971 4.28689 67.9964 5.64144M69.4825 1.59646C71.564 4.34723 73.6753 7.09277 75.8317 9.52004C79.2523 13.3703 81.4838 15.1357 86.5211 17.7019C105.239 27.2378 116.546 21.9987 130.552 1.59646M69.4825 1.59646H130.552M25.2038 1.59646C24.267 17.0999 25.7609 28.5648 27.3045 38.8565C29.3175 52.2783 34.9556 80.0557 43.8365 77.2505C54.5816 73.8565 57.052 44.2961 56.2331 31.1573C55.4143 18.0184 53.2952 1.6129 46.6597 6.34122C40.0243 11.0695 43.4013 37.6745 45.5132 33.1795L46.762 29.914C48.679 22.2907 53.0167 34.318 50.2387 47.3171C48.0163 57.7164 43.8365 56.9952 43.8365 56.9952C42.2726 57.4892 38.888 57.2285 36.5216 46.5461C33.4063 32.483 34.1223 14.2781 37.6729 1.59646M25.2038 1.59646H37.6729M25.2038 1.59646H18.2121C17.5298 18.1008 19.0137 35.7955 22.9598 53.6538M37.6729 1.59646C37.7765 1.22619 37.8827 0.860619 37.9911 0.5M186.803 1.59646L214.577 1.61081M78.2093 19.5303L78.2022 19.5223M78.2093 19.5303C78.207 19.5277 78.2046 19.525 78.2022 19.5223M67.9964 5.64144L67.9978 5.64359M67.9964 5.64144L67.9978 5.64359M67.9978 5.64359C71.1474 10.3875 74.2706 15.0918 77.3282 18.5334C77.6221 18.8642 77.9045 19.1846 78.1786 19.4955C78.1861 19.504 78.1936 19.5125 78.2011 19.521L78.2022 19.5223" stroke="black" stroke-linecap="round" stroke-linejoin="round"/>
</svg>
