<svg width="1441" height="2502" viewBox="0 0 1441 2502" fill="none" xmlns="http://www.w3.org/2000/svg">
<path fill-rule="evenodd" clip-rule="evenodd" d="M191.645 69.9569C192.428 67.559 193.373 65.1648 194.484 62.7821C193.687 65.3019 192.732 67.6918 191.645 69.9569Z" fill="#D5D5D5"/>
<path d="M1182.91 257.618C1195.48 268.659 1205.41 263.927 1202.1 250.257C1198.79 236.586 1221.95 234.483 1226.58 254.463C1231.21 274.443 1210.7 281.804 1196.81 281.804C1182.91 281.804 1157.11 275.035 1157.11 241.318C1157.11 213.451 1169.68 192.374 1196.81 186.065C1223.93 179.755 1235.84 187.687 1246.42 193.471C1257.01 199.255 1279.71 217.105 1296.7 247.628C1306.46 265.158 1314 281.074 1321.84 307.042C1332.07 340.941 1336.59 385.503 1335.73 427.975V2501H1355.58V420.907C1358.03 362.792 1347.55 315.36 1332.77 277.883C1315.59 234.321 1292.59 204.209 1277.29 186.403C1256.36 162.021 1222.51 150.743 1190.02 159.279C1178.36 162.34 1166.88 167.948 1156.23 176.413C1135.78 192.666 1131.75 217.25 1132.64 226.89C1132.64 241.086 1143.88 291.562 1192.18 295.243C1209.61 296.571 1221.89 293.512 1232.76 284.779C1233.8 283.944 1234.82 283.067 1235.84 282.15C1247.48 271.634 1247.03 259.721 1246.42 254.463C1242.92 223.842 1212.02 205.039 1188.21 215.554C1176.36 220.788 1174.98 236.06 1174.98 236.06C1174.98 236.06 1172.86 248.784 1182.91 257.618Z" fill="#D5D5D5"/>
<path d="M1166.61 65.1997C1154.61 73.9504 1162.94 86.0295 1170.78 81.0636L1175.35 79.1831C1182.74 76.8209 1183.66 99.9555 1163.48 99.8956C1143.29 99.8356 1142.62 85.5488 1144.55 74.6132C1146.48 63.6775 1156.35 43.0267 1187.67 46.5186C1213.55 49.4047 1227.05 73.3104 1228.39 85.1598C1229.72 97.0092 1229.57 110.132 1212.86 127.345C1200.88 139.67 1159.12 151.906 1135.81 151.837C1112.51 151.768 1094.81 151.657 1073.1 143.934C1042.44 133.027 994.885 99.0699 994.885 99.0699C994.885 99.0699 938.802 60.1612 911.017 39.3609C883.232 18.5606 844.696 -0.0454786 801.74 2.51925C767.857 4.54236 719.607 25.9396 719.607 25.9396C719.607 25.9396 764.42 7.82955 797.489 8.63354C810.84 8.95815 855.505 8.63354 895.519 37.0263C935.533 65.4191 1022.06 137.885 1074.71 156.582C1115.9 171.208 1157.31 170.038 1190.02 159.279C1199.12 156.284 1207.55 151.527 1215.11 147.398C1249.83 128.436 1254.8 71.8361 1240.25 52.5684C1225.69 33.3007 1204.65 28.3771 1195.57 28.0731C1191.34 27.6006 1183.46 27.6543 1174.38 29.1942C1155.21 32.4455 1130.69 42.3227 1123.82 67.8613C1120.94 78.5681 1121.67 87.1121 1125.34 94.882C1126.77 97.912 1128.65 100.824 1130.94 103.701C1139.09 113.955 1155.75 115.447 1160.72 115.518C1189.64 115.932 1211.4 93.558 1204.94 73.722C1201.73 63.8504 1192.3 61.6915 1187.74 61.1833C1187.74 61.1833 1176.21 58.1992 1166.61 65.1997Z" fill="#D5D5D5"/>
<path d="M1202.1 250.257C1205.41 263.927 1195.48 268.659 1182.91 257.618C1172.86 248.784 1174.98 236.06 1174.98 236.06C1174.98 236.06 1176.36 220.788 1188.21 215.554C1212.02 205.039 1242.92 223.842 1246.42 254.463C1246.92 258.77 1247.31 271.544 1241.04 281.804C1241.04 281.804 1259.39 306.516 1264.95 316.507C1270.5 326.497 1293.7 375.222 1291.41 429.552L1297.99 2492.5L1298.01 2500H1335.73V427.975C1336.59 385.503 1332.07 340.941 1321.84 307.042C1314 281.074 1306.46 265.158 1296.7 247.628C1279.71 217.105 1257.01 199.255 1246.42 193.471C1235.84 187.687 1223.93 179.755 1196.81 186.065C1169.68 192.374 1157.11 213.451 1157.11 241.318C1157.11 275.035 1182.91 281.804 1196.81 281.804C1210.7 281.804 1231.21 274.443 1226.58 254.463C1221.95 234.483 1198.79 236.586 1202.1 250.257Z" fill="#D5D5D5"/>
<path d="M1241.04 281.804C1239.65 284.069 1237.94 280.248 1235.84 282.15C1234.82 283.067 1233.8 283.944 1232.76 284.779C1251.05 310.542 1278.18 343.615 1278.18 420.907V2501H1298.02L1298.01 2500L1297.99 2492.5L1291.41 429.552C1293.7 375.222 1270.5 326.497 1264.95 316.507C1259.39 306.516 1241.04 281.804 1241.04 281.804Z" fill="#D5D5D5"/>
<path d="M255.625 250.453C243.055 261.495 233.132 256.763 236.44 243.092C239.748 229.421 216.593 227.318 211.963 247.298C207.332 267.278 227.84 274.64 241.733 274.64C255.625 274.64 281.426 267.87 281.426 234.153C281.426 206.286 267.533 185.781 240.409 179.471C213.286 173.162 202.701 180.523 192.116 186.306C181.531 192.09 158.825 209.941 141.838 240.463C132.082 257.993 124.537 273.909 116.699 299.878C106.469 333.776 101.953 378.338 102.807 420.81L116.669 2492H155.377V2501.5H175.254L161.257 419.758C161.257 342.467 187.485 309.342 205.781 283.578C204.742 282.743 203.717 281.867 202.701 280.949C191.057 270.433 191.515 252.556 192.116 247.298C195.619 216.677 226.517 197.874 250.332 208.39C262.185 213.623 263.563 228.896 263.563 228.896C263.563 228.896 265.68 241.62 255.625 250.453Z" fill="#D5D5D5"/>
<path d="M116.669 2499.89H155.377V2501.5V2492H116.669V2499.89Z" fill="#D5D5D5"/>
<path fill-rule="evenodd" clip-rule="evenodd" d="M213.939 1.68787L201 1.69974C203.793 3.15533 206.582 4.63841 209.364 6.11791C219.111 11.3007 228.777 16.4409 238.239 20.201C248.824 24.4073 255.729 26.3359 271.317 29.1395C334.738 40.5463 368.747 29.6804 418.181 1.72504L402.955 1.68782C359.606 23.985 324.617 29.7118 266.686 19.2926C251.098 16.489 244.193 14.5605 233.608 10.3541C226.928 7.69947 220.388 4.69634 213.939 1.68787ZM191.645 69.9569C192.428 67.559 193.373 65.1648 194.484 62.7821C193.687 65.3019 192.732 67.6918 191.645 69.9569Z" fill="#D5D5D5"/>
<path fill-rule="evenodd" clip-rule="evenodd" d="M720.255 1.71352L719.607 25.9396C735.407 14.7032 752.1 6.89296 768.711 1.71352H720.255ZM882.438 1.69785C884.895 2.57753 887.15 3.49263 889.185 4.42719C904.707 11.5547 929.399 29.9737 954.544 48.7296C977.626 65.9474 1001.09 83.4491 1018.19 92.7604C1053.91 112.215 1086.33 112.741 1106.84 105.905C1117.5 102.352 1124.92 95.2902 1125.34 94.882C1121.67 87.1121 1120.94 78.5681 1123.82 67.8613C1130.27 43.8949 1152.26 33.7211 1170.78 29.8722C1107.34 41.2827 1072.27 29.698 1022.77 1.69785H882.438Z" fill="#D5D5D5"/>
<path d="M272.822 65.1546C284.823 73.9053 276.499 85.9844 268.651 81.0185L264.087 79.138C256.699 76.7758 255.774 99.9104 275.959 99.8504C296.144 99.7905 296.818 85.5037 294.887 74.5681C292.957 63.6324 283.081 42.9817 251.768 46.4735C225.888 49.3596 212.384 73.2653 211.047 85.1147C209.71 96.9641 209.86 110.087 226.579 127.3C238.55 139.625 280.32 151.861 303.621 151.792C326.923 151.723 344.627 151.612 366.338 143.889C396.998 132.982 444.55 99.0248 444.55 99.0248C444.55 99.0248 500.633 60.1161 528.418 39.3158C556.203 18.5155 594.739 -0.0905912 637.694 2.47414C671.578 4.49724 719.607 25.9396 719.607 25.9396C719.607 25.9396 675.015 7.78445 641.946 8.58844C641.377 8.60227 640.751 8.61493 640.071 8.62867C624.796 8.93752 582.225 9.79831 543.916 36.9812C535.322 43.0795 524.522 51.1606 512.339 60.2767C467.802 93.6035 404.779 140.763 363.434 155.444C320.302 170.76 279.235 167.897 246.71 155.939C239.529 153.298 232.764 150.215 226.485 146.785C197.421 130.911 181.781 100.143 191.645 69.9569C192.732 67.6918 193.687 65.3019 194.484 62.7821C196.094 59.3306 198.054 55.9032 200.384 52.5233C212.636 34.7429 234.786 28.332 243.861 28.028C257.045 26.5577 305.486 30.1828 315.615 67.8162C318.497 78.523 317.766 87.067 314.095 94.837C312.663 97.8669 310.784 100.779 308.498 103.656C308.274 103.938 308.043 104.214 307.806 104.483C299.441 113.991 283.547 115.404 278.717 115.473C249.792 115.887 228.035 93.5129 234.492 73.6769C237.705 63.8054 247.14 61.6465 251.697 61.1382C251.697 61.1382 263.22 58.1541 272.822 65.1546Z" fill="#D5D5D5"/>
<path fill-rule="evenodd" clip-rule="evenodd" d="M191.645 69.9569C192.428 67.559 193.373 65.1648 194.484 62.7821C196.819 55.3995 197.8 46.902 196.797 37.1624C195.232 21.9599 190.528 10.9078 182.82 1.68782H115.537C104.543 15.5426 102.324 35.4368 111.966 50.804C119.289 62.4742 129.762 62.7589 134.601 62.2193C134.601 62.2193 147.536 63.0071 154.413 51.6463C163.009 37.4451 149.586 24.3057 143.654 32.6339L139.79 36.2013C133.255 41.1119 122.805 12.0469 143.338 6.88136C163.87 1.71581 170.428 19.6383 172.962 33.9921C175.496 48.3459 167.851 80.6397 134.601 84.3476C107.12 87.4122 89.6735 57.0662 83.4443 42.4033C78.6668 31.1577 74.0431 18.6299 76.9457 1.68782H55.6723C52.606 22.7861 56.9433 45.8165 69.819 66.4138C72.9893 71.4854 76.6772 76.4094 80.8997 81.1208C82.5231 82.9321 84.2254 84.712 86.0078 86.4567C105.766 105.798 130.905 108.167 140.25 106.196C144.78 105.691 152.841 103.551 161.499 99.1836C168.707 95.5474 176.328 90.3668 182.669 83.2994C186.136 79.4348 189.22 75.0059 191.645 69.9569Z" fill="#D5D5D5"/>
<path fill-rule="evenodd" clip-rule="evenodd" d="M115.537 1.68782H76.9457C74.0431 18.6299 78.6668 31.1577 83.4443 42.4033C89.6735 57.0662 107.12 87.4122 134.601 84.3476C167.851 80.6397 175.496 48.3459 172.962 33.9921C170.428 19.6383 163.87 1.71581 143.338 6.88136C122.805 12.0469 133.255 41.1119 139.79 36.2013L143.654 32.6339C149.586 24.3057 163.009 37.4451 154.413 51.6463C147.536 63.0071 134.601 62.2193 134.601 62.2193C129.762 62.7589 119.289 62.4742 111.966 50.804C102.324 35.4368 104.543 15.5426 115.537 1.68782ZM213.939 1.68787L214 1.68782H402.955C359.606 23.985 324.617 29.7118 266.686 19.2926C251.098 16.489 244.193 14.5605 233.608 10.3541C226.928 7.69947 220.388 4.69634 213.939 1.68787Z" fill="#D5D5D5"/>
<path d="M1276.19 90.8637C1268.98 87.2275 1260.48 82.0469 1254.14 74.9795C1254.14 74.9795 1237.44 110.895 1252.82 137.185C1259.02 147.794 1272.22 164.361 1299.35 171.722C1326.47 179.083 1335.07 179.083 1346.98 181.712C1358.89 184.341 1372.77 192.659 1379.47 200.76C1384.9 205.894 1391.37 215.728 1393.58 222.198C1394.37 224.525 1394.88 226.451 1395.15 227.637C1401.09 253.767 1386.5 273.471 1368.59 267.682C1359.67 264.801 1356.04 256.282 1354.73 252.166C1354.73 252.166 1351.81 233.435 1354.02 233.074C1356.24 232.714 1357.67 234.817 1364.84 242.178C1372.01 249.539 1386.51 248.398 1382.56 230.163C1378.61 211.929 1366.48 211.352 1357.67 213.12C1348.86 214.888 1333.42 223.855 1342.4 252.135C1349.82 275.508 1372.51 287.655 1382.72 288.836C1392.94 290.017 1403.87 290.025 1415.16 274.711C1430.62 253.738 1401.23 198.012 1401.23 198.012C1401.23 198.012 1354.5 111.71 1354.5 76.3766C1352 77.7457 1349.01 80.3338 1348 81.3232C1328.24 100.664 1306.79 99.8474 1297.44 97.876C1292.91 97.3708 1284.85 95.2312 1276.19 90.8637Z" fill="#D5D5D5"/>
<path d="M108.234 270.184C108.309 270.002 108.385 269.821 108.46 269.64C109.066 268.161 110.504 265.619 110.979 264.124C111.104 263.731 111.227 263.335 111.348 262.937C118.096 240.783 118.83 211.8 89.6985 202.729C77.9717 199.078 66.3353 201.425 58.2188 209.08C52.794 214.214 46.3245 224.048 44.1149 230.518C43.3203 232.845 42.8092 234.771 42.5396 235.957C36.6038 262.087 51.1947 281.791 69.1039 276.002C78.0167 273.121 81.6527 264.602 82.9601 260.486C82.9601 260.486 85.8832 241.755 83.6672 241.394C81.4512 241.034 80.0228 243.137 72.8511 250.498C65.6793 257.859 51.1795 256.718 55.1293 238.483C59.0791 220.249 71.21 219.672 80.0228 221.44C88.8356 223.208 104.274 232.175 95.2919 260.455C87.8679 283.828 65.1789 295.974 54.9673 297.156C44.7557 298.337 33.8193 298.345 22.5327 283.031C7.07484 262.058 36.4655 206.331 36.4655 206.331C36.4655 206.331 83.6672 119.681 83.6672 84.3476L80.8997 81.1208C79.8204 79.9165 78.776 78.6983 77.7662 77.4673C74.8256 73.8824 72.1789 70.189 69.819 66.4138L69.6291 66.1497C91.0256 97.5966 13.2341 203.834 3.38804 241.394C-1.91123 261.61 0.740986 282.937 6.03431 293.087C16.6188 313.384 38.1358 314.81 59.9397 311.129C80.1016 307.726 99.6681 290.538 108.234 270.184Z" fill="#D5D5D5"/>
<path d="M182.669 83.2994C176.328 90.3668 168.707 95.5474 161.499 99.1836C152.841 103.551 144.78 105.691 140.25 106.196C130.905 108.167 105.766 105.798 86.0078 86.4567C84.2254 84.712 82.5231 82.9321 80.8997 81.1208L83.6672 84.3476C83.6672 119.681 36.4655 206.331 36.4655 206.331C36.4655 206.331 7.07484 262.058 22.5327 283.031C33.8193 298.345 44.7557 298.337 54.9673 297.156C65.1789 295.974 87.8679 283.828 95.2919 260.455C104.274 232.175 88.8356 223.208 80.0228 221.44C71.21 219.672 59.0791 220.249 55.1293 238.483C51.1795 256.718 65.6793 257.859 72.8511 250.498C80.0228 243.137 81.4512 241.034 83.6672 241.394C85.8832 241.755 82.9601 260.486 82.9601 260.486C81.6527 264.602 78.0167 273.121 69.1039 276.002C51.1947 281.791 36.6038 262.087 42.5396 235.957C42.8092 234.771 43.3203 232.845 44.1149 230.518C46.3245 224.048 52.794 214.214 58.2188 209.08C64.9211 200.979 78.8051 192.661 90.713 190.032C102.621 187.403 111.221 187.403 138.345 180.042C165.468 172.681 178.669 156.114 184.874 145.505C200.252 119.215 182.669 83.2994 182.669 83.2994Z" fill="#D5D5D5"/>
<path fill-rule="evenodd" clip-rule="evenodd" d="M201 1.69974C203.793 3.15533 206.582 4.63841 209.364 6.11791C219.111 11.3007 228.777 16.4409 238.239 20.201C248.824 24.4073 255.729 26.3359 271.317 29.1395C334.738 40.5463 368.747 29.6804 418.181 1.72504H555.382C553.545 2.41722 551.831 3.13008 550.249 3.8563C534.757 10.9704 510.128 29.4759 485.033 48.3318C461.904 65.7095 438.38 83.3849 421.247 92.7153C385.523 112.17 353.107 112.695 332.599 105.86C321.939 102.307 314.517 95.245 314.095 94.837C317.766 87.067 318.497 78.523 315.615 67.8162C305.486 30.1828 257.045 26.5577 243.861 28.028C234.786 28.332 212.636 34.7429 200.384 52.5233C198.054 55.9032 196.094 59.3306 194.484 62.7821C196.819 55.3995 197.8 46.902 196.797 37.1624C195.232 21.9599 190.528 10.9078 182.82 1.68782L201 1.69974ZM670.822 1.71352C687.318 6.9468 703.896 14.7675 719.607 25.9396L720.255 1.71352H670.822Z" fill="#D5D5D5"/>
<path d="M236.44 243.092C233.132 256.763 243.055 261.495 255.625 250.453C265.68 241.62 263.563 228.896 263.563 228.896C263.563 228.896 262.185 213.623 250.332 208.39C226.517 197.874 195.619 216.677 192.116 247.298C191.515 252.556 191.057 270.433 202.701 280.949C203.717 281.867 204.742 282.743 205.781 283.578C216.646 292.311 228.932 296.474 246.363 295.145C294.657 291.465 305.903 240.989 305.903 226.792C306.785 217.153 303.432 189.94 282.983 173.687C271.574 164.62 258.505 159.759 246.71 155.939C214.982 148.601 182.323 159.917 161.919 183.677C148.357 199.469 127.549 226.58 111.348 262.937C110.368 265.138 109.404 267.372 108.46 269.64C108.385 269.821 108.309 270.002 108.234 270.184C92.1707 308.967 80.3555 358.967 82.9601 420.81L96.8526 2501.5H116.699L116.669 2499.89V2492L102.807 420.81C101.953 378.338 106.469 333.776 116.699 299.878C124.537 273.909 132.082 257.993 141.838 240.463C158.825 209.941 181.531 192.09 192.116 186.306C202.701 180.523 213.286 173.162 240.409 179.471C267.533 185.781 281.426 206.286 281.426 234.153C281.426 267.87 255.625 274.64 241.733 274.64C227.84 274.64 207.332 267.278 211.963 247.298C216.593 227.318 239.748 229.421 236.44 243.092Z" fill="#D5D5D5"/>
<path d="M161.919 183.677C182.323 159.917 214.982 148.601 246.71 155.939C239.529 153.298 232.764 150.215 226.485 146.785C197.421 130.911 181.781 100.143 191.645 69.9569C189.22 75.0059 186.136 79.4348 182.669 83.2994C182.669 83.2994 200.252 119.215 184.874 145.505C178.669 156.114 165.468 172.681 138.345 180.042C111.221 187.403 102.621 187.403 90.713 190.032C78.8051 192.661 64.9211 200.979 58.2188 209.08C66.3353 201.425 77.9717 199.078 89.6985 202.729C118.83 211.8 118.096 240.783 111.348 262.937C127.549 226.58 148.357 199.469 161.919 183.677Z" fill="#D5D5D5"/>
<path d="M1354.02 233.074C1351.81 233.435 1354.73 252.166 1354.73 252.166C1356.04 256.282 1359.67 264.801 1368.59 267.682C1386.5 273.471 1401.09 253.767 1395.15 227.637C1394.88 226.451 1394.37 224.525 1393.58 222.198C1391.37 215.728 1384.9 205.894 1379.47 200.76C1371.36 193.105 1362.02 191.09 1350.29 194.742C1320.64 203.976 1322.21 246.037 1329.3 268.33C1330.48 271.088 1331.64 275.008 1332.77 277.883C1342.26 296.67 1362.19 311.436 1381.2 314.645C1403 318.325 1424.38 313.384 1434.97 293.087C1440.26 282.937 1442.91 261.61 1437.61 241.394C1427.77 203.867 1344.3 98.0345 1365.5 66.4835L1369.32 60.9796C1367.07 63.8963 1363.5 67.9674 1363.5 67.9674C1363.5 67.9674 1355 76.1028 1354.5 76.3766C1354.5 111.71 1401.23 198.012 1401.23 198.012C1401.23 198.012 1430.62 253.738 1415.16 274.711C1403.87 290.025 1392.94 290.017 1382.72 288.836C1372.51 287.655 1349.82 275.508 1342.4 252.135C1333.42 223.855 1348.86 214.888 1357.67 213.12C1366.48 211.352 1378.61 211.929 1382.56 230.163C1386.51 248.398 1372.01 249.539 1364.84 242.178C1357.67 234.817 1356.24 232.714 1354.02 233.074Z" fill="#D5D5D5"/>
<path d="M1277.29 186.403C1291.58 203.034 1312.59 229.297 1329.3 268.33C1322.21 246.037 1320.64 203.976 1350.29 194.742C1362.02 191.09 1371.36 193.105 1379.47 200.76C1372.77 192.659 1358.89 184.341 1346.98 181.712C1335.07 179.083 1326.47 179.083 1299.35 171.722C1272.22 164.361 1259.02 147.794 1252.82 137.185C1237.44 110.895 1254.14 74.9795 1254.14 74.9795C1244.56 64.3015 1241.21 57.6363 1243.32 37.1624C1244.88 21.9654 1250.1 10.9158 1258.05 1.69785H1240H1227.04C1220.6 4.70298 1214.06 7.7024 1207.39 10.3541C1196.81 14.5605 1189.9 16.489 1174.31 19.2926C1116.39 29.7103 1081.4 23.9867 1038.06 1.69785H1022.77C1072.27 29.698 1107.34 41.2827 1170.78 29.8722C1172 29.6196 1173.2 29.3943 1174.38 29.1942C1183.46 27.6543 1191.34 27.6006 1195.57 28.0731C1204.65 28.3771 1225.69 33.3007 1240.25 52.5684C1254.8 71.8361 1249.83 128.436 1215.11 147.398C1207.55 151.527 1199.12 156.284 1190.02 159.279C1222.51 150.743 1256.36 162.021 1277.29 186.403Z" fill="#D5D5D5"/>
<path d="M1286.59 51.6463C1277.99 37.4451 1291.41 24.3057 1297.35 32.6339L1301.21 36.2013C1307.75 41.1119 1318.2 12.0469 1297.66 6.88136C1277.13 1.71581 1270.57 19.6383 1268.04 33.9921C1265.5 48.3459 1273.15 80.6397 1306.4 84.3476C1333.88 87.4122 1351.33 57.0662 1357.56 42.4033C1362.33 31.1599 1366.96 18.6348 1364.06 1.69785H1325.47C1336.46 15.5522 1338.67 35.4405 1329.03 50.804C1321.71 62.4742 1311.24 62.7589 1306.4 62.2193C1306.4 62.2193 1293.46 63.0071 1286.59 51.6463Z" fill="#D5D5D5"/>
<path d="M1258.05 1.69785C1250.1 10.9158 1244.88 21.9654 1243.32 37.1624C1241.21 57.6363 1244.56 64.3015 1254.14 74.9795C1258.73 80.1015 1264.47 84.2325 1270.02 87.5028C1272.13 88.7448 1274.21 89.8628 1276.19 90.8637C1284.85 95.2312 1292.91 97.3708 1297.44 97.876C1306.79 99.8474 1328.24 100.664 1348 81.3232C1349.01 80.3338 1352 77.7457 1354.5 76.3766C1355 76.1028 1363.5 67.9674 1363.5 67.9674C1363.5 67.9674 1367.07 63.8963 1369.32 60.9796L1371 58.5689C1383.21 39.0593 1387.8 19.7283 1385.69 1.69785H1364.06C1366.96 18.6348 1362.33 31.1599 1357.56 42.4033C1351.33 57.0662 1333.88 87.4122 1306.4 84.3476C1273.15 80.6397 1265.5 48.3459 1268.04 33.9921C1270.57 19.6383 1277.13 1.71581 1297.66 6.88136C1318.2 12.0469 1307.75 41.1119 1301.21 36.2013L1297.35 32.6339C1291.41 24.3057 1277.99 37.4451 1286.59 51.6463C1293.46 63.0071 1306.4 62.2193 1306.4 62.2193C1311.24 62.7589 1321.71 62.4742 1329.03 50.804C1338.67 35.4405 1336.46 15.5522 1325.47 1.69785H1258.05Z" fill="#D5D5D5"/>
<path d="M1174.31 19.2926C1189.9 16.489 1196.81 14.5605 1207.39 10.3541C1214.06 7.7024 1220.6 4.70298 1227.04 1.69785H1038.06C1081.4 23.9867 1116.39 29.7103 1174.31 19.2926Z" fill="#D5D5D5"/>
<path d="M1130.94 103.701C1128.65 100.824 1126.77 97.912 1125.34 94.882C1124.92 95.2902 1117.5 102.352 1106.84 105.905C1086.33 112.741 1053.91 112.215 1018.19 92.7604C1001.09 83.4491 977.626 65.9474 954.544 48.7296C929.399 29.9737 904.707 11.5547 889.185 4.42719C887.15 3.49263 884.895 2.57753 882.438 1.69785H864C873.57 4.14648 882.317 7.51313 889.847 11.788C907.908 22.0412 924.696 35.0788 946.079 50.6967C974.039 71.119 1000.37 93.8116 1027.47 106.956C1054.57 120.101 1089.64 120.627 1110.14 113.792C1121.12 110.132 1130.94 103.701 1130.94 103.701Z" fill="#D5D5D5"/>
<path d="M1170.78 81.0636C1162.94 86.0295 1154.61 73.9504 1166.61 65.1997C1176.21 58.1992 1187.74 61.1833 1187.74 61.1833C1192.3 61.6915 1201.73 63.8504 1204.94 73.722C1211.4 93.558 1189.64 115.932 1160.72 115.518C1155.75 115.447 1139.09 113.955 1130.94 103.701C1130.94 103.701 1121.12 110.132 1110.14 113.792C1089.64 120.627 1054.57 120.101 1027.47 106.956C1000.37 93.8116 974.039 71.119 946.079 50.6967C924.696 35.0788 907.908 22.0412 889.847 11.788C882.317 7.51313 873.57 4.14648 864 1.69785L778.056 1.71352C756.92 6.39319 736.553 14.4464 719.607 25.9396C719.607 25.9396 767.857 4.54236 801.74 2.51925C844.696 -0.0454786 883.232 18.5606 911.017 39.3609C938.802 60.1612 994.885 99.0699 994.885 99.0699C994.885 99.0699 1042.44 133.027 1073.1 143.934C1094.81 151.657 1112.51 151.768 1135.81 151.837C1159.12 151.906 1200.88 139.67 1212.86 127.345C1229.57 110.132 1229.72 97.0092 1228.39 85.1598C1227.05 73.3104 1213.55 49.4047 1187.67 46.5186C1156.35 43.0267 1146.48 63.6775 1144.55 74.6132C1142.62 85.5488 1143.29 99.8356 1163.48 99.8956C1183.66 99.9555 1182.74 76.8209 1175.35 79.1831L1170.78 81.0636Z" fill="#D5D5D5"/>
<path d="M719.607 25.9396C736.553 14.4464 756.92 6.39319 778.056 1.71352H768.711C752.1 6.89296 735.407 14.7032 719.607 25.9396Z" fill="#D5D5D5"/>
<path d="M555.382 1.72504C553.545 2.41722 551.831 3.13008 550.249 3.8563C534.757 10.9704 510.128 29.4759 485.033 48.3318C461.904 65.7095 438.38 83.3849 421.247 92.7153C385.523 112.17 353.107 112.695 332.599 105.86C321.939 102.307 314.517 95.245 314.095 94.837C312.663 97.8669 310.784 100.779 308.498 103.656C308.274 103.938 308.043 104.214 307.806 104.483C299.441 113.991 283.547 115.404 278.717 115.473C249.792 115.887 228.035 93.5129 234.492 73.6769C237.705 63.8054 247.14 61.6465 251.697 61.1382C251.697 61.1382 263.22 58.1541 272.822 65.1546C284.823 73.9053 276.499 85.9844 268.651 81.0185L264.087 79.138C256.699 76.7758 255.774 99.9104 275.959 99.8504C296.144 99.7905 296.818 85.5037 294.887 74.5681C292.957 63.6324 283.081 42.9817 251.768 46.4735C225.888 49.3596 212.384 73.2653 211.047 85.1147C209.71 96.9641 209.86 110.087 226.579 127.3C238.55 139.625 280.32 151.861 303.621 151.792C326.923 151.723 344.627 151.612 366.338 143.889C396.998 132.982 444.55 99.0248 444.55 99.0248C444.55 99.0248 500.633 60.1161 528.418 39.3158C556.203 18.5155 594.739 -0.0905912 637.694 2.47414C671.578 4.49724 719.607 25.9396 719.607 25.9396C702.666 14.4501 682.332 6.39645 661.238 1.71352L575.5 1.68782L555.382 1.72504Z" fill="#D5D5D5"/>
<path d="M191.645 69.9569C192.428 67.559 193.373 65.1648 194.484 62.7821M191.645 69.9569C192.732 67.6918 193.687 65.3019 194.484 62.7821M191.645 69.9569C181.781 100.143 197.421 130.911 226.485 146.785C232.764 150.215 239.529 153.298 246.71 155.939M191.645 69.9569C189.22 75.0059 186.136 79.4348 182.669 83.2994M194.484 62.7821C196.094 59.3306 198.054 55.9032 200.384 52.5233C212.636 34.7429 234.786 28.332 243.861 28.028C257.045 26.5577 305.486 30.1828 315.615 67.8162C318.497 78.523 317.766 87.067 314.095 94.837M194.484 62.7821C196.819 55.3995 197.8 46.902 196.797 37.1624C195.232 21.9599 190.528 10.9078 182.82 1.68782M1335.73 427.975C1336.59 385.503 1332.07 340.941 1321.84 307.042C1314 281.074 1306.46 265.158 1296.7 247.628C1279.71 217.105 1257.01 199.255 1246.42 193.471C1235.84 187.687 1223.93 179.755 1196.81 186.065C1169.68 192.374 1157.11 213.451 1157.11 241.318C1157.11 275.035 1182.91 281.804 1196.81 281.804C1210.7 281.804 1231.21 274.443 1226.58 254.463C1221.95 234.483 1198.79 236.586 1202.1 250.257C1205.41 263.927 1195.48 268.659 1182.91 257.618C1172.86 248.784 1174.98 236.06 1174.98 236.06C1174.98 236.06 1176.36 220.788 1188.21 215.554C1212.02 205.039 1242.92 223.842 1246.42 254.463M1335.73 427.975V2501H1355.58V420.907C1358.03 362.792 1347.55 315.36 1332.77 277.883M1335.73 427.975V2500H1298.01M1332.77 277.883C1315.59 234.321 1292.59 204.209 1277.29 186.403M1332.77 277.883C1331.64 275.008 1330.48 271.088 1329.3 268.33M1332.77 277.883C1342.26 296.67 1362.19 311.436 1381.2 314.645C1403 318.325 1424.38 313.384 1434.97 293.087C1440.26 282.937 1442.91 261.61 1437.61 241.394C1427.77 203.867 1344.3 98.0345 1365.5 66.4835L1369.32 60.9796M1332.77 277.883C1331.37 275.119 1330.2 271.189 1329.3 268.33M1277.29 186.403C1256.36 162.021 1222.51 150.743 1190.02 159.279M1277.29 186.403C1291.58 203.034 1312.59 229.297 1329.3 268.33M1190.02 159.279C1178.36 162.34 1166.88 167.948 1156.23 176.413C1135.78 192.666 1131.75 217.25 1132.64 226.89C1132.64 241.086 1143.88 291.562 1192.18 295.243C1209.61 296.571 1221.89 293.512 1232.76 284.779M1190.02 159.279C1157.31 170.038 1115.9 171.208 1074.71 156.582C1022.06 137.885 935.533 65.4191 895.519 37.0263C855.505 8.63354 810.84 8.95815 797.489 8.63354C764.42 7.82955 719.607 25.9396 719.607 25.9396M1190.02 159.279C1199.12 156.284 1207.55 151.527 1215.11 147.398C1249.83 128.436 1254.8 71.8361 1240.25 52.5684C1225.69 33.3007 1204.65 28.3771 1195.57 28.0731C1191.34 27.6006 1183.46 27.6543 1174.38 29.1942M1232.76 284.779C1233.8 283.944 1234.82 283.067 1235.84 282.15M1232.76 284.779C1251.05 310.542 1278.18 343.615 1278.18 420.907V2501H1298.02M1235.84 282.15C1247.48 271.634 1247.03 259.721 1246.42 254.463M1235.84 282.15C1237.94 280.248 1239.65 284.069 1241.04 281.804M1246.42 254.463C1246.92 258.77 1247.31 271.544 1241.04 281.804M719.607 25.9396C719.607 25.9396 767.857 4.54236 801.74 2.51925C844.696 -0.0454786 883.232 18.5606 911.017 39.3609C938.802 60.1612 994.885 99.0699 994.885 99.0699C994.885 99.0699 1042.44 133.027 1073.1 143.934C1094.81 151.657 1112.51 151.768 1135.81 151.837C1159.12 151.906 1200.88 139.67 1212.86 127.345C1229.57 110.132 1229.72 97.0092 1228.39 85.1598C1227.05 73.3104 1213.55 49.4047 1187.67 46.5186C1156.35 43.0267 1146.48 63.6775 1144.55 74.6132C1142.62 85.5488 1143.29 99.8356 1163.48 99.8956C1183.66 99.9555 1182.74 76.8209 1175.35 79.1831L1170.78 81.0636C1162.94 86.0295 1154.61 73.9504 1166.61 65.1997C1176.21 58.1992 1187.74 61.1833 1187.74 61.1833C1192.3 61.6915 1201.73 63.8504 1204.94 73.722C1211.4 93.558 1189.64 115.932 1160.72 115.518C1155.75 115.447 1139.09 113.955 1130.94 103.701M719.607 25.9396C703.896 14.7675 687.318 6.9468 670.822 1.71352M719.607 25.9396C702.666 14.4501 682.332 6.39645 661.238 1.71352M719.607 25.9396C736.553 14.4464 756.92 6.39319 778.056 1.71352M719.607 25.9396C735.407 14.7032 752.1 6.89296 768.711 1.71352M719.607 25.9396L720.255 1.71352M719.607 25.9396C719.607 25.9396 671.578 4.49724 637.694 2.47414C594.739 -0.0905912 556.203 18.5155 528.418 39.3158C500.633 60.1161 444.55 99.0248 444.55 99.0248C444.55 99.0248 396.998 132.982 366.338 143.889C344.627 151.612 326.923 151.723 303.621 151.792C280.32 151.861 238.55 139.625 226.579 127.3C209.86 110.087 209.71 96.9641 211.047 85.1147C212.384 73.2653 225.888 49.3596 251.768 46.4735C283.081 42.9817 292.957 63.6324 294.887 74.5681C296.818 85.5037 296.144 99.7905 275.959 99.8504C255.774 99.9104 256.699 76.7758 264.087 79.138L268.651 81.0185C276.499 85.9844 284.823 73.9053 272.822 65.1546C263.22 58.1541 251.697 61.1382 251.697 61.1382C247.14 61.6465 237.705 63.8054 234.492 73.6769C228.035 93.5129 249.792 115.887 278.717 115.473C283.547 115.404 299.441 113.991 307.806 104.483M719.607 25.9396C719.607 25.9396 675.015 7.78445 641.946 8.58844C641.377 8.60227 640.751 8.61493 640.071 8.62867C624.796 8.93752 582.225 9.79831 543.916 36.9812C535.322 43.0795 524.522 51.1606 512.339 60.2767C467.802 93.6035 404.779 140.763 363.434 155.444C320.302 170.76 279.235 167.897 246.71 155.939M1174.38 29.1942C1155.21 32.4455 1130.69 42.3227 1123.82 67.8613M1174.38 29.1942C1173.24 29.4198 1172.04 29.6455 1170.78 29.8722M1174.38 29.1942C1186.08 26.8771 1191.86 24.564 1200.03 21.2901M1174.38 29.1942C1173.2 29.3943 1172 29.6196 1170.78 29.8722M1174.38 29.1942C1186.09 26.875 1191.87 24.5599 1200.06 21.2813M1123.82 67.8613C1120.94 78.5681 1121.67 87.1121 1125.34 94.882M1123.82 67.8613C1130.27 43.8949 1152.26 33.7211 1170.78 29.8722M1125.34 94.882C1126.77 97.912 1128.65 100.824 1130.94 103.701M1125.34 94.882C1124.92 95.2902 1117.5 102.352 1106.84 105.905C1086.33 112.741 1053.91 112.215 1018.19 92.7604M1125.34 94.882C1125.35 94.8698 1125.36 94.8636 1125.36 94.8636M1130.94 103.701C1130.94 103.701 1121.12 110.132 1110.14 113.792C1089.64 120.627 1054.57 120.101 1027.47 106.956C1000.37 93.8116 974.039 71.119 946.079 50.6967C924.696 35.0788 907.908 22.0412 889.847 11.788C882.317 7.51313 873.57 4.14648 864 1.69785M1022.77 1.69785C1072.27 29.698 1107.34 41.2827 1170.78 29.8722M1022.77 1.69785H882.438M1022.77 1.69785H1038.06M1022.77 1.69785H1364.06M1200.03 21.2901L1200.06 21.2813M1200.03 21.2901C1200.04 21.2871 1200.05 21.2842 1200.06 21.2813M1240 1.69785H1227.04M1240 1.69785H1258.05M1240 1.69785C1237.21 3.1537 1234.42 4.63707 1231.64 6.11686M1258.05 1.69785C1250.1 10.9158 1244.88 21.9654 1243.32 37.1624C1241.21 57.6363 1244.56 64.3015 1254.14 74.9795M1258.05 1.69785H1325.47M1254.14 74.9795C1260.48 82.0469 1268.98 87.2275 1276.19 90.8637M1254.14 74.9795C1254.14 74.9795 1237.44 110.895 1252.82 137.185C1259.02 147.794 1272.22 164.361 1299.35 171.722C1326.47 179.083 1335.07 179.083 1346.98 181.712C1358.89 184.341 1372.77 192.659 1379.47 200.76M1254.14 74.9795C1258.73 80.1015 1264.47 84.2325 1270.02 87.5028M1276.19 90.8637C1284.85 95.2312 1292.91 97.3708 1297.44 97.876C1306.79 99.8474 1328.24 100.664 1348 81.3232C1349.01 80.3338 1352 77.7457 1354.5 76.3766M1276.19 90.8637C1274.21 89.8628 1272.13 88.7448 1270.02 87.5028M1354.5 76.3766C1355 76.1028 1363.5 67.9674 1363.5 67.9674C1363.5 67.9674 1367.07 63.8963 1369.32 60.9796M1354.5 76.3766C1354.5 111.71 1401.23 198.012 1401.23 198.012C1401.23 198.012 1430.62 253.738 1415.16 274.711C1403.87 290.025 1392.94 290.017 1382.72 288.836C1372.51 287.655 1349.82 275.508 1342.4 252.135C1333.42 223.855 1348.86 214.888 1357.67 213.12C1366.48 211.352 1378.61 211.929 1382.56 230.163C1386.51 248.398 1372.01 249.539 1364.84 242.178C1357.67 234.817 1356.24 232.714 1354.02 233.074C1351.81 233.435 1354.73 252.166 1354.73 252.166C1356.04 256.282 1359.67 264.801 1368.59 267.682C1386.5 273.471 1401.09 253.767 1395.15 227.637C1394.88 226.451 1394.37 224.525 1393.58 222.198M1369.32 60.9796C1370.11 59.9612 1370.74 59.0835 1371 58.5689M1369.32 60.9796L1371 58.5689M1371 58.5689C1383.21 39.0593 1387.8 19.7283 1385.69 1.69785H1364.06M1364.06 1.69785C1366.96 18.6348 1362.33 31.1599 1357.56 42.4033C1351.33 57.0662 1333.88 87.4122 1306.4 84.3476C1273.15 80.6397 1265.5 48.3459 1268.04 33.9921C1270.57 19.6383 1277.13 1.71581 1297.66 6.88136C1318.2 12.0469 1307.75 41.1119 1301.21 36.2013L1297.35 32.6339C1291.41 24.3057 1277.99 37.4451 1286.59 51.6463C1293.46 63.0071 1306.4 62.2193 1306.4 62.2193C1311.24 62.7589 1321.71 62.4742 1329.03 50.804C1338.67 35.4405 1336.46 15.5522 1325.47 1.69785M1364.06 1.69785H1325.47M1364.06 1.69785H882.438M670.822 1.71352H720.255M670.822 1.71352H661.238M555.382 1.72504C553.545 2.41722 551.831 3.13008 550.249 3.8563M555.382 1.72504H418.181M555.382 1.72504L575.5 1.68782M550.249 3.8563C520.48 17.5269 456.971 73.261 421.247 92.7153M550.249 3.8563C534.757 10.9704 510.128 29.4759 485.033 48.3318C461.904 65.7095 438.38 83.3849 421.247 92.7153M421.247 92.7153C385.523 112.17 353.107 112.695 332.599 105.86C321.939 102.307 314.517 95.245 314.095 94.837M314.095 94.837C312.663 97.8669 310.784 100.779 308.498 103.656C308.274 103.938 308.043 104.214 307.806 104.483M314.095 94.837C314.082 94.8247 314.076 94.8185 314.076 94.8185M307.806 104.483C309.802 105.472 320.092 110.488 329.953 113.775C350.461 120.61 385.523 120.084 412.624 106.94M307.806 104.483C307.58 104.371 307.46 104.311 307.46 104.311M412.624 106.94C439.724 93.7948 466.057 71.1021 494.017 50.6797M412.624 106.94C432.75 97.1778 452.452 82.1504 472.712 66.6977C479.733 61.3423 486.821 55.9358 494.017 50.6797M494.017 50.6797C515.4 35.0619 531.527 22.0243 549.588 11.7711M494.017 50.6797C499.158 46.925 503.995 43.3195 508.628 39.8658C523.266 28.9541 535.869 19.5593 549.588 11.7711M549.588 11.7711C557.14 7.4837 565.908 4.13732 575.5 1.68782M575.5 1.68782L661.238 1.71352M864 1.69785L778.056 1.71352M864 1.69785H882.438M778.056 1.71352H768.711M1018.19 92.7604C982.464 73.3061 918.955 18.0978 889.185 4.42719M1018.19 92.7604C1001.09 83.4491 977.626 65.9474 954.544 48.7296C929.399 29.9737 904.707 11.5547 889.185 4.42719M889.185 4.42719C887.15 3.49263 884.895 2.57753 882.438 1.69785M768.711 1.71352H720.255M1241.04 281.804C1241.04 281.804 1259.39 306.516 1264.95 316.507C1270.5 326.497 1293.7 375.222 1291.41 429.552L1297.99 2492.5M1297.99 2492.5L1298.01 2500M1297.99 2492.5V2483.24M1297.99 2492.5H1335.5M1297.99 2492.5L1298.02 2501M1298.01 2500L1298.02 2501M116.669 2492L102.807 420.81C101.953 378.338 106.469 333.776 116.699 299.878C124.537 273.909 132.082 257.993 141.838 240.463C158.825 209.941 181.531 192.09 192.116 186.306C202.701 180.523 213.286 173.162 240.409 179.471C267.533 185.781 281.426 206.286 281.426 234.153C281.426 267.87 255.625 274.64 241.733 274.64C227.84 274.64 207.332 267.278 211.963 247.298C216.593 227.318 239.748 229.421 236.44 243.092C233.132 256.763 243.055 261.495 255.625 250.453C265.68 241.62 263.563 228.896 263.563 228.896C263.563 228.896 262.185 213.623 250.332 208.39C226.517 197.874 195.619 216.677 192.116 247.298C191.515 252.556 191.057 270.433 202.701 280.949C203.717 281.867 204.742 282.743 205.781 283.578M116.669 2492H155.377M116.669 2492V2499.89M155.377 2492V2501.5M155.377 2492L148.026 421.336C145.738 367.006 168.931 318.28 174.488 308.29C180.046 298.3 197.744 275.031 197.744 275.031M155.377 2501.5H175.254L161.257 419.758C161.257 342.467 187.485 309.342 205.781 283.578M155.377 2501.5V2499.89H116.669M205.781 283.578C216.646 292.311 228.932 296.474 246.363 295.145C294.657 291.465 305.903 240.989 305.903 226.792C306.785 217.153 303.432 189.94 282.983 173.687C271.574 164.62 258.505 159.759 246.71 155.939M116.669 2499.89L116.699 2501.5H96.8526L82.9601 420.81C80.3555 358.967 92.1707 308.967 108.234 270.184M213.939 1.68787L201 1.69974M213.939 1.68787C220.388 4.69634 226.928 7.69947 233.608 10.3541C244.193 14.5605 251.098 16.489 266.686 19.2926C324.617 29.7118 359.606 23.985 402.955 1.68782M213.939 1.68787L214 1.68782H402.955M201 1.69974C203.793 3.15533 206.582 4.63841 209.364 6.11791C219.111 11.3007 228.777 16.4409 238.239 20.201C248.824 24.4073 255.729 26.3359 271.317 29.1395C334.738 40.5463 368.747 29.6804 418.181 1.72504M201 1.69974L182.82 1.68782M418.181 1.72504L402.955 1.68782M246.71 155.939C214.982 148.601 182.323 159.917 161.919 183.677C148.357 199.469 127.549 226.58 111.348 262.937M182.82 1.68782H115.537M115.537 1.68782C104.543 15.5426 102.324 35.4368 111.966 50.804C119.289 62.4742 129.762 62.7589 134.601 62.2193C134.601 62.2193 147.536 63.0071 154.413 51.6463C163.009 37.4451 149.586 24.3057 143.654 32.6339L139.79 36.2013C133.255 41.1119 122.805 12.0469 143.338 6.88136C163.87 1.71581 170.428 19.6383 172.962 33.9921C175.496 48.3459 167.851 80.6397 134.601 84.3476C107.12 87.4122 89.6735 57.0662 83.4443 42.4033C78.6668 31.1577 74.0431 18.6299 76.9457 1.68782M115.537 1.68782H76.9457M76.9457 1.68782H55.6723C52.606 22.7861 56.9433 45.8165 69.819 66.4138M69.819 66.4138C72.9893 71.4854 76.6772 76.4094 80.8997 81.1208M69.819 66.4138C72.1789 70.189 74.8256 73.8824 77.7662 77.4673M69.819 66.4138L69.6291 66.1497M69.819 66.4138L77.7662 77.4673M80.8997 81.1208C82.5231 82.9321 84.2254 84.712 86.0078 86.4567C105.766 105.798 130.905 108.167 140.25 106.196C144.78 105.691 152.841 103.551 161.499 99.1836C168.707 95.5474 176.328 90.3668 182.669 83.2994M80.8997 81.1208L83.6672 84.3476C83.6672 119.681 36.4655 206.331 36.4655 206.331C36.4655 206.331 7.07484 262.058 22.5327 283.031C33.8193 298.345 44.7557 298.337 54.9673 297.156C65.1789 295.974 87.8679 283.828 95.2919 260.455C104.274 232.175 88.8356 223.208 80.0228 221.44C71.21 219.672 59.0791 220.249 55.1293 238.483C51.1795 256.718 65.6793 257.859 72.8511 250.498C80.0228 243.137 81.4512 241.034 83.6672 241.394C85.8832 241.755 82.9601 260.486 82.9601 260.486C81.6527 264.602 78.0167 273.121 69.1039 276.002C51.1947 281.791 36.6038 262.087 42.5396 235.957C42.8092 234.771 43.3203 232.845 44.1149 230.518M80.8997 81.1208C79.8204 79.9165 78.776 78.6983 77.7662 77.4673M80.8997 81.1208L77.7662 77.4673M182.669 83.2994C182.669 83.2994 200.252 119.215 184.874 145.505C178.669 156.114 165.468 172.681 138.345 180.042C111.221 187.403 102.621 187.403 90.713 190.032C78.8051 192.661 64.9211 200.979 58.2188 209.08M1379.47 200.76C1384.9 205.894 1391.37 215.728 1393.58 222.198M1379.47 200.76C1371.36 193.105 1362.02 191.09 1350.29 194.742C1320.64 203.976 1322.21 246.037 1329.3 268.33M1393.58 222.198C1393.58 222.198 1392.63 202.729 1364.84 187.403C1337.06 172.077 1290.91 173.207 1275.53 146.917C1268.49 136.051 1255.77 101.804 1270.02 87.5028M108.234 270.184C108.309 270.002 108.385 269.821 108.46 269.64M108.234 270.184C99.6681 290.538 80.1016 307.726 59.9397 311.129C38.1358 314.81 16.6188 313.384 6.03431 293.087C0.740986 282.937 -1.91123 261.61 3.38804 241.394C13.2341 203.834 91.0256 97.5966 69.6291 66.1497M108.46 269.64C109.066 268.161 110.504 265.619 110.979 264.124C111.104 263.731 111.227 263.335 111.348 262.937M108.46 269.64C109.404 267.372 110.368 265.138 111.348 262.937M111.348 262.937C118.096 240.783 118.83 211.8 89.6985 202.729C77.9717 199.078 66.3353 201.425 58.2188 209.08M58.2188 209.08C52.794 214.214 46.3245 224.048 44.1149 230.518M44.1149 230.518C44.1149 230.518 48.3737 202.729 76.1589 187.403C103.944 172.077 150.091 173.207 165.468 146.917C172.509 136.051 182.786 110.172 168.534 95.87M69.6291 66.1497C69.4602 65.9015 69.2851 65.6579 69.1037 65.419L69.6291 66.1497ZM1324.49 0.5C1324.82 0.893965 1325.15 1.29334 1325.47 1.69785M1038.06 1.69785C1081.4 23.9867 1116.39 29.7103 1174.31 19.2926C1189.9 16.489 1196.81 14.5605 1207.39 10.3541C1214.06 7.7024 1220.6 4.70298 1227.04 1.69785M1038.06 1.69785H1227.04M1231.64 6.11686L1231.63 6.11921L1231.63 6.11986M1231.64 6.11686C1231.64 6.11784 1231.63 6.11888 1231.63 6.11986M1231.63 6.11986C1221.89 11.3024 1212.22 16.4411 1202.76 20.201C1201.85 20.5623 1200.98 20.9123 1200.13 21.2519C1200.11 21.2613 1200.08 21.2706 1200.06 21.2798L1200.06 21.2813" stroke="black" stroke-linecap="round" stroke-linejoin="round"/>
</svg>
