<svg width="940" height="1371" viewBox="0 0 940 1371" fill="none" xmlns="http://www.w3.org/2000/svg">
<path d="M771.766 335.467C779.951 350.324 786.413 343.956 784.259 325.562C782.105 307.168 797.182 304.338 800.198 331.222C803.213 358.106 789.859 368.01 780.812 368.01C771.766 368.01 754.965 358.902 754.965 313.535C754.965 276.039 763.15 247.679 780.812 239.19C798.475 230.7 806.229 241.373 813.122 249.155C820.014 256.937 834.8 280.956 845.861 322.025C852.214 345.612 857.128 367.027 862.231 401.969C868.893 447.581 871.834 507.54 871.278 564.688V1370.5H884.202V564.688C885.795 486.492 878.974 422.67 869.348 372.243C858.16 313.63 843.181 273.113 833.224 249.155C819.589 216.348 797.552 201.173 776.39 212.658C768.802 216.776 761.326 224.323 754.39 235.713C741.074 257.582 738.452 290.66 739.026 303.63C739.026 322.732 746.349 390.65 777.797 395.602C789.148 397.389 797.148 391.788 804.223 380.037C804.9 378.914 805.567 377.735 806.229 376.5C813.811 362.351 813.513 338.297 813.122 331.222C810.841 290.02 790.721 264.719 775.212 278.869C767.495 285.91 766.597 306.46 766.597 306.46C766.597 306.46 765.218 323.581 771.766 335.467Z" fill="#D5D5D5"/>
<path d="M761.151 87.5558C753.336 99.3301 758.756 115.583 763.867 108.901L766.839 106.371C771.65 103.193 772.252 134.321 759.108 134.24C745.964 134.16 745.525 114.936 746.782 100.222C748.039 85.5076 754.47 57.7213 774.86 62.4197C791.713 66.3031 800.507 98.469 801.377 114.413C802.248 130.357 802.15 148.014 791.263 171.175C783.468 187.758 756.268 204.223 741.095 204.13C725.921 204.037 714.393 203.887 700.255 193.496C680.29 178.82 649.325 133.129 649.325 133.129C649.325 133.129 612.805 80.7763 594.712 52.7888C576.619 24.8012 551.525 -0.233961 523.554 3.21697C501.489 5.93914 470.07 34.7299 470.07 34.7299C470.07 34.7299 499.251 10.3622 520.785 11.444C529.479 11.8807 558.564 11.444 584.62 49.6475C610.676 87.851 667.018 185.357 701.306 210.514C728.126 230.193 755.095 227.135 776.39 212.658C782.318 208.628 787.807 203.712 792.73 198.156C815.337 172.643 818.577 96.4853 809.1 70.5599C799.623 44.6345 785.919 38.0097 780.01 37.6006C777.251 36.9648 772.12 37.0371 766.208 39.109C753.726 43.4839 737.761 56.7739 733.285 91.1371C731.408 105.543 731.884 117.04 734.275 127.494C735.207 131.571 736.43 135.49 737.919 139.361C743.225 153.158 754.078 155.165 757.312 155.261C776.147 155.818 790.315 125.713 786.11 99.0228C784.018 85.7403 777.874 82.8354 774.906 82.1516C774.906 82.1516 767.403 78.1363 761.151 87.5558Z" fill="#D5D5D5"/>
<path d="M784.259 325.562C786.413 343.956 779.951 350.324 771.766 335.467C765.218 323.581 766.597 306.46 766.597 306.46C766.597 306.46 767.495 285.91 775.212 278.869C790.721 264.719 810.841 290.02 813.122 331.222C813.442 337.017 813.7 354.206 809.615 368.01C809.615 368.01 821.565 401.262 825.183 414.704C828.802 428.146 843.905 493.708 842.415 566.81L846.598 1347.09L846.655 1357.77H871.278V564.688C871.834 507.54 868.893 447.581 862.231 401.969C857.128 367.027 852.214 345.612 845.861 322.025C834.8 280.956 820.014 256.937 813.122 249.155C806.229 241.373 798.475 230.7 780.812 239.19C763.15 247.679 754.965 276.039 754.965 313.535C754.965 358.902 771.766 368.01 780.812 368.01C789.859 368.01 803.213 358.106 800.198 331.222C797.182 304.338 782.105 307.168 784.259 325.562Z" fill="#D5D5D5"/>
<path d="M809.615 368.01C808.714 371.058 807.6 373.941 806.229 376.5C805.567 377.735 804.9 378.914 804.223 380.037C816.137 414.704 833.799 460.689 833.799 564.688V1370.5H846.723L846.655 1357.77L846.598 1347.09L842.415 566.81C843.905 493.708 828.802 428.146 825.183 414.704C821.565 401.262 809.615 368.01 809.615 368.01Z" fill="#D5D5D5"/>
<path fill-rule="evenodd" clip-rule="evenodd" d="M470.07 2.13284V34.7299C480.359 19.611 491.229 9.10196 502.046 2.13284H470.07ZM576.102 2.11175C577.702 3.29539 579.171 4.52669 580.496 5.78417C590.603 15.3745 606.682 40.1579 623.056 65.3946C638.087 88.5618 653.366 112.111 664.5 124.64C687.762 150.816 708.871 151.524 722.225 142.327C729.167 137.546 733.999 128.044 734.275 127.494C731.884 117.04 731.408 105.543 733.285 91.1371C737.485 58.8895 751.803 45.2002 763.867 40.0213C722.554 55.3746 699.715 39.787 667.484 2.11175H576.102Z" fill="#D5D5D5"/>
<path d="M832.506 122.088C827.813 117.195 822.275 110.224 818.146 100.715C818.146 100.715 807.271 149.041 817.285 184.415C821.326 198.689 829.922 220.981 847.584 230.885C865.246 240.79 870.846 240.79 878.601 244.327C886.355 247.865 895.396 259.057 899.76 269.957C903.293 276.865 907.505 290.097 908.944 298.803C909.462 301.934 909.794 304.525 909.97 306.122C913.835 341.28 904.334 367.792 892.672 360.003C886.868 356.126 884.5 344.665 883.649 339.126C883.649 339.126 881.746 313.922 883.189 313.437C884.632 312.952 885.562 315.782 890.232 325.687C894.902 335.591 904.344 334.056 901.772 309.52C899.2 284.985 891.3 284.208 885.562 286.588C879.823 288.967 869.77 301.032 875.619 339.084C880.453 370.534 895.228 386.877 901.877 388.466C908.527 390.056 915.649 390.067 922.998 369.461C933.064 341.241 913.925 266.259 913.925 266.259C913.925 266.259 883.499 150.137 883.499 102.595C881.871 104.437 879.924 107.919 879.266 109.25C866.4 135.275 852.429 134.176 846.343 131.523C843.393 130.843 838.144 127.964 832.506 122.088Z" fill="#D5D5D5"/>
<path d="M883.189 313.437C881.746 313.922 883.649 339.126 883.649 339.126C884.5 344.665 886.868 356.126 892.672 360.003C904.334 367.792 913.835 341.28 909.97 306.122C909.794 304.525 909.462 301.934 908.944 298.803C907.505 290.097 903.293 276.865 899.76 269.957C894.475 259.658 888.396 256.946 880.759 261.859C861.449 274.284 862.475 330.879 867.086 360.875C867.855 364.586 868.61 368.375 869.348 372.243C875.528 397.522 888.505 418.876 900.883 423.193C915.081 428.145 929.004 421.496 935.896 394.187C939.343 380.529 941.07 351.833 937.619 324.632C931.213 274.137 876.855 131.736 890.662 89.2831L893.152 81.8775C891.683 85.8021 889.359 91.2799 889.359 91.2799C889.359 91.2799 883.824 102.226 883.499 102.595C883.499 150.137 913.925 266.259 913.925 266.259C913.925 266.259 933.064 341.241 922.998 369.461C915.649 390.067 908.527 390.056 901.877 388.466C895.228 386.877 880.453 370.534 875.619 339.084C869.77 301.032 879.823 288.967 885.562 286.588C891.3 284.208 899.2 284.985 901.772 309.52C904.344 334.056 894.902 335.591 890.232 325.687C885.562 315.782 884.632 312.952 883.189 313.437Z" fill="#D5D5D5"/>
<path d="M833.224 249.155C842.524 271.532 856.204 308.355 867.086 360.875C862.475 330.879 861.449 274.284 880.759 261.859C888.396 256.946 894.475 259.658 899.76 269.957C895.396 259.057 886.355 247.865 878.601 244.327C870.846 240.79 865.246 240.79 847.584 230.885C829.922 220.981 821.326 198.689 817.285 184.415C807.271 149.041 818.146 100.715 818.146 100.715C811.908 86.3473 809.728 77.379 811.1 49.8306C812.119 29.3825 815.516 14.5148 820.691 2.11175H808.941H800.499C796.304 6.15526 792.05 10.1911 787.705 13.7591C780.812 19.4189 776.316 22.0138 766.165 25.7861C728.448 39.8035 705.665 32.1022 677.443 2.11175H667.484C699.715 39.787 722.554 55.3746 763.867 40.0213C764.658 39.6815 765.44 39.3784 766.208 39.109C772.12 37.0371 777.251 36.9648 780.01 37.6006C785.919 38.0097 799.623 44.6345 809.1 70.5599C818.577 96.4853 815.337 172.643 792.73 198.156C787.807 203.712 782.318 208.628 776.39 212.658C797.552 201.173 819.589 216.348 833.224 249.155Z" fill="#D5D5D5"/>
<path d="M839.275 69.3191C833.678 50.211 842.418 32.5314 846.281 43.7374L848.797 48.5374C853.053 55.1448 859.858 16.0368 846.487 9.08634C833.117 2.13592 828.847 26.2513 827.196 45.5648C825.546 64.8784 830.524 108.331 852.176 113.32C870.071 117.443 881.432 76.6119 885.488 56.8824C888.599 41.754 891.609 24.9011 889.721 2.11175H864.596C871.75 20.7533 873.193 47.5136 866.916 68.1858C862.147 83.8885 855.327 84.2716 852.176 83.5455C852.176 83.5455 843.754 84.6056 839.275 69.3191Z" fill="#D5D5D5"/>
<path d="M820.691 2.11175C815.516 14.5148 812.119 29.3825 811.1 49.8306C809.728 77.379 811.908 86.3473 818.146 100.715C821.138 107.607 824.871 113.165 828.486 117.565C829.858 119.237 831.214 120.741 832.506 122.088C838.144 127.964 843.393 130.843 846.343 131.523C852.429 134.176 866.4 135.275 879.266 109.25C879.924 107.919 881.871 104.437 883.499 102.595C883.824 102.226 889.359 91.2799 889.359 91.2799C889.359 91.2799 891.683 85.8021 893.152 81.8775L894.243 78.6339C902.195 52.3829 905.185 26.3724 903.81 2.11175H889.721C891.609 24.9011 888.599 41.754 885.488 56.8824C881.432 76.6119 870.071 117.443 852.176 113.32C830.524 108.331 825.546 64.8784 827.196 45.5648C828.847 26.2513 833.117 2.13592 846.487 9.08634C859.858 16.0368 853.053 55.1448 848.797 48.5374L846.281 43.7374C842.418 32.5314 833.678 50.211 839.275 69.3191C843.754 84.6056 852.176 83.5455 852.176 83.5455C855.327 84.2716 862.147 83.8885 866.916 68.1858C873.193 47.5136 871.75 20.7533 864.596 2.11175H820.691Z" fill="#D5D5D5"/>
<path d="M766.165 25.7861C776.316 22.0138 780.812 19.4189 787.705 13.7591C792.05 10.1911 796.304 6.15526 800.499 2.11175H677.443C705.665 32.1022 728.448 39.8035 766.165 25.7861Z" fill="#D5D5D5"/>
<path d="M737.919 139.361C736.43 135.49 735.207 131.571 734.275 127.494C733.999 128.044 729.167 137.546 722.225 142.327C708.871 151.524 687.762 150.816 664.5 124.64C653.366 112.111 638.087 88.5618 623.056 65.3946C606.682 40.1579 590.603 15.3745 580.496 5.78417C579.171 4.52669 577.702 3.29539 576.102 2.11175H564.096C570.328 5.40647 576.023 9.93642 580.927 15.6884C592.687 29.4844 603.62 47.0271 617.544 68.0414C635.751 95.5205 652.898 126.054 670.546 143.741C688.193 161.428 711.025 162.135 724.379 152.938C731.529 148.014 737.919 139.361 737.919 139.361Z" fill="#D5D5D5"/>
<path d="M763.867 108.901C758.756 115.583 753.336 99.3301 761.151 87.5558C767.403 78.1363 774.906 82.1516 774.906 82.1516C777.874 82.8354 784.018 85.7403 786.11 99.0228C790.315 125.713 776.147 155.818 757.312 155.261C754.078 155.165 743.225 153.158 737.919 139.361C737.919 139.361 731.529 148.014 724.379 152.938C711.025 162.135 688.193 161.428 670.546 143.741C652.898 126.054 635.751 95.5205 617.544 68.0414C603.62 47.0271 592.687 29.4844 580.927 15.6884C576.023 9.93642 570.328 5.40647 564.096 2.11175L508.131 2.13284C494.368 8.4295 481.105 19.2654 470.07 34.7299C470.07 34.7299 501.489 5.93914 523.554 3.21697C551.525 -0.233961 576.619 24.8012 594.712 52.7888C612.805 80.7763 649.325 133.129 649.325 133.129C649.325 133.129 680.29 178.82 700.255 193.496C714.393 203.887 725.921 204.037 741.095 204.13C756.268 204.223 783.468 187.758 791.263 171.175C802.15 148.014 802.248 130.357 801.377 114.413C800.507 98.469 791.713 66.3031 774.86 62.4197C754.47 57.7213 748.039 85.5076 746.782 100.222C745.525 114.936 745.964 134.16 759.108 134.24C772.252 134.321 771.65 103.193 766.839 106.371L763.867 108.901Z" fill="#D5D5D5"/>
<path d="M470.07 34.7299C481.105 19.2654 494.368 8.4295 508.131 2.13284H502.046C491.229 9.10196 480.359 19.611 470.07 34.7299Z" fill="#D5D5D5"/>
<path d="M168.234 335.467C160.049 350.324 153.587 343.956 155.741 325.562C157.895 307.168 142.818 304.338 139.802 331.222C136.787 358.106 150.141 368.01 159.188 368.01C168.234 368.01 185.035 358.902 185.035 313.535C185.035 276.039 176.85 247.679 159.188 239.19C141.525 230.7 133.771 241.373 126.878 249.155C119.986 256.937 105.2 280.956 94.1385 322.025C87.7856 345.612 82.8721 367.027 77.7686 401.969C71.1067 447.581 68.1662 507.54 68.7221 564.688V1370.5H55.7983V564.688C54.2045 486.492 61.0258 422.67 70.6518 372.243C81.8404 313.63 96.8185 273.113 106.776 249.155C120.411 216.348 142.448 201.173 163.61 212.658C171.198 216.776 178.674 224.323 185.61 235.713C198.926 257.582 201.548 290.66 200.974 303.63C200.974 322.732 193.651 390.65 162.203 395.602C150.852 397.389 142.852 391.788 135.777 380.037C135.1 378.914 134.432 377.735 133.771 376.5C126.189 362.351 126.487 338.297 126.878 331.222C129.159 290.02 149.279 264.719 164.788 278.869C172.505 285.91 173.403 306.46 173.403 306.46C173.403 306.46 174.782 323.581 168.234 335.467Z" fill="#D5D5D5"/>
<path d="M178.849 87.5558C186.664 99.3301 181.243 115.583 176.133 108.901L173.161 106.371C168.35 103.193 167.748 134.321 180.892 134.24C194.036 134.16 194.475 114.936 193.218 100.222C191.961 85.5076 185.53 57.7213 165.14 62.4197C148.287 66.3031 139.493 98.469 138.623 114.413C137.752 130.357 137.85 148.014 148.737 171.175C156.532 187.758 183.731 204.223 198.905 204.13C214.078 204.037 225.607 203.887 239.745 193.496C259.71 178.82 290.675 133.129 290.675 133.129C290.675 133.129 327.195 80.7763 345.288 52.7888C363.381 24.8012 388.475 -0.233961 416.446 3.21697C438.511 5.93914 469.93 34.7299 469.93 34.7299C469.93 34.7299 440.749 10.3622 419.215 11.444C410.521 11.8807 381.436 11.444 355.38 49.6475C329.324 87.851 272.982 185.357 238.694 210.514C211.874 230.193 184.905 227.135 163.61 212.658C157.682 208.628 152.193 203.712 147.27 198.156C124.663 172.643 121.423 96.4853 130.9 70.5599C140.377 44.6345 154.081 38.0097 159.99 37.6006C162.749 36.9648 167.88 37.0371 173.792 39.109C186.274 43.4839 202.239 56.7739 206.715 91.1371C208.592 105.543 208.116 117.04 205.725 127.494C204.793 131.571 203.569 135.49 202.081 139.361C196.775 153.158 185.922 155.165 182.688 155.261C163.852 155.818 149.685 125.713 153.89 99.0228C155.982 85.7403 162.126 82.8354 165.093 82.1516C165.093 82.1516 172.597 78.1363 178.849 87.5558Z" fill="#D5D5D5"/>
<path d="M155.741 325.562C153.587 343.956 160.049 350.324 168.234 335.467C174.782 323.581 173.403 306.46 173.403 306.46C173.403 306.46 172.505 285.91 164.788 278.869C149.279 264.719 129.159 290.02 126.878 331.222C126.558 337.017 126.3 354.206 130.384 368.01C130.384 368.01 118.435 401.262 114.816 414.704C111.198 428.146 96.0949 493.708 97.5849 566.81L93.4023 1347.09L93.3451 1357.77H68.7221V564.688C68.1662 507.54 71.1067 447.581 77.7686 401.969C82.8721 367.027 87.7856 345.612 94.1385 322.025C105.2 280.956 119.986 256.937 126.878 249.155C133.771 241.373 141.525 230.7 159.188 239.19C176.85 247.679 185.035 276.039 185.035 313.535C185.035 358.902 168.234 368.01 159.188 368.01C150.141 368.01 136.787 358.106 139.802 331.222C142.818 304.338 157.895 307.168 155.741 325.562Z" fill="#D5D5D5"/>
<path d="M130.384 368.01C131.286 371.058 132.4 373.941 133.771 376.5C134.432 377.735 135.1 378.914 135.777 380.037C123.863 414.704 106.201 460.689 106.201 564.688V1370.5H93.2769L93.3451 1357.77L93.4023 1347.09L97.5849 566.81C96.0949 493.708 111.198 428.146 114.816 414.704C118.435 401.262 130.384 368.01 130.384 368.01Z" fill="#D5D5D5"/>
<path fill-rule="evenodd" clip-rule="evenodd" d="M469.93 2.13284V34.7299C459.641 19.611 448.771 9.10196 437.954 2.13284H469.93ZM363.898 2.11175C362.298 3.29539 360.829 4.52669 359.504 5.78417C349.397 15.3745 333.318 40.1579 316.944 65.3946C301.913 88.5618 286.634 112.111 275.5 124.64C252.238 150.816 231.129 151.524 217.775 142.327C210.833 137.546 206 128.044 205.725 127.494C208.116 117.04 208.592 105.543 206.715 91.1371C202.515 58.8895 188.196 45.2002 176.133 40.0213C217.446 55.3746 240.285 39.787 272.516 2.11175H363.898Z" fill="#D5D5D5"/>
<path d="M107.494 122.088C112.187 117.195 117.725 110.224 121.854 100.715C121.854 100.715 132.728 149.041 122.715 184.415C118.674 198.689 110.078 220.981 92.416 230.885C74.7537 240.79 69.1535 240.79 61.3993 244.327C53.6451 247.865 44.6041 259.057 40.2397 269.957C36.7072 276.865 32.4945 290.097 31.0556 298.803C30.5382 301.934 30.2055 304.525 30.0299 306.122C26.1647 341.28 35.6657 367.792 47.3278 360.003C53.1315 356.126 55.4995 344.665 56.3508 339.126C56.3508 339.126 58.2542 313.922 56.8112 313.437C55.3682 312.952 54.4382 315.782 49.7681 325.687C45.098 335.591 35.6561 334.056 38.2281 309.52C40.8002 284.985 48.6996 284.208 54.4383 286.588C60.177 288.967 70.2301 301.032 64.381 339.084C59.5466 370.534 44.7721 386.877 38.1226 388.466C31.473 390.056 24.3512 390.067 17.0016 369.461C6.93577 341.241 26.0745 266.259 26.0745 266.259C26.0745 266.259 56.5013 150.137 56.5013 102.595C58.1293 104.437 60.0759 107.919 60.734 109.25C73.6 135.275 87.5713 134.176 93.6567 131.523C96.6065 130.843 101.856 127.964 107.494 122.088Z" fill="#D5D5D5"/>
<path d="M56.8112 313.437C58.2542 313.922 56.3508 339.126 56.3508 339.126C55.4995 344.665 53.1315 356.126 47.3278 360.003C35.6657 367.792 26.1647 341.28 30.0299 306.122C30.2055 304.525 30.5382 301.934 31.0556 298.803C32.4945 290.097 36.7072 276.865 40.2397 269.957C45.525 259.658 51.6041 256.946 59.2404 261.859C78.5509 274.284 77.5248 330.879 72.9139 360.875C72.145 364.586 71.3902 368.375 70.6518 372.243C64.4722 397.522 51.4948 418.876 39.1173 423.193C24.9191 428.145 10.9963 421.496 4.10392 394.187C0.657019 380.529 -1.07018 351.833 2.38059 324.632C8.78645 274.137 63.1451 131.736 49.3384 89.2831L46.8477 81.8775C48.3167 85.8021 50.6407 91.2799 50.6407 91.2799C50.6407 91.2799 56.1758 102.226 56.5013 102.595C56.5013 150.137 26.0745 266.259 26.0745 266.259C26.0745 266.259 6.93577 341.241 17.0016 369.461C24.3512 390.067 31.473 390.056 38.1226 388.466C44.7721 386.877 59.5466 370.534 64.381 339.084C70.2301 301.032 60.177 288.967 54.4383 286.588C48.6996 284.208 40.8002 284.985 38.2281 309.52C35.6561 334.056 45.098 335.591 49.7681 325.687C54.4382 315.782 55.3682 312.952 56.8112 313.437Z" fill="#D5D5D5"/>
<path d="M106.776 249.155C97.4756 271.532 83.7955 308.355 72.9139 360.875C77.5248 330.879 78.5509 274.284 59.2404 261.859C51.6041 256.946 45.525 259.658 40.2397 269.957C44.6041 259.057 53.6451 247.865 61.3993 244.327C69.1535 240.79 74.7537 240.79 92.416 230.885C110.078 220.981 118.674 198.689 122.715 184.415C132.728 149.041 121.854 100.715 121.854 100.715C128.092 86.3473 130.272 77.379 128.9 49.8306C127.881 29.3825 124.484 14.5148 119.309 2.11175H131.059H139.501C143.696 6.15526 147.95 10.1911 152.295 13.7591C159.188 19.4189 163.684 22.0138 173.834 25.7861C211.552 39.8035 234.335 32.1022 262.557 2.11175H272.516C240.285 39.787 217.446 55.3746 176.133 40.0213C175.342 39.6815 174.56 39.3784 173.792 39.109C167.88 37.0371 162.749 36.9648 159.99 37.6006C154.081 38.0097 140.377 44.6345 130.9 70.5599C121.423 96.4853 124.663 172.643 147.27 198.156C152.193 203.712 157.682 208.628 163.61 212.658C142.448 201.173 120.411 216.348 106.776 249.155Z" fill="#D5D5D5"/>
<path d="M100.725 69.3191C106.322 50.211 97.5817 32.5314 93.719 43.7374L91.2025 48.5374C86.947 55.1448 80.1422 16.0368 93.5128 9.08634C106.883 2.13592 111.153 26.2513 112.803 45.5648C114.454 64.8784 109.476 108.331 87.824 113.32C69.9288 117.443 58.5679 76.6119 54.5116 56.8824C51.4012 41.754 48.3909 24.9011 50.2787 2.11175H75.4041C68.2497 20.7533 66.8068 47.5136 73.0843 68.1858C77.8527 83.8885 84.6727 84.2716 87.824 83.5455C87.824 83.5455 96.2464 84.6056 100.725 69.3191Z" fill="#D5D5D5"/>
<path d="M119.309 2.11175C124.484 14.5148 127.881 29.3825 128.9 49.8306C130.272 77.379 128.092 86.3473 121.854 100.715C118.862 107.607 115.129 113.165 111.514 117.565C110.141 119.237 108.786 120.741 107.494 122.088C101.856 127.964 96.6065 130.843 93.6567 131.523C87.5713 134.176 73.6 135.275 60.734 109.25C60.0759 107.919 58.1293 104.437 56.5013 102.595C56.1758 102.226 50.6407 91.2799 50.6407 91.2799C50.6407 91.2799 48.3167 85.8021 46.8477 81.8775L45.7569 78.6339C37.8054 52.3829 34.8153 26.3724 36.1903 2.11175H50.2787C48.3909 24.9011 51.4012 41.754 54.5116 56.8824C58.5679 76.6119 69.9288 117.443 87.824 113.32C109.476 108.331 114.454 64.8784 112.803 45.5648C111.153 26.2513 106.883 2.13592 93.5128 9.08634C80.1422 16.0368 86.947 55.1448 91.2025 48.5374L93.719 43.7374C97.5817 32.5314 106.322 50.211 100.725 69.3191C96.2464 84.6056 87.824 83.5455 87.824 83.5455C84.6727 84.2716 77.8527 83.8885 73.0843 68.1858C66.8068 47.5136 68.2497 20.7533 75.4041 2.11175H119.309Z" fill="#D5D5D5"/>
<path d="M173.834 25.7861C163.684 22.0138 159.188 19.4189 152.295 13.7591C147.95 10.1911 143.696 6.15526 139.501 2.11175H262.557C234.335 32.1022 211.552 39.8035 173.834 25.7861Z" fill="#D5D5D5"/>
<path d="M202.081 139.361C203.569 135.49 204.793 131.571 205.725 127.494C206 128.044 210.833 137.546 217.775 142.327C231.129 151.524 252.238 150.816 275.5 124.64C286.634 112.111 301.913 88.5618 316.944 65.3946C333.318 40.1579 349.397 15.3745 359.504 5.78417C360.829 4.52669 362.298 3.29539 363.898 2.11175H375.904C369.672 5.40647 363.977 9.93642 359.073 15.6884C347.313 29.4844 336.38 47.0271 322.456 68.0414C304.249 95.5205 287.102 126.054 269.454 143.741C251.807 161.428 228.975 162.135 215.621 152.938C208.471 148.014 202.081 139.361 202.081 139.361Z" fill="#D5D5D5"/>
<path d="M176.133 108.901C181.243 115.583 186.664 99.3301 178.849 87.5558C172.597 78.1363 165.093 82.1516 165.093 82.1516C162.126 82.8354 155.982 85.7403 153.89 99.0228C149.685 125.713 163.852 155.818 182.688 155.261C185.922 155.165 196.775 153.158 202.081 139.361C202.081 139.361 208.471 148.014 215.621 152.938C228.975 162.135 251.807 161.428 269.454 143.741C287.102 126.054 304.249 95.5205 322.456 68.0414C336.38 47.0271 347.313 29.4844 359.073 15.6884C363.977 9.93642 369.672 5.40647 375.904 2.11175L431.869 2.13284C445.632 8.4295 458.895 19.2654 469.93 34.7299C469.93 34.7299 438.511 5.93914 416.446 3.21697C388.475 -0.233961 363.381 24.8012 345.288 52.7888C327.195 80.7763 290.675 133.129 290.675 133.129C290.675 133.129 259.71 178.82 239.745 193.496C225.607 203.887 214.078 204.037 198.905 204.13C183.731 204.223 156.532 187.758 148.737 171.175C137.85 148.014 137.752 130.357 138.623 114.413C139.493 98.469 148.287 66.3031 165.14 62.4197C185.53 57.7213 191.961 85.5076 193.218 100.222C194.475 114.936 194.036 134.16 180.892 134.24C167.748 134.321 168.35 103.193 173.161 106.371L176.133 108.901Z" fill="#D5D5D5"/>
<path d="M469.93 34.7299C458.895 19.2654 445.632 8.4295 431.869 2.13284H437.954C448.771 9.10196 459.641 19.611 469.93 34.7299Z" fill="#D5D5D5"/>
<path d="M871.278 564.688C871.834 507.54 868.893 447.581 862.231 401.969C857.128 367.027 852.214 345.612 845.861 322.025C834.8 280.956 820.014 256.937 813.122 249.155C806.229 241.373 798.475 230.7 780.812 239.19C763.15 247.679 754.965 276.039 754.965 313.535C754.965 358.902 771.766 368.01 780.812 368.01C789.859 368.01 803.213 358.106 800.198 331.222C797.182 304.338 782.105 307.168 784.259 325.562C786.413 343.956 779.951 350.324 771.766 335.467C765.218 323.581 766.597 306.46 766.597 306.46C766.597 306.46 767.495 285.91 775.212 278.869C790.721 264.719 810.841 290.02 813.122 331.222M871.278 564.688V1370.5H884.202V564.688C885.795 486.492 878.974 422.67 869.348 372.243M871.278 564.688V1357.77H846.655M869.348 372.243C858.16 313.63 843.181 273.113 833.224 249.155M869.348 372.243C868.61 368.375 867.855 364.586 867.086 360.875M869.348 372.243C875.528 397.522 888.505 418.876 900.883 423.193C915.081 428.145 929.004 421.496 935.896 394.187C939.343 380.529 941.07 351.833 937.619 324.632C931.213 274.137 876.855 131.736 890.662 89.2831L893.152 81.8775M869.348 372.243C868.439 368.525 867.677 364.722 867.086 360.875M833.224 249.155C819.589 216.348 797.552 201.173 776.39 212.658M833.224 249.155C842.524 271.532 856.204 308.355 867.086 360.875M776.39 212.658C768.802 216.776 761.326 224.323 754.39 235.713C741.074 257.582 738.452 290.66 739.026 303.63C739.026 322.732 746.349 390.65 777.797 395.602C789.148 397.389 797.148 391.788 804.223 380.037M776.39 212.658C755.095 227.135 728.126 230.193 701.306 210.514C667.018 185.357 610.676 87.851 584.62 49.6475C558.564 11.444 529.479 11.8807 520.785 11.444C499.251 10.3622 470.07 34.7299 470.07 34.7299M776.39 212.658C782.318 208.628 787.807 203.712 792.73 198.156C815.337 172.643 818.577 96.4853 809.1 70.5599C799.623 44.6345 785.919 38.0097 780.01 37.6006C777.251 36.9648 772.12 37.0371 766.208 39.109M804.223 380.037C804.9 378.914 805.567 377.735 806.229 376.5M804.223 380.037C816.137 414.704 833.799 460.689 833.799 564.688V1370.5H846.723M806.229 376.5C813.811 362.351 813.513 338.297 813.122 331.222M806.229 376.5C807.6 373.941 808.714 371.058 809.615 368.01M813.122 331.222C813.442 337.017 813.7 354.206 809.615 368.01M470.07 34.7299C470.07 34.7299 501.489 5.93914 523.554 3.21697C551.525 -0.233961 576.619 24.8012 594.712 52.7888C612.805 80.7763 649.325 133.129 649.325 133.129C649.325 133.129 680.29 178.82 700.255 193.496C714.393 203.887 725.921 204.037 741.095 204.13C756.268 204.223 783.468 187.758 791.263 171.175C802.15 148.014 802.248 130.357 801.377 114.413C800.507 98.469 791.713 66.3031 774.86 62.4197C754.47 57.7213 748.039 85.5076 746.782 100.222C745.525 114.936 745.964 134.16 759.108 134.24C772.252 134.321 771.65 103.193 766.839 106.371L763.867 108.901C758.756 115.583 753.336 99.3301 761.151 87.5558C767.403 78.1363 774.906 82.1516 774.906 82.1516C777.874 82.8354 784.018 85.7403 786.11 99.0228C790.315 125.713 776.147 155.818 757.312 155.261C754.078 155.165 743.225 153.158 737.919 139.361M470.07 34.7299V2.13284H502.046M470.07 34.7299C480.359 19.611 491.229 9.10196 502.046 2.13284M470.07 34.7299C481.105 19.2654 494.368 8.4295 508.131 2.13284M766.208 39.109C753.726 43.4839 737.761 56.7739 733.285 91.1371M766.208 39.109C765.44 39.3784 764.658 39.6815 763.867 40.0213M766.208 39.109C765.466 39.4127 764.687 39.7163 763.867 40.0213M766.208 39.109C773.83 35.9913 777.591 32.879 782.914 28.4738M766.208 39.109C773.837 35.9885 777.598 32.8734 782.928 28.462M733.285 91.1371C731.408 105.543 731.884 117.04 734.275 127.494M733.285 91.1371C737.485 58.8895 751.803 45.2002 763.867 40.0213M734.275 127.494C735.207 131.571 736.43 135.49 737.919 139.361M734.275 127.494C733.999 128.044 729.167 137.546 722.225 142.327C708.871 151.524 687.762 150.816 664.5 124.64M734.275 127.494C734.283 127.478 734.287 127.47 734.287 127.47M737.919 139.361C737.919 139.361 731.529 148.014 724.379 152.938C711.025 162.135 688.193 161.428 670.546 143.741C652.898 126.054 635.751 95.5205 617.544 68.0414C603.62 47.0271 592.687 29.4844 580.927 15.6884C576.023 9.93642 570.328 5.40647 564.096 2.11175M809.615 368.01C809.615 368.01 821.565 401.262 825.183 414.704C828.802 428.146 843.905 493.708 842.415 566.81L846.598 1347.09M846.598 1347.09L846.655 1357.77M846.598 1347.09H846.586M846.598 1347.09H871.209M846.598 1347.09L846.723 1370.5M846.655 1357.77L846.723 1370.5M502.046 2.13284H508.131M576.102 2.11175C577.702 3.29539 579.171 4.52669 580.496 5.78417M576.102 2.11175H667.484M576.102 2.11175H564.096M576.102 2.11175H889.721M580.496 5.78417C590.603 15.3745 606.682 40.1579 623.056 65.3946C638.087 88.5618 653.366 112.111 664.5 124.64M580.496 5.78417C599.881 24.1785 641.237 98.4632 664.5 124.64M763.867 40.0213C722.554 55.3746 699.715 39.787 667.484 2.11175M667.484 2.11175H677.443M667.484 2.11175H889.721M832.506 122.088C827.813 117.195 822.275 110.224 818.146 100.715M832.506 122.088C838.144 127.964 843.393 130.843 846.343 131.523C852.429 134.176 866.4 135.275 879.266 109.25C879.924 107.919 881.871 104.437 883.499 102.595M832.506 122.088C831.214 120.741 829.858 119.237 828.486 117.565M818.146 100.715C818.146 100.715 807.271 149.041 817.285 184.415C821.326 198.689 829.922 220.981 847.584 230.885C865.246 240.79 870.846 240.79 878.601 244.327C886.355 247.865 895.396 259.057 899.76 269.957M818.146 100.715C811.908 86.3473 809.728 77.379 811.1 49.8306C812.119 29.3825 815.516 14.5148 820.691 2.11175M818.146 100.715C821.138 107.607 824.871 113.165 828.486 117.565M899.76 269.957C903.293 276.865 907.505 290.097 908.944 298.803M899.76 269.957C894.475 259.658 888.396 256.946 880.759 261.859C861.449 274.284 862.475 330.879 867.086 360.875M908.944 298.803C909.462 301.934 909.794 304.525 909.97 306.122C913.835 341.28 904.334 367.792 892.672 360.003C886.868 356.126 884.5 344.665 883.649 339.126C883.649 339.126 881.746 313.922 883.189 313.437C884.632 312.952 885.562 315.782 890.232 325.687C894.902 335.591 904.344 334.056 901.772 309.52C899.2 284.985 891.3 284.208 885.562 286.588C879.823 288.967 869.77 301.032 875.619 339.084C880.453 370.534 895.228 386.877 901.877 388.466C908.527 390.056 915.649 390.067 922.998 369.461C933.064 341.241 913.925 266.259 913.925 266.259C913.925 266.259 883.499 150.137 883.499 102.595M908.944 298.803C908.944 298.803 908.326 272.607 890.233 251.985C872.14 231.362 842.09 232.883 832.076 197.509C827.491 182.888 819.205 136.809 828.486 117.565M883.499 102.595C883.824 102.226 889.359 91.2799 889.359 91.2799C889.359 91.2799 891.683 85.8021 893.152 81.8775M893.152 81.8775L894.243 78.6339M893.152 81.8775C893.665 80.5071 894.074 79.3262 894.243 78.6339M820.691 2.11175H808.941M820.691 2.11175H864.596M808.941 2.11175H800.499M808.941 2.11175C807.122 4.07065 805.305 6.06657 803.493 8.05769L803.49 8.06085C797.144 15.0342 790.851 21.9493 784.689 27.0084C784.097 27.4946 783.528 27.9655 782.976 28.4225C782.961 28.435 782.946 28.4475 782.931 28.46L782.928 28.462M800.499 2.11175C796.304 6.15526 792.05 10.1911 787.705 13.7591C780.812 19.4189 776.316 22.0138 766.165 25.7861C728.448 39.8035 705.665 32.1022 677.443 2.11175M800.499 2.11175H677.443M889.721 2.11175C891.609 24.9011 888.599 41.754 885.488 56.8824C881.432 76.6119 870.071 117.443 852.176 113.32C830.524 108.331 825.546 64.8784 827.196 45.5648C828.847 26.2513 833.117 2.13592 846.487 9.08634C859.858 16.0368 853.053 55.1448 848.797 48.5374L846.281 43.7374C842.418 32.5314 833.678 50.211 839.275 69.3191C843.754 84.6056 852.176 83.5455 852.176 83.5455C855.327 84.2716 862.147 83.8885 866.916 68.1858C873.193 47.5136 871.75 20.7533 864.596 2.11175M889.721 2.11175H864.596M889.721 2.11175H903.81C905.185 26.3724 902.195 52.3829 894.243 78.6339M864.596 2.11175C864.387 1.56746 864.173 1.03009 863.954 0.5M564.096 2.11175L508.131 2.13284M782.914 28.4738L782.928 28.462M782.914 28.4738C782.919 28.4698 782.923 28.4659 782.928 28.462M68.7221 564.688C68.1662 507.54 71.1067 447.581 77.7686 401.969C82.8721 367.027 87.7856 345.612 94.1385 322.025C105.2 280.956 119.986 256.937 126.878 249.155C133.771 241.373 141.525 230.7 159.188 239.19C176.85 247.679 185.035 276.039 185.035 313.535C185.035 358.902 168.234 368.01 159.188 368.01C150.141 368.01 136.787 358.106 139.802 331.222C142.818 304.338 157.895 307.168 155.741 325.562C153.587 343.956 160.049 350.324 168.234 335.467C174.782 323.581 173.403 306.46 173.403 306.46C173.403 306.46 172.505 285.91 164.788 278.869C149.279 264.719 129.159 290.02 126.878 331.222M68.7221 564.688V1370.5H55.7983V564.688C54.2045 486.492 61.0258 422.67 70.6518 372.243M68.7221 564.688V1357.77H93.3451M70.6518 372.243C81.8404 313.63 96.8185 273.113 106.776 249.155M70.6518 372.243C71.3902 368.375 72.145 364.586 72.9139 360.875M70.6518 372.243C64.4722 397.522 51.4948 418.876 39.1173 423.193C24.9191 428.145 10.9963 421.496 4.10392 394.187C0.657019 380.529 -1.07018 351.833 2.38059 324.632C8.78645 274.137 63.1451 131.736 49.3384 89.2831L46.8477 81.8775M70.6518 372.243C71.5608 368.525 72.3226 364.722 72.9139 360.875M106.776 249.155C120.411 216.348 142.448 201.173 163.61 212.658M106.776 249.155C97.4756 271.532 83.7955 308.355 72.9139 360.875M163.61 212.658C171.198 216.776 178.674 224.323 185.61 235.713C198.926 257.582 201.548 290.66 200.974 303.63C200.974 322.732 193.651 390.65 162.203 395.602C150.852 397.389 142.852 391.788 135.777 380.037M163.61 212.658C184.905 227.135 211.874 230.193 238.694 210.514C272.982 185.357 329.324 87.851 355.38 49.6475C381.436 11.444 410.521 11.8807 419.215 11.444C440.749 10.3622 469.93 34.7299 469.93 34.7299M163.61 212.658C157.682 208.628 152.193 203.712 147.27 198.156C124.663 172.643 121.423 96.4853 130.9 70.5599C140.377 44.6345 154.081 38.0097 159.99 37.6006C162.749 36.9648 167.88 37.0371 173.792 39.109M135.777 380.037C135.1 378.914 134.432 377.735 133.771 376.5M135.777 380.037C123.863 414.704 106.201 460.689 106.201 564.688V1370.5H93.2769M133.771 376.5C126.189 362.351 126.487 338.297 126.878 331.222M133.771 376.5C132.4 373.941 131.286 371.058 130.384 368.01M126.878 331.222C126.558 337.017 126.3 354.206 130.384 368.01M469.93 34.7299C469.93 34.7299 438.511 5.93914 416.446 3.21697C388.475 -0.233961 363.381 24.8012 345.288 52.7888C327.195 80.7763 290.675 133.129 290.675 133.129C290.675 133.129 259.71 178.82 239.745 193.496C225.607 203.887 214.078 204.037 198.905 204.13C183.731 204.223 156.532 187.758 148.737 171.175C137.85 148.014 137.752 130.357 138.623 114.413C139.493 98.469 148.287 66.3031 165.14 62.4197C185.53 57.7213 191.961 85.5076 193.218 100.222C194.475 114.936 194.036 134.16 180.892 134.24C167.748 134.321 168.35 103.193 173.161 106.371L176.133 108.901C181.243 115.583 186.664 99.3301 178.849 87.5558C172.597 78.1363 165.093 82.1516 165.093 82.1516C162.126 82.8354 155.982 85.7403 153.89 99.0228C149.685 125.713 163.852 155.818 182.688 155.261C185.922 155.165 196.775 153.158 202.081 139.361M469.93 34.7299V2.13284H437.954M469.93 34.7299C459.641 19.611 448.771 9.10196 437.954 2.13284M469.93 34.7299C458.895 19.2654 445.632 8.4295 431.869 2.13284M173.792 39.109C186.274 43.4839 202.239 56.7739 206.715 91.1371M173.792 39.109C174.56 39.3784 175.342 39.6815 176.133 40.0213M173.792 39.109C174.534 39.4127 175.313 39.7163 176.133 40.0213M173.792 39.109C166.17 35.9913 162.409 32.879 157.086 28.4738M173.792 39.109C166.163 35.9885 162.402 32.8734 157.072 28.462M206.715 91.1371C208.592 105.543 208.116 117.04 205.725 127.494M206.715 91.1371C202.515 58.8895 188.196 45.2002 176.133 40.0213M205.725 127.494C204.793 131.571 203.569 135.49 202.081 139.361M205.725 127.494C206 128.044 210.833 137.546 217.775 142.327C231.129 151.524 252.238 150.816 275.5 124.64M205.725 127.494C205.717 127.478 205.713 127.47 205.713 127.47M202.081 139.361C202.081 139.361 208.471 148.014 215.621 152.938C228.975 162.135 251.807 161.428 269.454 143.741C287.102 126.054 304.249 95.5205 322.456 68.0414C336.38 47.0271 347.313 29.4844 359.073 15.6884C363.977 9.93642 369.672 5.40647 375.904 2.11175M130.384 368.01C130.384 368.01 118.435 401.262 114.816 414.704C111.198 428.146 96.0949 493.708 97.5849 566.81L93.4023 1347.09M93.4023 1347.09L93.3451 1357.77M93.4023 1347.09H93.4137M93.4023 1347.09H68.7906M93.4023 1347.09L93.2769 1370.5M93.3451 1357.77L93.2769 1370.5M437.954 2.13284H431.869M363.898 2.11175C362.298 3.29539 360.829 4.52669 359.504 5.78417M363.898 2.11175H272.516M363.898 2.11175H375.904M363.898 2.11175H50.2787M359.504 5.78417C349.397 15.3745 333.318 40.1579 316.944 65.3946C301.913 88.5618 286.634 112.111 275.5 124.64M359.504 5.78417C340.119 24.1785 298.763 98.4632 275.5 124.64M176.133 40.0213C217.446 55.3746 240.285 39.787 272.516 2.11175M272.516 2.11175H262.557M272.516 2.11175H50.2787M107.494 122.088C112.187 117.195 117.725 110.224 121.854 100.715M107.494 122.088C101.856 127.964 96.6065 130.843 93.6567 131.523C87.5713 134.176 73.6 135.275 60.734 109.25C60.0759 107.919 58.1293 104.437 56.5013 102.595M107.494 122.088C108.786 120.741 110.141 119.237 111.514 117.565M121.854 100.715C121.854 100.715 132.728 149.041 122.715 184.415C118.674 198.689 110.078 220.981 92.416 230.885C74.7537 240.79 69.1535 240.79 61.3993 244.327C53.6451 247.865 44.6041 259.057 40.2397 269.957M121.854 100.715C128.092 86.3473 130.272 77.379 128.9 49.8306C127.881 29.3825 124.484 14.5148 119.309 2.11175M121.854 100.715C118.862 107.607 115.129 113.165 111.514 117.565M40.2397 269.957C36.7072 276.865 32.4945 290.097 31.0556 298.803M40.2397 269.957C45.525 259.658 51.6041 256.946 59.2404 261.859C78.5509 274.284 77.5248 330.879 72.9139 360.875M31.0556 298.803C30.5382 301.934 30.2055 304.525 30.0299 306.122C26.1647 341.28 35.6657 367.792 47.3278 360.003C53.1315 356.126 55.4995 344.665 56.3508 339.126C56.3508 339.126 58.2542 313.922 56.8112 313.437C55.3682 312.952 54.4382 315.782 49.7681 325.687C45.098 335.591 35.6561 334.056 38.2281 309.52C40.8002 284.985 48.6996 284.208 54.4383 286.588C60.177 288.967 70.2301 301.032 64.381 339.084C59.5466 370.534 44.7721 386.877 38.1226 388.466C31.473 390.056 24.3512 390.067 17.0016 369.461C6.93577 341.241 26.0745 266.259 26.0745 266.259C26.0745 266.259 56.5013 150.137 56.5013 102.595M31.0556 298.803C31.0556 298.803 31.6742 272.607 49.7673 251.985C67.8604 231.362 97.9102 232.883 107.924 197.509C112.509 182.888 120.795 136.809 111.514 117.565M56.5013 102.595C56.1758 102.226 50.6407 91.2799 50.6407 91.2799C50.6407 91.2799 48.3167 85.8021 46.8477 81.8775M46.8477 81.8775L45.7569 78.6339M46.8477 81.8775C46.3347 80.5071 45.9261 79.3262 45.7569 78.6339M119.309 2.11175H131.059M119.309 2.11175H75.4041M131.059 2.11175H139.501M131.059 2.11175C132.878 4.07065 134.694 6.06657 136.507 8.05769L136.509 8.06085C142.856 15.0342 149.149 21.9493 155.31 27.0084C155.903 27.4946 156.472 27.9655 157.024 28.4225C157.039 28.435 157.054 28.4475 157.069 28.46L157.072 28.462M139.501 2.11175C143.696 6.15526 147.95 10.1911 152.295 13.7591C159.188 19.4189 163.684 22.0138 173.834 25.7861C211.552 39.8035 234.335 32.1022 262.557 2.11175M139.501 2.11175H262.557M50.2787 2.11175C48.3909 24.9011 51.4012 41.754 54.5116 56.8824C58.5679 76.6119 69.9288 117.443 87.824 113.32C109.476 108.331 114.454 64.8784 112.803 45.5648C111.153 26.2513 106.883 2.13592 93.5128 9.08634C80.1422 16.0368 86.947 55.1448 91.2025 48.5374L93.719 43.7374C97.5817 32.5314 106.322 50.211 100.725 69.3191C96.2464 84.6056 87.824 83.5455 87.824 83.5455C84.6727 84.2716 77.8527 83.8885 73.0843 68.1858C66.8068 47.5136 68.2497 20.7533 75.4041 2.11175M50.2787 2.11175H75.4041M50.2787 2.11175H36.1903C34.8153 26.3724 37.8054 52.3829 45.7569 78.6339M75.4041 2.11175C75.613 1.56746 75.8269 1.03009 76.0454 0.5M375.904 2.11175L431.869 2.13284M157.086 28.4738L157.072 28.462M157.086 28.4738C157.081 28.4698 157.076 28.4659 157.072 28.462" stroke="black" stroke-linecap="round" stroke-linejoin="round"/>
</svg>
