<svg width="146" height="275" viewBox="0 0 146 275" fill="none" xmlns="http://www.w3.org/2000/svg">
<path d="M101.814 261.872C96.6165 261.578 84.5369 262.532 82.6406 263.633C77.7062 265.352 73.0006 270.012 73 272.61C72.9998 273.34 73.3711 273.907 74.213 274.2C76.1092 274.861 78.2648 271.673 80.9551 270.237C97.0583 261.643 114.508 267.115 123.725 260.331C129.622 255.991 134.991 244.283 142.266 249.984C142.949 250.519 142.911 251.278 142.688 251.745C142.477 252.186 141.833 252.535 141.213 252.406C140.159 252.186 140.541 250.29 140.159 250.424C139.527 251.525 139.612 252.265 139.738 252.626C140.581 255.047 144.584 254.387 145.598 252.626C146.966 250.25 144.611 248.143 142.016 247.562C137.926 246.647 134.99 248.158 132.591 250.179C130.66 251.805 129.076 253.761 127.518 255.047C119.391 261.757 107.011 262.165 101.814 261.872Z" fill="#D7CDB7"/>
<path d="M63.3594 263.633C61.4631 262.532 49.3835 261.578 44.1865 261.872C38.9894 262.165 26.6086 261.757 18.4822 255.047C16.9235 253.761 15.3399 251.805 13.4091 250.179C11.0097 248.158 8.07409 246.647 3.98364 247.562C1.38899 248.143 -0.966038 250.25 0.402008 252.626C1.41621 254.387 5.41933 255.047 6.26209 252.626C6.38764 252.265 6.47278 251.525 5.84071 250.424C5.45851 250.29 5.84071 252.186 4.78725 252.406C4.16746 252.535 3.52311 252.186 3.31242 251.745C3.08858 251.278 3.05088 250.519 3.7338 249.984C11.0092 244.283 16.378 255.991 22.2746 260.331C31.4924 267.115 48.9418 261.643 65.0449 270.237C67.7352 271.673 69.8908 274.861 71.787 274.2C72.6289 273.907 73.0002 273.34 73 272.61C72.9994 270.012 68.2938 265.352 63.3594 263.633Z" fill="#D7CDB7"/>
<path d="M82.6406 214.945C84.5369 216.046 96.6165 217 101.814 216.706C107.011 216.413 119.391 216.821 127.518 223.531C128.766 224.561 130.031 226.021 131.477 227.397C134.079 229.873 137.271 232.077 142.016 231.016C144.611 230.435 146.966 228.328 145.598 225.952C144.584 224.191 140.581 223.531 139.738 225.952C139.612 226.313 139.527 227.053 140.159 228.154C140.541 228.288 140.159 226.393 141.213 226.172C141.833 226.043 142.477 226.393 142.688 226.833C142.911 227.301 142.949 228.059 142.266 228.594C134.991 234.295 129.622 222.587 123.725 218.247C114.508 211.463 97.0583 216.935 80.9551 208.341C78.2648 206.905 76.1092 203.718 74.213 204.378C73.3711 204.671 72.9998 205.238 73 205.968C73.0006 208.566 77.7062 213.226 82.6406 214.945Z" fill="#D7CDB7"/>
<path d="M44.1865 216.706C49.3835 217 61.4631 216.046 63.3594 214.945C68.2938 213.226 72.9994 208.566 73 205.968C73.0002 205.238 72.6289 204.671 71.787 204.378C69.8908 203.718 67.7352 206.905 65.0449 208.341C48.9418 216.935 31.4924 211.463 22.2746 218.247C16.378 222.587 11.0092 234.295 3.7338 228.594C3.05088 228.059 3.08858 227.301 3.31242 226.833C3.52311 226.393 4.16746 226.043 4.78725 226.172C5.84071 226.393 5.45851 228.288 5.84071 228.154C6.47278 227.053 6.38764 226.313 6.26209 225.952C5.41933 223.531 1.41621 224.191 0.402008 225.952C-0.966038 228.328 1.38899 230.435 3.98364 231.016C8.7293 232.077 11.9205 229.873 14.5234 227.397C15.9694 226.021 17.2338 224.561 18.4822 223.531C26.6086 216.821 38.9894 216.413 44.1865 216.706Z" fill="#D7CDB7"/>
<path d="M44.1865 261.872C49.3835 261.578 61.4631 262.532 63.3594 263.633C68.2938 265.352 72.9994 270.012 73 272.61C73.0006 270.012 77.7062 265.352 82.6406 263.633C84.5369 262.532 96.6165 261.578 101.814 261.872C107.011 262.165 119.391 261.757 127.518 255.047C129.076 253.761 130.66 251.805 132.591 250.179C133.019 249.465 135.331 245.33 135.331 239.289C135.331 233.183 132.025 228.184 131.477 227.397C130.031 226.021 128.766 224.561 127.518 223.531C119.391 216.821 107.011 216.413 101.814 216.706C96.6165 217 84.5369 216.046 82.6406 214.945C77.7062 213.226 73.0006 208.566 73 205.968C72.9994 208.566 68.2938 213.226 63.3594 214.945C61.4631 216.046 49.3835 217 44.1865 216.706C38.9894 216.413 26.6086 216.821 18.4822 223.531C17.2338 224.561 15.9694 226.021 14.5234 227.397C13.975 228.184 10.6692 233.183 10.6692 239.289C10.6693 245.33 12.9808 249.465 13.4091 250.179C15.3399 251.805 16.9235 253.761 18.4822 255.047C26.6086 261.757 38.9894 262.165 44.1865 261.872Z" fill="#453048"/>
<path d="M31.66 234.469C31.66 234.642 31.6 234.802 31.48 234.949C31.3733 235.082 31.2467 235.182 31.1 235.249C30.7667 235.009 30.36 234.782 29.88 234.569C29.4133 234.356 28.8067 234.249 28.06 234.249C27.2467 234.249 26.5133 234.436 25.86 234.809C25.22 235.182 24.7067 235.742 24.32 236.489C23.9467 237.222 23.76 238.136 23.76 239.229C23.76 240.869 24.16 242.102 24.96 242.929C25.7733 243.756 26.8267 244.169 28.12 244.169C28.8133 244.169 29.42 244.069 29.94 243.869C30.46 243.669 30.8867 243.442 31.22 243.189C31.3533 243.242 31.48 243.342 31.6 243.489C31.72 243.622 31.78 243.782 31.78 243.969C31.78 244.102 31.74 244.236 31.66 244.369C31.5933 244.489 31.4733 244.609 31.3 244.729C30.9933 244.942 30.5733 245.129 30.04 245.289C29.5067 245.462 28.8267 245.549 28 245.549C26.8933 245.549 25.8867 245.316 24.98 244.849C24.0867 244.369 23.38 243.662 22.86 242.729C22.34 241.796 22.08 240.629 22.08 239.229C22.08 237.829 22.3467 236.656 22.88 235.709C23.4267 234.762 24.14 234.056 25.02 233.589C25.9133 233.109 26.8867 232.869 27.94 232.869C28.6733 232.869 29.32 232.949 29.88 233.109C30.44 233.269 30.8733 233.476 31.18 233.729C31.5 233.969 31.66 234.216 31.66 234.469ZM42.33 240.669C42.33 241.656 42.1433 242.516 41.77 243.249C41.3967 243.982 40.87 244.549 40.19 244.949C39.51 245.349 38.71 245.549 37.79 245.549C36.87 245.549 36.0633 245.349 35.37 244.949C34.69 244.549 34.1633 243.982 33.79 243.249C33.4167 242.516 33.23 241.656 33.23 240.669C33.23 239.669 33.4167 238.809 33.79 238.089C34.1767 237.356 34.71 236.789 35.39 236.389C36.0833 235.989 36.8833 235.789 37.79 235.789C38.6967 235.789 39.49 235.989 40.17 236.389C40.85 236.789 41.3767 237.356 41.75 238.089C42.1367 238.809 42.33 239.669 42.33 240.669ZM37.79 237.109C36.8967 237.109 36.1833 237.429 35.65 238.069C35.13 238.696 34.87 239.562 34.87 240.669C34.87 241.789 35.1233 242.662 35.63 243.289C36.15 243.916 36.87 244.229 37.79 244.229C38.6967 244.229 39.4033 243.916 39.91 243.289C40.43 242.649 40.69 241.776 40.69 240.669C40.69 239.562 40.43 238.696 39.91 238.069C39.4033 237.429 38.6967 237.109 37.79 237.109ZM44.8047 241.909V240.089H46.4047V241.829C46.4047 242.682 46.6314 243.296 47.0847 243.669C47.538 244.042 48.1647 244.229 48.9647 244.229C49.498 244.229 49.9514 244.176 50.3247 244.069C50.698 243.949 50.9914 243.829 51.2047 243.709V240.089H52.8047V243.649C52.8047 243.929 52.7647 244.156 52.6847 244.329C52.618 244.489 52.4447 244.649 52.1647 244.809C51.8714 244.982 51.4514 245.149 50.9047 245.309C50.358 245.469 49.7047 245.549 48.9447 245.549C48.0647 245.549 47.3114 245.422 46.6847 245.169C46.0714 244.902 45.6047 244.502 45.2847 243.969C44.9647 243.422 44.8047 242.736 44.8047 241.909ZM52.8047 241.129H51.2047V236.089C51.2714 236.062 51.3714 236.036 51.5047 236.009C51.6514 235.969 51.798 235.949 51.9447 235.949C52.238 235.949 52.4514 236.009 52.5847 236.129C52.7314 236.236 52.8047 236.422 52.8047 236.689V241.129ZM46.4047 241.129H44.8047V236.089C44.8714 236.062 44.9714 236.036 45.1047 236.009C45.2514 235.969 45.4047 235.949 45.5647 235.949C45.8447 235.949 46.0514 236.009 46.1847 236.129C46.3314 236.236 46.4047 236.422 46.4047 236.689V241.129ZM57.4008 237.769V240.929H55.8008V237.889C55.8008 237.582 55.8541 237.342 55.9608 237.169C56.0808 236.982 56.2741 236.802 56.5408 236.629C56.8874 236.402 57.3608 236.209 57.9608 236.049C58.5608 235.876 59.2274 235.789 59.9608 235.789C61.0274 235.789 61.5608 236.056 61.5608 236.589C61.5608 236.722 61.5408 236.849 61.5008 236.969C61.4608 237.076 61.4074 237.169 61.3408 237.249C61.2074 237.222 61.0341 237.196 60.8208 237.169C60.6074 237.142 60.3941 237.129 60.1808 237.129C59.5674 237.129 59.0274 237.196 58.5608 237.329C58.0941 237.449 57.7074 237.596 57.4008 237.769ZM55.8008 240.009L57.4008 240.249V245.249C57.3341 245.276 57.2341 245.302 57.1008 245.329C56.9674 245.369 56.8208 245.389 56.6608 245.389C56.3808 245.389 56.1674 245.336 56.0208 245.229C55.8741 245.109 55.8008 244.922 55.8008 244.669V240.009ZM69.9575 242.829C69.9575 243.682 69.6442 244.349 69.0175 244.829C68.3908 245.309 67.4842 245.549 66.2975 245.549C65.2842 245.549 64.4575 245.396 63.8175 245.089C63.1775 244.769 62.8575 244.422 62.8575 244.049C62.8575 243.889 62.8975 243.736 62.9775 243.589C63.0708 243.429 63.2042 243.302 63.3775 243.209C63.7375 243.462 64.1575 243.696 64.6375 243.909C65.1175 244.122 65.6642 244.229 66.2775 244.229C67.6642 244.229 68.3575 243.762 68.3575 242.829C68.3575 242.442 68.2375 242.129 67.9975 241.889C67.7708 241.636 67.4308 241.456 66.9775 241.349L65.3175 240.909C64.5042 240.709 63.9108 240.402 63.5375 239.989C63.1642 239.562 62.9775 239.036 62.9775 238.409C62.9775 237.702 63.2642 237.089 63.8375 236.569C64.4108 236.049 65.2842 235.789 66.4575 235.789C67.0842 235.789 67.6308 235.856 68.0975 235.989C68.5642 236.109 68.9242 236.276 69.1775 236.489C69.4442 236.689 69.5775 236.909 69.5775 237.149C69.5775 237.322 69.5308 237.476 69.4375 237.609C69.3575 237.742 69.2442 237.842 69.0975 237.909C68.9375 237.802 68.7308 237.689 68.4775 237.569C68.2375 237.436 67.9508 237.329 67.6175 237.249C67.2842 237.156 66.9175 237.109 66.5175 237.109C65.9308 237.109 65.4575 237.222 65.0975 237.449C64.7375 237.676 64.5575 237.996 64.5575 238.409C64.5575 238.702 64.6575 238.962 64.8575 239.189C65.0708 239.402 65.4042 239.562 65.8575 239.669L67.2375 240.009C68.1442 240.222 68.8242 240.562 69.2775 241.029C69.7308 241.482 69.9575 242.082 69.9575 242.829ZM73.0605 241.689L72.9805 240.429L79.0205 239.609C78.9671 238.876 78.7138 238.276 78.2605 237.809C77.8071 237.329 77.1805 237.089 76.3805 237.089C75.5538 237.089 74.8671 237.389 74.3205 237.989C73.7871 238.576 73.5205 239.422 73.5205 240.529V240.969C73.6138 242.036 73.9605 242.849 74.5605 243.409C75.1738 243.956 76.0071 244.229 77.0605 244.229C77.6205 244.229 78.1271 244.136 78.5805 243.949C79.0338 243.762 79.3938 243.562 79.6605 243.349C79.8071 243.442 79.9205 243.556 80.0005 243.689C80.0938 243.809 80.1405 243.949 80.1405 244.109C80.1405 244.362 79.9938 244.602 79.7005 244.829C79.4205 245.042 79.0405 245.216 78.5605 245.349C78.0938 245.482 77.5671 245.549 76.9805 245.549C75.9538 245.549 75.0605 245.362 74.3005 244.989C73.5538 244.616 72.9738 244.062 72.5605 243.329C72.1605 242.582 71.9605 241.676 71.9605 240.609C71.9605 239.849 72.0671 239.176 72.2805 238.589C72.5071 237.989 72.8138 237.482 73.2005 237.069C73.6005 236.656 74.0738 236.342 74.6205 236.129C75.1671 235.902 75.7605 235.789 76.4005 235.789C77.2138 235.789 77.9271 235.962 78.5405 236.309C79.1671 236.656 79.6538 237.142 80.0005 237.769C80.3605 238.382 80.5405 239.089 80.5405 239.889C80.5405 240.182 80.4738 240.396 80.3405 240.529C80.2071 240.649 80.0205 240.722 79.7805 240.749L73.0605 241.689ZM88.5153 238.409C88.2753 239.249 88.0153 240.089 87.7353 240.929C87.4686 241.769 87.2086 242.556 86.9553 243.289C86.702 244.022 86.4686 244.656 86.2553 245.189C86.1486 245.256 86.0286 245.309 85.8953 245.349C85.762 245.389 85.582 245.409 85.3553 245.409C85.142 245.409 84.942 245.369 84.7553 245.289C84.582 245.222 84.462 245.109 84.3953 244.949C84.262 244.682 84.1086 244.296 83.9353 243.789C83.7753 243.282 83.602 242.702 83.4153 242.049C83.242 241.396 83.062 240.722 82.8753 240.029C82.6886 239.322 82.5153 238.642 82.3553 237.989C82.2086 237.336 82.082 236.756 81.9753 236.249C82.0686 236.156 82.182 236.069 82.3153 235.989C82.462 235.909 82.6353 235.869 82.8353 235.869C83.0886 235.869 83.2753 235.942 83.3953 236.089C83.5286 236.222 83.622 236.442 83.6753 236.749C83.7953 237.309 83.9286 237.942 84.0753 238.649C84.2353 239.356 84.3953 240.056 84.5553 240.749C84.7286 241.442 84.882 242.069 85.0153 242.629C85.162 243.176 85.2686 243.582 85.3353 243.849H85.4153C85.522 243.529 85.6886 243.009 85.9153 242.289C86.142 241.556 86.4086 240.722 86.7153 239.789C87.0353 238.856 87.3553 237.909 87.6753 236.949C87.782 236.882 87.9086 236.836 88.0553 236.809C88.202 236.769 88.362 236.749 88.5353 236.749C88.7753 236.749 88.9753 236.796 89.1353 236.889C89.2953 236.969 89.402 237.096 89.4553 237.269C89.7753 238.189 90.0753 239.096 90.3553 239.989C90.6353 240.869 90.882 241.656 91.0953 242.349C91.3086 243.029 91.462 243.536 91.5553 243.869H91.6553C91.962 242.682 92.2953 241.409 92.6553 240.049C93.0153 238.689 93.3086 237.356 93.5353 236.049C93.722 235.929 93.9486 235.869 94.2153 235.869C94.442 235.869 94.622 235.922 94.7553 236.029C94.8886 236.136 94.9553 236.302 94.9553 236.529C94.9553 236.676 94.9086 236.956 94.8153 237.369C94.7353 237.782 94.622 238.269 94.4753 238.829C94.3286 239.389 94.162 239.989 93.9753 240.629C93.802 241.256 93.622 241.869 93.4353 242.469C93.2486 243.056 93.0686 243.589 92.8953 244.069C92.7353 244.549 92.5953 244.922 92.4753 245.189C92.4086 245.242 92.2953 245.289 92.1353 245.329C91.9886 245.382 91.8153 245.409 91.6153 245.409C91.0686 245.409 90.7486 245.282 90.6553 245.029C90.4686 244.549 90.2553 243.956 90.0153 243.249C89.7753 242.529 89.5286 241.756 89.2753 240.929C89.022 240.089 88.7686 239.249 88.5153 238.409ZM105.65 240.669C105.65 241.656 105.464 242.516 105.09 243.249C104.717 243.982 104.19 244.549 103.51 244.949C102.83 245.349 102.03 245.549 101.11 245.549C100.19 245.549 99.3836 245.349 98.6903 244.949C98.0103 244.549 97.4836 243.982 97.1103 243.249C96.737 242.516 96.5503 241.656 96.5503 240.669C96.5503 239.669 96.737 238.809 97.1103 238.089C97.497 237.356 98.0303 236.789 98.7103 236.389C99.4036 235.989 100.204 235.789 101.11 235.789C102.017 235.789 102.81 235.989 103.49 236.389C104.17 236.789 104.697 237.356 105.07 238.089C105.457 238.809 105.65 239.669 105.65 240.669ZM101.11 237.109C100.217 237.109 99.5036 237.429 98.9703 238.069C98.4503 238.696 98.1903 239.562 98.1903 240.669C98.1903 241.789 98.4436 242.662 98.9503 243.289C99.4703 243.916 100.19 244.229 101.11 244.229C102.017 244.229 102.724 243.916 103.23 243.289C103.75 242.649 104.01 241.776 104.01 240.669C104.01 239.562 103.75 238.696 103.23 238.069C102.724 237.429 102.017 237.109 101.11 237.109ZM109.725 237.769V240.929H108.125V237.889C108.125 237.582 108.178 237.342 108.285 237.169C108.405 236.982 108.598 236.802 108.865 236.629C109.212 236.402 109.685 236.209 110.285 236.049C110.885 235.876 111.552 235.789 112.285 235.789C113.352 235.789 113.885 236.056 113.885 236.589C113.885 236.722 113.865 236.849 113.825 236.969C113.785 237.076 113.732 237.169 113.665 237.249C113.532 237.222 113.358 237.196 113.145 237.169C112.932 237.142 112.718 237.129 112.505 237.129C111.892 237.129 111.352 237.196 110.885 237.329C110.418 237.449 110.032 237.596 109.725 237.769ZM108.125 240.009L109.725 240.249V245.249C109.658 245.276 109.558 245.302 109.425 245.329C109.292 245.369 109.145 245.389 108.985 245.389C108.705 245.389 108.492 245.336 108.345 245.229C108.198 245.109 108.125 244.922 108.125 244.669V240.009ZM118.222 241.069L117.222 240.289L121.782 235.869C122.102 235.882 122.348 235.962 122.522 236.109C122.708 236.242 122.802 236.422 122.802 236.649C122.802 236.836 122.742 237.002 122.622 237.149C122.515 237.296 122.355 237.456 122.142 237.629L118.222 241.069ZM117.182 240.549L118.302 239.889L123.382 244.449C123.355 244.742 123.262 244.976 123.102 245.149C122.955 245.322 122.755 245.409 122.502 245.409C122.302 245.409 122.115 245.356 121.942 245.249C121.782 245.142 121.615 245.002 121.442 244.829L117.182 240.549ZM115.802 239.929L117.402 240.169V245.249C117.335 245.276 117.235 245.302 117.102 245.329C116.968 245.369 116.822 245.389 116.662 245.389C116.382 245.389 116.168 245.336 116.022 245.229C115.875 245.109 115.802 244.922 115.802 244.669V239.929ZM117.402 240.949L115.802 240.709V232.329C115.868 232.302 115.968 232.276 116.102 232.249C116.248 232.209 116.402 232.189 116.562 232.189C116.842 232.189 117.048 232.249 117.182 232.369C117.328 232.476 117.402 232.656 117.402 232.909V240.949Z" fill="#EDE4D0"/>
<path d="M47.2887 2.43647C57.7107 47.6045 -25.0722 60.6692 51.5128 115.322C128.098 169.974 72.3034 205.426 72.3034 205.426" stroke="#D7CDB7" stroke-width="5" stroke-linecap="round"/>
</svg>
