<svg width="146" height="275" viewBox="0 0 146 275" fill="none" xmlns="http://www.w3.org/2000/svg">
<path d="M101.814 261.872C96.6165 261.578 84.5369 262.532 82.6406 263.633C77.7062 265.352 73.0006 270.012 73 272.61C72.9998 273.34 73.3711 273.907 74.213 274.2C76.1092 274.861 78.2648 271.673 80.9551 270.237C97.0583 261.643 114.508 267.115 123.725 260.331C129.622 255.991 134.991 244.283 142.266 249.984C142.949 250.519 142.911 251.278 142.688 251.745C142.477 252.186 141.833 252.535 141.213 252.406C140.159 252.186 140.541 250.29 140.159 250.424C139.527 251.525 139.612 252.265 139.738 252.626C140.581 255.047 144.584 254.387 145.598 252.626C146.966 250.25 144.611 248.143 142.016 247.562C137.926 246.647 134.99 248.158 132.591 250.179C130.66 251.805 129.076 253.761 127.518 255.047C119.391 261.757 107.011 262.165 101.814 261.872Z" fill="#D7CDB7"/>
<path d="M63.3594 263.633C61.4631 262.532 49.3835 261.578 44.1865 261.872C38.9894 262.165 26.6086 261.757 18.4822 255.047C16.9235 253.761 15.3399 251.805 13.4091 250.179C11.0097 248.158 8.07409 246.647 3.98364 247.562C1.38899 248.143 -0.966038 250.25 0.402008 252.626C1.41621 254.387 5.41933 255.047 6.26209 252.626C6.38764 252.265 6.47278 251.525 5.84071 250.424C5.45851 250.29 5.84071 252.186 4.78725 252.406C4.16746 252.535 3.52311 252.186 3.31242 251.745C3.08858 251.278 3.05088 250.519 3.7338 249.984C11.0092 244.283 16.378 255.991 22.2746 260.331C31.4924 267.115 48.9417 261.643 65.0449 270.237C67.7352 271.673 69.8908 274.861 71.787 274.2C72.6289 273.907 73.0002 273.34 73 272.61C72.9994 270.012 68.2938 265.352 63.3594 263.633Z" fill="#D7CDB7"/>
<path d="M82.6406 214.945C84.5369 216.046 96.6165 217 101.814 216.706C107.011 216.413 119.391 216.821 127.518 223.531C128.766 224.561 130.031 226.021 131.477 227.397C134.079 229.873 137.271 232.077 142.016 231.016C144.611 230.435 146.966 228.328 145.598 225.952C144.584 224.191 140.581 223.531 139.738 225.952C139.612 226.313 139.527 227.053 140.159 228.154C140.541 228.288 140.159 226.393 141.213 226.172C141.833 226.043 142.477 226.393 142.688 226.833C142.911 227.301 142.949 228.059 142.266 228.594C134.991 234.295 129.622 222.587 123.725 218.247C114.508 211.463 97.0583 216.935 80.9551 208.341C78.2648 206.905 76.1092 203.718 74.213 204.378C73.3711 204.671 72.9998 205.238 73 205.968C73.0006 208.566 77.7062 213.226 82.6406 214.945Z" fill="#D7CDB7"/>
<path d="M44.1865 216.706C49.3835 217 61.4631 216.046 63.3594 214.945C68.2938 213.226 72.9994 208.566 73 205.968C73.0002 205.238 72.6289 204.671 71.787 204.378C69.8908 203.718 67.7352 206.905 65.0449 208.341C48.9417 216.935 31.4924 211.463 22.2746 218.247C16.378 222.587 11.0092 234.295 3.7338 228.594C3.05088 228.059 3.08858 227.301 3.31242 226.833C3.52311 226.393 4.16746 226.043 4.78725 226.172C5.84071 226.393 5.45851 228.288 5.84071 228.154C6.47278 227.053 6.38764 226.313 6.26209 225.952C5.41933 223.531 1.41621 224.191 0.402008 225.952C-0.966038 228.328 1.38899 230.435 3.98364 231.016C8.7293 232.077 11.9205 229.873 14.5234 227.397C15.9694 226.021 17.2338 224.561 18.4822 223.531C26.6086 216.821 38.9894 216.413 44.1865 216.706Z" fill="#D7CDB7"/>
<path d="M44.1865 261.872C49.3835 261.578 61.4631 262.532 63.3594 263.633C68.2938 265.352 72.9994 270.012 73 272.61C73.0006 270.012 77.7062 265.352 82.6406 263.633C84.5369 262.532 96.6165 261.578 101.814 261.872C107.011 262.165 119.391 261.757 127.518 255.047C129.076 253.761 130.66 251.805 132.591 250.179C133.019 249.465 135.331 245.33 135.331 239.289C135.331 233.183 132.025 228.184 131.477 227.397C130.031 226.021 128.766 224.561 127.518 223.531C119.391 216.821 107.011 216.413 101.814 216.706C96.6165 217 84.5369 216.046 82.6406 214.945C77.7062 213.226 73.0006 208.566 73 205.968C72.9994 208.566 68.2938 213.226 63.3594 214.945C61.4631 216.046 49.3835 217 44.1865 216.706C38.9894 216.413 26.6086 216.821 18.4822 223.531C17.2338 224.561 15.9694 226.021 14.5234 227.397C13.975 228.184 10.6692 233.183 10.6692 239.289C10.6693 245.33 12.9808 249.465 13.4091 250.179C15.3399 251.805 16.9235 253.761 18.4822 255.047C26.6086 261.757 38.9894 262.165 44.1865 261.872Z" fill="#5D4966"/>
<path d="M64.3 239.069C64.3 237.922 64.0733 237.002 63.62 236.309C63.18 235.602 62.5867 235.089 61.84 234.769C61.1067 234.436 60.2867 234.269 59.38 234.269C58.9667 234.269 58.6 234.282 58.28 234.309C57.96 234.336 57.6667 234.376 57.4 234.429V243.949C57.72 244.029 58.06 244.082 58.42 244.109C58.7933 244.136 59.1733 244.149 59.56 244.149C61.12 244.149 62.3 243.722 63.1 242.869C63.9 242.002 64.3 240.736 64.3 239.069ZM65.96 239.069C65.96 240.522 65.6933 241.729 65.16 242.689C64.64 243.636 63.9 244.342 62.94 244.809C61.9933 245.276 60.8733 245.509 59.58 245.509C59.1667 245.509 58.6867 245.489 58.14 245.449C57.6067 245.422 57.1 245.336 56.62 245.189C56.06 245.016 55.78 244.709 55.78 244.269V233.989C55.78 233.776 55.8333 233.616 55.94 233.509C56.06 233.389 56.2267 233.296 56.44 233.229C56.8533 233.096 57.32 233.009 57.84 232.969C58.36 232.929 58.88 232.909 59.4 232.909C60.7067 232.909 61.8467 233.142 62.82 233.609C63.8067 234.062 64.5733 234.742 65.12 235.649C65.68 236.556 65.96 237.696 65.96 239.069ZM77.1659 240.669C77.1659 241.656 76.9793 242.516 76.6059 243.249C76.2326 243.982 75.7059 244.549 75.0259 244.949C74.3459 245.349 73.5459 245.549 72.6259 245.549C71.7059 245.549 70.8993 245.349 70.2059 244.949C69.5259 244.549 68.9993 243.982 68.6259 243.249C68.2526 242.516 68.0659 241.656 68.0659 240.669C68.0659 239.669 68.2526 238.809 68.6259 238.089C69.0126 237.356 69.5459 236.789 70.2259 236.389C70.9193 235.989 71.7193 235.789 72.6259 235.789C73.5326 235.789 74.3259 235.989 75.0059 236.389C75.6859 236.789 76.2126 237.356 76.5859 238.089C76.9726 238.809 77.1659 239.669 77.1659 240.669ZM72.6259 237.109C71.7326 237.109 71.0193 237.429 70.4859 238.069C69.9659 238.696 69.7059 239.562 69.7059 240.669C69.7059 241.789 69.9593 242.662 70.4659 243.289C70.9859 243.916 71.7059 244.229 72.6259 244.229C73.5326 244.229 74.2393 243.916 74.7459 243.289C75.2659 242.649 75.5259 241.776 75.5259 240.669C75.5259 239.562 75.2659 238.696 74.7459 238.069C74.2393 237.429 73.5326 237.109 72.6259 237.109ZM79.8006 240.009L81.4006 240.249V245.249C81.334 245.276 81.234 245.302 81.1006 245.329C80.9673 245.369 80.8206 245.389 80.6606 245.389C80.3806 245.389 80.1673 245.336 80.0206 245.229C79.874 245.109 79.8006 244.922 79.8006 244.669V240.009ZM81.4006 241.009L79.8006 240.789V232.329C79.8673 232.302 79.9673 232.276 80.1006 232.249C80.2473 232.209 80.394 232.189 80.5406 232.189C80.834 232.189 81.0473 232.249 81.1806 232.369C81.3273 232.476 81.4006 232.656 81.4006 232.909V241.009ZM84.7811 240.009L86.3811 240.249V245.249C86.3144 245.276 86.2144 245.302 86.0811 245.329C85.9478 245.369 85.8011 245.389 85.6411 245.389C85.3611 245.389 85.1478 245.336 85.0011 245.229C84.8544 245.109 84.7811 244.922 84.7811 244.669V240.009ZM86.3811 241.009L84.7811 240.789V232.329C84.8478 232.302 84.9478 232.276 85.0811 232.249C85.2278 232.209 85.3744 232.189 85.5211 232.189C85.8144 232.189 86.0278 232.249 86.1611 232.369C86.3078 232.476 86.3811 232.656 86.3811 232.909V241.009ZM89.442 233.129C89.442 232.849 89.542 232.616 89.742 232.429C89.942 232.229 90.1887 232.129 90.482 232.129C90.7887 232.129 91.0354 232.229 91.222 232.429C91.4087 232.616 91.502 232.849 91.502 233.129C91.502 233.409 91.4087 233.649 91.222 233.849C91.0354 234.036 90.7887 234.129 90.482 234.129C90.1887 234.129 89.942 234.036 89.742 233.849C89.542 233.649 89.442 233.409 89.442 233.129ZM89.682 240.009H91.282V245.249C91.2154 245.276 91.1154 245.302 90.982 245.329C90.8487 245.369 90.702 245.389 90.542 245.389C90.262 245.389 90.0487 245.336 89.902 245.229C89.7554 245.109 89.682 244.922 89.682 244.669V240.009ZM91.282 240.789H89.682V236.089C89.7487 236.062 89.8487 236.036 89.982 236.009C90.1287 235.969 90.282 235.949 90.442 235.949C90.722 235.949 90.9287 236.009 91.062 236.129C91.2087 236.236 91.282 236.422 91.282 236.689V240.789Z" fill="#EDE4D0"/>
<path d="M96.8018 2.38032C97.1122 1.03495 98.4829 -0.0305314 99.8633 0.000483697C101.244 0.0314987 102.111 1.14726 101.801 2.49263L99.3012 2.43648L96.8018 2.38032ZM75.9812 203.317C77.0422 203.991 77.1435 205.482 76.2076 206.646C75.2716 207.811 73.6527 208.209 72.5917 207.534L74.2864 205.426L75.9812 203.317ZM99.3012 2.43648L101.801 2.49263C99.3832 12.9692 102.321 21.705 107.299 29.937C109.791 34.0569 112.753 37.9854 115.753 41.9242C118.733 45.8344 121.763 49.77 124.272 53.7934C129.283 61.8271 132.514 70.6594 129.015 81.267C125.544 91.7894 115.677 103.364 96.3363 117.166L95.077 115.322L93.8177 113.477C112.769 99.953 121.274 89.4001 124.146 80.6903C126.991 72.0657 124.537 64.5615 119.728 56.8514C117.328 53.003 114.414 49.2148 111.402 45.2618C108.412 41.3372 105.336 37.2627 102.729 32.9521C97.5101 24.3231 94.0081 14.4878 96.8018 2.38032L99.3012 2.43648ZM95.077 115.322L96.3363 117.166C77.4685 130.631 67.0339 142.715 61.7939 153.13C56.5798 163.493 56.3891 172.44 58.4493 179.83C60.5236 187.27 64.8913 193.152 68.8022 197.202C70.7499 199.219 72.564 200.761 73.8847 201.794C74.5445 202.31 75.0795 202.697 75.4444 202.953C75.6268 203.08 75.7666 203.175 75.858 203.236C75.9037 203.266 75.9372 203.288 75.958 203.302C75.9684 203.309 75.9756 203.313 75.9795 203.316C75.9814 203.317 75.9825 203.318 75.9828 203.318C75.983 203.318 75.9825 203.318 75.9826 203.318C75.982 203.317 75.9812 203.317 74.2864 205.426C72.5917 207.534 72.5905 207.534 72.589 207.533C72.5882 207.532 72.5865 207.531 72.585 207.53C72.5819 207.528 72.5779 207.526 72.5731 207.523C72.5636 207.516 72.5507 207.508 72.5346 207.498C72.5023 207.477 72.457 207.447 72.3995 207.409C72.2844 207.332 72.1202 207.221 71.9126 207.075C71.4976 206.785 70.9087 206.358 70.1925 205.798C68.7611 204.678 66.8146 203.023 64.7282 200.863C60.5709 196.557 55.7766 190.161 53.4753 181.907C51.1601 173.603 51.3805 163.439 57.2444 151.784C63.0826 140.181 74.393 127.339 93.8177 113.477L95.077 115.322Z" fill="#D7CDB7"/>
</svg>
