<svg width="146" height="274" viewBox="0 0 146 274" fill="none" xmlns="http://www.w3.org/2000/svg">
<path d="M101.814 260.653C96.6165 260.36 84.5369 261.314 82.6406 262.414C77.7062 264.133 73.0006 268.793 73 271.391C72.9998 272.121 73.3711 272.688 74.213 272.981C76.1092 273.642 78.2648 270.455 80.9551 269.019C97.0583 260.425 114.508 265.896 123.725 259.112C129.622 254.773 134.991 243.064 142.266 248.765C142.949 249.301 142.911 250.059 142.688 250.527C142.477 250.967 141.833 251.317 141.213 251.187C140.159 250.967 140.541 249.071 140.159 249.206C139.527 250.306 139.612 251.046 139.738 251.407C140.581 253.829 144.584 253.168 145.598 251.407C146.966 249.031 144.611 246.924 142.016 246.344C137.926 245.429 134.99 246.94 132.591 248.96C130.66 250.586 129.076 252.542 127.518 253.829C119.391 260.538 107.011 260.947 101.814 260.653Z" fill="white"/>
<path d="M63.3594 262.414C61.4631 261.314 49.3835 260.36 44.1865 260.653C38.9894 260.947 26.6086 260.538 18.4822 253.829C16.9235 252.542 15.3399 250.586 13.4091 248.96C11.0097 246.94 8.07409 245.429 3.98364 246.344C1.38899 246.924 -0.966038 249.031 0.402008 251.407C1.41621 253.168 5.41933 253.829 6.26209 251.407C6.38764 251.046 6.47278 250.306 5.84071 249.206C5.45851 249.071 5.84071 250.967 4.78725 251.187C4.16746 251.317 3.52311 250.967 3.31242 250.527C3.08858 250.059 3.05088 249.301 3.7338 248.765C11.0092 243.064 16.378 254.773 22.2746 259.112C31.4924 265.896 48.9418 260.425 65.0449 269.019C67.7352 270.455 69.8908 273.642 71.787 272.981C72.6289 272.688 73.0002 272.121 73 271.391C72.9994 268.793 68.2938 264.133 63.3594 262.414Z" fill="white"/>
<path d="M82.6406 213.726C84.5369 214.827 96.6165 215.781 101.814 215.487C107.011 215.194 119.391 215.603 127.518 222.312C128.766 223.343 130.031 224.803 131.477 226.178C134.079 228.655 137.271 230.859 142.016 229.797C144.611 229.216 146.966 227.109 145.598 224.734C144.584 222.972 140.581 222.312 139.738 224.733C139.612 225.094 139.527 225.834 140.159 226.935C140.541 227.069 140.159 225.174 141.213 224.954C141.833 224.824 142.477 225.174 142.688 225.614C142.911 226.082 142.949 226.84 142.266 227.375C134.991 233.077 129.622 221.368 123.725 217.028C114.508 210.244 97.0583 215.716 80.9551 207.122C78.2648 205.686 76.1092 202.499 74.213 203.159C73.3711 203.453 72.9998 204.02 73 204.749C73.0006 207.347 77.7062 212.008 82.6406 213.726Z" fill="white"/>
<path d="M44.1865 215.487C49.3835 215.781 61.4631 214.827 63.3594 213.726C68.2938 212.008 72.9994 207.347 73 204.749C73.0002 204.02 72.6289 203.453 71.787 203.159C69.8908 202.499 67.7352 205.686 65.0449 207.122C48.9418 215.716 31.4924 210.244 22.2746 217.028C16.378 221.368 11.0092 233.077 3.7338 227.375C3.05088 226.84 3.08858 226.082 3.31242 225.614C3.52311 225.174 4.16746 224.824 4.78725 224.954C5.84071 225.174 5.45851 227.069 5.84071 226.935C6.47278 225.834 6.38764 225.094 6.26209 224.733C5.41933 222.312 1.41621 222.972 0.402008 224.734C-0.966038 227.109 1.38899 229.216 3.98364 229.797C8.7293 230.859 11.9205 228.655 14.5234 226.178C15.9694 224.803 17.2338 223.343 18.4822 222.312C26.6086 215.603 38.9894 215.194 44.1865 215.487Z" fill="white"/>
<path d="M44.1865 260.653C49.3835 260.36 61.4631 261.314 63.3594 262.414C68.2938 264.133 72.9994 268.793 73 271.391C73.0006 268.793 77.7062 264.133 82.6406 262.414C84.5369 261.314 96.6165 260.36 101.814 260.653C107.011 260.947 119.391 260.538 127.518 253.829C129.076 252.542 130.66 250.586 132.591 248.96C133.019 248.246 135.331 244.111 135.331 238.07C135.331 231.965 132.025 226.966 131.477 226.178C130.031 224.803 128.766 223.343 127.518 222.312C119.391 215.603 107.011 215.194 101.814 215.487C96.6165 215.781 84.5369 214.827 82.6406 213.726C77.7062 212.008 73.0006 207.347 73 204.749C72.9994 207.347 68.2938 212.008 63.3594 213.726C61.4631 214.827 49.3835 215.781 44.1865 215.487C38.9894 215.194 26.6086 215.603 18.4822 222.312C17.2338 223.343 15.9694 224.803 14.5234 226.178C13.975 226.966 10.6692 231.965 10.6692 238.07C10.6693 244.111 12.9808 248.246 13.4091 248.96C15.3399 250.586 16.9235 252.542 18.4822 253.829C26.6086 260.538 38.9894 260.947 44.1865 260.653Z" fill="#8A8A8A"/>
<path d="M97.4928 0.699896C97.5444 0.510062 97.6663 0.329641 97.8372 0.198447C98.008 0.067236 98.2128 -0.00402227 98.4077 0.000361256C98.6026 0.00474479 98.7727 0.0844361 98.8815 0.221937C98.9904 0.359425 99.0284 0.543442 98.9924 0.733628C98.9924 0.733628 98.9924 0.733628 98.9924 0.733628C98.2281 4.7635 98.1895 8.66593 98.7964 12.3831C101.402 27.4478 112.945 37.7132 121.336 50.2196C127.801 59.1525 132.412 72.7759 124.75 85.4926C117.676 97.8236 106.269 106.746 94.9301 114.929C80.2524 125.416 66.1168 137.716 58.8527 153.153C51.3099 168.605 55.646 184.942 65.5684 195.672C68.0202 198.419 70.7439 200.959 73.7639 203.074C73.9139 203.173 74.0057 203.333 74.0178 203.519C74.03 203.706 73.9617 203.904 73.8277 204.071C73.6938 204.238 73.5049 204.359 73.3023 204.409C73.0998 204.459 72.9004 204.434 72.7468 204.339C72.7468 204.339 72.7468 204.339 72.7468 204.339C69.4922 202.21 66.6744 199.731 64.0595 196.98C53.5639 186.365 48.3556 169.167 56.1635 152.508C63.6581 135.962 78.2165 123.137 93.116 112.276C104.153 104.211 115.078 95.3208 121.277 84.2992C127.855 73.1661 124.046 61.6279 117.753 52.7456C109.694 40.6402 98.0421 29.5159 96.3529 13.0989C95.987 9.0699 96.3565 4.88387 97.4928 0.699896Z" fill="white"/>
</svg>
