<svg width="1543" height="487" viewBox="0 0 1543 487" fill="none" xmlns="http://www.w3.org/2000/svg">
<g filter="url(#filter0_d_158_67)">
<path d="M1218.62 111.2C1206.61 119.95 1214.94 132.03 1222.79 127.064L1227.35 125.183C1234.74 122.821 1235.66 145.956 1215.48 145.896C1195.29 145.836 1194.62 131.549 1196.55 120.613C1198.48 109.678 1208.36 89.0267 1239.67 92.5186C1265.55 95.4047 1279.05 119.31 1280.39 131.16C1281.73 143.009 1281.58 156.132 1264.86 173.345C1252.89 185.67 1211.12 197.906 1187.82 197.837C1164.51 197.768 1146.81 197.657 1125.1 189.934C1094.44 179.027 1046.89 145.07 1046.89 145.07C1046.89 145.07 990.804 106.161 963.019 85.3609C935.233 64.5606 896.697 45.9545 853.742 48.5192C819.858 50.5424 771.608 71.9396 771.608 71.9396C771.608 71.9396 816.422 53.8296 849.491 54.6335C862.842 54.9581 907.507 54.6335 947.521 83.0263C987.535 111.419 1074.06 183.885 1126.71 202.582C1165.15 216.23 1203.78 215.163 1235.34 206.218C1237.6 205.576 1239.83 204.895 1242.02 204.176C1251.12 201.18 1259.55 197.527 1267.11 193.398C1301.83 174.436 1306.8 117.836 1292.25 98.5684C1277.7 79.3007 1256.65 74.3771 1247.58 74.0731C1243.34 73.6006 1235.46 73.6543 1226.38 75.1942C1207.21 78.4455 1182.7 88.3227 1175.82 113.861C1172.94 124.568 1173.67 133.112 1177.34 140.882C1178.77 143.912 1180.65 146.824 1182.94 149.701C1191.09 159.955 1207.75 161.447 1212.72 161.518C1241.65 161.932 1263.4 139.558 1256.94 119.722C1253.73 109.85 1244.3 107.692 1239.74 107.183C1239.74 107.183 1228.22 104.199 1218.62 111.2Z" fill="#BEB397"/>
<path fill-rule="evenodd" clip-rule="evenodd" d="M771.608 47.7135V71.9396C787.409 60.7032 804.102 52.893 820.713 47.7135H771.608ZM934.44 47.6979C936.896 48.5775 939.152 49.4926 941.187 50.4272C956.708 57.5547 981.401 75.9737 1006.55 94.7296C1029.63 111.947 1053.09 129.449 1070.19 138.76C1105.91 158.215 1138.33 158.741 1158.84 151.905C1169.5 148.352 1176.92 141.29 1177.34 140.882C1173.67 133.112 1172.94 124.568 1175.82 113.861C1182.27 89.8949 1204.26 79.7211 1222.79 75.8722C1159.34 87.2827 1124.27 75.698 1074.77 47.6979H934.44Z" fill="#BEB397"/>
<path d="M1328.19 136.864C1320.99 133.227 1312.48 128.047 1306.14 120.979C1306.14 120.979 1289.44 156.895 1304.82 183.185C1311.02 193.794 1324.22 210.361 1351.35 217.722C1378.47 225.083 1387.07 225.083 1398.98 227.712C1410.89 230.341 1424.77 238.659 1431.47 246.76C1436.9 251.894 1443.37 261.728 1445.58 268.198C1446.37 270.525 1446.88 272.451 1447.15 273.637C1453.09 299.767 1438.5 319.471 1420.59 313.682C1411.68 310.801 1408.04 302.282 1406.73 298.166C1406.73 298.166 1403.81 279.435 1406.03 279.074C1408.24 278.714 1409.67 280.817 1416.84 288.178C1424.01 295.539 1438.51 294.398 1434.56 276.163C1430.61 257.929 1418.48 257.352 1409.67 259.12C1400.86 260.888 1385.42 269.855 1394.4 298.135C1401.83 321.509 1424.51 333.655 1434.73 334.836C1444.94 336.017 1455.87 336.025 1467.16 320.711C1482.62 299.738 1453.23 244.012 1453.23 244.012C1453.23 244.012 1406.5 157.71 1406.5 122.377C1404 123.746 1401.01 126.334 1400 127.323C1380.24 146.664 1358.79 145.847 1349.44 143.876C1344.91 143.371 1336.85 141.231 1328.19 136.864Z" fill="#BEB397"/>
<path d="M1406.03 279.074C1403.81 279.435 1406.73 298.166 1406.73 298.166C1408.04 302.282 1411.68 310.801 1420.59 313.682C1438.5 319.471 1453.09 299.767 1447.15 273.637C1446.88 272.451 1446.37 270.525 1445.58 268.198C1443.37 261.728 1436.9 251.894 1431.47 246.76C1423.36 239.105 1414.02 237.09 1402.3 240.742C1372.64 249.976 1374.22 292.037 1381.3 314.33C1382.48 317.088 1383.64 319.904 1384.77 322.779C1394.26 341.566 1414.19 357.436 1433.2 360.645C1455 364.325 1476.38 359.384 1486.97 339.087C1492.26 328.937 1494.91 307.61 1489.61 287.394C1479.78 249.867 1396.3 144.034 1417.5 112.483L1421.33 106.98C1419.07 109.896 1415.5 113.967 1415.5 113.967C1415.5 113.967 1407 122.103 1406.5 122.377C1406.5 157.71 1453.23 244.012 1453.23 244.012C1453.23 244.012 1482.62 299.738 1467.16 320.711C1455.87 336.025 1444.94 336.017 1434.73 334.836C1424.51 333.655 1401.83 321.509 1394.4 298.135C1385.42 269.855 1400.86 260.888 1409.67 259.12C1418.48 257.352 1430.61 257.929 1434.56 276.163C1438.51 294.398 1424.01 295.539 1416.84 288.178C1409.67 280.817 1408.24 278.714 1406.03 279.074Z" fill="#BEB397"/>
<path d="M1329.3 231.3C1343.58 247.931 1364.59 275.297 1381.3 314.33C1374.22 292.037 1372.64 249.976 1402.3 240.742C1414.02 237.09 1423.36 239.105 1431.47 246.76C1424.77 238.659 1410.89 230.341 1398.98 227.712C1387.07 225.083 1378.47 225.083 1351.35 217.722C1324.22 210.361 1311.02 193.794 1304.82 183.185C1289.44 156.895 1306.14 120.979 1306.14 120.979C1296.56 110.302 1293.21 103.636 1295.32 83.1624C1296.89 67.9654 1302.1 56.9158 1310.05 47.6979H1292.01H1279.04C1272.6 50.703 1266.07 53.7024 1259.39 56.3541C1248.81 60.5605 1241.9 62.489 1226.32 65.2926C1168.39 75.7103 1133.41 69.9867 1090.07 47.6979H1074.77C1124.27 75.698 1159.34 87.2827 1222.79 75.8722C1224 75.6196 1225.2 75.3943 1226.38 75.1942C1235.46 73.6543 1243.34 73.6006 1247.58 74.0731C1256.65 74.3771 1277.7 79.3007 1292.25 98.5684C1306.8 117.836 1301.83 174.436 1267.11 193.398C1259.55 197.527 1251.12 201.18 1242.02 204.176C1274.52 195.64 1308.36 206.918 1329.3 231.3Z" fill="#BEB397"/>
<path d="M1338.59 97.6463C1329.99 83.4451 1343.42 70.3057 1349.35 78.6339L1353.21 82.2013C1359.75 87.1119 1370.2 58.0469 1349.66 52.8814C1329.13 47.7158 1322.57 65.6383 1320.04 79.9921C1317.51 94.3459 1325.15 126.64 1358.4 130.348C1385.88 133.412 1403.33 103.066 1409.56 88.4033C1414.33 77.1599 1418.96 64.6348 1416.06 47.6979H1377.47C1388.46 61.5522 1390.68 81.4405 1381.04 96.804C1373.71 108.474 1363.24 108.759 1358.4 108.219C1358.4 108.219 1345.47 109.007 1338.59 97.6463Z" fill="#BEB397"/>
<path d="M1310.05 47.6979C1302.1 56.9158 1296.89 67.9654 1295.32 83.1624C1293.21 103.636 1296.56 110.302 1306.14 120.979C1310.74 126.102 1316.47 130.232 1322.02 133.503C1324.13 134.745 1326.21 135.863 1328.19 136.864C1336.85 141.231 1344.91 143.371 1349.44 143.876C1358.79 145.847 1380.24 146.664 1400 127.323C1401.01 126.334 1404 123.746 1406.5 122.377C1407 122.103 1415.5 113.967 1415.5 113.967C1415.5 113.967 1419.07 109.896 1421.33 106.98L1423 104.569C1435.21 85.0593 1439.8 65.7283 1437.69 47.6979H1416.06C1418.96 64.6348 1414.33 77.1599 1409.56 88.4033C1403.33 103.066 1385.88 133.412 1358.4 130.348C1325.15 126.64 1317.51 94.3459 1320.04 79.9921C1322.57 65.6383 1329.13 47.7158 1349.66 52.8814C1370.2 58.0469 1359.75 87.1119 1353.21 82.2013L1349.35 78.6339C1343.42 70.3057 1329.99 83.4451 1338.59 97.6463C1345.47 109.007 1358.4 108.219 1358.4 108.219C1363.24 108.759 1373.71 108.474 1381.04 96.804C1390.68 81.4405 1388.46 61.5522 1377.47 47.6979H1310.05Z" fill="#BEB397"/>
<path d="M1226.32 65.2926C1241.9 62.489 1248.81 60.5605 1259.39 56.3541C1266.07 53.7024 1272.6 50.703 1279.04 47.6979H1090.07C1133.41 69.9867 1168.39 75.7103 1226.32 65.2926Z" fill="#BEB397"/>
<path d="M1182.94 149.701C1180.65 146.824 1178.77 143.912 1177.34 140.882C1176.92 141.29 1169.5 148.352 1158.84 151.905C1138.33 158.741 1105.91 158.215 1070.19 138.76C1053.09 129.449 1029.63 111.947 1006.55 94.7296C981.401 75.9737 956.708 57.5547 941.187 50.4272C939.152 49.4926 936.896 48.5775 934.44 47.6979H916.002C925.572 50.1465 934.319 53.5131 941.849 57.788C959.91 68.0412 976.698 81.0788 998.081 96.6967C1026.04 117.119 1052.37 139.812 1079.47 152.956C1106.58 166.101 1141.64 166.627 1162.15 159.792C1173.13 156.132 1182.94 149.701 1182.94 149.701Z" fill="#BEB397"/>
<path d="M1222.79 127.064C1214.94 132.03 1206.61 119.95 1218.62 111.2C1228.22 104.199 1239.74 107.183 1239.74 107.183C1244.3 107.692 1253.73 109.85 1256.94 119.722C1263.4 139.558 1241.65 161.932 1212.72 161.518C1207.75 161.447 1191.09 159.955 1182.94 149.701C1182.94 149.701 1173.13 156.132 1162.15 159.792C1141.64 166.627 1106.58 166.101 1079.47 152.956C1052.37 139.812 1026.04 117.119 998.081 96.6967C976.698 81.0788 959.91 68.0412 941.849 57.788C934.319 53.5131 925.572 50.1465 916.002 47.6979L830.058 47.7135C808.922 52.3932 788.554 60.4464 771.608 71.9396C771.608 71.9396 819.858 50.5424 853.742 48.5192C896.697 45.9545 935.233 64.5606 963.019 85.3609C990.804 106.161 1046.89 145.07 1046.89 145.07C1046.89 145.07 1094.44 179.027 1125.1 189.934C1146.81 197.657 1164.51 197.768 1187.82 197.837C1211.12 197.906 1252.89 185.67 1264.86 173.345C1281.58 156.132 1281.73 143.009 1280.39 131.16C1279.05 119.31 1265.55 95.4047 1239.67 92.5186C1208.36 89.0267 1198.48 109.678 1196.55 120.613C1194.62 131.549 1195.29 145.836 1215.48 145.896C1235.66 145.956 1234.74 122.821 1227.35 125.183L1222.79 127.064Z" fill="#BEB397"/>
<path d="M771.608 71.9396C788.554 60.4464 808.922 52.3932 830.058 47.7135H820.713C804.102 52.893 787.409 60.7032 771.608 71.9396Z" fill="#BEB397"/>
<path d="M1254.1 288.086C1257.41 301.756 1247.49 306.488 1234.92 295.447C1224.86 286.613 1226.98 273.889 1226.98 273.889C1226.98 273.889 1228.36 258.617 1240.21 253.383C1264.02 242.867 1294.92 261.671 1298.43 292.292C1298.92 296.599 1299.31 309.373 1293.04 319.633C1293.04 319.633 1311.39 344.345 1316.95 354.335C1322.51 364.325 1394.4 465.803 1447.15 413.5C1409.67 437 1384.07 378.77 1373.84 344.871C1366 318.903 1358.46 302.987 1348.7 285.457C1331.72 254.934 1309.01 237.084 1298.43 231.3C1287.84 225.516 1275.93 217.584 1248.81 223.894C1221.68 230.203 1209.12 251.28 1209.12 279.147C1209.12 312.863 1234.92 319.633 1248.81 319.633C1262.7 319.633 1283.21 312.272 1278.58 292.292C1273.95 272.312 1250.79 274.415 1254.1 288.086Z" fill="#BEB397"/>
<path d="M1234.92 295.447C1247.49 306.488 1257.41 301.756 1254.1 288.086C1250.79 274.415 1273.95 272.312 1278.58 292.292C1283.21 312.272 1262.7 319.633 1248.81 319.633C1234.92 319.633 1209.12 312.863 1209.12 279.147C1209.12 251.28 1221.68 230.203 1248.81 223.894C1275.93 217.584 1287.84 225.516 1298.43 231.3C1309.01 237.084 1331.72 254.934 1348.7 285.457C1358.46 302.987 1366 318.903 1373.84 344.871C1384.07 378.77 1409.67 437 1447.15 413.5C1415.5 429 1399.55 360.256 1384.77 322.779C1383.38 320.015 1382.21 317.189 1381.3 314.33C1364.59 275.297 1343.58 247.931 1329.3 231.3C1308.36 206.918 1274.52 195.64 1242.02 204.176C1239.83 204.895 1237.6 205.576 1235.34 206.218C1226 209.49 1216.84 214.466 1208.23 221.31C1187.78 237.563 1183.76 262.146 1184.64 271.786C1184.64 285.982 1195.88 336.458 1244.18 340.139C1261.61 341.468 1273.9 337.305 1284.76 328.572C1285.8 327.737 1286.82 326.86 1287.84 325.943C1289.84 324.135 1291.49 322.11 1292.83 319.969C1292.9 319.858 1292.97 319.745 1293.04 319.633C1299.31 309.373 1298.92 296.599 1298.43 292.292C1294.92 261.671 1264.02 242.867 1240.21 253.383C1228.36 258.617 1226.98 273.889 1226.98 273.889C1226.98 273.889 1224.86 286.613 1234.92 295.447Z" fill="#BEB397"/>
<path d="M1287.84 325.943C1286.82 326.86 1285.8 327.737 1284.76 328.572C1303.06 354.335 1394.4 479 1447.15 413.5C1394.4 465.803 1322.51 364.325 1316.95 354.335C1311.39 344.345 1293.04 319.633 1293.04 319.633C1292.97 319.745 1292.9 319.858 1292.83 319.969C1291.49 322.11 1289.84 324.135 1287.84 325.943Z" fill="#BEB397"/>
<path d="M324.386 111.2C336.388 119.95 328.064 132.03 320.216 127.064L315.652 125.183C308.264 122.821 307.339 145.956 327.524 145.896C347.709 145.836 348.383 131.549 346.452 120.613C344.522 109.678 334.646 89.0267 303.333 92.5186C277.453 95.4047 263.949 119.31 262.612 131.16C261.275 143.009 261.425 156.132 278.144 173.345C290.115 185.67 331.884 197.906 355.186 197.837C378.488 197.768 396.192 197.657 417.903 189.934C448.563 179.027 496.115 145.07 496.115 145.07C496.115 145.07 552.198 106.161 579.983 85.3609C607.768 64.5606 646.304 45.9545 689.26 48.5192C723.143 50.5424 771.394 71.9396 771.394 71.9396C771.394 71.9396 726.58 53.8296 693.511 54.6335C680.16 54.9581 635.495 54.6335 595.481 83.0263C555.467 111.419 468.944 183.885 416.29 202.582C377.856 216.23 339.224 215.163 307.659 206.218C305.397 205.576 303.171 204.895 300.985 204.176C291.88 201.18 283.452 197.527 275.891 193.398C241.174 174.436 236.198 117.836 250.752 98.5684C265.306 79.3007 286.351 74.3771 295.426 74.0731C299.663 73.6006 307.542 73.6543 316.62 75.1942C335.789 78.4455 360.306 88.3227 367.18 113.861C370.062 124.568 369.331 133.112 365.659 140.882C364.228 143.912 362.349 146.824 360.063 149.701C351.915 159.955 335.248 161.447 330.282 161.518C301.357 161.932 279.6 139.558 286.057 119.722C289.27 109.85 298.705 107.692 303.262 107.183C303.262 107.183 314.785 104.199 324.386 111.2Z" fill="#BEB397"/>
<path fill-rule="evenodd" clip-rule="evenodd" d="M771.394 47.7135V71.9396C755.593 60.7032 738.9 52.893 722.289 47.7135H771.394ZM608.562 47.6979C606.105 48.5775 603.85 49.4926 601.815 50.4272C586.293 57.5547 561.6 75.9737 536.456 94.7296C513.374 111.947 489.91 129.449 472.812 138.76C437.088 158.215 404.672 158.741 384.164 151.905C373.504 148.352 366.082 141.29 365.659 140.882C369.331 133.112 370.062 124.568 367.18 113.861C360.73 89.8949 338.741 79.7211 320.216 75.8722C383.659 87.2827 418.732 75.698 468.229 47.6979H608.562Z" fill="#BEB397"/>
<path d="M214.808 136.864C222.016 133.227 230.52 128.047 236.861 120.979C236.861 120.979 253.56 156.895 238.183 183.185C231.977 193.794 218.777 210.361 191.653 217.722C164.53 225.083 155.93 225.083 144.022 227.712C132.114 230.341 118.23 238.659 111.527 246.76C106.103 251.894 99.6332 261.728 97.4236 268.198C96.629 270.525 96.118 272.451 95.8484 273.637C89.9126 299.767 104.503 319.471 122.412 313.682C131.325 310.801 134.961 302.282 136.269 298.166C136.269 298.166 139.192 279.435 136.976 279.074C134.76 278.714 133.332 280.817 126.16 288.178C118.988 295.539 104.488 294.398 108.438 276.163C112.388 257.929 124.519 257.352 133.332 259.12C142.145 260.888 157.583 269.855 148.601 298.135C141.177 321.509 118.488 333.655 108.276 334.836C98.0646 336.017 87.1277 336.025 75.8411 320.711C60.3833 299.738 89.7742 244.012 89.7742 244.012C89.7742 244.012 136.5 157.71 136.5 122.377C139 123.746 141.989 126.334 143 127.323C162.758 146.664 184.213 145.847 193.559 143.876C198.089 143.371 206.15 141.231 214.808 136.864Z" fill="#BEB397"/>
<path d="M136.976 279.074C139.192 279.435 136.269 298.166 136.269 298.166C134.961 302.282 131.325 310.801 122.412 313.682C104.503 319.471 89.9126 299.767 95.8484 273.637C96.118 272.451 96.629 270.525 97.4236 268.198C99.6332 261.728 106.103 251.894 111.527 246.76C119.644 239.105 128.979 237.09 140.706 240.742C170.361 249.976 168.785 292.037 161.704 314.33C160.524 317.088 159.364 319.904 158.23 322.779C148.741 341.566 128.812 357.436 109.804 360.645C87.9998 364.325 66.6189 359.384 56.0345 339.087C50.7411 328.937 48.0887 307.61 53.388 287.394C63.2253 249.867 146.703 144.034 125.5 112.483L121.675 106.98C123.931 109.896 127.5 113.967 127.5 113.967C127.5 113.967 136 122.103 136.5 122.377C136.5 157.71 89.7742 244.012 89.7742 244.012C89.7742 244.012 60.3833 299.738 75.8411 320.711C87.1277 336.025 98.0646 336.017 108.276 334.836C118.488 333.655 141.177 321.509 148.601 298.135C157.583 269.855 142.145 260.888 133.332 259.12C124.519 257.352 112.388 257.929 108.438 276.163C104.488 294.398 118.988 295.539 126.16 288.178C133.332 280.817 134.76 278.714 136.976 279.074Z" fill="#BEB397"/>
<path d="M213.705 231.3C199.423 247.931 178.415 275.297 161.704 314.33C168.785 292.037 170.361 249.976 140.706 240.742C128.979 237.09 119.644 239.105 111.527 246.76C118.23 238.659 132.114 230.341 144.022 227.712C155.93 225.083 164.53 225.083 191.653 217.722C218.777 210.361 231.977 193.794 238.183 183.185C253.56 156.895 236.861 120.979 236.861 120.979C246.44 110.302 249.788 103.636 247.68 83.1624C246.116 67.9654 240.899 56.9158 232.952 47.6979H250.996H263.961C270.402 50.703 276.935 53.7024 283.608 56.3541C294.193 60.5605 301.098 62.489 316.686 65.2926C374.608 75.7103 409.595 69.9867 452.935 47.6979H468.229C418.732 75.698 383.659 87.2827 320.216 75.8722C319.001 75.6196 317.8 75.3943 316.62 75.1942C307.542 73.6543 299.663 73.6006 295.426 74.0731C286.351 74.3771 265.306 79.3007 250.752 98.5684C236.198 117.836 241.174 174.436 275.891 193.398C283.452 197.527 291.88 201.18 300.985 204.176C268.486 195.64 234.644 206.918 213.705 231.3Z" fill="#BEB397"/>
<path d="M204.413 97.6463C213.009 83.4451 199.586 70.3057 193.654 78.6339L189.79 82.2013C183.255 87.1119 172.805 58.0469 193.338 52.8814C213.871 47.7158 220.428 65.6383 222.962 79.9921C225.496 94.3459 217.851 126.64 184.602 130.348C157.12 133.412 139.674 103.066 133.444 88.4033C128.668 77.1599 124.045 64.6348 126.944 47.6979H165.529C154.542 61.5522 152.326 81.4405 161.966 96.804C169.289 108.474 179.762 108.759 184.602 108.219C184.602 108.219 197.536 109.007 204.413 97.6463Z" fill="#BEB397"/>
<path d="M232.952 47.6979C240.899 56.9158 246.116 67.9654 247.68 83.1624C249.788 103.636 246.44 110.302 236.861 120.979C232.265 126.102 226.533 130.232 220.982 133.503C218.874 134.745 216.792 135.863 214.808 136.864C206.15 141.231 198.089 143.371 193.559 143.876C184.213 145.847 162.758 146.664 143 127.323C141.989 126.334 139 123.746 136.5 122.377C136 122.103 127.5 113.967 127.5 113.967C127.5 113.967 123.931 109.896 121.675 106.98L120 104.569C107.789 85.0593 103.197 65.7283 105.309 47.6979H126.944C124.045 64.6348 128.668 77.1599 133.444 88.4033C139.674 103.066 157.12 133.412 184.602 130.348C217.851 126.64 225.496 94.3459 222.962 79.9921C220.428 65.6383 213.871 47.7158 193.338 52.8814C172.805 58.0469 183.255 87.1119 189.79 82.2013L193.654 78.6339C199.586 70.3057 213.009 83.4451 204.413 97.6463C197.536 109.007 184.602 108.219 184.602 108.219C179.762 108.759 169.289 108.474 161.966 96.804C152.326 81.4405 154.542 61.5522 165.529 47.6979H232.952Z" fill="#BEB397"/>
<path d="M316.686 65.2926C301.098 62.489 294.193 60.5605 283.608 56.3541C276.935 53.7024 270.402 50.703 263.961 47.6979H452.935C409.595 69.9867 374.608 75.7103 316.686 65.2926Z" fill="#BEB397"/>
<path d="M360.063 149.701C362.349 146.824 364.228 143.912 365.659 140.882C366.082 141.29 373.504 148.352 384.164 151.905C404.672 158.741 437.088 158.215 472.812 138.76C489.91 129.449 513.374 111.947 536.456 94.7296C561.6 75.9737 586.293 57.5547 601.815 50.4272C603.85 49.4926 606.105 48.5775 608.562 47.6979H627C617.43 50.1465 608.683 53.5131 601.153 57.788C583.092 68.0412 566.304 81.0788 544.921 96.6967C516.961 117.119 490.628 139.812 463.527 152.956C436.426 166.101 401.364 166.627 380.856 159.792C369.876 156.132 360.063 149.701 360.063 149.701Z" fill="#BEB397"/>
<path d="M320.216 127.064C328.064 132.03 336.388 119.95 324.386 111.2C314.785 104.199 303.262 107.183 303.262 107.183C298.705 107.692 289.27 109.85 286.057 119.722C279.6 139.558 301.357 161.932 330.282 161.518C335.248 161.447 351.915 159.955 360.063 149.701C360.063 149.701 369.876 156.132 380.856 159.792C401.364 166.627 436.426 166.101 463.527 152.956C490.628 139.812 516.961 117.119 544.921 96.6967C566.304 81.0788 583.092 68.0412 601.153 57.788C608.683 53.5131 617.43 50.1465 627 47.6979L712.944 47.7135C734.08 52.3932 754.448 60.4464 771.394 71.9396C771.394 71.9396 723.143 50.5424 689.26 48.5192C646.304 45.9545 607.768 64.5606 579.983 85.3609C552.198 106.161 496.115 145.07 496.115 145.07C496.115 145.07 448.563 179.027 417.903 189.934C396.192 197.657 378.488 197.768 355.186 197.837C331.884 197.906 290.115 185.67 278.144 173.345C261.425 156.132 261.275 143.009 262.612 131.16C263.949 119.31 277.453 95.4047 303.333 92.5186C334.646 89.0267 344.522 109.678 346.452 120.613C348.383 131.549 347.709 145.836 327.524 145.896C307.339 145.956 308.264 122.821 315.652 125.183L320.216 127.064Z" fill="#BEB397"/>
<path d="M771.394 71.9396C754.448 60.4464 734.08 52.3932 712.944 47.7135H722.289C738.9 52.893 755.593 60.7032 771.394 71.9396Z" fill="#BEB397"/>
<path d="M288.9 288.086C285.592 301.756 295.516 306.488 308.085 295.447C318.141 286.613 316.024 273.889 316.024 273.889C316.024 273.889 314.645 258.617 302.793 253.383C278.977 242.867 248.079 261.671 244.576 292.292C244.084 296.599 243.688 309.373 249.961 319.633C249.961 319.633 231.611 344.345 226.053 354.335C220.496 364.325 148.601 465.803 95.8484 413.5C133.332 437 158.929 378.77 169.16 344.871C176.997 318.903 184.543 302.987 194.299 285.457C211.285 254.934 233.992 237.084 244.576 231.3C255.161 225.516 267.069 217.584 294.193 223.894C321.317 230.203 333.886 251.28 333.886 279.147C333.886 312.863 308.085 319.633 294.193 319.633C280.3 319.633 259.792 312.272 264.423 292.292C269.054 272.312 292.208 274.415 288.9 288.086Z" fill="#BEB397"/>
<path d="M308.085 295.447C295.516 306.488 285.592 301.756 288.9 288.086C292.208 274.415 269.054 272.312 264.423 292.292C259.792 312.272 280.3 319.633 294.193 319.633C308.085 319.633 333.886 312.863 333.886 279.147C333.886 251.28 321.317 230.203 294.193 223.894C267.069 217.584 255.161 225.516 244.576 231.3C233.992 237.084 211.285 254.934 194.299 285.457C184.543 302.987 176.997 318.903 169.16 344.871C158.929 378.77 133.332 437 95.8484 413.5C127.5 429 143.448 360.256 158.23 322.779C159.626 320.015 160.796 317.189 161.704 314.33C178.415 275.297 199.423 247.931 213.705 231.3C234.644 206.918 268.486 195.64 300.985 204.176C303.171 204.895 305.397 205.576 307.659 206.218C317.006 209.49 326.159 214.466 334.769 221.31C355.219 237.563 359.245 262.146 358.363 271.786C358.363 285.982 347.117 336.458 298.824 340.139C281.393 341.468 269.106 337.305 258.241 328.572C257.203 327.737 256.177 326.86 255.161 325.943C253.16 324.135 251.516 322.11 250.169 319.969C250.099 319.858 250.029 319.745 249.961 319.633C243.688 309.373 244.084 296.599 244.576 292.292C248.079 261.671 278.977 242.867 302.793 253.383C314.645 258.617 316.024 273.889 316.024 273.889C316.024 273.889 318.141 286.613 308.085 295.447Z" fill="#BEB397"/>
<path d="M255.161 325.943C256.177 326.86 257.203 327.737 258.241 328.572C239.946 354.335 148.601 479 95.8484 413.5C148.601 465.803 220.496 364.325 226.053 354.335C231.611 344.345 249.961 319.633 249.961 319.633C250.029 319.745 250.099 319.858 250.169 319.969C251.516 322.11 253.16 324.135 255.161 325.943Z" fill="#BEB397"/>
<path d="M1447.15 413.5C1409.67 437 1384.07 378.77 1373.84 344.871C1366 318.903 1358.46 302.987 1348.7 285.457C1331.72 254.934 1309.01 237.084 1298.43 231.3C1287.84 225.516 1275.93 217.584 1248.81 223.894C1221.68 230.203 1209.12 251.28 1209.12 279.147C1209.12 312.863 1234.92 319.633 1248.81 319.633C1262.7 319.633 1283.21 312.272 1278.58 292.292C1273.95 272.312 1250.79 274.415 1254.1 288.086C1257.41 301.756 1247.49 306.488 1234.92 295.447C1224.86 286.613 1226.98 273.889 1226.98 273.889C1226.98 273.889 1228.36 258.617 1240.21 253.383C1264.02 242.867 1294.92 261.671 1298.43 292.292M1447.15 413.5C1415.5 429 1399.55 360.256 1384.77 322.779M1447.15 413.5C1394.4 465.803 1322.51 364.325 1316.95 354.335C1311.39 344.345 1293.04 319.633 1293.04 319.633M1447.15 413.5C1394.4 479 1303.06 354.335 1284.76 328.572M1384.77 322.779C1367.59 279.218 1344.59 249.106 1329.3 231.3M1384.77 322.779C1383.64 319.904 1382.48 317.088 1381.3 314.33M1384.77 322.779C1394.26 341.566 1414.19 357.436 1433.2 360.645C1455 364.325 1476.38 359.384 1486.97 339.087C1492.26 328.937 1494.91 307.61 1489.61 287.394C1479.78 249.867 1396.3 144.034 1417.5 112.483L1421.33 106.98M1384.77 322.779C1383.38 320.015 1382.21 317.189 1381.3 314.33M1329.3 231.3C1308.36 206.918 1274.52 195.64 1242.02 204.176M1329.3 231.3C1343.58 247.931 1364.59 275.297 1381.3 314.33M1242.02 204.176C1251.12 201.18 1259.55 197.527 1267.11 193.398C1301.83 174.436 1306.8 117.836 1292.25 98.5684C1277.7 79.3007 1256.65 74.3771 1247.58 74.0731C1243.34 73.6006 1235.46 73.6543 1226.38 75.1942M1242.02 204.176C1239.83 204.895 1237.6 205.576 1235.34 206.218M1242.02 204.176C1239.78 204.762 1237.56 205.442 1235.34 206.218M1284.76 328.572C1273.9 337.305 1261.61 341.468 1244.18 340.139C1195.88 336.458 1184.64 285.982 1184.64 271.786C1183.76 262.146 1187.78 237.563 1208.23 221.31C1216.84 214.466 1226 209.49 1235.34 206.218M1284.76 328.572C1285.8 327.737 1286.82 326.86 1287.84 325.943C1289.84 324.135 1291.49 322.11 1292.83 319.969M1298.43 292.292C1298.92 296.599 1299.31 309.373 1293.04 319.633M1298.43 292.292C1298.92 296.646 1299.32 309.654 1292.83 319.969M771.608 71.9396C771.608 71.9396 819.858 50.5424 853.742 48.5192C896.697 45.9545 935.233 64.5606 963.019 85.3609C990.804 106.161 1046.89 145.07 1046.89 145.07C1046.89 145.07 1094.44 179.027 1125.1 189.934C1146.81 197.657 1164.51 197.768 1187.82 197.837C1211.12 197.906 1252.89 185.67 1264.86 173.345C1281.58 156.132 1281.73 143.009 1280.39 131.16C1279.05 119.31 1265.55 95.4047 1239.67 92.5186C1208.36 89.0267 1198.48 109.678 1196.55 120.613C1194.62 131.549 1195.29 145.836 1215.48 145.896C1235.66 145.956 1234.74 122.821 1227.35 125.183L1222.79 127.064C1214.94 132.03 1206.61 119.95 1218.62 111.2C1228.22 104.199 1239.74 107.183 1239.74 107.183C1244.3 107.692 1253.73 109.85 1256.94 119.722C1263.4 139.558 1241.65 161.932 1212.72 161.518C1207.75 161.447 1191.09 159.955 1182.94 149.701M771.608 71.9396C771.608 71.9396 816.422 53.8296 849.491 54.6335C862.842 54.9581 907.507 54.6335 947.521 83.0263C987.535 111.419 1074.06 183.885 1126.71 202.582C1165.15 216.23 1203.78 215.163 1235.34 206.218M771.608 71.9396V47.7135H820.713M771.608 71.9396C787.409 60.7032 804.102 52.893 820.713 47.7135M771.608 71.9396C788.554 60.4464 808.922 52.3932 830.058 47.7135M1226.38 75.1942C1207.21 78.4455 1182.7 88.3227 1175.82 113.861M1226.38 75.1942C1225.2 75.3943 1224 75.6196 1222.79 75.8722M1226.38 75.1942C1225.24 75.4198 1224.05 75.6455 1222.79 75.8722M1226.38 75.1942C1238.09 72.8771 1243.86 70.564 1252.04 67.2901M1226.38 75.1942C1238.1 72.875 1243.87 70.5599 1252.06 67.2813M1175.82 113.861C1172.94 124.568 1173.67 133.112 1177.34 140.882M1175.82 113.861C1182.27 89.8949 1204.26 79.7211 1222.79 75.8722M1177.34 140.882C1178.77 143.912 1180.65 146.824 1182.94 149.701M1177.34 140.882C1176.92 141.29 1169.5 148.352 1158.84 151.905C1138.33 158.741 1105.91 158.215 1070.19 138.76M1177.34 140.882C1177.35 140.87 1177.36 140.864 1177.36 140.864M1182.94 149.701C1182.94 149.701 1173.13 156.132 1162.15 159.792C1141.64 166.627 1106.58 166.101 1079.47 152.956C1052.37 139.812 1026.04 117.119 998.081 96.6967C976.698 81.0788 959.91 68.0412 941.849 57.788C934.319 53.5131 925.572 50.1465 916.002 47.6979M1293.04 319.633C1292.97 319.745 1292.9 319.858 1292.83 319.969M820.713 47.7135H830.058M934.44 47.6979C936.896 48.5775 939.152 49.4926 941.187 50.4272M934.44 47.6979H1074.77M934.44 47.6979H916.002M934.44 47.6979H1416.06M941.187 50.4272C956.708 57.5547 981.401 75.9737 1006.55 94.7296C1029.63 111.947 1053.09 129.449 1070.19 138.76M941.187 50.4272C970.957 64.0978 1034.47 119.306 1070.19 138.76M1222.79 75.8722C1159.34 87.2827 1124.27 75.698 1074.77 47.6979M1074.77 47.6979H1090.07M1074.77 47.6979H1416.06M1328.19 136.864C1320.99 133.227 1312.48 128.047 1306.14 120.979M1328.19 136.864C1336.85 141.231 1344.91 143.371 1349.44 143.876C1358.79 145.847 1380.24 146.664 1400 127.323C1401.01 126.334 1404 123.746 1406.5 122.377M1328.19 136.864C1326.21 135.863 1324.13 134.745 1322.02 133.503M1306.14 120.979C1306.14 120.979 1289.44 156.895 1304.82 183.185C1311.02 193.794 1324.22 210.361 1351.35 217.722C1378.47 225.083 1387.07 225.083 1398.98 227.712C1410.89 230.341 1424.77 238.659 1431.47 246.76M1306.14 120.979C1296.56 110.302 1293.21 103.636 1295.32 83.1624C1296.89 67.9654 1302.1 56.9158 1310.05 47.6979M1306.14 120.979C1310.74 126.102 1316.47 130.232 1322.02 133.503M1431.47 246.76C1436.9 251.894 1443.37 261.728 1445.58 268.198M1431.47 246.76C1423.36 239.105 1414.02 237.09 1402.3 240.742C1372.64 249.976 1374.22 292.037 1381.3 314.33M1445.58 268.198C1446.37 270.525 1446.88 272.451 1447.15 273.637C1453.09 299.767 1438.5 319.471 1420.59 313.682C1411.68 310.801 1408.04 302.282 1406.73 298.166C1406.73 298.166 1403.81 279.435 1406.03 279.074C1408.24 278.714 1409.67 280.817 1416.84 288.178C1424.01 295.539 1438.51 294.398 1434.56 276.163C1430.61 257.929 1418.48 257.352 1409.67 259.12C1400.86 260.888 1385.42 269.855 1394.4 298.135C1401.83 321.509 1424.51 333.655 1434.73 334.836C1444.94 336.017 1455.87 336.025 1467.16 320.711C1482.62 299.738 1453.23 244.012 1453.23 244.012C1453.23 244.012 1406.5 157.71 1406.5 122.377M1445.58 268.198C1445.58 268.198 1444.63 248.729 1416.84 233.403C1389.06 218.077 1342.91 219.207 1327.53 192.917C1320.49 182.051 1307.77 147.804 1322.02 133.503M1406.5 122.377C1407 122.103 1415.5 113.967 1415.5 113.967C1415.5 113.967 1419.07 109.896 1421.33 106.98M1421.33 106.98L1423 104.569M1421.33 106.98C1422.11 105.961 1422.74 105.083 1423 104.569M1310.05 47.6979H1292.01M1310.05 47.6979H1377.47M1292.01 47.6979H1279.04M1292.01 47.6979C1289.21 49.1537 1286.42 50.6371 1283.64 52.1169M1279.04 47.6979C1272.6 50.703 1266.07 53.7024 1259.39 56.3541C1248.81 60.5605 1241.9 62.489 1226.32 65.2926C1168.39 75.7103 1133.41 69.9867 1090.07 47.6979M1279.04 47.6979H1090.07M1416.06 47.6979C1418.96 64.6348 1414.33 77.1599 1409.56 88.4033C1403.33 103.066 1385.88 133.412 1358.4 130.348C1325.15 126.64 1317.51 94.3459 1320.04 79.9921C1322.57 65.6383 1329.13 47.7158 1349.66 52.8814C1370.2 58.0469 1359.75 87.1119 1353.21 82.2013L1349.35 78.6339C1343.42 70.3057 1329.99 83.4451 1338.59 97.6463C1345.47 109.007 1358.4 108.219 1358.4 108.219C1363.24 108.759 1373.71 108.474 1381.04 96.804C1390.68 81.4405 1388.46 61.5522 1377.47 47.6979M1416.06 47.6979H1377.47M1416.06 47.6979H1437.69C1439.8 65.7283 1435.21 85.0593 1423 104.569M1377.47 47.6979C1377.15 47.2933 1376.82 46.894 1376.49 46.5M916.002 47.6979L830.058 47.7135M1252.04 67.2901L1252.06 67.2813M1252.04 67.2901C1252.04 67.2871 1252.05 67.2842 1252.06 67.2813M1283.64 52.1169L1283.64 52.1192L1283.63 52.1199M1283.64 52.1169C1283.64 52.1178 1283.64 52.1189 1283.63 52.1199M1283.63 52.1199C1273.89 57.3024 1264.22 62.4411 1254.76 66.201C1253.85 66.5623 1252.98 66.9123 1252.13 67.2519C1252.11 67.2613 1252.08 67.2706 1252.06 67.2798L1252.06 67.2813M771.394 71.9396V47.7135H722.289M771.394 71.9396C771.394 71.9396 723.143 50.5424 689.26 48.5192C646.304 45.9545 607.768 64.5606 579.983 85.3609C552.198 106.161 496.115 145.07 496.115 145.07C496.115 145.07 448.563 179.027 417.903 189.934C396.192 197.657 378.488 197.768 355.186 197.837C331.884 197.906 290.115 185.67 278.144 173.345C261.425 156.132 261.275 143.009 262.612 131.16C263.949 119.31 277.453 95.4047 303.333 92.5186C334.646 89.0267 344.522 109.678 346.452 120.613C348.383 131.549 347.709 145.836 327.524 145.896C307.339 145.956 308.264 122.821 315.652 125.183L320.216 127.064C328.064 132.03 336.388 119.95 324.386 111.2C314.785 104.199 303.262 107.183 303.262 107.183C298.705 107.692 289.27 109.85 286.057 119.722C279.6 139.558 301.357 161.932 330.282 161.518C335.248 161.447 351.915 159.955 360.063 149.701M771.394 71.9396C771.394 71.9396 726.58 53.8296 693.511 54.6335C680.16 54.9581 635.495 54.6335 595.481 83.0263C555.467 111.419 468.944 183.885 416.29 202.582C377.856 216.23 339.224 215.163 307.659 206.218M771.394 71.9396C755.593 60.7032 738.9 52.893 722.289 47.7135M771.394 71.9396C754.448 60.4464 734.08 52.3932 712.944 47.7135M95.8484 413.5C133.332 437 158.929 378.77 169.16 344.871C176.997 318.903 184.543 302.987 194.299 285.457C211.285 254.934 233.992 237.084 244.576 231.3C255.161 225.516 267.069 217.584 294.193 223.894C321.317 230.203 333.886 251.28 333.886 279.147C333.886 312.863 308.085 319.633 294.193 319.633C280.3 319.633 259.792 312.272 264.423 292.292C269.054 272.312 292.208 274.415 288.9 288.086C285.592 301.756 295.516 306.488 308.085 295.447C318.141 286.613 316.024 273.889 316.024 273.889C316.024 273.889 314.645 258.617 302.793 253.383C278.977 242.867 248.079 261.671 244.576 292.292M95.8484 413.5C127.5 429 143.448 360.256 158.23 322.779M95.8484 413.5C148.601 465.803 220.496 364.325 226.053 354.335C231.611 344.345 249.961 319.633 249.961 319.633M95.8484 413.5C148.601 479 239.946 354.335 258.241 328.572M158.23 322.779C175.413 279.218 198.414 249.106 213.705 231.3M158.23 322.779C159.364 319.904 160.524 317.088 161.704 314.33M158.23 322.779C148.741 341.566 128.812 357.436 109.804 360.645C87.9998 364.325 66.6189 359.384 56.0345 339.087C50.7411 328.937 48.0887 307.61 53.388 287.394C63.2253 249.867 146.703 144.034 125.5 112.483L121.675 106.98M158.23 322.779C159.626 320.015 160.796 317.189 161.704 314.33M213.705 231.3C234.644 206.918 268.486 195.64 300.985 204.176M213.705 231.3C199.423 247.931 178.415 275.297 161.704 314.33M300.985 204.176C291.88 201.18 283.452 197.527 275.891 193.398C241.174 174.436 236.198 117.836 250.752 98.5684C265.306 79.3007 286.351 74.3771 295.426 74.0731C299.663 73.6006 307.542 73.6543 316.62 75.1942M300.985 204.176C303.171 204.895 305.397 205.576 307.659 206.218M300.985 204.176C303.217 204.762 305.444 205.442 307.659 206.218M258.241 328.572C269.106 337.305 281.393 341.468 298.824 340.139C347.117 336.458 358.363 285.982 358.363 271.786C359.245 262.146 355.219 237.563 334.769 221.31C326.159 214.466 317.006 209.49 307.659 206.218M258.241 328.572C257.203 327.737 256.177 326.86 255.161 325.943C253.16 324.135 251.516 322.11 250.169 319.969M244.576 292.292C244.084 296.599 243.688 309.373 249.961 319.633M244.576 292.292C244.078 296.646 243.679 309.654 250.169 319.969M316.62 75.1942C335.789 78.4455 360.306 88.3227 367.18 113.861M316.62 75.1942C317.8 75.3943 319.001 75.6196 320.216 75.8722M316.62 75.1942C317.76 75.4198 318.956 75.6455 320.216 75.8722M316.62 75.1942C304.916 72.8771 299.14 70.564 290.966 67.2901M316.62 75.1942C304.905 72.875 299.13 70.5599 290.944 67.2813M367.18 113.861C370.062 124.568 369.331 133.112 365.659 140.882M367.18 113.861C360.73 89.8949 338.741 79.7211 320.216 75.8722M365.659 140.882C364.228 143.912 362.349 146.824 360.063 149.701M365.659 140.882C366.082 141.29 373.504 148.352 384.164 151.905C404.672 158.741 437.088 158.215 472.812 138.76M365.659 140.882C365.647 140.87 365.641 140.864 365.641 140.864M360.063 149.701C360.063 149.701 369.876 156.132 380.856 159.792C401.364 166.627 436.426 166.101 463.527 152.956C490.628 139.812 516.961 117.119 544.921 96.6967C566.304 81.0788 583.092 68.0412 601.153 57.788C608.683 53.5131 617.43 50.1465 627 47.6979M249.961 319.633C250.029 319.745 250.099 319.858 250.169 319.969M722.289 47.7135H712.944M608.562 47.6979C606.105 48.5775 603.85 49.4926 601.815 50.4272M608.562 47.6979H468.229M608.562 47.6979H627M608.562 47.6979H126.944M601.815 50.4272C586.293 57.5547 561.6 75.9737 536.456 94.7296C513.374 111.947 489.91 129.449 472.812 138.76M601.815 50.4272C572.045 64.0978 508.536 119.306 472.812 138.76M320.216 75.8722C383.659 87.2827 418.732 75.698 468.229 47.6979M468.229 47.6979H452.935M468.229 47.6979H126.944M214.808 136.864C222.016 133.227 230.52 128.047 236.861 120.979M214.808 136.864C206.15 141.231 198.089 143.371 193.559 143.876C184.213 145.847 162.758 146.664 143 127.323C141.989 126.334 139 123.746 136.5 122.377M214.808 136.864C216.792 135.863 218.874 134.745 220.982 133.503M236.861 120.979C236.861 120.979 253.56 156.895 238.183 183.185C231.977 193.794 218.777 210.361 191.653 217.722C164.53 225.083 155.93 225.083 144.022 227.712C132.114 230.341 118.23 238.659 111.527 246.76M236.861 120.979C246.44 110.302 249.788 103.636 247.68 83.1624C246.116 67.9654 240.899 56.9158 232.952 47.6979M236.861 120.979C232.265 126.102 226.533 130.232 220.982 133.503M111.527 246.76C106.103 251.894 99.6332 261.728 97.4236 268.198M111.527 246.76C119.644 239.105 128.979 237.09 140.706 240.742C170.361 249.976 168.785 292.037 161.704 314.33M97.4236 268.198C96.629 270.525 96.118 272.451 95.8484 273.637C89.9126 299.767 104.503 319.471 122.412 313.682C131.325 310.801 134.961 302.282 136.269 298.166C136.269 298.166 139.192 279.435 136.976 279.074C134.76 278.714 133.332 280.817 126.16 288.178C118.988 295.539 104.488 294.398 108.438 276.163C112.388 257.929 124.519 257.352 133.332 259.12C142.145 260.888 157.583 269.855 148.601 298.135C141.177 321.509 118.488 333.655 108.276 334.836C98.0646 336.017 87.1277 336.025 75.8411 320.711C60.3833 299.738 89.7742 244.012 89.7742 244.012C89.7742 244.012 136.5 157.71 136.5 122.377M97.4236 268.198C97.4236 268.198 98.3736 248.729 126.159 233.403C153.944 218.077 200.091 219.207 215.468 192.917C222.509 182.051 235.234 147.804 220.982 133.503M136.5 122.377C136 122.103 127.5 113.967 127.5 113.967C127.5 113.967 123.931 109.896 121.675 106.98M121.675 106.98L120 104.569M121.675 106.98C120.887 105.961 120.26 105.083 120 104.569M232.952 47.6979H250.996M232.952 47.6979H165.529M250.996 47.6979H263.961M250.996 47.6979C253.79 49.1537 256.579 50.6371 259.362 52.1169M263.961 47.6979C270.402 50.703 276.935 53.7024 283.608 56.3541C294.193 60.5605 301.098 62.489 316.686 65.2926C374.608 75.7103 409.595 69.9867 452.935 47.6979M263.961 47.6979H452.935M126.944 47.6979C124.045 64.6348 128.668 77.1599 133.444 88.4033C139.674 103.066 157.12 133.412 184.602 130.348C217.851 126.64 225.496 94.3459 222.962 79.9921C220.428 65.6383 213.871 47.7158 193.338 52.8814C172.805 58.0469 183.255 87.1119 189.79 82.2013L193.654 78.6339C199.586 70.3057 213.009 83.4451 204.413 97.6463C197.536 109.007 184.602 108.219 184.602 108.219C179.762 108.759 169.289 108.474 161.966 96.804C152.326 81.4405 154.542 61.5522 165.529 47.6979M126.944 47.6979H165.529M126.944 47.6979H105.309C103.197 65.7283 107.789 85.0593 120 104.569M165.529 47.6979C165.849 47.2933 166.178 46.894 166.513 46.5M627 47.6979L712.944 47.7135M290.966 67.2901L290.944 67.2813M290.966 67.2901C290.958 67.2871 290.951 67.2842 290.944 67.2813M259.362 52.1169L259.367 52.1192L259.368 52.1199M259.362 52.1169C259.364 52.1178 259.366 52.1189 259.368 52.1199M259.368 52.1199C269.114 57.3024 278.778 62.4411 288.239 66.201C289.148 66.5623 290.022 66.9123 290.87 67.2519C290.894 67.2613 290.917 67.2706 290.94 67.2798L290.944 67.2813" stroke="#484437" stroke-linecap="round" stroke-linejoin="round"/>
</g>
<defs>
<filter id="filter0_d_158_67" x="0" y="0" width="1543" height="486.799" filterUnits="userSpaceOnUse" color-interpolation-filters="sRGB">
<feFlood flood-opacity="0" result="BackgroundImageFix"/>
<feColorMatrix in="SourceAlpha" type="matrix" values="0 0 0 0 0 0 0 0 0 0 0 0 0 0 0 0 0 0 127 0" result="hardAlpha"/>
<feOffset dy="4"/>
<feGaussianBlur stdDeviation="25"/>
<feComposite in2="hardAlpha" operator="out"/>
<feColorMatrix type="matrix" values="0 0 0 0 0.0545265 0 0 0 0 0.0636892 0 0 0 0 0.146154 0 0 0 0.3 0"/>
<feBlend mode="normal" in2="BackgroundImageFix" result="effect1_dropShadow_158_67"/>
<feBlend mode="normal" in="SourceGraphic" in2="effect1_dropShadow_158_67" result="shape"/>
</filter>
</defs>
</svg>
