<svg width="146" height="274" viewBox="0 0 146 274" fill="none" xmlns="http://www.w3.org/2000/svg">
<path d="M101.814 260.654C96.6165 260.361 84.5369 261.315 82.6406 262.415C77.7062 264.134 73.0006 268.794 73 271.392C72.9998 272.122 73.3711 272.689 74.213 272.982C76.1092 273.643 78.2648 270.456 80.9551 269.02C97.0583 260.426 114.508 265.897 123.725 259.113C129.622 254.773 134.991 243.065 142.266 248.766C142.949 249.302 142.911 250.06 142.688 250.528C142.477 250.968 141.833 251.317 141.213 251.188C140.159 250.968 140.541 249.072 140.159 249.207C139.527 250.307 139.612 251.047 139.738 251.408C140.581 253.83 144.584 253.169 145.598 251.408C146.966 249.032 144.611 246.925 142.016 246.345C137.926 245.43 134.99 246.941 132.591 248.961C130.66 250.587 129.076 252.543 127.518 253.83C119.391 260.539 107.011 260.948 101.814 260.654Z" fill="white"/>
<path d="M63.3594 262.415C61.4631 261.315 49.3835 260.361 44.1865 260.654C38.9894 260.948 26.6086 260.539 18.4822 253.83C16.9235 252.543 15.3399 250.587 13.4091 248.961C11.0097 246.941 8.07409 245.43 3.98364 246.345C1.38899 246.925 -0.966038 249.032 0.402008 251.408C1.41621 253.169 5.41933 253.83 6.26209 251.408C6.38764 251.047 6.47278 250.307 5.84071 249.207C5.45851 249.072 5.84071 250.968 4.78725 251.188C4.16746 251.317 3.52311 250.968 3.31242 250.528C3.08858 250.06 3.05088 249.302 3.7338 248.766C11.0092 243.065 16.378 254.773 22.2746 259.113C31.4924 265.897 48.9418 260.426 65.0449 269.02C67.7352 270.456 69.8908 273.643 71.787 272.982C72.6289 272.689 73.0002 272.122 73 271.392C72.9994 268.794 68.2938 264.134 63.3594 262.415Z" fill="white"/>
<path d="M82.6406 213.727C84.5369 214.828 96.6165 215.782 101.814 215.488C107.011 215.195 119.391 215.604 127.518 222.313C128.766 223.344 130.031 224.803 131.477 226.179C134.079 228.656 137.271 230.86 142.016 229.798C144.611 229.217 146.966 227.11 145.598 224.735C144.584 222.973 140.581 222.313 139.738 224.734C139.612 225.095 139.527 225.835 140.159 226.936C140.541 227.07 140.159 225.175 141.213 224.955C141.833 224.825 142.477 225.175 142.688 225.615C142.911 226.083 142.949 226.841 142.266 227.376C134.991 233.078 129.622 221.369 123.725 217.029C114.508 210.245 97.0583 215.717 80.9551 207.123C78.2648 205.687 76.1092 202.5 74.213 203.16C73.3711 203.453 72.9998 204.021 73 204.75C73.0006 207.348 77.7062 212.009 82.6406 213.727Z" fill="white"/>
<path d="M44.1865 215.488C49.3835 215.782 61.4631 214.828 63.3594 213.727C68.2938 212.009 72.9994 207.348 73 204.75C73.0002 204.021 72.6289 203.453 71.787 203.16C69.8908 202.5 67.7352 205.687 65.0449 207.123C48.9418 215.717 31.4924 210.245 22.2746 217.029C16.378 221.369 11.0092 233.078 3.7338 227.376C3.05088 226.841 3.08858 226.083 3.31242 225.615C3.52311 225.175 4.16746 224.825 4.78725 224.955C5.84071 225.175 5.45851 227.07 5.84071 226.936C6.47278 225.835 6.38764 225.095 6.26209 224.734C5.41933 222.313 1.41621 222.973 0.402008 224.735C-0.966038 227.11 1.38899 229.217 3.98364 229.798C8.7293 230.86 11.9205 228.656 14.5234 226.179C15.9694 224.803 17.2338 223.344 18.4822 222.313C26.6086 215.604 38.9894 215.195 44.1865 215.488Z" fill="white"/>
<path d="M44.1865 260.654C49.3835 260.361 61.4631 261.315 63.3594 262.415C68.2938 264.134 72.9994 268.794 73 271.392C73.0006 268.794 77.7062 264.134 82.6406 262.415C84.5369 261.315 96.6165 260.361 101.814 260.654C107.011 260.948 119.391 260.539 127.518 253.83C129.076 252.543 130.66 250.587 132.591 248.961C133.019 248.247 135.331 244.112 135.331 238.071C135.331 231.966 132.025 226.967 131.477 226.179C130.031 224.803 128.766 223.344 127.518 222.313C119.391 215.604 107.011 215.195 101.814 215.488C96.6165 215.782 84.5369 214.828 82.6406 213.727C77.7062 212.009 73.0006 207.348 73 204.75C72.9994 207.348 68.2938 212.009 63.3594 213.727C61.4631 214.828 49.3835 215.782 44.1865 215.488C38.9894 215.195 26.6086 215.604 18.4822 222.313C17.2338 223.344 15.9694 224.803 14.5234 226.179C13.975 226.967 10.6692 231.966 10.6692 238.071C10.6693 244.112 12.9808 248.247 13.4091 248.961C15.3399 250.587 16.9235 252.543 18.4822 253.83C26.6086 260.539 38.9894 260.948 44.1865 260.654Z" fill="#8A8A8A"/>
<path d="M47.8607 0.699896C47.8091 0.510062 47.6872 0.329641 47.5163 0.198447C47.3455 0.067236 47.1407 -0.00402227 46.9458 0.000361256C46.7509 0.00474479 46.5809 0.0844361 46.472 0.221937C46.3631 0.359425 46.3251 0.543442 46.3611 0.733628C46.3611 0.733628 46.3611 0.733628 46.3611 0.733628C47.1254 4.7635 47.1641 8.66593 46.5571 12.3831C43.9518 27.4478 32.4087 37.7132 24.0176 50.2196C17.5521 59.1525 12.9413 72.7759 20.6035 85.4926C27.6779 97.8236 39.0843 106.746 50.4234 114.929C65.1011 125.416 79.2367 137.716 86.5009 153.153C94.0436 168.605 89.7075 184.942 79.7851 195.672C77.3333 198.419 74.6096 200.959 71.5897 203.074C71.4396 203.173 71.3478 203.333 71.3357 203.519C71.3235 203.706 71.3918 203.904 71.5258 204.071C71.6598 204.238 71.8487 204.359 72.0512 204.409C72.2537 204.459 72.4531 204.434 72.6067 204.339C72.6067 204.339 72.6067 204.339 72.6067 204.339C75.8613 202.21 78.6792 199.731 81.294 196.98C91.7896 186.365 96.9979 169.167 89.19 152.508C81.6954 135.962 67.137 123.137 52.2375 112.276C41.2009 104.211 30.2754 95.3208 24.0761 84.2992C17.4981 73.1661 21.3074 61.6279 27.6009 52.7456C35.6599 40.6402 47.3114 29.5159 49.0006 13.0989C49.3665 9.0699 48.9971 4.88387 47.8607 0.699896Z" fill="white"/>
</svg>
