<svg width="1443" height="387" viewBox="0 0 1443 387" fill="none" xmlns="http://www.w3.org/2000/svg">
<path d="M1168.62 65.1997C1156.61 73.9504 1164.94 86.0295 1172.79 81.0636L1177.35 79.1831C1184.74 76.8209 1185.66 99.9555 1165.48 99.8956C1145.29 99.8356 1144.62 85.5488 1146.55 74.6132C1148.48 63.6775 1158.36 43.0267 1189.67 46.5186C1215.55 49.4047 1229.05 73.3104 1230.39 85.1598C1231.73 97.0092 1231.58 110.132 1214.86 127.345C1202.89 139.67 1161.12 151.906 1137.82 151.837C1114.51 151.768 1096.81 151.657 1075.1 143.934C1044.44 133.027 996.887 99.0699 996.887 99.0699C996.887 99.0699 940.804 60.1612 913.019 39.3609C885.233 18.5606 846.697 -0.0454786 803.742 2.51925C769.858 4.54236 721.608 25.9396 721.608 25.9396C721.608 25.9396 766.422 7.82955 799.491 8.63354C812.842 8.95815 857.507 8.63354 897.521 37.0263C937.535 65.4191 1024.06 137.885 1076.71 156.582C1115.15 170.23 1153.78 169.163 1185.34 160.218C1187.6 159.576 1189.83 158.895 1192.02 158.176C1201.12 155.18 1209.55 151.527 1217.11 147.398C1251.83 128.436 1256.8 71.8361 1242.25 52.5684C1227.7 33.3007 1206.65 28.3771 1197.58 28.0731C1193.34 27.6006 1185.46 27.6543 1176.38 29.1942C1157.21 32.4455 1132.7 42.3227 1125.82 67.8613C1122.94 78.5681 1123.67 87.1121 1127.34 94.882C1128.77 97.912 1130.65 100.824 1132.94 103.701C1141.09 113.955 1157.75 115.447 1162.72 115.518C1191.65 115.932 1213.4 93.558 1206.94 73.722C1203.73 63.8504 1194.3 61.6915 1189.74 61.1833C1189.74 61.1833 1178.22 58.1992 1168.62 65.1997Z" fill="#D5D5D5"/>
<path fill-rule="evenodd" clip-rule="evenodd" d="M721.608 1.71352V25.9396C737.409 14.7032 754.102 6.89296 770.713 1.71352H721.608ZM884.44 1.69785C886.896 2.57753 889.152 3.49263 891.187 4.42719C906.708 11.5547 931.401 29.9737 956.546 48.7296C979.628 65.9474 1003.09 83.4491 1020.19 92.7604C1055.91 112.215 1088.33 112.741 1108.84 105.905C1119.5 102.352 1126.92 95.2902 1127.34 94.882C1123.67 87.1121 1122.94 78.5681 1125.82 67.8613C1132.27 43.8949 1154.26 33.7211 1172.79 29.8722C1109.34 41.2827 1074.27 29.698 1024.77 1.69785H884.44Z" fill="#D5D5D5"/>
<path d="M1278.19 90.8637C1270.99 87.2275 1262.48 82.0469 1256.14 74.9795C1256.14 74.9795 1239.44 110.895 1254.82 137.185C1261.02 147.794 1274.22 164.361 1301.35 171.722C1328.47 179.083 1337.07 179.083 1348.98 181.712C1360.89 184.341 1374.77 192.659 1381.47 200.76C1386.9 205.894 1393.37 215.728 1395.58 222.198C1396.37 224.525 1396.88 226.451 1397.15 227.637C1403.09 253.767 1388.5 273.471 1370.59 267.682C1361.68 264.801 1358.04 256.282 1356.73 252.166C1356.73 252.166 1353.81 233.435 1356.03 233.074C1358.24 232.714 1359.67 234.817 1366.84 242.178C1374.01 249.539 1388.51 248.398 1384.56 230.163C1380.61 211.929 1368.48 211.352 1359.67 213.12C1350.86 214.888 1335.42 223.855 1344.4 252.135C1351.83 275.509 1374.51 287.655 1384.73 288.836C1394.94 290.017 1405.87 290.025 1417.16 274.711C1432.62 253.738 1403.23 198.012 1403.23 198.012C1403.23 198.012 1356.5 111.71 1356.5 76.3766C1354 77.7457 1351.01 80.3338 1350 81.3232C1330.24 100.664 1308.79 99.8474 1299.44 97.876C1294.91 97.3708 1286.85 95.2312 1278.19 90.8637Z" fill="#D5D5D5"/>
<path d="M1356.03 233.074C1353.81 233.435 1356.73 252.166 1356.73 252.166C1358.04 256.282 1361.68 264.801 1370.59 267.682C1388.5 273.471 1403.09 253.767 1397.15 227.637C1396.88 226.451 1396.37 224.525 1395.58 222.198C1393.37 215.728 1386.9 205.894 1381.47 200.76C1373.36 193.105 1364.02 191.09 1352.3 194.742C1322.64 203.976 1324.22 246.037 1331.3 268.33C1332.48 271.088 1333.64 273.904 1334.77 276.779C1344.26 295.566 1364.19 311.436 1383.2 314.645C1405 318.325 1426.38 313.384 1436.97 293.087C1442.26 282.937 1444.91 261.61 1439.61 241.394C1429.78 203.867 1346.3 98.0345 1367.5 66.4835L1371.33 60.9796C1369.07 63.8963 1365.5 67.9674 1365.5 67.9674C1365.5 67.9674 1357 76.1028 1356.5 76.3766C1356.5 111.71 1403.23 198.012 1403.23 198.012C1403.23 198.012 1432.62 253.738 1417.16 274.711C1405.87 290.025 1394.94 290.017 1384.73 288.836C1374.51 287.655 1351.83 275.509 1344.4 252.135C1335.42 223.855 1350.86 214.888 1359.67 213.12C1368.48 211.352 1380.61 211.929 1384.56 230.163C1388.51 248.398 1374.01 249.539 1366.84 242.178C1359.67 234.817 1358.24 232.714 1356.03 233.074Z" fill="#D5D5D5"/>
<path d="M1279.3 185.3C1293.58 201.931 1314.59 229.297 1331.3 268.33C1324.22 246.037 1322.64 203.976 1352.3 194.742C1364.02 191.09 1373.36 193.105 1381.47 200.76C1374.77 192.659 1360.89 184.341 1348.98 181.712C1337.07 179.083 1328.47 179.083 1301.35 171.722C1274.22 164.361 1261.02 147.794 1254.82 137.185C1239.44 110.895 1256.14 74.9795 1256.14 74.9795C1246.56 64.3015 1243.21 57.6363 1245.32 37.1624C1246.89 21.9654 1252.1 10.9158 1260.05 1.69785H1242.01H1229.04C1222.6 4.70298 1216.07 7.7024 1209.39 10.3541C1198.81 14.5605 1191.9 16.489 1176.32 19.2926C1118.39 29.7103 1083.41 23.9867 1040.07 1.69785H1024.77C1074.27 29.698 1109.34 41.2827 1172.79 29.8722C1174 29.6196 1175.2 29.3943 1176.38 29.1942C1185.46 27.6543 1193.34 27.6006 1197.58 28.0731C1206.65 28.3771 1227.7 33.3007 1242.25 52.5684C1256.8 71.8361 1251.83 128.436 1217.11 147.398C1209.55 151.527 1201.12 155.18 1192.02 158.176C1224.52 149.64 1258.36 160.918 1279.3 185.3Z" fill="#D5D5D5"/>
<path d="M1288.59 51.6463C1279.99 37.4451 1293.42 24.3057 1299.35 32.6339L1303.21 36.2013C1309.75 41.1119 1320.2 12.0469 1299.66 6.88136C1279.13 1.71581 1272.57 19.6383 1270.04 33.9921C1267.51 48.3459 1275.15 80.6397 1308.4 84.3476C1335.88 87.4122 1353.33 57.0662 1359.56 42.4033C1364.33 31.1599 1368.96 18.6348 1366.06 1.69785H1327.47C1338.46 15.5522 1340.68 35.4405 1331.04 50.804C1323.71 62.4742 1313.24 62.7589 1308.4 62.2193C1308.4 62.2193 1295.47 63.0071 1288.59 51.6463Z" fill="#D5D5D5"/>
<path d="M1260.05 1.69785C1252.1 10.9158 1246.89 21.9654 1245.32 37.1624C1243.21 57.6363 1246.56 64.3015 1256.14 74.9795C1260.74 80.1015 1266.47 84.2325 1272.02 87.5028C1274.13 88.7448 1276.21 89.8628 1278.19 90.8637C1286.85 95.2312 1294.91 97.3708 1299.44 97.876C1308.79 99.8474 1330.24 100.664 1350 81.3232C1351.01 80.3338 1354 77.7457 1356.5 76.3766C1357 76.1028 1365.5 67.9674 1365.5 67.9674C1365.5 67.9674 1369.07 63.8963 1371.33 60.9796L1373 58.5689C1385.21 39.0593 1389.8 19.7283 1387.69 1.69785H1366.06C1368.96 18.6348 1364.33 31.1599 1359.56 42.4033C1353.33 57.0662 1335.88 87.4122 1308.4 84.3476C1275.15 80.6397 1267.51 48.3459 1270.04 33.9921C1272.57 19.6383 1279.13 1.71581 1299.66 6.88136C1320.2 12.0469 1309.75 41.1119 1303.21 36.2013L1299.35 32.6339C1293.42 24.3057 1279.99 37.4451 1288.59 51.6463C1295.47 63.0071 1308.4 62.2193 1308.4 62.2193C1313.24 62.7589 1323.71 62.4742 1331.04 50.804C1340.68 35.4405 1338.46 15.5522 1327.47 1.69785H1260.05Z" fill="#D5D5D5"/>
<path d="M1176.32 19.2926C1191.9 16.489 1198.81 14.5605 1209.39 10.3541C1216.07 7.7024 1222.6 4.70298 1229.04 1.69785H1040.07C1083.41 23.9867 1118.39 29.7103 1176.32 19.2926Z" fill="#D5D5D5"/>
<path d="M1132.94 103.701C1130.65 100.824 1128.77 97.912 1127.34 94.882C1126.92 95.2902 1119.5 102.352 1108.84 105.905C1088.33 112.741 1055.91 112.215 1020.19 92.7604C1003.09 83.4491 979.628 65.9474 956.546 48.7296C931.401 29.9737 906.708 11.5547 891.187 4.42719C889.152 3.49263 886.896 2.57753 884.44 1.69785H866.002C875.572 4.14648 884.319 7.51313 891.849 11.788C909.91 22.0412 926.698 35.0788 948.081 50.6967C976.041 71.119 1002.37 93.8116 1029.47 106.956C1056.58 120.101 1091.64 120.627 1112.15 113.792C1123.13 110.132 1132.94 103.701 1132.94 103.701Z" fill="#D5D5D5"/>
<path d="M1172.79 81.0636C1164.94 86.0295 1156.61 73.9504 1168.62 65.1997C1178.22 58.1992 1189.74 61.1833 1189.74 61.1833C1194.3 61.6915 1203.73 63.8504 1206.94 73.722C1213.4 93.558 1191.65 115.932 1162.72 115.518C1157.75 115.447 1141.09 113.955 1132.94 103.701C1132.94 103.701 1123.13 110.132 1112.15 113.792C1091.64 120.627 1056.58 120.101 1029.47 106.956C1002.37 93.8116 976.041 71.119 948.081 50.6967C926.698 35.0788 909.91 22.0412 891.849 11.788C884.319 7.51313 875.572 4.14648 866.002 1.69785L780.058 1.71352C758.922 6.39319 738.554 14.4464 721.608 25.9396C721.608 25.9396 769.858 4.54236 803.742 2.51925C846.697 -0.0454786 885.233 18.5606 913.019 39.3609C940.804 60.1612 996.887 99.0699 996.887 99.0699C996.887 99.0699 1044.44 133.027 1075.1 143.934C1096.81 151.657 1114.51 151.768 1137.82 151.837C1161.12 151.906 1202.89 139.67 1214.86 127.345C1231.58 110.132 1231.73 97.0092 1230.39 85.1598C1229.05 73.3104 1215.55 49.4047 1189.67 46.5186C1158.36 43.0267 1148.48 63.6775 1146.55 74.6132C1144.62 85.5488 1145.29 99.8356 1165.48 99.8956C1185.66 99.9555 1184.74 76.8209 1177.35 79.1831L1172.79 81.0636Z" fill="#D5D5D5"/>
<path d="M721.608 25.9396C738.554 14.4464 758.922 6.39319 780.058 1.71352H770.713C754.102 6.89296 737.409 14.7032 721.608 25.9396Z" fill="#D5D5D5"/>
<path d="M1204.1 242.086C1207.41 255.756 1197.49 260.488 1184.92 249.447C1174.86 240.613 1176.98 227.889 1176.98 227.889C1176.98 227.889 1178.36 212.617 1190.21 207.383C1214.02 196.867 1244.92 215.671 1248.43 246.292C1248.92 250.599 1249.31 263.373 1243.04 273.633C1243.04 273.633 1261.39 298.345 1266.95 308.335C1272.51 318.325 1344.4 419.803 1397.15 367.5C1359.67 391 1334.07 332.77 1323.84 298.871C1316 272.903 1308.46 256.987 1298.7 239.457C1281.72 208.934 1259.01 191.084 1248.43 185.3C1237.84 179.516 1225.93 171.584 1198.81 177.894C1171.68 184.203 1159.12 205.28 1159.12 233.147C1159.12 266.863 1184.92 273.633 1198.81 273.633C1212.7 273.633 1233.21 266.272 1228.58 246.292C1223.95 226.312 1200.79 228.415 1204.1 242.086Z" fill="#D5D5D5"/>
<path d="M1184.92 249.447C1197.49 260.488 1207.41 255.756 1204.1 242.086C1200.79 228.415 1223.95 226.312 1228.58 246.292C1233.21 266.272 1212.7 273.633 1198.81 273.633C1184.92 273.633 1159.12 266.863 1159.12 233.147C1159.12 205.28 1171.68 184.203 1198.81 177.894C1225.93 171.584 1237.84 179.516 1248.43 185.3C1259.01 191.084 1281.72 208.934 1298.7 239.457C1308.46 256.987 1316 272.903 1323.84 298.871C1334.07 332.77 1359.67 391 1397.15 367.5C1365.5 383 1349.55 314.256 1334.77 276.779C1333.38 274.015 1332.21 271.189 1331.3 268.33C1314.59 229.297 1293.58 201.931 1279.3 185.3C1258.36 160.918 1224.52 149.64 1192.02 158.176C1189.83 158.895 1187.6 159.576 1185.34 160.218C1176 163.49 1166.84 168.466 1158.23 175.31C1137.78 191.563 1133.76 216.146 1134.64 225.786C1134.64 239.982 1145.88 290.458 1194.18 294.139C1211.61 295.468 1223.9 291.305 1234.76 282.572C1235.8 281.737 1236.82 280.86 1237.84 279.943C1239.84 278.135 1241.49 276.11 1242.83 273.969C1242.9 273.858 1242.97 273.745 1243.04 273.633C1249.31 263.373 1248.92 250.599 1248.43 246.292C1244.92 215.671 1214.02 196.867 1190.21 207.383C1178.36 212.617 1176.98 227.889 1176.98 227.889C1176.98 227.889 1174.86 240.613 1184.92 249.447Z" fill="#D5D5D5"/>
<path d="M1237.84 279.943C1236.82 280.86 1235.8 281.737 1234.76 282.572C1253.06 308.335 1344.4 433 1397.15 367.5C1344.4 419.803 1272.51 318.325 1266.95 308.335C1261.39 298.345 1243.04 273.633 1243.04 273.633C1242.97 273.745 1242.9 273.858 1242.83 273.969C1241.49 276.11 1239.84 278.135 1237.84 279.943Z" fill="#D5D5D5"/>
<path d="M274.386 65.1997C286.388 73.9504 278.064 86.0295 270.216 81.0636L265.652 79.1831C258.264 76.8209 257.339 99.9555 277.524 99.8956C297.709 99.8356 298.383 85.5488 296.452 74.6132C294.522 63.6775 284.646 43.0267 253.333 46.5186C227.453 49.4047 213.949 73.3104 212.612 85.1598C211.275 97.0092 211.425 110.132 228.144 127.345C240.115 139.67 281.884 151.906 305.186 151.837C328.488 151.768 346.192 151.657 367.903 143.934C398.563 133.027 446.115 99.0699 446.115 99.0699C446.115 99.0699 502.198 60.1612 529.983 39.3609C557.768 18.5606 596.304 -0.0454786 639.26 2.51925C673.143 4.54236 721.394 25.9396 721.394 25.9396C721.394 25.9396 676.58 7.82955 643.511 8.63354C630.16 8.95815 585.495 8.63354 545.481 37.0263C505.467 65.4191 418.944 137.885 366.29 156.582C327.856 170.23 289.224 169.163 257.659 160.218C255.397 159.576 253.171 158.895 250.985 158.176C241.88 155.18 233.452 151.527 225.891 147.398C191.174 128.436 186.198 71.8361 200.752 52.5684C215.306 33.3007 236.351 28.3771 245.426 28.0731C249.663 27.6006 257.542 27.6543 266.62 29.1942C285.789 32.4455 310.306 42.3227 317.18 67.8613C320.062 78.5681 319.331 87.1121 315.659 94.882C314.228 97.912 312.349 100.824 310.063 103.701C301.915 113.955 285.248 115.447 280.282 115.518C251.357 115.932 229.6 93.558 236.057 73.722C239.27 63.8504 248.705 61.6915 253.262 61.1833C253.262 61.1833 264.785 58.1992 274.386 65.1997Z" fill="#D5D5D5"/>
<path fill-rule="evenodd" clip-rule="evenodd" d="M721.394 1.71352V25.9396C705.593 14.7032 688.9 6.89296 672.289 1.71352H721.394ZM558.562 1.69785C556.105 2.57753 553.85 3.49263 551.815 4.42719C536.293 11.5547 511.6 29.9737 486.456 48.7296C463.374 65.9474 439.91 83.4491 422.812 92.7604C387.088 112.215 354.672 112.741 334.164 105.905C323.504 102.352 316.082 95.2902 315.659 94.882C319.331 87.1121 320.062 78.5681 317.18 67.8613C310.73 43.8949 288.741 33.7211 270.216 29.8722C333.659 41.2827 368.732 29.698 418.229 1.69785H558.562Z" fill="#D5D5D5"/>
<path d="M164.808 90.8637C172.016 87.2275 180.52 82.0469 186.861 74.9795C186.861 74.9795 203.56 110.895 188.183 137.185C181.977 147.794 168.777 164.361 141.653 171.722C114.53 179.083 105.93 179.083 94.0218 181.712C82.1138 184.341 68.2296 192.659 61.5274 200.76C56.1026 205.894 49.6332 215.728 47.4236 222.198C46.629 224.525 46.118 226.451 45.8484 227.637C39.9126 253.767 54.5031 273.471 72.4124 267.682C81.3251 264.801 84.9615 256.282 86.2688 252.166C86.2688 252.166 89.1918 233.435 86.9759 233.074C84.7599 232.714 83.3317 234.817 76.1599 242.178C68.9882 249.539 54.4885 248.398 58.4383 230.163C62.3881 211.929 74.519 211.352 83.3318 213.12C92.1446 214.888 107.583 223.855 98.6006 252.135C91.1766 275.509 68.4877 287.655 58.2762 288.836C48.0646 290.017 37.1277 290.025 25.8411 274.711C10.3833 253.738 39.7742 198.012 39.7742 198.012C39.7742 198.012 86.5 111.71 86.5 76.3766C89 77.7457 91.9894 80.3338 93 81.3232C112.758 100.664 134.213 99.8474 143.559 97.876C148.089 97.3708 156.15 95.2312 164.808 90.8637Z" fill="#D5D5D5"/>
<path d="M86.9759 233.074C89.1918 233.435 86.2688 252.166 86.2688 252.166C84.9615 256.282 81.3251 264.801 72.4124 267.682C54.5031 273.471 39.9126 253.767 45.8484 227.637C46.118 226.451 46.629 224.525 47.4236 222.198C49.6332 215.728 56.1026 205.894 61.5274 200.76C69.6439 193.105 78.9795 191.09 90.7063 194.742C120.361 203.976 118.785 246.037 111.704 268.33C110.524 271.088 109.364 273.904 108.23 276.779C98.7406 295.566 78.8116 311.436 59.8037 314.645C37.9998 318.325 16.6189 313.384 6.03446 293.087C0.74113 282.937 -1.9113 261.61 3.38797 241.394C13.2253 203.867 96.7027 98.0345 75.5 66.4835L71.6751 60.9796C73.9311 63.8963 77.5 67.9674 77.5 67.9674C77.5 67.9674 86 76.1028 86.5 76.3766C86.5 111.71 39.7742 198.012 39.7742 198.012C39.7742 198.012 10.3833 253.738 25.8411 274.711C37.1277 290.025 48.0646 290.017 58.2762 288.836C68.4877 287.655 91.1766 275.509 98.6006 252.135C107.583 223.855 92.1446 214.888 83.3318 213.12C74.519 211.352 62.3881 211.929 58.4383 230.163C54.4885 248.398 68.9882 249.539 76.1599 242.178C83.3317 234.817 84.7599 232.714 86.9759 233.074Z" fill="#D5D5D5"/>
<path d="M163.705 185.3C149.423 201.931 128.415 229.297 111.704 268.33C118.785 246.037 120.361 203.976 90.7063 194.742C78.9795 191.09 69.6439 193.105 61.5274 200.76C68.2296 192.659 82.1138 184.341 94.0218 181.712C105.93 179.083 114.53 179.083 141.653 171.722C168.777 164.361 181.977 147.794 188.183 137.185C203.56 110.895 186.861 74.9795 186.861 74.9795C196.44 64.3015 199.788 57.6363 197.68 37.1624C196.116 21.9654 190.899 10.9158 182.952 1.69785H200.996H213.961C220.402 4.70298 226.935 7.7024 233.608 10.3541C244.193 14.5605 251.098 16.489 266.686 19.2926C324.608 29.7103 359.595 23.9867 402.935 1.69785H418.229C368.732 29.698 333.659 41.2827 270.216 29.8722C269.001 29.6196 267.8 29.3943 266.62 29.1942C257.542 27.6543 249.663 27.6006 245.426 28.0731C236.351 28.3771 215.306 33.3007 200.752 52.5684C186.198 71.8361 191.174 128.436 225.891 147.398C233.452 151.527 241.88 155.18 250.985 158.176C218.486 149.64 184.644 160.918 163.705 185.3Z" fill="#D5D5D5"/>
<path d="M154.413 51.6463C163.009 37.4451 149.586 24.3057 143.654 32.6339L139.79 36.2013C133.255 41.1119 122.805 12.0469 143.338 6.88136C163.871 1.71581 170.428 19.6383 172.962 33.9921C175.496 48.3459 167.851 80.6397 134.602 84.3476C107.12 87.4122 89.6736 57.0662 83.4444 42.4033C78.6678 31.1599 74.045 18.6348 76.9441 1.69785H115.529C104.542 15.5522 102.326 35.4405 111.966 50.804C119.289 62.4742 129.762 62.7589 134.602 62.2193C134.602 62.2193 147.536 63.0071 154.413 51.6463Z" fill="#D5D5D5"/>
<path d="M182.952 1.69785C190.899 10.9158 196.116 21.9654 197.68 37.1624C199.788 57.6363 196.44 64.3015 186.861 74.9795C182.265 80.1015 176.533 84.2325 170.982 87.5028C168.874 88.7448 166.792 89.8628 164.808 90.8637C156.15 95.2312 148.089 97.3708 143.559 97.876C134.213 99.8474 112.758 100.664 93 81.3232C91.9894 80.3338 89 77.7457 86.5 76.3766C86 76.1028 77.5 67.9674 77.5 67.9674C77.5 67.9674 73.9311 63.8963 71.6751 60.9796L70 58.5689C57.7891 39.0593 53.1973 19.7283 55.3089 1.69785H76.9441C74.045 18.6348 78.6678 31.1599 83.4444 42.4033C89.6736 57.0662 107.12 87.4122 134.602 84.3476C167.851 80.6397 175.496 48.3459 172.962 33.9921C170.428 19.6383 163.871 1.71581 143.338 6.88136C122.805 12.0469 133.255 41.1119 139.79 36.2013L143.654 32.6339C149.586 24.3057 163.009 37.4451 154.413 51.6463C147.536 63.0071 134.602 62.2193 134.602 62.2193C129.762 62.7589 119.289 62.4742 111.966 50.804C102.326 35.4405 104.542 15.5522 115.529 1.69785H182.952Z" fill="#D5D5D5"/>
<path d="M266.686 19.2926C251.098 16.489 244.193 14.5605 233.608 10.3541C226.935 7.7024 220.402 4.70298 213.961 1.69785H402.935C359.595 23.9867 324.608 29.7103 266.686 19.2926Z" fill="#D5D5D5"/>
<path d="M310.063 103.701C312.349 100.824 314.228 97.912 315.659 94.882C316.082 95.2902 323.504 102.352 334.164 105.905C354.672 112.741 387.088 112.215 422.812 92.7604C439.91 83.4491 463.374 65.9474 486.456 48.7296C511.6 29.9737 536.293 11.5547 551.815 4.42719C553.85 3.49263 556.105 2.57753 558.562 1.69785H577C567.43 4.14648 558.683 7.51313 551.153 11.788C533.092 22.0412 516.304 35.0788 494.921 50.6967C466.961 71.119 440.628 93.8116 413.527 106.956C386.426 120.101 351.364 120.627 330.856 113.792C319.876 110.132 310.063 103.701 310.063 103.701Z" fill="#D5D5D5"/>
<path d="M270.216 81.0636C278.064 86.0295 286.388 73.9504 274.386 65.1997C264.785 58.1992 253.262 61.1833 253.262 61.1833C248.705 61.6915 239.27 63.8504 236.057 73.722C229.6 93.558 251.357 115.932 280.282 115.518C285.248 115.447 301.915 113.955 310.063 103.701C310.063 103.701 319.876 110.132 330.856 113.792C351.364 120.627 386.426 120.101 413.527 106.956C440.628 93.8116 466.961 71.119 494.921 50.6967C516.304 35.0788 533.092 22.0412 551.153 11.788C558.683 7.51313 567.43 4.14648 577 1.69785L662.944 1.71352C684.08 6.39319 704.448 14.4464 721.394 25.9396C721.394 25.9396 673.143 4.54236 639.26 2.51925C596.304 -0.0454786 557.768 18.5606 529.983 39.3609C502.198 60.1612 446.115 99.0699 446.115 99.0699C446.115 99.0699 398.563 133.027 367.903 143.934C346.192 151.657 328.488 151.768 305.186 151.837C281.884 151.906 240.115 139.67 228.144 127.345C211.425 110.132 211.275 97.0092 212.612 85.1598C213.949 73.3104 227.453 49.4047 253.333 46.5186C284.646 43.0267 294.522 63.6775 296.452 74.6132C298.383 85.5488 297.709 99.8356 277.524 99.8956C257.339 99.9555 258.264 76.8209 265.652 79.1831L270.216 81.0636Z" fill="#D5D5D5"/>
<path d="M721.394 25.9396C704.448 14.4464 684.08 6.39319 662.944 1.71352H672.289C688.9 6.89296 705.593 14.7032 721.394 25.9396Z" fill="#D5D5D5"/>
<path d="M238.9 242.086C235.592 255.756 245.516 260.488 258.085 249.447C268.141 240.613 266.024 227.889 266.024 227.889C266.024 227.889 264.645 212.617 252.793 207.383C228.977 196.867 198.079 215.671 194.576 246.292C194.084 250.599 193.688 263.373 199.961 273.633C199.961 273.633 181.611 298.345 176.053 308.335C170.496 318.325 98.6006 419.803 45.8484 367.5C83.3318 391 108.929 332.77 119.16 298.871C126.997 272.903 134.543 256.987 144.299 239.457C161.285 208.934 183.992 191.084 194.576 185.3C205.161 179.516 217.069 171.584 244.193 177.894C271.317 184.203 283.886 205.28 283.886 233.147C283.886 266.863 258.085 273.633 244.193 273.633C230.3 273.633 209.792 266.272 214.423 246.292C219.054 226.312 242.208 228.415 238.9 242.086Z" fill="#D5D5D5"/>
<path d="M258.085 249.447C245.516 260.488 235.592 255.756 238.9 242.086C242.208 228.415 219.054 226.312 214.423 246.292C209.792 266.272 230.3 273.633 244.193 273.633C258.085 273.633 283.886 266.863 283.886 233.147C283.886 205.28 271.317 184.203 244.193 177.894C217.069 171.584 205.161 179.516 194.576 185.3C183.992 191.084 161.285 208.934 144.299 239.457C134.543 256.987 126.997 272.903 119.16 298.871C108.929 332.77 83.3318 391 45.8484 367.5C77.5 383 93.4481 314.256 108.23 276.779C109.626 274.015 110.796 271.189 111.704 268.33C128.415 229.297 149.423 201.931 163.705 185.3C184.644 160.918 218.486 149.64 250.985 158.176C253.171 158.895 255.397 159.576 257.659 160.218C267.006 163.49 276.159 168.466 284.769 175.31C305.219 191.563 309.245 216.146 308.363 225.786C308.363 239.982 297.117 290.458 248.824 294.139C231.393 295.468 219.106 291.305 208.241 282.572C207.203 281.737 206.177 280.86 205.161 279.943C203.16 278.135 201.516 276.11 200.169 273.969C200.099 273.858 200.029 273.745 199.961 273.633C193.688 263.373 194.084 250.599 194.576 246.292C198.079 215.671 228.977 196.867 252.793 207.383C264.645 212.617 266.024 227.889 266.024 227.889C266.024 227.889 268.141 240.613 258.085 249.447Z" fill="#D5D5D5"/>
<path d="M205.161 279.943C206.177 280.86 207.203 281.737 208.241 282.572C189.946 308.335 98.6006 433 45.8484 367.5C98.6006 419.803 170.496 318.325 176.053 308.335C181.611 298.345 199.961 273.633 199.961 273.633C200.029 273.745 200.099 273.858 200.169 273.969C201.516 276.11 203.16 278.135 205.161 279.943Z" fill="#D5D5D5"/>
<path d="M1397.15 367.5C1359.67 391 1334.07 332.77 1323.84 298.871C1316 272.903 1308.46 256.987 1298.7 239.457C1281.72 208.934 1259.01 191.084 1248.43 185.3C1237.84 179.516 1225.93 171.584 1198.81 177.894C1171.68 184.203 1159.12 205.28 1159.12 233.147C1159.12 266.863 1184.92 273.633 1198.81 273.633C1212.7 273.633 1233.21 266.272 1228.58 246.292C1223.95 226.312 1200.79 228.415 1204.1 242.086C1207.41 255.756 1197.49 260.488 1184.92 249.447C1174.86 240.613 1176.98 227.889 1176.98 227.889C1176.98 227.889 1178.36 212.617 1190.21 207.383C1214.02 196.867 1244.92 215.671 1248.43 246.292M1397.15 367.5C1365.5 383 1349.55 314.256 1334.77 276.779M1397.15 367.5C1344.4 419.803 1272.51 318.325 1266.95 308.335C1261.39 298.345 1243.04 273.633 1243.04 273.633M1397.15 367.5C1344.4 433 1253.06 308.335 1234.76 282.572M1334.77 276.779C1317.59 233.218 1294.59 203.106 1279.3 185.3M1334.77 276.779C1333.64 273.904 1332.48 271.088 1331.3 268.33M1334.77 276.779C1344.26 295.566 1364.19 311.436 1383.2 314.645C1405 318.325 1426.38 313.384 1436.97 293.087C1442.26 282.937 1444.91 261.61 1439.61 241.394C1429.78 203.867 1346.3 98.0345 1367.5 66.4835L1371.33 60.9796M1334.77 276.779C1333.38 274.015 1332.21 271.189 1331.3 268.33M1279.3 185.3C1258.36 160.918 1224.52 149.64 1192.02 158.176M1279.3 185.3C1293.58 201.931 1314.59 229.297 1331.3 268.33M1192.02 158.176C1201.12 155.18 1209.55 151.527 1217.11 147.398C1251.83 128.436 1256.8 71.8361 1242.25 52.5684C1227.7 33.3007 1206.65 28.3771 1197.58 28.0731C1193.34 27.6006 1185.46 27.6543 1176.38 29.1942M1192.02 158.176C1189.83 158.895 1187.6 159.576 1185.34 160.218M1192.02 158.176C1189.78 158.762 1187.56 159.442 1185.34 160.218M1234.76 282.572C1223.9 291.305 1211.61 295.468 1194.18 294.139C1145.88 290.458 1134.64 239.982 1134.64 225.786C1133.76 216.146 1137.78 191.563 1158.23 175.31C1166.84 168.466 1176 163.49 1185.34 160.218M1234.76 282.572C1235.8 281.737 1236.82 280.86 1237.84 279.943C1239.84 278.135 1241.49 276.11 1242.83 273.969M1248.43 246.292C1248.92 250.599 1249.31 263.373 1243.04 273.633M1248.43 246.292C1248.92 250.646 1249.32 263.654 1242.83 273.969M721.608 25.9396C721.608 25.9396 769.858 4.54236 803.742 2.51925C846.697 -0.0454786 885.233 18.5606 913.019 39.3609C940.804 60.1612 996.887 99.0699 996.887 99.0699C996.887 99.0699 1044.44 133.027 1075.1 143.934C1096.81 151.657 1114.51 151.768 1137.82 151.837C1161.12 151.906 1202.89 139.67 1214.86 127.345C1231.58 110.132 1231.73 97.0092 1230.39 85.1598C1229.05 73.3104 1215.55 49.4047 1189.67 46.5186C1158.36 43.0267 1148.48 63.6775 1146.55 74.6132C1144.62 85.5488 1145.29 99.8356 1165.48 99.8956C1185.66 99.9555 1184.74 76.8209 1177.35 79.1831L1172.79 81.0636C1164.94 86.0295 1156.61 73.9504 1168.62 65.1997C1178.22 58.1992 1189.74 61.1833 1189.74 61.1833C1194.3 61.6915 1203.73 63.8504 1206.94 73.722C1213.4 93.558 1191.65 115.932 1162.72 115.518C1157.75 115.447 1141.09 113.955 1132.94 103.701M721.608 25.9396C721.608 25.9396 766.422 7.82955 799.491 8.63354C812.842 8.95815 857.507 8.63354 897.521 37.0263C937.535 65.4191 1024.06 137.885 1076.71 156.582C1115.15 170.23 1153.78 169.163 1185.34 160.218M721.608 25.9396V1.71352H770.713M721.608 25.9396C737.409 14.7032 754.102 6.89296 770.713 1.71352M721.608 25.9396C738.554 14.4464 758.922 6.39319 780.058 1.71352M1176.38 29.1942C1157.21 32.4455 1132.7 42.3227 1125.82 67.8613M1176.38 29.1942C1175.2 29.3943 1174 29.6196 1172.79 29.8722M1176.38 29.1942C1175.24 29.4198 1174.05 29.6455 1172.79 29.8722M1176.38 29.1942C1188.09 26.8771 1193.86 24.564 1202.04 21.2901M1176.38 29.1942C1188.1 26.875 1193.87 24.5599 1202.06 21.2813M1125.82 67.8613C1122.94 78.5681 1123.67 87.1121 1127.34 94.882M1125.82 67.8613C1132.27 43.8949 1154.26 33.7211 1172.79 29.8722M1127.34 94.882C1128.77 97.912 1130.65 100.824 1132.94 103.701M1127.34 94.882C1126.92 95.2902 1119.5 102.352 1108.84 105.905C1088.33 112.741 1055.91 112.215 1020.19 92.7604M1127.34 94.882C1127.35 94.8698 1127.36 94.8636 1127.36 94.8636M1132.94 103.701C1132.94 103.701 1123.13 110.132 1112.15 113.792C1091.64 120.627 1056.58 120.101 1029.47 106.956C1002.37 93.8116 976.041 71.119 948.081 50.6967C926.698 35.0788 909.91 22.0412 891.849 11.788C884.319 7.51313 875.572 4.14648 866.002 1.69785M1243.04 273.633C1242.97 273.745 1242.9 273.858 1242.83 273.969M770.713 1.71352H780.058M884.44 1.69785C886.896 2.57753 889.152 3.49263 891.187 4.42719M884.44 1.69785H1024.77M884.44 1.69785H866.002M884.44 1.69785H1366.06M891.187 4.42719C906.708 11.5547 931.401 29.9737 956.546 48.7296C979.628 65.9474 1003.09 83.4491 1020.19 92.7604M891.187 4.42719C920.957 18.0978 984.466 73.3061 1020.19 92.7604M1172.79 29.8722C1109.34 41.2827 1074.27 29.698 1024.77 1.69785M1024.77 1.69785H1040.07M1024.77 1.69785H1366.06M1278.19 90.8637C1270.99 87.2275 1262.48 82.0469 1256.14 74.9795M1278.19 90.8637C1286.85 95.2312 1294.91 97.3708 1299.44 97.876C1308.79 99.8474 1330.24 100.664 1350 81.3232C1351.01 80.3338 1354 77.7457 1356.5 76.3766M1278.19 90.8637C1276.21 89.8628 1274.13 88.7448 1272.02 87.5028M1256.14 74.9795C1256.14 74.9795 1239.44 110.895 1254.82 137.185C1261.02 147.794 1274.22 164.361 1301.35 171.722C1328.47 179.083 1337.07 179.083 1348.98 181.712C1360.89 184.341 1374.77 192.659 1381.47 200.76M1256.14 74.9795C1246.56 64.3015 1243.21 57.6363 1245.32 37.1624C1246.89 21.9654 1252.1 10.9158 1260.05 1.69785M1256.14 74.9795C1260.74 80.1015 1266.47 84.2325 1272.02 87.5028M1381.47 200.76C1386.9 205.894 1393.37 215.728 1395.58 222.198M1381.47 200.76C1373.36 193.105 1364.02 191.09 1352.3 194.742C1322.64 203.976 1324.22 246.037 1331.3 268.33M1395.58 222.198C1396.37 224.525 1396.88 226.451 1397.15 227.637C1403.09 253.767 1388.5 273.471 1370.59 267.682C1361.68 264.801 1358.04 256.282 1356.73 252.166C1356.73 252.166 1353.81 233.435 1356.03 233.074C1358.24 232.714 1359.67 234.817 1366.84 242.178C1374.01 249.539 1388.51 248.398 1384.56 230.163C1380.61 211.929 1368.48 211.352 1359.67 213.12C1350.86 214.888 1335.42 223.855 1344.4 252.135C1351.83 275.509 1374.51 287.655 1384.73 288.836C1394.94 290.017 1405.87 290.025 1417.16 274.711C1432.62 253.738 1403.23 198.012 1403.23 198.012C1403.23 198.012 1356.5 111.71 1356.5 76.3766M1395.58 222.198C1395.58 222.198 1394.63 202.729 1366.84 187.403C1339.06 172.077 1292.91 173.207 1277.53 146.917C1270.49 136.051 1257.77 101.804 1272.02 87.5028M1356.5 76.3766C1357 76.1028 1365.5 67.9674 1365.5 67.9674C1365.5 67.9674 1369.07 63.8963 1371.33 60.9796M1371.33 60.9796L1373 58.5689M1371.33 60.9796C1372.11 59.9612 1372.74 59.0835 1373 58.5689M1260.05 1.69785H1242.01M1260.05 1.69785H1327.47M1242.01 1.69785H1229.04M1242.01 1.69785C1239.21 3.1537 1236.42 4.63707 1233.64 6.11686M1229.04 1.69785C1222.6 4.70298 1216.07 7.7024 1209.39 10.3541C1198.81 14.5605 1191.9 16.489 1176.32 19.2926C1118.39 29.7103 1083.41 23.9867 1040.07 1.69785M1229.04 1.69785H1040.07M1366.06 1.69785C1368.96 18.6348 1364.33 31.1599 1359.56 42.4033C1353.33 57.0662 1335.88 87.4122 1308.4 84.3476C1275.15 80.6397 1267.51 48.3459 1270.04 33.9921C1272.57 19.6383 1279.13 1.71581 1299.66 6.88136C1320.2 12.0469 1309.75 41.1119 1303.21 36.2013L1299.35 32.6339C1293.42 24.3057 1279.99 37.4451 1288.59 51.6463C1295.47 63.0071 1308.4 62.2193 1308.4 62.2193C1313.24 62.7589 1323.71 62.4742 1331.04 50.804C1340.68 35.4405 1338.46 15.5522 1327.47 1.69785M1366.06 1.69785H1327.47M1366.06 1.69785H1387.69C1389.8 19.7283 1385.21 39.0593 1373 58.5689M1327.47 1.69785C1327.15 1.29334 1326.82 0.893965 1326.49 0.5M866.002 1.69785L780.058 1.71352M1202.04 21.2901L1202.06 21.2813M1202.04 21.2901C1202.04 21.2871 1202.05 21.2842 1202.06 21.2813M1233.64 6.11686L1233.64 6.11921L1233.63 6.11986M1233.64 6.11686C1233.64 6.11784 1233.64 6.11888 1233.63 6.11986M1233.63 6.11986C1223.89 11.3024 1214.22 16.4411 1204.76 20.201C1203.85 20.5623 1202.98 20.9123 1202.13 21.2519C1202.11 21.2613 1202.08 21.2706 1202.06 21.2798L1202.06 21.2813M721.394 25.9396V1.71352H672.289M721.394 25.9396C721.394 25.9396 673.143 4.54236 639.26 2.51925C596.304 -0.0454786 557.768 18.5606 529.983 39.3609C502.198 60.1612 446.115 99.0699 446.115 99.0699C446.115 99.0699 398.563 133.027 367.903 143.934C346.192 151.657 328.488 151.768 305.186 151.837C281.884 151.906 240.115 139.67 228.144 127.345C211.425 110.132 211.275 97.0092 212.612 85.1598C213.949 73.3104 227.453 49.4047 253.333 46.5186C284.646 43.0267 294.522 63.6775 296.452 74.6132C298.383 85.5488 297.709 99.8356 277.524 99.8956C257.339 99.9555 258.264 76.8209 265.652 79.1831L270.216 81.0636C278.064 86.0295 286.388 73.9504 274.386 65.1997C264.785 58.1992 253.262 61.1833 253.262 61.1833C248.705 61.6915 239.27 63.8504 236.057 73.722C229.6 93.558 251.357 115.932 280.282 115.518C285.248 115.447 301.915 113.955 310.063 103.701M721.394 25.9396C721.394 25.9396 676.58 7.82955 643.511 8.63354C630.16 8.95815 585.495 8.63354 545.481 37.0263C505.467 65.4191 418.944 137.885 366.29 156.582C327.856 170.23 289.224 169.163 257.659 160.218M721.394 25.9396C705.593 14.7032 688.9 6.89296 672.289 1.71352M721.394 25.9396C704.448 14.4464 684.08 6.39319 662.944 1.71352M45.8484 367.5C83.3318 391 108.929 332.77 119.16 298.871C126.997 272.903 134.543 256.987 144.299 239.457C161.285 208.934 183.992 191.084 194.576 185.3C205.161 179.516 217.069 171.584 244.193 177.894C271.317 184.203 283.886 205.28 283.886 233.147C283.886 266.863 258.085 273.633 244.193 273.633C230.3 273.633 209.792 266.272 214.423 246.292C219.054 226.312 242.208 228.415 238.9 242.086C235.592 255.756 245.516 260.488 258.085 249.447C268.141 240.613 266.024 227.889 266.024 227.889C266.024 227.889 264.645 212.617 252.793 207.383C228.977 196.867 198.079 215.671 194.576 246.292M45.8484 367.5C77.5 383 93.4481 314.256 108.23 276.779M45.8484 367.5C98.6006 419.803 170.496 318.325 176.053 308.335C181.611 298.345 199.961 273.633 199.961 273.633M45.8484 367.5C98.6006 433 189.946 308.335 208.241 282.572M108.23 276.779C125.413 233.218 148.414 203.106 163.705 185.3M108.23 276.779C109.364 273.904 110.524 271.088 111.704 268.33M108.23 276.779C98.7406 295.566 78.8116 311.436 59.8037 314.645C37.9998 318.325 16.6189 313.384 6.03446 293.087C0.74113 282.937 -1.9113 261.61 3.38797 241.394C13.2253 203.867 96.7027 98.0345 75.5 66.4835L71.6751 60.9796M108.23 276.779C109.626 274.015 110.796 271.189 111.704 268.33M163.705 185.3C184.644 160.918 218.486 149.64 250.985 158.176M163.705 185.3C149.423 201.931 128.415 229.297 111.704 268.33M250.985 158.176C241.88 155.18 233.452 151.527 225.891 147.398C191.174 128.436 186.198 71.8361 200.752 52.5684C215.306 33.3007 236.351 28.3771 245.426 28.0731C249.663 27.6006 257.542 27.6543 266.62 29.1942M250.985 158.176C253.171 158.895 255.397 159.576 257.659 160.218M250.985 158.176C253.217 158.762 255.444 159.442 257.659 160.218M208.241 282.572C219.106 291.305 231.393 295.468 248.824 294.139C297.117 290.458 308.363 239.982 308.363 225.786C309.245 216.146 305.219 191.563 284.769 175.31C276.159 168.466 267.006 163.49 257.659 160.218M208.241 282.572C207.203 281.737 206.177 280.86 205.161 279.943C203.16 278.135 201.516 276.11 200.169 273.969M194.576 246.292C194.084 250.599 193.688 263.373 199.961 273.633M194.576 246.292C194.078 250.646 193.679 263.654 200.169 273.969M266.62 29.1942C285.789 32.4455 310.306 42.3227 317.18 67.8613M266.62 29.1942C267.8 29.3943 269.001 29.6196 270.216 29.8722M266.62 29.1942C267.76 29.4198 268.956 29.6455 270.216 29.8722M266.62 29.1942C254.916 26.8771 249.14 24.564 240.966 21.2901M266.62 29.1942C254.905 26.875 249.13 24.5599 240.944 21.2813M317.18 67.8613C320.062 78.5681 319.331 87.1121 315.659 94.882M317.18 67.8613C310.73 43.8949 288.741 33.7211 270.216 29.8722M315.659 94.882C314.228 97.912 312.349 100.824 310.063 103.701M315.659 94.882C316.082 95.2902 323.504 102.352 334.164 105.905C354.672 112.741 387.088 112.215 422.812 92.7604M315.659 94.882C315.647 94.8698 315.641 94.8636 315.641 94.8636M310.063 103.701C310.063 103.701 319.876 110.132 330.856 113.792C351.364 120.627 386.426 120.101 413.527 106.956C440.628 93.8116 466.961 71.119 494.921 50.6967C516.304 35.0788 533.092 22.0412 551.153 11.788C558.683 7.51313 567.43 4.14648 577 1.69785M199.961 273.633C200.029 273.745 200.099 273.858 200.169 273.969M672.289 1.71352H662.944M558.562 1.69785C556.105 2.57753 553.85 3.49263 551.815 4.42719M558.562 1.69785H418.229M558.562 1.69785H577M558.562 1.69785H76.9441M551.815 4.42719C536.293 11.5547 511.6 29.9737 486.456 48.7296C463.374 65.9474 439.91 83.4491 422.812 92.7604M551.815 4.42719C522.045 18.0978 458.536 73.3061 422.812 92.7604M270.216 29.8722C333.659 41.2827 368.732 29.698 418.229 1.69785M418.229 1.69785H402.935M418.229 1.69785H76.9441M164.808 90.8637C172.016 87.2275 180.52 82.0469 186.861 74.9795M164.808 90.8637C156.15 95.2312 148.089 97.3708 143.559 97.876C134.213 99.8474 112.758 100.664 93 81.3232C91.9894 80.3338 89 77.7457 86.5 76.3766M164.808 90.8637C166.792 89.8628 168.874 88.7448 170.982 87.5028M186.861 74.9795C186.861 74.9795 203.56 110.895 188.183 137.185C181.977 147.794 168.777 164.361 141.653 171.722C114.53 179.083 105.93 179.083 94.0218 181.712C82.1138 184.341 68.2296 192.659 61.5274 200.76M186.861 74.9795C196.44 64.3015 199.788 57.6363 197.68 37.1624C196.116 21.9654 190.899 10.9158 182.952 1.69785M186.861 74.9795C182.265 80.1015 176.533 84.2325 170.982 87.5028M61.5274 200.76C56.1026 205.894 49.6332 215.728 47.4236 222.198M61.5274 200.76C69.6439 193.105 78.9795 191.09 90.7063 194.742C120.361 203.976 118.785 246.037 111.704 268.33M47.4236 222.198C46.629 224.525 46.118 226.451 45.8484 227.637C39.9126 253.767 54.5031 273.471 72.4124 267.682C81.3251 264.801 84.9615 256.282 86.2688 252.166C86.2688 252.166 89.1918 233.435 86.9759 233.074C84.7599 232.714 83.3317 234.817 76.1599 242.178C68.9882 249.539 54.4885 248.398 58.4383 230.163C62.3881 211.929 74.519 211.352 83.3318 213.12C92.1446 214.888 107.583 223.855 98.6006 252.135C91.1766 275.509 68.4877 287.655 58.2762 288.836C48.0646 290.017 37.1277 290.025 25.8411 274.711C10.3833 253.738 39.7742 198.012 39.7742 198.012C39.7742 198.012 86.5 111.71 86.5 76.3766M47.4236 222.198C47.4236 222.198 48.3736 202.729 76.1587 187.403C103.944 172.077 150.091 173.207 165.468 146.917C172.509 136.051 185.234 101.804 170.982 87.5028M86.5 76.3766C86 76.1028 77.5 67.9674 77.5 67.9674C77.5 67.9674 73.9311 63.8963 71.6751 60.9796M71.6751 60.9796L70 58.5689M71.6751 60.9796C70.8874 59.9612 70.2598 59.0835 70 58.5689M182.952 1.69785H200.996M182.952 1.69785H115.529M200.996 1.69785H213.961M200.996 1.69785C203.79 3.1537 206.579 4.63707 209.362 6.11686M213.961 1.69785C220.402 4.70298 226.935 7.7024 233.608 10.3541C244.193 14.5605 251.098 16.489 266.686 19.2926C324.608 29.7103 359.595 23.9867 402.935 1.69785M213.961 1.69785H402.935M76.9441 1.69785C74.045 18.6348 78.6678 31.1599 83.4444 42.4033C89.6736 57.0662 107.12 87.4122 134.602 84.3476C167.851 80.6397 175.496 48.3459 172.962 33.9921C170.428 19.6383 163.871 1.71581 143.338 6.88136C122.805 12.0469 133.255 41.1119 139.79 36.2013L143.654 32.6339C149.586 24.3057 163.009 37.4451 154.413 51.6463C147.536 63.0071 134.602 62.2193 134.602 62.2193C129.762 62.7589 119.289 62.4742 111.966 50.804C102.326 35.4405 104.542 15.5522 115.529 1.69785M76.9441 1.69785H115.529M76.9441 1.69785H55.3089C53.1973 19.7283 57.7891 39.0593 70 58.5689M115.529 1.69785C115.849 1.29334 116.178 0.893965 116.513 0.5M577 1.69785L662.944 1.71352M240.966 21.2901L240.944 21.2813M240.966 21.2901C240.958 21.2871 240.951 21.2842 240.944 21.2813M209.362 6.11686L209.367 6.11921L209.368 6.11986M209.362 6.11686C209.364 6.11784 209.366 6.11888 209.368 6.11986M209.368 6.11986C219.114 11.3024 228.778 16.4411 238.239 20.201C239.148 20.5623 240.022 20.9123 240.87 21.2519C240.894 21.2613 240.917 21.2706 240.94 21.2798L240.944 21.2813" stroke="black" stroke-linecap="round" stroke-linejoin="round"/>
</svg>
