<svg width="1545" height="489" viewBox="0 0 1545 489" fill="none" xmlns="http://www.w3.org/2000/svg">
<g filter="url(#filter0_d_264_105)">
<path d="M1219.92 111.901C1207.91 120.679 1216.24 132.796 1224.1 127.815L1228.66 125.928C1236.06 123.559 1236.98 146.765 1216.78 146.705C1196.59 146.645 1195.91 132.314 1197.84 121.344C1199.77 110.374 1209.66 89.6592 1240.99 93.162C1266.89 96.057 1280.4 120.037 1281.74 131.923C1283.08 143.81 1282.93 156.973 1266.2 174.24C1254.22 186.604 1212.42 198.878 1189.1 198.809C1165.79 198.739 1148.07 198.628 1126.34 190.881C1095.66 179.94 1048.08 145.877 1048.08 145.877C1048.08 145.877 991.955 106.847 964.15 85.982C936.346 65.1169 897.783 46.4528 854.798 49.0255C820.891 51.0549 772.608 72.5188 772.608 72.5188C772.608 72.5188 817.452 54.3524 850.544 55.1589C863.904 55.4845 908.6 55.1589 948.642 83.6401C988.683 112.121 1075.27 184.813 1127.96 203.568C1166.42 217.258 1205.08 216.188 1236.66 207.215C1238.93 206.572 1241.15 205.888 1243.34 205.167C1252.45 202.162 1260.89 198.497 1268.45 194.355C1303.19 175.335 1308.17 118.558 1293.61 99.2306C1279.04 79.9029 1257.99 74.9639 1248.9 74.659C1244.66 74.185 1236.78 74.2389 1227.7 75.7835C1208.51 79.045 1183.98 88.9529 1177.1 114.571C1174.22 125.311 1174.95 133.882 1178.62 141.676C1180.05 144.715 1181.93 147.637 1184.22 150.522C1192.38 160.809 1209.05 162.305 1214.02 162.376C1242.97 162.792 1264.74 140.348 1258.28 120.45C1255.06 110.548 1245.62 108.382 1241.06 107.872C1241.06 107.872 1229.53 104.879 1219.92 111.901Z" fill="#7D6781"/>
<path fill-rule="evenodd" clip-rule="evenodd" d="M772.608 48.2173V72.5188C788.419 61.2475 805.124 53.4129 821.746 48.2173H772.608ZM935.552 48.2016C938.01 49.084 940.267 50.002 942.304 50.9394C957.836 58.0892 982.546 76.5655 1007.71 95.3798C1030.81 112.651 1054.29 130.207 1071.4 139.548C1107.14 159.063 1139.58 159.59 1160.1 152.734C1170.77 149.169 1178.2 142.085 1178.62 141.676C1174.95 133.882 1174.22 125.311 1177.1 114.571C1183.56 90.5301 1205.56 80.3246 1224.1 76.4636C1160.61 87.9097 1125.51 76.289 1075.98 48.2016H935.552Z" fill="#715B74"/>
<path fill-rule="evenodd" clip-rule="evenodd" d="M1323.4 134.274C1325.51 135.52 1327.59 136.641 1329.58 137.645C1338.24 142.026 1346.31 144.173 1350.84 144.679C1360.19 146.657 1381.66 147.476 1401.44 128.075C1402.45 127.082 1405.44 124.486 1407.94 123.113C1407.94 158.556 1454.7 245.127 1454.7 245.127C1454.7 245.127 1484.11 301.027 1468.64 322.066C1457.35 337.427 1446.4 337.419 1436.18 336.234C1425.97 335.049 1403.26 322.865 1395.83 299.419C1386.84 271.051 1402.29 262.056 1411.11 260.282C1419.93 258.508 1432.07 259.087 1436.02 277.379C1439.97 295.67 1425.46 296.815 1418.29 289.431C1416.96 288.061 1415.82 286.873 1414.85 285.849C1410.55 281.349 1409.27 280.004 1407.46 280.299C1405.25 280.66 1408.17 299.45 1408.17 299.45C1409.48 303.579 1413.12 312.124 1422.04 315.014C1439.96 320.821 1454.56 301.056 1448.62 274.845C1448.35 273.654 1447.84 271.723 1447.04 269.389C1447.04 269.389 1446.09 249.859 1418.29 234.485C1407.87 228.723 1394.87 225.28 1381.87 221.839C1360.2 216.098 1338.54 210.362 1328.92 193.873C1321.87 182.973 1309.14 148.62 1323.4 134.274Z" fill="#715B74"/>
<path d="M1407.46 280.299C1405.25 280.66 1408.17 299.45 1408.17 299.45C1409.48 303.579 1413.12 312.124 1422.04 315.014C1439.96 320.821 1454.56 301.056 1448.62 274.845C1448.35 273.654 1447.84 271.723 1447.04 269.389C1444.83 262.898 1438.36 253.034 1432.93 247.883C1424.81 240.205 1415.47 238.184 1403.73 241.847C1374.06 251.109 1375.63 293.301 1382.72 315.664C1383.9 318.431 1385.06 321.256 1386.19 324.14C1395.69 342.985 1415.63 358.905 1434.66 362.123C1456.47 365.815 1477.87 360.858 1488.46 340.498C1493.76 330.317 1496.41 308.923 1491.11 288.645C1481.27 251 1397.73 144.838 1418.95 113.189L1422.78 107.668C1420.52 110.594 1416.95 114.678 1416.95 114.678C1416.95 114.678 1408.44 122.838 1407.94 123.113C1407.94 158.556 1454.7 245.127 1454.7 245.127C1454.7 245.127 1484.11 301.027 1468.64 322.066C1457.35 337.427 1446.4 337.419 1436.18 336.234C1425.97 335.049 1403.26 322.865 1395.83 299.419C1386.84 271.051 1402.29 262.056 1411.11 260.282C1419.93 258.508 1432.07 259.087 1436.02 277.379C1439.97 295.67 1425.46 296.815 1418.29 289.431C1411.11 282.047 1409.68 279.937 1407.46 280.299Z" fill="#7D6781"/>
<path fill-rule="evenodd" clip-rule="evenodd" d="M1280.39 48.2016H1293.36C1290.57 49.662 1287.78 51.15 1284.99 52.6344C1275.24 57.8329 1265.56 62.9909 1256.1 66.7623C1255.19 67.1248 1254.31 67.4759 1253.46 67.8166L1253.39 67.846L1253.37 67.8543C1245.19 71.1384 1239.41 73.4592 1227.7 75.7835C1226.51 75.9843 1225.31 76.2103 1224.1 76.4636C1160.61 87.9097 1125.51 76.289 1075.98 48.2016H1091.29C1134.66 70.5598 1169.67 76.3012 1227.63 65.8511C1243.23 63.0388 1250.14 61.1043 1260.73 56.8848C1267.41 54.2248 1273.95 51.2161 1280.39 48.2016Z" fill="#7D6781"/>
<path d="M1339.98 98.3056C1331.38 84.0602 1344.81 70.8799 1350.75 79.234L1354.61 82.8125C1361.15 87.7384 1371.61 58.5829 1351.06 53.4012C1330.52 48.2196 1323.95 66.1979 1321.42 80.5964C1318.88 94.9949 1326.53 127.389 1359.81 131.109C1387.31 134.183 1404.76 103.742 1411 89.0338C1415.78 77.7554 1420.4 65.1913 1417.5 48.2016H1378.89C1389.89 62.0991 1392.1 82.0493 1382.46 97.4607C1375.13 109.167 1364.65 109.453 1359.81 108.911C1359.81 108.911 1346.86 109.702 1339.98 98.3056Z" fill="#715B74"/>
<path d="M1311.42 48.2016C1303.47 57.4482 1298.25 68.5323 1296.68 83.7766C1294.57 104.314 1297.92 111 1307.51 121.711C1312.11 126.849 1317.84 130.993 1323.4 134.274C1325.51 135.52 1327.59 136.641 1329.58 137.645C1338.24 142.026 1346.31 144.173 1350.84 144.679C1360.19 146.657 1381.66 147.476 1401.44 128.075C1402.45 127.082 1405.44 124.486 1407.94 123.113C1408.44 122.838 1416.95 114.678 1416.95 114.678C1416.95 114.678 1420.52 110.594 1422.78 107.668L1424.45 105.25C1436.67 85.6794 1441.27 66.2882 1439.15 48.2016H1417.5C1420.4 65.1913 1415.78 77.7554 1411 89.0338C1404.76 103.742 1387.31 134.183 1359.81 131.109C1326.53 127.389 1318.88 94.9949 1321.42 80.5964C1323.95 66.1979 1330.52 48.2196 1351.06 53.4012C1371.61 58.5829 1361.15 87.7384 1354.61 82.8125L1350.75 79.234C1344.81 70.8799 1331.38 84.0602 1339.98 98.3056C1346.86 109.702 1359.81 108.911 1359.81 108.911C1364.65 109.453 1375.13 109.167 1382.46 97.4607C1392.1 82.0493 1389.89 62.0991 1378.89 48.2016H1311.42Z" fill="#7D6781"/>
<path d="M1227.63 65.8511C1243.23 63.0388 1250.14 61.1043 1260.73 56.8848C1267.41 54.2248 1273.95 51.2161 1280.39 48.2016H1091.29C1134.66 70.5598 1169.67 76.3012 1227.63 65.8511Z" fill="#715B74"/>
<path d="M1184.22 150.522C1181.93 147.637 1180.05 144.715 1178.62 141.676C1178.2 142.085 1170.77 149.169 1160.1 152.734C1139.58 159.59 1107.14 159.063 1071.4 139.548C1054.29 130.207 1030.81 112.651 1007.71 95.3798C982.546 76.5655 957.836 58.0892 942.304 50.9394C940.267 50.002 938.01 49.084 935.552 48.2016H917.101C926.678 50.6578 935.43 54.035 942.966 58.3231C961.039 68.6083 977.839 81.6865 999.237 97.353C1027.22 117.839 1053.57 140.602 1080.69 153.788C1107.81 166.974 1142.89 167.501 1163.42 160.645C1174.4 156.974 1184.22 150.522 1184.22 150.522Z" fill="#7D6781"/>
<path d="M1224.1 127.815C1216.24 132.796 1207.91 120.679 1219.92 111.901C1229.53 104.879 1241.06 107.872 1241.06 107.872C1245.62 108.382 1255.06 110.548 1258.28 120.45C1264.74 140.348 1242.97 162.792 1214.02 162.376C1209.05 162.305 1192.38 160.809 1184.22 150.522C1184.22 150.522 1174.4 156.974 1163.42 160.645C1142.89 167.501 1107.81 166.974 1080.69 153.788C1053.57 140.602 1027.22 117.839 999.237 97.353C977.839 81.6865 961.039 68.6083 942.966 58.3231C935.43 54.035 926.678 50.6578 917.101 48.2016L831.097 48.2173C809.947 52.9115 789.565 60.9898 772.608 72.5188C772.608 72.5188 820.891 51.0549 854.798 49.0255C897.783 46.4528 936.346 65.1169 964.15 85.982C991.955 106.847 1048.08 145.877 1048.08 145.877C1048.08 145.877 1095.66 179.94 1126.34 190.881C1148.07 198.628 1165.79 198.739 1189.1 198.809C1212.42 198.878 1254.22 186.604 1266.2 174.24C1282.93 156.973 1283.08 143.81 1281.74 131.923C1280.4 120.037 1266.89 96.057 1240.99 93.162C1209.66 89.6592 1199.77 110.374 1197.84 121.344C1195.91 132.314 1196.59 146.645 1216.78 146.705C1236.98 146.765 1236.06 123.559 1228.66 125.928L1224.1 127.815Z" fill="#715B74"/>
<path d="M772.608 72.5188C789.565 60.9898 809.947 52.9115 831.097 48.2173H821.746C805.124 53.4129 788.419 61.2475 772.608 72.5188Z" fill="#7D6781"/>
<path d="M1255.43 289.338C1258.74 303.051 1248.81 307.798 1236.24 296.722C1226.17 287.861 1228.29 275.097 1228.29 275.097C1228.29 275.097 1229.67 259.777 1241.53 254.528C1265.36 243.979 1296.28 262.841 1299.79 293.557C1300.28 297.878 1300.68 310.692 1294.4 320.984C1294.4 320.984 1312.76 345.773 1318.33 355.794C1323.89 365.815 1395.83 467.609 1448.62 415.143C1411.11 438.716 1385.5 380.305 1375.26 346.3C1367.42 320.251 1359.86 304.285 1350.1 286.701C1333.1 256.083 1310.38 238.177 1299.79 232.375C1289.2 226.574 1277.28 218.617 1250.14 224.946C1223 231.275 1210.42 252.418 1210.42 280.372C1210.42 314.193 1236.24 320.984 1250.14 320.984C1264.04 320.984 1284.56 313.6 1279.93 293.557C1275.29 273.515 1252.12 275.625 1255.43 289.338Z" fill="#715B74"/>
<path d="M1236.24 296.722C1248.81 307.798 1258.74 303.051 1255.43 289.338C1252.12 275.625 1275.29 273.515 1279.93 293.557C1284.56 313.6 1264.04 320.984 1250.14 320.984C1236.24 320.984 1210.42 314.193 1210.42 280.372C1210.42 252.418 1223 231.275 1250.14 224.946C1277.28 218.617 1289.2 226.574 1299.79 232.375C1310.38 238.177 1333.1 256.083 1350.1 286.701C1359.86 304.285 1367.42 320.251 1375.26 346.3C1385.5 380.305 1411.11 438.716 1448.62 415.143C1416.95 430.691 1400.99 361.734 1386.19 324.14C1384.8 321.367 1383.63 318.532 1382.72 315.664C1366 276.51 1344.97 249.058 1330.68 232.375C1309.73 207.917 1275.86 196.604 1243.34 205.167C1241.15 205.888 1238.93 206.572 1236.66 207.215C1227.31 210.498 1218.15 215.49 1209.53 222.354C1189.07 238.658 1185.04 263.318 1185.92 272.988C1185.92 287.228 1197.18 337.862 1245.5 341.554C1262.95 342.886 1275.24 338.71 1286.11 329.95C1287.15 329.113 1288.18 328.233 1289.2 327.313C1291.2 325.5 1292.84 323.469 1294.19 321.321C1294.26 321.209 1294.33 321.096 1294.4 320.984C1300.68 310.692 1300.28 297.878 1299.79 293.557C1296.28 262.841 1265.36 243.979 1241.53 254.528C1229.67 259.777 1228.29 275.097 1228.29 275.097C1228.29 275.097 1226.17 287.861 1236.24 296.722Z" fill="#7D6781"/>
<path d="M1289.2 327.313C1288.18 328.233 1287.15 329.113 1286.11 329.95C1304.42 355.794 1395.83 480.847 1448.62 415.143C1395.83 467.609 1323.89 365.815 1318.33 355.794C1312.76 345.773 1294.4 320.984 1294.4 320.984C1294.33 321.096 1294.26 321.209 1294.19 321.321C1292.84 323.469 1291.2 325.5 1289.2 327.313Z" fill="#7D6781"/>
<path d="M325.076 111.901C337.085 120.679 328.756 132.796 320.903 127.815L316.335 125.928C308.942 123.559 308.016 146.765 328.215 146.705C348.415 146.645 349.089 132.314 347.157 121.344C345.225 110.374 335.343 89.6592 304.008 93.162C278.11 96.057 264.597 120.037 263.259 131.923C261.921 143.81 262.071 156.973 278.802 174.24C290.781 186.604 332.579 198.878 355.897 198.809C379.215 198.739 396.931 198.628 418.657 190.881C449.338 179.94 496.923 145.877 496.923 145.877C496.923 145.877 553.045 106.847 580.85 85.982C608.654 65.1169 647.217 46.4528 690.202 49.0255C724.109 51.0549 772.393 72.5188 772.393 72.5188C772.393 72.5188 727.548 54.3524 694.456 55.1589C681.096 55.4845 636.4 55.1589 596.358 83.6401C556.317 112.121 469.734 184.813 417.043 203.568C378.583 217.258 339.924 216.188 308.337 207.215C306.074 206.572 303.846 205.888 301.658 205.167C292.548 202.162 284.113 198.497 276.547 194.355C241.806 175.335 236.827 118.558 251.391 99.2306C265.955 79.9029 287.014 74.9639 296.095 74.659C300.335 74.185 308.22 74.2389 317.304 75.7835C318.428 75.9746 319.571 76.1886 320.727 76.4271C320.785 76.4392 320.844 76.4514 320.903 76.4636C339.441 80.3246 361.444 90.5301 367.899 114.571C370.783 125.311 370.052 133.882 366.378 141.676C364.945 144.715 363.065 147.637 360.778 150.522C352.624 160.809 335.946 162.305 330.975 162.376C302.03 162.792 280.259 140.348 286.72 120.45C289.936 110.548 299.377 108.382 303.937 107.872C303.937 107.872 315.468 104.879 325.076 111.901Z" fill="#7D6781"/>
<path fill-rule="evenodd" clip-rule="evenodd" d="M772.393 48.2173V72.5188C756.581 61.2475 739.876 53.4129 723.254 48.2173H772.393ZM609.448 48.2016C606.99 49.084 604.733 50.002 602.696 50.9394C587.164 58.0892 562.454 76.5655 537.292 95.3798C514.194 112.651 490.714 130.207 473.604 139.548C437.856 159.063 405.417 159.59 384.895 152.734C374.227 149.169 366.801 142.085 366.378 141.676C370.052 133.882 370.783 125.311 367.899 114.571C361.444 90.5301 339.441 80.3246 320.903 76.4636C384.389 87.9097 419.487 76.289 469.018 48.2016H609.448Z" fill="#715B74"/>
<path d="M137.536 280.299C139.753 280.66 136.828 299.45 136.828 299.45C135.52 303.579 131.881 312.124 122.962 315.014C105.041 320.821 90.4399 301.056 96.3798 274.845C96.6496 273.654 97.161 271.723 97.9561 269.389C100.167 262.898 106.641 253.034 112.07 247.883C120.192 240.205 129.534 238.184 141.269 241.847C170.944 251.109 169.367 293.301 162.281 315.664C161.1 318.431 159.94 321.256 158.805 324.14C149.309 342.985 129.366 358.905 110.345 362.123C88.5258 365.815 67.1301 360.858 56.5383 340.498C51.2413 330.317 48.587 308.923 53.89 288.645C63.7341 251 147.269 144.838 126.052 113.189L122.224 107.668C124.482 110.594 128.053 114.678 128.053 114.678C128.053 114.678 136.559 122.838 137.06 123.113C137.06 158.556 90.3014 245.127 90.3014 245.127C90.3014 245.127 60.8901 301.027 76.3586 322.066C87.6531 337.427 98.5975 337.419 108.816 336.234C119.035 335.049 141.739 322.865 149.169 299.419C158.157 271.051 142.708 262.056 133.889 260.282C125.07 258.508 112.931 259.087 108.978 277.379C105.026 295.67 119.536 296.815 126.712 289.431C128.043 288.062 129.177 286.874 130.154 285.849C134.446 281.349 135.729 280.004 137.536 280.299Z" fill="#7D6781"/>
<path fill-rule="evenodd" clip-rule="evenodd" d="M317.304 75.7835C318.428 75.9746 319.571 76.1886 320.727 76.4271L320.903 76.4636C384.389 87.9097 419.487 76.289 469.018 48.2016H453.714C410.344 70.5598 375.332 76.3012 317.37 65.8511C301.772 63.0388 294.862 61.1043 284.27 56.8848C277.592 54.2248 271.054 51.2161 264.609 48.2016H251.635C253.26 49.0678 255.159 50.1812 257.363 51.4737C268.387 57.9377 287.05 68.8804 317.304 75.7835Z" fill="#7D6781"/>
<path d="M205.019 98.3056C213.621 84.0602 200.189 70.8799 194.253 79.234L190.386 82.8125C183.847 87.7384 173.389 58.5829 193.937 53.4012C214.484 48.2196 221.046 66.1979 223.581 80.5964C226.117 94.9949 218.467 127.389 185.194 131.109C157.694 134.183 140.235 103.742 134.002 89.0338C129.222 77.7554 124.596 65.1913 127.497 48.2016H166.108C155.114 62.0991 152.896 82.0493 162.543 97.4607C169.871 109.167 180.352 109.453 185.194 108.911C185.194 108.911 198.137 109.702 205.019 98.3056Z" fill="#715B74"/>
<path d="M233.578 48.2016C241.531 57.4482 246.751 68.5323 248.317 83.7766C250.426 104.314 247.076 111 237.49 121.711C232.891 126.849 227.155 130.993 221.6 134.274C219.49 135.52 217.407 136.641 215.421 137.645C206.758 142.026 198.691 144.173 194.158 144.679C184.806 146.657 163.336 147.476 143.564 128.075C142.553 127.082 139.561 124.486 137.06 123.113C136.559 122.838 128.053 114.678 128.053 114.678C128.053 114.678 124.482 110.594 122.224 107.668L120.548 105.25C108.329 85.6794 103.734 66.2882 105.847 48.2016H127.497C124.596 65.1913 129.222 77.7554 134.002 89.0338C140.235 103.742 157.694 134.183 185.194 131.109C218.467 127.389 226.117 94.9949 223.581 80.5964C221.046 66.1979 214.484 48.2196 193.937 53.4012C173.389 58.5829 183.847 87.7384 190.386 82.8125L194.253 79.234C200.189 70.8799 213.621 84.0602 205.019 98.3056C198.137 109.702 185.194 108.911 185.194 108.911C180.352 109.453 169.871 109.167 162.543 97.4607C152.896 82.0493 155.114 62.0991 166.108 48.2016H233.578Z" fill="#7D6781"/>
<path d="M317.37 65.8511C301.772 63.0388 294.862 61.1043 284.27 56.8848C277.592 54.2248 271.054 51.2161 264.609 48.2016H453.714C410.344 70.5598 375.332 76.3012 317.37 65.8511Z" fill="#715B74"/>
<path d="M360.778 150.522C363.065 147.637 364.945 144.715 366.378 141.676C366.801 142.085 374.227 149.169 384.895 152.734C405.417 159.59 437.856 159.063 473.604 139.548C490.714 130.207 514.194 112.651 537.292 95.3798C562.454 76.5655 587.164 58.0892 602.696 50.9394C604.733 50.002 606.99 49.084 609.448 48.2016H627.899C618.322 50.6578 609.57 54.035 602.034 58.3231C583.961 68.6083 567.161 81.6865 545.763 97.353C517.783 117.839 491.432 140.602 464.313 153.788C437.194 166.974 402.107 167.501 381.585 160.645C370.598 156.974 360.778 150.522 360.778 150.522Z" fill="#7D6781"/>
<path d="M320.903 127.815C328.756 132.796 337.085 120.679 325.076 111.901C315.468 104.879 303.937 107.872 303.937 107.872C299.377 108.382 289.936 110.548 286.72 120.45C280.259 140.348 302.03 162.792 330.975 162.376C335.946 162.305 352.624 160.809 360.778 150.522C360.778 150.522 370.598 156.974 381.585 160.645C402.107 167.501 437.194 166.974 464.313 153.788C491.432 140.602 517.783 117.839 545.763 97.353C567.161 81.6865 583.961 68.6083 602.034 58.3231C609.57 54.035 618.322 50.6578 627.899 48.2016L713.903 48.2173C735.053 52.9115 755.435 60.9898 772.393 72.5188C772.393 72.5188 724.109 51.0549 690.202 49.0255C647.217 46.4528 608.654 65.1169 580.85 85.982C553.045 106.847 496.923 145.877 496.923 145.877C496.923 145.877 449.338 179.94 418.657 190.881C396.931 198.628 379.215 198.739 355.897 198.809C332.579 198.878 290.781 186.604 278.802 174.24C262.071 156.973 261.921 143.81 263.259 131.923C264.597 120.037 278.11 96.057 304.008 93.162C335.343 89.6592 345.225 110.374 347.157 121.344C349.089 132.314 348.415 146.645 328.215 146.705C308.016 146.765 308.942 123.559 316.335 125.928L320.903 127.815Z" fill="#715B74"/>
<path d="M772.393 72.5188C755.435 60.9898 735.053 52.9115 713.903 48.2173H723.254C739.876 53.4129 756.581 61.2475 772.393 72.5188Z" fill="#7D6781"/>
<path d="M289.565 289.338C286.255 303.051 296.185 307.798 308.764 296.722C318.826 287.861 316.708 275.097 316.708 275.097C316.708 275.097 315.328 259.777 303.467 254.528C279.635 243.979 248.716 262.841 245.211 293.557C244.718 297.878 244.322 310.692 250.599 320.984C250.599 320.984 232.236 345.773 226.675 355.794C221.113 365.815 149.169 467.609 96.3798 415.143C133.889 438.716 159.504 380.305 169.742 346.3C177.585 320.251 185.135 304.285 194.898 286.701C211.897 256.083 234.619 238.177 245.211 232.375C255.803 226.574 267.719 218.617 294.862 224.946C322.004 231.275 334.582 252.418 334.582 280.372C334.582 314.193 308.764 320.984 294.862 320.984C280.959 320.984 260.437 313.6 265.071 293.557C269.705 273.515 292.876 275.625 289.565 289.338Z" fill="#715B74"/>
<path d="M308.764 296.722C296.185 307.798 286.255 303.051 289.565 289.338C292.876 275.625 269.705 273.515 265.071 293.557C260.437 313.6 280.959 320.984 294.862 320.984C308.764 320.984 334.582 314.193 334.582 280.372C334.582 252.418 322.004 231.275 294.862 224.946C267.719 218.617 255.803 226.574 245.211 232.375C234.619 238.177 211.897 256.083 194.898 286.701C185.135 304.285 177.585 320.251 169.742 346.3C159.504 380.305 133.889 438.716 96.3798 415.143C128.053 430.691 144.012 361.734 158.805 324.14C160.202 321.367 161.373 318.532 162.281 315.664C179.004 276.51 200.026 249.058 214.318 232.375C235.272 207.917 269.137 196.604 301.658 205.167C303.846 205.888 306.074 206.572 308.337 207.215C317.691 210.498 326.85 215.49 335.466 222.354C355.93 238.658 359.959 263.318 359.076 272.988C359.076 287.228 347.822 337.862 299.496 341.554C282.052 342.886 269.758 338.71 258.885 329.95C257.846 329.113 256.819 328.233 255.803 327.313C253.8 325.5 252.155 323.469 250.807 321.321C250.737 321.209 250.668 321.096 250.599 320.984C244.322 310.692 244.718 297.878 245.211 293.557C248.716 262.841 279.635 243.979 303.467 254.528C315.328 259.777 316.708 275.097 316.708 275.097C316.708 275.097 318.826 287.861 308.764 296.722Z" fill="#7D6781"/>
<path d="M255.803 327.313C256.819 328.233 257.846 329.113 258.885 329.95C240.577 355.794 149.169 480.847 96.3798 415.143C149.169 467.609 221.113 365.815 226.675 355.794C232.236 345.773 250.599 320.984 250.599 320.984C250.668 321.096 250.737 321.209 250.807 321.321C252.155 323.469 253.8 325.5 255.803 327.313Z" fill="#7D6781"/>
<path fill-rule="evenodd" clip-rule="evenodd" d="M215.421 137.645C217.407 136.641 219.49 135.52 221.6 134.274C235.862 148.62 223.128 182.973 216.082 193.873C206.461 210.362 184.803 216.098 163.125 221.839C150.132 225.28 137.131 228.724 126.711 234.485C98.9067 249.859 97.9561 269.389 97.9561 269.389C97.161 271.723 96.6496 273.654 96.3798 274.845C90.4399 301.056 105.041 320.821 122.962 315.014C131.881 312.124 135.52 303.579 136.828 299.45C136.828 299.45 139.753 280.66 137.536 280.299C135.729 280.004 134.446 281.349 130.154 285.849C129.177 286.874 128.043 288.062 126.712 289.431C119.536 296.815 105.026 295.67 108.978 277.379C112.931 259.087 125.07 258.508 133.889 260.282C142.708 262.056 158.157 271.051 149.169 299.419C141.739 322.865 119.035 335.049 108.816 336.234C98.5975 337.419 87.6531 337.427 76.3586 322.066C60.8901 301.027 90.3014 245.127 90.3014 245.127C90.3014 245.127 137.06 158.556 137.06 123.113C139.561 124.486 142.553 127.082 143.564 128.075C163.336 147.476 184.806 146.657 194.158 144.679C198.691 144.173 206.758 142.026 215.421 137.645Z" fill="#715B74"/>
<path d="M112.07 247.883C106.641 253.034 100.167 262.898 97.9561 269.389C97.9561 269.389 98.9067 249.859 126.711 234.485C137.131 228.724 150.132 225.28 163.125 221.839C184.803 216.098 206.461 210.362 216.082 193.873C223.128 182.973 235.862 148.62 221.6 134.274C227.155 130.993 232.891 126.849 237.49 121.711C237.49 121.711 254.201 157.739 238.813 184.111C232.603 194.752 219.393 211.371 192.251 218.755C176.229 223.114 166.666 224.9 159.068 226.174C157.989 226.355 156.95 226.525 155.937 226.692L155.919 226.695C151.99 227.339 148.464 227.918 144.587 228.776C132.67 231.414 118.777 239.758 112.07 247.883Z" fill="#7D6781"/>
<path d="M1307.51 121.711C1312.11 126.849 1317.84 130.993 1323.4 134.274C1309.14 148.62 1321.87 182.973 1328.92 193.873C1338.54 210.362 1360.2 216.098 1381.87 221.839C1394.87 225.28 1407.87 228.723 1418.29 234.485C1446.09 249.859 1447.04 269.389 1447.04 269.389C1444.83 262.898 1438.36 253.034 1432.93 247.883C1426.22 239.758 1412.33 231.414 1400.41 228.776C1396.54 227.918 1393.01 227.34 1389.08 226.695C1380.93 225.358 1371.06 223.737 1352.75 218.755C1325.61 211.371 1312.4 194.752 1306.19 184.111C1290.8 157.739 1307.51 121.711 1307.51 121.711Z" fill="#7D6781"/>
<path d="M276.547 194.355C284.113 198.497 292.548 202.162 301.658 205.167C269.137 196.604 235.272 207.917 214.318 232.375C200.026 249.058 179.004 276.51 162.281 315.664C169.367 293.301 170.944 251.109 141.269 241.847C129.534 238.184 120.192 240.205 112.07 247.883C118.777 239.758 132.67 231.414 144.587 228.776C148.464 227.918 151.99 227.339 155.919 226.695L155.937 226.692C156.95 226.525 157.989 226.355 159.068 226.174C166.666 224.9 176.229 223.114 192.251 218.755C219.393 211.371 232.603 194.752 238.813 184.111C254.201 157.739 237.49 121.711 237.49 121.711C247.076 111 250.426 104.314 248.317 83.7766C246.751 68.5323 241.531 57.4482 233.578 48.2016H251.635C253.26 49.0678 255.159 50.1812 257.363 51.4737C268.387 57.9377 287.05 68.8804 317.304 75.7835C308.22 74.2389 300.335 74.185 296.095 74.659C287.014 74.9639 265.955 79.9029 251.391 99.2306C236.827 118.558 241.806 175.335 276.547 194.355Z" fill="#715B74"/>
<path d="M1243.34 205.167C1252.45 202.162 1260.89 198.497 1268.45 194.355C1303.19 175.335 1308.17 118.558 1293.61 99.2306C1279.04 79.9029 1257.99 74.9639 1248.9 74.659C1244.66 74.185 1236.78 74.2389 1227.7 75.7835C1239.41 73.4592 1245.19 71.1384 1253.37 67.8543L1253.39 67.846L1253.46 67.8166C1254.31 67.4759 1255.19 67.1248 1256.1 66.7623C1265.56 62.9909 1275.24 57.8329 1284.99 52.6344C1287.78 51.15 1290.57 49.662 1293.36 48.2016H1311.42C1303.47 57.4482 1298.25 68.5323 1296.68 83.7766C1294.57 104.314 1297.92 111 1307.51 121.711C1307.51 121.711 1290.8 157.739 1306.19 184.111C1312.4 194.752 1325.61 211.371 1352.75 218.755C1371.06 223.737 1380.93 225.358 1389.08 226.695C1393.01 227.34 1396.54 227.918 1400.41 228.776C1412.33 231.414 1426.22 239.758 1432.93 247.883C1424.81 240.205 1415.47 238.184 1403.73 241.847C1374.06 251.109 1375.63 293.301 1382.72 315.664C1366 276.51 1344.97 249.058 1330.68 232.375C1309.73 207.917 1275.86 196.604 1243.34 205.167Z" fill="#715B74"/>
<path d="M772.608 72.5188C772.608 72.5188 820.891 51.0549 854.798 49.0255C897.783 46.4528 936.346 65.1169 964.15 85.982C991.955 106.847 1048.08 145.877 1048.08 145.877C1048.08 145.877 1095.66 179.94 1126.34 190.881C1148.07 198.628 1165.79 198.739 1189.1 198.809C1212.42 198.878 1254.22 186.604 1266.2 174.24C1282.93 156.973 1283.08 143.81 1281.74 131.923C1280.4 120.037 1266.89 96.057 1240.99 93.162C1209.66 89.6592 1199.77 110.374 1197.84 121.344C1195.91 132.314 1196.59 146.645 1216.78 146.705C1236.98 146.765 1236.06 123.559 1228.66 125.928L1224.1 127.815C1216.24 132.796 1207.91 120.679 1219.92 111.901C1229.53 104.879 1241.06 107.872 1241.06 107.872C1245.62 108.382 1255.06 110.548 1258.28 120.45C1264.74 140.348 1242.97 162.792 1214.02 162.376C1209.05 162.305 1192.38 160.809 1184.22 150.522M772.608 72.5188C772.608 72.5188 817.452 54.3524 850.544 55.1589C863.904 55.4845 908.6 55.1589 948.642 83.6401C988.683 112.121 1075.27 184.813 1127.96 203.568C1166.42 217.258 1205.08 216.188 1236.66 207.215M772.608 72.5188V48.2173H821.746M772.608 72.5188C788.419 61.2475 805.124 53.4129 821.746 48.2173M772.608 72.5188C789.565 60.9898 809.947 52.9115 831.097 48.2173M1236.66 207.215C1238.93 206.572 1241.15 205.888 1243.34 205.167M1236.66 207.215C1227.31 210.498 1218.15 215.49 1209.53 222.354C1189.07 238.658 1185.04 263.318 1185.92 272.988C1185.92 287.228 1197.18 337.862 1245.5 341.554C1262.95 342.886 1275.24 338.71 1286.11 329.95M1236.66 207.215C1238.88 206.437 1241.11 205.755 1243.34 205.167M1243.34 205.167C1252.45 202.162 1260.89 198.497 1268.45 194.355C1303.19 175.335 1308.17 118.558 1293.61 99.2306C1279.04 79.9029 1257.99 74.9639 1248.9 74.659C1244.66 74.185 1236.78 74.2389 1227.7 75.7835M1243.34 205.167C1275.86 196.604 1309.73 207.917 1330.68 232.375C1344.97 249.058 1366 276.51 1382.72 315.664M1227.7 75.7835C1208.51 79.045 1183.98 88.9529 1177.1 114.571M1227.7 75.7835C1239.41 73.4592 1245.19 71.1384 1253.37 67.8543L1253.39 67.846M1227.7 75.7835C1226.51 75.9843 1225.31 76.2103 1224.1 76.4636M1227.7 75.7835C1226.55 76.0099 1225.36 76.2363 1224.1 76.4636M1177.1 114.571C1174.22 125.311 1174.95 133.882 1178.62 141.676M1177.1 114.571C1183.56 90.5301 1205.56 80.3246 1224.1 76.4636M1178.62 141.676C1180.05 144.715 1181.93 147.637 1184.22 150.522M1178.62 141.676C1178.2 142.085 1170.77 149.169 1160.1 152.734C1139.58 159.59 1107.14 159.063 1071.4 139.548M1178.62 141.676C1178.63 141.664 1178.64 141.657 1178.64 141.657M1184.22 150.522C1184.22 150.522 1174.4 156.974 1163.42 160.645C1142.89 167.501 1107.81 166.974 1080.69 153.788C1053.57 140.602 1027.22 117.839 999.237 97.353C977.839 81.6865 961.039 68.6083 942.966 58.3231C935.43 54.035 926.678 50.6578 917.101 48.2016M821.746 48.2173H831.097M935.552 48.2016C938.01 49.084 940.267 50.002 942.304 50.9394M935.552 48.2016H1075.98M935.552 48.2016H917.101M935.552 48.2016H1293.36M942.304 50.9394C957.836 58.0892 982.546 76.5655 1007.71 95.3798C1030.81 112.651 1054.29 130.207 1071.4 139.548M942.304 50.9394C972.094 64.6526 1035.65 120.033 1071.4 139.548M1224.1 76.4636C1160.61 87.9097 1125.51 76.289 1075.98 48.2016M1075.98 48.2016H1091.29M1075.98 48.2016H1293.36M1323.4 134.274C1325.51 135.52 1327.59 136.641 1329.58 137.645C1338.24 142.026 1346.31 144.173 1350.84 144.679C1360.19 146.657 1381.66 147.476 1401.44 128.075C1402.45 127.082 1405.44 124.486 1407.94 123.113M1323.4 134.274C1309.14 148.62 1321.87 182.973 1328.92 193.873C1338.54 210.362 1360.2 216.098 1381.87 221.839C1394.87 225.28 1407.87 228.723 1418.29 234.485C1446.09 249.859 1447.04 269.389 1447.04 269.389M1323.4 134.274C1317.84 130.993 1312.11 126.849 1307.51 121.711M1407.94 123.113C1407.94 158.556 1454.7 245.127 1454.7 245.127C1454.7 245.127 1484.11 301.027 1468.64 322.066C1457.35 337.427 1446.4 337.419 1436.18 336.234C1425.97 335.049 1403.26 322.865 1395.83 299.419C1386.84 271.051 1402.29 262.056 1411.11 260.282C1419.93 258.508 1432.07 259.087 1436.02 277.379C1439.97 295.67 1425.46 296.815 1418.29 289.431M1407.94 123.113C1408.44 122.838 1416.95 114.678 1416.95 114.678C1416.95 114.678 1420.52 110.594 1422.78 107.668M1418.29 289.431C1416.96 288.061 1415.82 286.873 1414.85 285.849C1410.55 281.349 1409.27 280.004 1407.46 280.299M1418.29 289.431C1411.11 282.047 1409.68 279.937 1407.46 280.299M1407.46 280.299C1405.25 280.66 1408.17 299.45 1408.17 299.45C1409.48 303.579 1413.12 312.124 1422.04 315.014C1439.96 320.821 1454.56 301.056 1448.62 274.845C1448.35 273.654 1447.84 271.723 1447.04 269.389M1447.04 269.389C1444.83 262.898 1438.36 253.034 1432.93 247.883M1432.93 247.883C1424.81 240.205 1415.47 238.184 1403.73 241.847C1374.06 251.109 1375.63 293.301 1382.72 315.664M1432.93 247.883C1426.22 239.758 1412.33 231.414 1400.41 228.776C1396.54 227.918 1393.01 227.34 1389.08 226.695C1380.93 225.358 1371.06 223.737 1352.75 218.755C1325.61 211.371 1312.4 194.752 1306.19 184.111C1290.8 157.739 1307.51 121.711 1307.51 121.711M1382.72 315.664C1383.9 318.431 1385.06 321.256 1386.19 324.14M1382.72 315.664C1383.63 318.532 1384.8 321.367 1386.19 324.14M1386.19 324.14C1395.69 342.985 1415.63 358.905 1434.66 362.123C1456.47 365.815 1477.87 360.858 1488.46 340.498C1493.76 330.317 1496.41 308.923 1491.11 288.645C1481.27 251 1397.73 144.838 1418.95 113.189L1422.78 107.668M1386.19 324.14C1400.99 361.734 1416.95 430.691 1448.62 415.143M1422.78 107.668L1424.45 105.25M1422.78 107.668C1423.56 106.646 1424.19 105.766 1424.45 105.25M1280.39 48.2016H1293.36M1280.39 48.2016C1273.95 51.2161 1267.41 54.2248 1260.73 56.8848C1250.14 61.1043 1243.23 63.0388 1227.63 65.8511C1169.67 76.3012 1134.66 70.5598 1091.29 48.2016M1280.39 48.2016H1091.29M1293.36 48.2016C1290.57 49.662 1287.78 51.15 1284.99 52.6344M1293.36 48.2016H1311.42M1284.99 52.6344C1275.24 57.8329 1265.56 62.9909 1256.1 66.7623M1284.99 52.6344L1284.99 52.6367L1284.99 52.6374M1284.99 52.6344C1284.99 52.6353 1284.99 52.6364 1284.99 52.6374M1256.1 66.7623C1255.19 67.1248 1254.31 67.4759 1253.46 67.8166M1256.1 66.7623C1265.56 62.9907 1275.23 57.8361 1284.99 52.6374M1253.46 67.8166L1253.39 67.846M1253.46 67.8166C1253.44 67.8259 1253.42 67.8352 1253.39 67.8446L1253.39 67.846M1253.39 67.846C1253.38 67.849 1253.38 67.8519 1253.37 67.8548M1417.5 48.2016C1420.4 65.1913 1415.78 77.7554 1411 89.0338C1404.76 103.742 1387.31 134.183 1359.81 131.109C1326.53 127.389 1318.88 94.9949 1321.42 80.5964C1323.95 66.1979 1330.52 48.2196 1351.06 53.4012C1371.61 58.5829 1361.15 87.7384 1354.61 82.8125L1350.75 79.234C1344.81 70.8799 1331.38 84.0602 1339.98 98.3056C1346.86 109.702 1359.81 108.911 1359.81 108.911C1364.65 109.453 1375.13 109.167 1382.46 97.4607C1392.1 82.0493 1389.89 62.0991 1378.89 48.2016M1417.5 48.2016H1378.89M1417.5 48.2016H1439.15C1441.27 66.2882 1436.67 85.6794 1424.45 105.25M1417.5 48.2016H1311.42M1378.89 48.2016H1311.42M1378.89 48.2016C1378.57 47.7958 1378.24 47.3952 1377.91 47M1311.42 48.2016C1303.47 57.4482 1298.25 68.5323 1296.68 83.7766C1294.57 104.314 1297.92 111 1307.51 121.711M917.101 48.2016L831.097 48.2173M1299.79 293.557C1296.28 262.841 1265.36 243.979 1241.53 254.528C1229.67 259.777 1228.29 275.097 1228.29 275.097C1228.29 275.097 1226.17 287.861 1236.24 296.722C1248.81 307.798 1258.74 303.051 1255.43 289.338C1252.12 275.625 1275.29 273.515 1279.93 293.557C1284.56 313.6 1264.04 320.984 1250.14 320.984C1236.24 320.984 1210.42 314.193 1210.42 280.372C1210.42 252.418 1223 231.275 1250.14 224.946C1277.28 218.617 1289.2 226.574 1299.79 232.375C1310.38 238.177 1333.1 256.083 1350.1 286.701C1359.86 304.285 1367.42 320.251 1375.26 346.3C1385.5 380.305 1411.11 438.716 1448.62 415.143M1299.79 293.557C1300.28 297.878 1300.68 310.692 1294.4 320.984M1299.79 293.557C1300.29 297.925 1300.69 310.974 1294.19 321.321M1294.4 320.984C1294.4 320.984 1312.76 345.773 1318.33 355.794C1323.89 365.815 1395.83 467.609 1448.62 415.143M1294.4 320.984C1294.33 321.097 1294.26 321.209 1294.19 321.321M1448.62 415.143C1395.83 480.847 1304.42 355.794 1286.11 329.95M1286.11 329.95C1287.15 329.113 1288.18 328.233 1289.2 327.313C1291.2 325.5 1292.84 323.469 1294.19 321.321M772.393 72.5188C772.393 72.5188 724.109 51.0549 690.202 49.0255C647.217 46.4528 608.654 65.1169 580.85 85.982C553.045 106.847 496.923 145.877 496.923 145.877C496.923 145.877 449.338 179.94 418.657 190.881C396.931 198.628 379.215 198.739 355.897 198.809C332.579 198.878 290.781 186.604 278.802 174.24C262.071 156.973 261.921 143.81 263.259 131.923C264.597 120.037 278.11 96.057 304.008 93.162C335.343 89.6592 345.225 110.374 347.157 121.344C349.089 132.314 348.415 146.645 328.215 146.705C308.016 146.765 308.942 123.559 316.335 125.928L320.903 127.815C328.756 132.796 337.085 120.679 325.076 111.901C315.468 104.879 303.937 107.872 303.937 107.872C299.377 108.382 289.936 110.548 286.72 120.45C280.259 140.348 302.03 162.792 330.975 162.376C335.946 162.305 352.624 160.809 360.778 150.522M772.393 72.5188C772.393 72.5188 727.548 54.3524 694.456 55.1589C681.096 55.4845 636.4 55.1589 596.358 83.6401C556.317 112.121 469.734 184.813 417.043 203.568C378.583 217.258 339.924 216.188 308.337 207.215M772.393 72.5188V48.2173H723.254M772.393 72.5188C756.581 61.2475 739.876 53.4129 723.254 48.2173M772.393 72.5188C755.435 60.9898 735.053 52.9115 713.903 48.2173M308.337 207.215C306.074 206.572 303.846 205.888 301.658 205.167M308.337 207.215C317.691 210.498 326.85 215.49 335.466 222.354C355.93 238.658 359.959 263.318 359.076 272.988C359.076 287.228 347.822 337.862 299.496 341.554C282.052 342.886 269.758 338.71 258.885 329.95M308.337 207.215C306.12 206.437 303.892 205.755 301.658 205.167M301.658 205.167C292.547 202.162 284.113 198.497 276.547 194.355C241.806 175.335 236.827 118.558 251.391 99.2306C265.955 79.9029 287.014 74.9639 296.095 74.659C300.335 74.185 308.22 74.2389 317.304 75.7835M301.658 205.167C269.137 196.604 235.272 207.917 214.318 232.375C200.026 249.058 179.004 276.51 162.281 315.664M317.304 75.7835C318.428 75.9746 319.571 76.1886 320.727 76.4271M317.304 75.7835C287.05 68.8804 268.387 57.9377 257.363 51.4737C255.159 50.1812 253.26 49.0678 251.635 48.2016M317.304 75.7835C318.392 75.9993 319.531 76.2105 320.727 76.4271M320.727 76.4271C320.785 76.4392 320.844 76.4514 320.903 76.4636M320.727 76.4271L320.903 76.4636M320.727 76.4271C320.786 76.4378 320.844 76.453 320.903 76.4636M320.903 76.4636C339.441 80.3246 361.444 90.5301 367.899 114.571C370.783 125.311 370.052 133.882 366.378 141.676M320.903 76.4636C384.389 87.9097 419.487 76.289 469.018 48.2016M366.378 141.676C364.945 144.715 363.065 147.637 360.778 150.522M366.378 141.676C366.801 142.085 374.227 149.169 384.895 152.734C405.417 159.59 437.856 159.063 473.604 139.548M366.378 141.676C366.365 141.664 366.359 141.657 366.359 141.657M360.778 150.522C360.778 150.522 370.597 156.974 381.585 160.645C402.107 167.501 437.194 166.974 464.313 153.788C491.433 140.602 517.783 117.839 545.763 97.353C567.161 81.6865 583.961 68.6083 602.034 58.3231C609.57 54.035 618.322 50.6578 627.899 48.2016M723.254 48.2173H713.903M609.448 48.2016C606.99 49.084 604.733 50.002 602.696 50.9394M609.448 48.2016H469.018M609.448 48.2016H627.899M602.696 50.9394C587.164 58.0892 562.454 76.5655 537.292 95.3798C514.194 112.651 490.714 130.207 473.604 139.548M602.696 50.9394C572.906 64.6526 509.353 120.033 473.604 139.548M469.018 48.2016H453.714M97.9561 269.389C97.161 271.723 96.6496 273.654 96.3798 274.845C90.4399 301.056 105.041 320.821 122.962 315.014C131.881 312.124 135.52 303.579 136.828 299.45C136.828 299.45 139.753 280.66 137.536 280.299C135.729 280.004 134.446 281.349 130.154 285.849C129.177 286.874 128.043 288.062 126.712 289.431C119.536 296.815 105.026 295.67 108.978 277.379C112.931 259.087 125.07 258.508 133.889 260.282C142.708 262.056 158.157 271.051 149.169 299.419C141.739 322.865 119.035 335.049 108.816 336.234C98.5975 337.419 87.6531 337.427 76.3586 322.066C60.8901 301.027 90.3014 245.127 90.3014 245.127C90.3014 245.127 137.06 158.556 137.06 123.113M97.9561 269.389C100.167 262.898 106.641 253.034 112.07 247.883M97.9561 269.389C97.9561 269.389 98.9067 249.859 126.711 234.485C137.131 228.724 150.132 225.28 163.125 221.839C184.803 216.098 206.461 210.362 216.082 193.873C223.128 182.973 235.862 148.62 221.6 134.274M112.07 247.883C120.192 240.205 129.534 238.184 141.269 241.847C170.944 251.109 169.367 293.301 162.281 315.664M112.07 247.883C118.777 239.758 132.67 231.414 144.587 228.776C148.464 227.918 151.99 227.339 155.919 226.695L155.937 226.692C156.95 226.525 157.989 226.355 159.068 226.174C166.666 224.9 176.229 223.114 192.251 218.755C219.393 211.371 232.603 194.752 238.813 184.111C254.201 157.739 237.49 121.711 237.49 121.711M162.281 315.664C161.1 318.431 159.94 321.256 158.805 324.14M162.281 315.664C161.373 318.532 160.202 321.367 158.805 324.14M158.805 324.14C149.309 342.985 129.366 358.905 110.345 362.123C88.5258 365.815 67.1301 360.858 56.5383 340.498C51.2413 330.317 48.587 308.923 53.89 288.645C63.7341 251 147.269 144.838 126.052 113.189L122.224 107.668M158.805 324.14C144.012 361.734 128.053 430.691 96.3798 415.143M122.224 107.668C124.482 110.594 128.053 114.678 128.053 114.678C128.053 114.678 136.559 122.838 137.06 123.113M122.224 107.668L120.548 105.25M122.224 107.668C121.436 106.646 120.808 105.766 120.548 105.25M137.06 123.113C139.561 124.486 142.553 127.082 143.564 128.075C163.336 147.476 184.806 146.657 194.158 144.679C198.691 144.173 206.758 142.026 215.421 137.645C217.407 136.641 219.49 135.52 221.6 134.274M453.714 48.2016C410.344 70.5598 375.332 76.3012 317.37 65.8511C301.772 63.0388 294.862 61.1043 284.27 56.8848C277.592 54.2248 271.054 51.2161 264.609 48.2016M453.714 48.2016H264.609M264.609 48.2016H251.635M251.635 48.2016H233.578M127.497 48.2016C124.596 65.1913 129.222 77.7554 134.002 89.0338C140.235 103.742 157.694 134.183 185.194 131.109C218.467 127.389 226.117 94.9949 223.581 80.5964C221.046 66.1979 214.484 48.2196 193.937 53.4012C173.389 58.5829 183.847 87.7384 190.386 82.8125L194.253 79.234C200.189 70.8799 213.621 84.0602 205.019 98.3056C198.137 109.702 185.194 108.911 185.194 108.911C180.352 109.453 169.871 109.167 162.543 97.4607C152.896 82.0493 155.114 62.0991 166.108 48.2016M127.497 48.2016H166.108M127.497 48.2016H105.847C103.734 66.2882 108.329 85.6794 120.548 105.25M127.497 48.2016H233.578M166.108 48.2016H233.578M166.108 48.2016C166.429 47.7958 166.758 47.3952 167.094 47M233.578 48.2016C241.531 57.4482 246.751 68.5323 248.317 83.7766C250.426 104.314 247.076 111 237.49 121.711M237.49 121.711C232.891 126.849 227.155 130.993 221.6 134.274M627.899 48.2016L713.903 48.2173M245.211 293.557C248.716 262.841 279.635 243.979 303.467 254.528C315.328 259.777 316.708 275.097 316.708 275.097C316.708 275.097 318.826 287.861 308.764 296.722C296.185 307.798 286.255 303.051 289.565 289.338C292.876 275.625 269.705 273.515 265.071 293.557C260.437 313.6 280.959 320.984 294.862 320.984C308.764 320.984 334.582 314.193 334.582 280.372C334.582 252.418 322.004 231.275 294.862 224.946C267.719 218.617 255.803 226.574 245.211 232.375C234.619 238.177 211.897 256.083 194.898 286.701C185.135 304.285 177.585 320.251 169.742 346.3C159.504 380.305 133.889 438.716 96.3798 415.143M245.211 293.557C244.718 297.878 244.322 310.692 250.599 320.984M245.211 293.557C244.712 297.925 244.313 310.974 250.807 321.321M250.599 320.984C250.599 320.984 232.236 345.773 226.675 355.794C221.113 365.815 149.169 467.609 96.3798 415.143M250.599 320.984C250.668 321.097 250.737 321.209 250.807 321.321M96.3798 415.143C149.169 480.847 240.577 355.794 258.885 329.95M258.885 329.95C257.846 329.113 256.819 328.233 255.803 327.313C253.8 325.5 252.155 323.469 250.807 321.321" stroke="#BEB397" stroke-width="2" stroke-linecap="round" stroke-linejoin="round"/>
</g>
<defs>
<filter id="filter0_d_264_105" x="0" y="0" width="1545" height="489" filterUnits="userSpaceOnUse" color-interpolation-filters="sRGB">
<feFlood flood-opacity="0" result="BackgroundImageFix"/>
<feColorMatrix in="SourceAlpha" type="matrix" values="0 0 0 0 0 0 0 0 0 0 0 0 0 0 0 0 0 0 127 0" result="hardAlpha"/>
<feOffset dy="4"/>
<feGaussianBlur stdDeviation="25"/>
<feComposite in2="hardAlpha" operator="out"/>
<feColorMatrix type="matrix" values="0 0 0 0 0.0545265 0 0 0 0 0.0636892 0 0 0 0 0.146154 0 0 0 0.45 0"/>
<feBlend mode="normal" in2="BackgroundImageFix" result="effect1_dropShadow_264_105"/>
<feBlend mode="normal" in="SourceGraphic" in2="effect1_dropShadow_264_105" result="shape"/>
</filter>
</defs>
</svg>
