<svg width="146" height="275" viewBox="0 0 146 275" fill="none" xmlns="http://www.w3.org/2000/svg">
<path d="M101.814 261.872C96.6165 261.578 84.5368 262.532 82.6406 263.633C77.7062 265.352 73.0006 270.012 73 272.61C72.9998 273.34 73.3711 273.907 74.213 274.2C76.1092 274.861 78.2648 271.673 80.9551 270.237C97.0583 261.643 114.508 267.115 123.725 260.331C129.622 255.991 134.991 244.283 142.266 249.984C142.949 250.519 142.911 251.278 142.688 251.745C142.477 252.186 141.833 252.535 141.213 252.406C140.159 252.186 140.541 250.29 140.159 250.424C139.527 251.525 139.612 252.265 139.738 252.626C140.581 255.047 144.584 254.387 145.598 252.626C146.966 250.25 144.611 248.143 142.016 247.562C137.926 246.647 134.99 248.158 132.591 250.179C130.66 251.805 129.076 253.761 127.518 255.047C119.391 261.757 107.011 262.165 101.814 261.872Z" fill="#D7CDB7"/>
<path d="M63.3594 263.633C61.4631 262.532 49.3835 261.578 44.1865 261.872C38.9894 262.165 26.6086 261.757 18.4822 255.047C16.9235 253.761 15.3399 251.805 13.4091 250.179C11.0097 248.158 8.07409 246.647 3.98364 247.562C1.38899 248.143 -0.966038 250.25 0.402008 252.626C1.41621 254.387 5.41933 255.047 6.26209 252.626C6.38764 252.265 6.47278 251.525 5.84071 250.424C5.45851 250.29 5.84071 252.186 4.78725 252.406C4.16746 252.535 3.52311 252.186 3.31242 251.745C3.08858 251.278 3.05088 250.519 3.7338 249.984C11.0092 244.283 16.378 255.991 22.2746 260.331C31.4924 267.115 48.9418 261.643 65.0449 270.237C67.7352 271.673 69.8908 274.861 71.787 274.2C72.6289 273.907 73.0002 273.34 73 272.61C72.9994 270.012 68.2938 265.352 63.3594 263.633Z" fill="#D7CDB7"/>
<path d="M82.6406 214.945C84.5368 216.046 96.6165 217 101.814 216.706C107.011 216.413 119.391 216.821 127.518 223.531C128.766 224.561 130.031 226.021 131.477 227.397C134.079 229.873 137.271 232.077 142.016 231.016C144.611 230.435 146.966 228.328 145.598 225.952C144.584 224.191 140.581 223.531 139.738 225.952C139.612 226.313 139.527 227.053 140.159 228.154C140.541 228.288 140.159 226.393 141.213 226.172C141.833 226.043 142.477 226.393 142.688 226.833C142.911 227.301 142.949 228.059 142.266 228.594C134.991 234.295 129.622 222.587 123.725 218.247C114.508 211.463 97.0583 216.935 80.9551 208.341C78.2648 206.905 76.1092 203.718 74.213 204.378C73.3711 204.671 72.9998 205.238 73 205.968C73.0006 208.566 77.7062 213.226 82.6406 214.945Z" fill="#D7CDB7"/>
<path d="M44.1865 216.706C49.3835 217 61.4631 216.046 63.3594 214.945C68.2938 213.226 72.9994 208.566 73 205.968C73.0002 205.238 72.6289 204.671 71.787 204.378C69.8908 203.718 67.7352 206.905 65.0449 208.341C48.9418 216.935 31.4924 211.463 22.2746 218.247C16.378 222.587 11.0092 234.295 3.7338 228.594C3.05088 228.059 3.08858 227.301 3.31242 226.833C3.52311 226.393 4.16746 226.043 4.78725 226.172C5.84071 226.393 5.45851 228.288 5.84071 228.154C6.47278 227.053 6.38764 226.313 6.26209 225.952C5.41933 223.531 1.41621 224.191 0.402008 225.952C-0.966038 228.328 1.38899 230.435 3.98364 231.016C8.7293 232.077 11.9205 229.873 14.5234 227.397C15.9694 226.021 17.2338 224.561 18.4822 223.531C26.6086 216.821 38.9894 216.413 44.1865 216.706Z" fill="#D7CDB7"/>
<path d="M44.1865 261.872C49.3835 261.578 61.4631 262.532 63.3594 263.633C68.2938 265.352 72.9994 270.012 73 272.61C73.0006 270.012 77.7062 265.352 82.6406 263.633C84.5368 262.532 96.6165 261.578 101.814 261.872C107.011 262.165 119.391 261.757 127.518 255.047C129.076 253.761 130.66 251.805 132.591 250.179C133.019 249.465 135.331 245.33 135.331 239.289C135.331 233.183 132.025 228.184 131.477 227.397C130.031 226.021 128.766 224.561 127.518 223.531C119.391 216.821 107.011 216.413 101.814 216.706C96.6165 217 84.5368 216.046 82.6406 214.945C77.7062 213.226 73.0006 208.566 73 205.968C72.9994 208.566 68.2938 213.226 63.3594 214.945C61.4631 216.046 49.3835 217 44.1865 216.706C38.9894 216.413 26.6086 216.821 18.4822 223.531C17.2338 224.561 15.9694 226.021 14.5234 227.397C13.975 228.184 10.6692 233.183 10.6692 239.289C10.6693 245.33 12.9808 249.465 13.4091 250.179C15.3399 251.805 16.9235 253.761 18.4822 255.047C26.6086 261.757 38.9894 262.165 44.1865 261.872Z" fill="#5D4966"/>
<path d="M58.18 236.149C58.2867 236.096 58.42 236.049 58.58 236.009C58.74 235.969 58.9067 235.949 59.08 235.949C59.3467 235.949 59.5667 235.996 59.74 236.089C59.9267 236.169 60.0467 236.296 60.1 236.469C60.4333 237.429 60.7333 238.322 61 239.149C61.28 239.962 61.54 240.756 61.78 241.529C62.0333 242.289 62.2867 243.076 62.54 243.889H62.62C62.8733 242.689 63.12 241.522 63.36 240.389C63.6 239.242 63.8333 238.082 64.06 236.909C64.2867 235.736 64.4933 234.482 64.68 233.149C64.8667 233.056 65.0933 233.009 65.36 233.009C65.6133 233.009 65.8133 233.069 65.96 233.189C66.1067 233.296 66.18 233.462 66.18 233.689C66.18 233.942 66.14 234.329 66.06 234.849C65.9933 235.356 65.8933 235.956 65.76 236.649C65.64 237.329 65.4933 238.056 65.32 238.829C65.16 239.589 64.9867 240.356 64.8 241.129C64.6133 241.889 64.4267 242.609 64.24 243.289C64.0533 243.969 63.8733 244.562 63.7 245.069C63.58 245.136 63.4267 245.202 63.24 245.269C63.0533 245.322 62.84 245.349 62.6 245.349C62.3067 245.349 62.06 245.302 61.86 245.209C61.66 245.116 61.5267 244.989 61.46 244.829C61.2733 244.362 61.0467 243.749 60.78 242.989C60.5133 242.216 60.2333 241.376 59.94 240.469C59.66 239.549 59.3867 238.642 59.12 237.749C58.8667 238.629 58.5933 239.542 58.3 240.489C58.0067 241.436 57.72 242.316 57.44 243.129C57.1733 243.942 56.9333 244.596 56.72 245.089C56.6267 245.142 56.48 245.202 56.28 245.269C56.0933 245.322 55.88 245.349 55.64 245.349C55.3467 245.349 55.1 245.302 54.9 245.209C54.7133 245.102 54.5867 244.976 54.52 244.829C54.3867 244.496 54.22 243.996 54.02 243.329C53.8333 242.662 53.6333 241.902 53.42 241.049C53.2067 240.182 52.9933 239.289 52.78 238.369C52.58 237.436 52.3867 236.542 52.2 235.689C52.0267 234.822 51.8867 234.056 51.78 233.389C51.8733 233.296 52 233.209 52.16 233.129C52.32 233.049 52.4933 233.009 52.68 233.009C52.92 233.009 53.1067 233.069 53.24 233.189C53.3733 233.296 53.4667 233.482 53.52 233.749C53.6933 234.589 53.86 235.402 54.02 236.189C54.18 236.976 54.34 237.769 54.5 238.569C54.6733 239.369 54.8533 240.209 55.04 241.089C55.2267 241.956 55.4333 242.889 55.66 243.889H55.74C55.9267 243.289 56.1067 242.716 56.28 242.169C56.4533 241.622 56.6333 241.062 56.82 240.489C57.0067 239.902 57.2067 239.262 57.42 238.569C57.6467 237.876 57.9 237.069 58.18 236.149ZM76.9394 240.669C76.9394 241.656 76.7527 242.516 76.3794 243.249C76.006 243.982 75.4794 244.549 74.7994 244.949C74.1194 245.349 73.3194 245.549 72.3994 245.549C71.4794 245.549 70.6727 245.349 69.9794 244.949C69.2994 244.549 68.7727 243.982 68.3994 243.249C68.026 242.516 67.8394 241.656 67.8394 240.669C67.8394 239.669 68.026 238.809 68.3994 238.089C68.786 237.356 69.3194 236.789 69.9994 236.389C70.6927 235.989 71.4927 235.789 72.3994 235.789C73.306 235.789 74.0994 235.989 74.7794 236.389C75.4594 236.789 75.986 237.356 76.3594 238.089C76.746 238.809 76.9394 239.669 76.9394 240.669ZM72.3994 237.109C71.506 237.109 70.7927 237.429 70.2594 238.069C69.7394 238.696 69.4794 239.562 69.4794 240.669C69.4794 241.789 69.7327 242.662 70.2394 243.289C70.7594 243.916 71.4794 244.229 72.3994 244.229C73.306 244.229 74.0127 243.916 74.5194 243.289C75.0394 242.649 75.2994 241.776 75.2994 240.669C75.2994 239.562 75.0394 238.696 74.5194 238.069C74.0127 237.429 73.306 237.109 72.3994 237.109ZM81.0141 237.769V240.929H79.4141V237.889C79.4141 237.582 79.4674 237.342 79.5741 237.169C79.6941 236.982 79.8874 236.802 80.1541 236.629C80.5007 236.402 80.9741 236.209 81.5741 236.049C82.1741 235.876 82.8407 235.789 83.5741 235.789C84.6407 235.789 85.1741 236.056 85.1741 236.589C85.1741 236.722 85.1541 236.849 85.1141 236.969C85.0741 237.076 85.0207 237.169 84.9541 237.249C84.8207 237.222 84.6474 237.196 84.4341 237.169C84.2207 237.142 84.0074 237.129 83.7941 237.129C83.1807 237.129 82.6407 237.196 82.1741 237.329C81.7074 237.449 81.3207 237.596 81.0141 237.769ZM79.4141 240.009L81.0141 240.249V245.249C80.9474 245.276 80.8474 245.302 80.7141 245.329C80.5807 245.369 80.4341 245.389 80.2741 245.389C79.9941 245.389 79.7807 245.336 79.6341 245.229C79.4874 245.109 79.4141 244.922 79.4141 244.669V240.009ZM89.5108 241.069L88.5108 240.289L93.0708 235.869C93.3908 235.882 93.6374 235.962 93.8108 236.109C93.9974 236.242 94.0908 236.422 94.0908 236.649C94.0908 236.836 94.0308 237.002 93.9108 237.149C93.8041 237.296 93.6441 237.456 93.4308 237.629L89.5108 241.069ZM88.4708 240.549L89.5908 239.889L94.6708 244.449C94.6441 244.742 94.5508 244.976 94.3908 245.149C94.2441 245.322 94.0441 245.409 93.7908 245.409C93.5908 245.409 93.4041 245.356 93.2308 245.249C93.0708 245.142 92.9041 245.002 92.7308 244.829L88.4708 240.549ZM87.0908 239.929L88.6908 240.169V245.249C88.6241 245.276 88.5241 245.302 88.3908 245.329C88.2574 245.369 88.1108 245.389 87.9508 245.389C87.6708 245.389 87.4574 245.336 87.3108 245.229C87.1641 245.109 87.0908 244.922 87.0908 244.669V239.929ZM88.6908 240.949L87.0908 240.709V232.329C87.1574 232.302 87.2574 232.276 87.3908 232.249C87.5374 232.209 87.6908 232.189 87.8508 232.189C88.1308 232.189 88.3374 232.249 88.4708 232.369C88.6174 232.476 88.6908 232.656 88.6908 232.909V240.949Z" fill="#EDE4D0"/>
<path d="M49.788 2.38032C49.4776 1.03495 48.107 -0.0305314 46.7266 0.000483697C45.3462 0.0314987 44.4789 1.14726 44.7893 2.49263L47.2887 2.43648L49.788 2.38032ZM70.6087 203.317C69.5477 203.991 69.4463 205.482 70.3823 206.646C71.3183 207.811 72.9371 208.209 73.9981 207.534L72.3034 205.426L70.6087 203.317ZM47.2887 2.43648L44.7893 2.49263C47.2067 12.9692 44.2691 21.705 39.2905 29.937C36.7988 34.0569 33.8372 37.9854 30.8364 41.9242C27.8572 45.8344 24.8271 49.77 22.3176 53.7934C17.3067 61.8271 14.076 70.6594 17.5748 81.267C21.0454 91.7894 30.9126 103.364 50.2536 117.166L51.5128 115.322L52.7721 113.477C33.8206 99.953 25.3162 89.4001 22.4434 80.6903C19.5988 72.0657 22.0527 64.5615 26.8618 56.8514C29.2621 53.003 32.1757 49.2148 35.1875 45.2618C38.1775 41.3372 41.254 37.2627 43.861 32.9521C49.0797 24.3231 52.5817 14.4878 49.788 2.38032L47.2887 2.43648ZM51.5128 115.322L50.2536 117.166C69.1214 130.631 79.556 142.715 84.7959 153.13C90.0101 163.493 90.2008 172.44 88.1405 179.83C86.0663 187.27 81.6985 193.152 77.7876 197.202C75.8399 199.219 74.0259 200.761 72.7051 201.794C72.0453 202.31 71.5103 202.697 71.1454 202.953C70.963 203.08 70.8233 203.175 70.7319 203.236C70.6862 203.266 70.6526 203.288 70.6318 203.302C70.6214 203.309 70.6143 203.313 70.6104 203.316C70.6084 203.317 70.6073 203.318 70.607 203.318C70.6069 203.318 70.6073 203.318 70.6072 203.318C70.6078 203.317 70.6087 203.317 72.3034 205.426C73.9981 207.534 73.9994 207.534 74.0009 207.533C74.0016 207.532 74.0033 207.531 74.0049 207.53C74.008 207.528 74.0119 207.526 74.0167 207.523C74.0263 207.516 74.0391 207.508 74.0553 207.498C74.0876 207.477 74.1328 207.447 74.1904 207.409C74.3055 207.332 74.4697 207.221 74.6772 207.075C75.0922 206.785 75.6811 206.358 76.3974 205.798C77.8287 204.678 79.7753 203.023 81.8617 200.863C86.0189 196.557 90.8133 190.161 93.1145 181.907C95.4297 173.603 95.2093 163.439 89.3454 151.784C83.5073 140.181 72.1968 127.339 52.7721 113.477L51.5128 115.322Z" fill="#D7CDB7"/>
</svg>
